<?xml version="1.0" encoding="utf-8"?>
<!-- Generator: Adobe Illustrator 26.4.1, SVG Export Plug-In . SVG Version: 6.00 Build 0)  -->
<svg version="1.1" id="レイヤー_1" xmlns="http://www.w3.org/2000/svg" xmlns:xlink="http://www.w3.org/1999/xlink" x="0px"
	 y="0px" viewBox="0 0 40 40" style="enable-background:new 0 0 40 40;" xml:space="preserve">
<style type="text/css">
	.st0{fill:#231815;}
	.st1{fill:#FDE9C2;}
	.st2{fill:#6A3906;}
	.st3{fill:#B28146;}
	.st4{fill:#F9C55C;}
	.st5{fill:#FFFFFF;}
</style>
<g>
	<g>
		<path class="st0" d="M34.87,27.92c-0.2,0.63-0.41,1.26-0.59,1.89c-0.29,1-0.8,1.9-1.37,2.76c-0.9,1.34-1.93,2.56-3.37,3.33
			c-0.77,0.42-1.61,0.72-2.42,1.07c-1.2,0.52-2.42,0.97-3.69,1.22c-2.65,0.53-5.32,0.7-7.95-0.02c-2.08-0.58-4.12-1.3-5.94-2.53
			c-1.32-0.9-2.29-2.07-3.07-3.42c-0.12-0.21-0.23-0.43-0.36-0.64c-0.02-0.04-0.07-0.07-0.17-0.16c-1.08,0.37-2.22,0.82-3.38,0.05
			c-0.91-0.6-1.61-1.34-2.02-2.36c-0.66-1.67-0.11-3.06,1.96-4.77c-0.83-2.68-0.55-5.42,0.05-8.23c-0.35,0.11-0.58,0.18-0.79,0.24
			c-0.34-0.21-0.38-0.49-0.35-0.84c0.1-1.06,0.63-1.95,1.05-2.89c0.3-0.67,0.64-1.33,1.07-1.93c0.55-0.78,1.16-1.53,1.83-2.2
			c0.63-0.64,1.37-1.18,2.08-1.75c1.1-0.88,2.27-1.63,3.55-2.22c0.82-0.38,1.61-0.83,2.38-1.23c0.01-0.1,0.03-0.16,0.01-0.2
			C13,2.25,13.03,2.09,13.89,1.87c0.85-0.22,1.73-0.32,2.6-0.44c2.16-0.29,4.24,0.15,6.3,0.75c0.52,0.15,1.05,0.24,1.57,0.38
			c1.95,0.52,3.76,1.36,5.28,2.67c0.88,0.76,1.85,1.26,2.87,1.73c2.13,0.99,3.51,2.71,4.56,4.74c0.25,0.48,0.22,0.5-0.4,1.1
			c0.43,1.42,0.68,2.92,0.68,4.44c0,1.51-0.38,2.95-0.92,4.45c0.38,0.08,0.65,0.14,0.93,0.2c1.44,0.33,2.29,1.34,2.37,2.81
			c0.05,0.79-0.29,1.45-0.79,2c-0.43,0.47-0.92,0.89-1.44,1.25C36.77,28.48,36.04,28.77,34.87,27.92z M19.37,11.4
			c-0.33,0.12-0.58,0.2-0.82,0.3c-0.8,0.31-1.6,0.63-2.4,0.93c-1.52,0.58-3,1.22-4.38,2.09c-1.74,1.11-3.29,2.41-4.36,4.21
			c-0.69,1.17-1.14,2.44-1.47,3.76c-0.32,1.29-0.65,2.56-0.41,3.91c0.17,0.97,0.22,1.97,0.55,2.89c0.39,1.1,0.95,2.16,1.56,3.16
			c0.51,0.83,1.19,1.53,2.03,2.1c1.5,1.02,3.11,1.75,4.84,2.29c2.6,0.81,5.21,0.85,7.86,0.44c2.04-0.31,3.91-1.14,5.78-1.93
			c1.22-0.51,2.26-1.28,3.08-2.34c0.45-0.58,0.87-1.19,1.27-1.81c0.6-0.94,1.02-1.96,1.3-3.03c0.56-2.09,0.78-4.21,0.39-6.35
			c-0.19-1.06-0.45-2.1-1.29-2.91c-1.17-1.11-2.08-2.41-2.77-3.88c-0.3-0.64-0.62-1.26-0.95-1.93c-0.12,0.11-0.24,0.19-0.33,0.3
			c-0.61,0.71-1.19,1.44-1.82,2.13c-0.33,0.35-0.72,0.67-1.13,0.92c-0.52,0.31-0.83,0.1-0.85-0.52c-0.01-0.39,0.04-0.78,0.08-1.17
			c0.07-0.67,0.16-1.34,0.25-2.1c-0.2,0.08-0.29,0.1-0.37,0.15c-1.61,1.04-3.33,1.9-5.1,2.64c-0.7,0.29-1.42,0.55-2.16,0.71
			c-0.62,0.13-0.91-0.27-0.76-0.89c0.05-0.19,0.11-0.38,0.21-0.55c0.3-0.5,0.63-1,0.95-1.49C18.57,12.79,19.07,12.21,19.37,11.4z
			 M25.89,15.46c0.05,0.02,0.1,0.03,0.14,0.05c0.08-0.06,0.16-0.11,0.22-0.18c0.83-0.97,1.66-1.94,2.48-2.92
			c0.17-0.21,0.31-0.45,0.65-0.39c0.37,0.06,0.43,0.32,0.52,0.62c0.66,2.35,1.94,4.34,3.62,6.07c0.63,0.64,1.09,1.31,1.27,2.19
			c0.08,0.37,0.22,0.72,0.33,1.09c0.05,0,0.11,0,0.16,0c0.11-0.21,0.24-0.41,0.33-0.63c0.79-2.02,1.17-4.11,0.83-6.28
			c-0.12-0.77-0.33-1.54-0.51-2.3c-0.1-0.45-0.17-0.87,0.39-1.12c-0.28-0.42-0.5-0.8-0.76-1.15c-0.87-1.18-1.91-2.18-3.26-2.81
			c-1.04-0.49-2.05-0.95-2.92-1.78c-1.17-1.13-2.66-1.84-4.21-2.36c-1.28-0.43-2.58-0.81-3.89-1.12c-1.99-0.46-4.02-0.68-6.07-0.35
			c-0.45,0.07-0.88,0.21-1.32,0.32c-0.01,0.06-0.02,0.12-0.03,0.19c0.36,0.24,0.71,0.49,1.21,0.83c-0.41,0.18-0.65,0.31-0.91,0.4
			C13.65,4,13.13,4.14,12.62,4.34c-2.24,0.89-4.22,2.2-6.02,3.79C6.13,8.55,5.67,9,5.26,9.49c-1.05,1.28-1.83,2.73-2.56,4.21
			c-0.21,0.42-0.41,0.86-0.35,1.43c0.24-0.1,0.4-0.2,0.59-0.25c0.4-0.11,0.67,0.14,0.6,0.55c-0.04,0.24-0.1,0.48-0.17,0.72
			c-0.51,1.9-0.57,3.83-0.49,5.78c0.02,0.51,0.1,1.03,0.21,1.53c0.23,1,0.44,1.15,1.48,1.26c0.29-1.04,0.63-2.06,0.85-3.11
			c0.41-1.94,1.52-3.47,2.74-4.94c0.34-0.41,0.8-0.71,1.2-1.07c1.76-1.59,3.8-2.68,6-3.51c1.66-0.62,3.3-1.26,4.86-2.12
			c0.06-0.04,0.12-0.08,0.19-0.12c0.26-0.15,0.51-0.07,0.64,0.15c0.07,0.12,0.03,0.37-0.04,0.52c-0.21,0.39-0.45,0.76-0.7,1.13
			c-0.67,1-1.35,1.98-2.02,2.98c-0.18,0.27-0.43,0.52-0.48,0.87c0.09,0.03,0.14,0.06,0.18,0.05c0.14-0.04,0.29-0.07,0.42-0.14
			c2.47-1.15,5.02-2.15,7.17-3.89c0.22-0.18,0.46-0.28,0.73-0.07c0.28,0.21,0.19,0.45,0.1,0.72C26.07,13.23,26.02,14.35,25.89,15.46
			z M5.49,30.49c-0.22-1.05-0.42-1.98-0.6-2.92c-0.08-0.41-0.09-0.83-0.17-1.24c-0.1-0.47-0.31-0.88-0.79-1.06
			c-0.2,0.15-0.39,0.28-0.59,0.43c-0.22-0.15-0.39-0.28-0.58-0.41c-0.14,0.09-0.28,0.15-0.38,0.25C2.16,25.76,1.94,26,1.75,26.25
			c-1.1,1.47-0.7,3.25,0.57,4.26c0.74,0.59,1.55,0.7,2.42,0.36C5.01,30.76,5.26,30.61,5.49,30.49z M35.04,27.2
			c0.87,0.6,1.55,0.26,2.2-0.26c0.29-0.23,0.57-0.47,0.81-0.74c0.56-0.63,0.85-1.32,0.63-2.22c-0.18-0.74-0.64-1.1-1.29-1.23
			c-0.62-0.13-1.23-0.16-1.72,0.46c-0.35,0.43-0.51,0.83-0.51,1.38C35.18,25.47,35.09,26.34,35.04,27.2z"/>
		<path class="st1" d="M19.37,11.4c-0.3,0.81-0.8,1.39-1.21,2.02c-0.32,0.49-0.64,0.99-0.95,1.49c-0.1,0.17-0.16,0.36-0.21,0.55
			c-0.15,0.62,0.14,1.02,0.76,0.89c0.74-0.16,1.46-0.42,2.16-0.71c1.77-0.74,3.48-1.59,5.1-2.64c0.08-0.05,0.17-0.07,0.37-0.15
			c-0.09,0.76-0.18,1.42-0.25,2.1c-0.04,0.39-0.09,0.78-0.08,1.17c0.01,0.62,0.33,0.83,0.85,0.52c0.41-0.25,0.8-0.56,1.13-0.92
			c0.63-0.68,1.22-1.42,1.82-2.13c0.09-0.11,0.21-0.19,0.33-0.3c0.33,0.67,0.65,1.29,0.95,1.93c0.68,1.46,1.6,2.77,2.77,3.88
			c0.85,0.81,1.1,1.85,1.29,2.91c0.39,2.14,0.17,4.26-0.39,6.35c-0.29,1.08-0.7,2.1-1.3,3.03c-0.4,0.62-0.82,1.23-1.27,1.81
			c-0.81,1.05-1.86,1.82-3.08,2.34c-1.88,0.79-3.74,1.62-5.78,1.93c-2.65,0.41-5.27,0.37-7.86-0.44c-1.73-0.54-3.34-1.27-4.84-2.29
			c-0.84-0.57-1.52-1.27-2.03-2.1c-0.61-1-1.17-2.06-1.56-3.16c-0.33-0.91-0.38-1.92-0.55-2.89c-0.24-1.34,0.09-2.62,0.41-3.91
			c0.33-1.32,0.77-2.59,1.47-3.76c1.07-1.8,2.61-3.1,4.36-4.21c1.38-0.87,2.86-1.52,4.38-2.09c0.8-0.31,1.6-0.62,2.4-0.93
			C18.79,11.6,19.04,11.52,19.37,11.4z M27.15,20.65c-0.05-0.2-0.11-0.56-0.26-0.89c-0.18-0.44-0.94-0.74-1.23-0.5
			c-1.02,0.86-1.18,1.77-0.32,2.85c0.1,0.12,0.34,0.18,0.52,0.18C26.63,22.29,27.16,21.67,27.15,20.65z M14.1,19.79
			c-1.16,0.94-1.1,2.01-0.4,2.83c0.44,0.52,0.9,0.54,1.35,0.03C15.82,21.75,15.33,20.22,14.1,19.79z M21.46,24.46
			c0.01-0.75-0.62-1.38-1.43-1.54c-0.85-0.17-1.68,0.71-1.29,1.5c0.1,0.2,0.15,0.42,0.24,0.62c0.29,0.62,0.77,0.9,1.34,0.78
			C20.97,25.69,21.46,25.11,21.46,24.46z M10.2,19.91c0.47-0.09,0.56-0.29,0.54-0.57c-0.02-0.24-0.06-0.49-0.06-0.73
			c0-0.73,0.33-1.34,0.81-1.85c0.54-0.58,1.09-0.55,1.62,0.03c0.08,0.09,0.15,0.2,0.25,0.27c0.18,0.13,0.43,0.02,0.43-0.2
			c0-0.14-0.06-0.29-0.13-0.4c-0.66-1.07-1.84-1.21-2.74-0.31c-0.79,0.8-1.13,1.77-1.01,2.88C9.94,19.33,10.09,19.61,10.2,19.91z
			 M27.76,15.77c0.08,0.38,0.17,0.63,0.63,0.55c0.54-0.08,0.93,0.23,1.26,0.62c0.34,0.41,0.34,0.9,0.34,1.4
			c0,0.31,0.04,0.63,0.15,0.92c0.1,0.28,0.41,0.26,0.56-0.01c0.06-0.11,0.08-0.23,0.11-0.35c0.31-1.4-0.71-3.02-2.09-3.38
			C28.36,15.43,28.07,15.51,27.76,15.77z"/>
		<path class="st2" d="M25.89,15.46c0.13-1.11,0.18-2.23,0.54-3.3c0.09-0.27,0.18-0.51-0.1-0.72c-0.27-0.21-0.51-0.11-0.73,0.07
			c-2.15,1.74-4.7,2.74-7.17,3.89c-0.13,0.06-0.28,0.1-0.42,0.14c-0.04,0.01-0.09-0.02-0.18-0.05c0.04-0.35,0.29-0.59,0.48-0.87
			c0.67-1,1.35-1.98,2.02-2.98c0.25-0.37,0.49-0.74,0.7-1.13c0.08-0.15,0.12-0.39,0.04-0.52c-0.13-0.22-0.38-0.3-0.64-0.15
			c-0.06,0.04-0.12,0.08-0.19,0.12c-1.55,0.86-3.2,1.5-4.86,2.12c-2.2,0.83-4.24,1.92-6,3.51c-0.4,0.36-0.86,0.66-1.2,1.07
			c-1.22,1.47-2.34,3-2.74,4.94c-0.22,1.05-0.56,2.07-0.85,3.11c-1.05-0.11-1.25-0.26-1.48-1.26c-0.12-0.5-0.19-1.02-0.21-1.53
			c-0.08-1.95-0.02-3.88,0.49-5.78c0.06-0.24,0.13-0.47,0.17-0.72c0.06-0.41-0.2-0.66-0.6-0.55c-0.18,0.05-0.35,0.15-0.59,0.25
			c-0.05-0.56,0.15-1.01,0.35-1.43c0.73-1.48,1.51-2.93,2.56-4.21C5.67,9,6.13,8.55,6.61,8.13c1.8-1.59,3.78-2.9,6.02-3.79
			c0.5-0.2,1.02-0.34,1.53-0.53c0.26-0.09,0.51-0.22,0.91-0.4c-0.5-0.34-0.85-0.58-1.21-0.83c0.01-0.06,0.02-0.12,0.03-0.19
			c0.44-0.11,0.88-0.25,1.32-0.32c2.05-0.34,4.07-0.12,6.07,0.35c1.31,0.3,2.61,0.69,3.89,1.12c1.55,0.52,3.04,1.23,4.21,2.36
			c0.87,0.83,1.88,1.3,2.92,1.78c1.35,0.63,2.38,1.63,3.26,2.81c0.26,0.35,0.48,0.73,0.76,1.15c-0.56,0.25-0.5,0.68-0.39,1.12
			c0.18,0.76,0.39,1.53,0.51,2.3c0.34,2.17-0.04,4.25-0.83,6.28c-0.09,0.22-0.22,0.42-0.33,0.63c-0.05,0-0.11,0-0.16,0
			c-0.11-0.36-0.25-0.72-0.33-1.09c-0.18-0.88-0.64-1.55-1.27-2.19c-1.68-1.73-2.96-3.72-3.62-6.07c-0.08-0.3-0.15-0.56-0.52-0.62
			c-0.34-0.05-0.47,0.19-0.65,0.39c-0.82,0.98-1.65,1.95-2.48,2.92c-0.06,0.07-0.15,0.12-0.22,0.18
			C25.98,15.49,25.94,15.48,25.89,15.46z M10.28,8.73c0.1,0,0.17,0.03,0.19,0.01c0.64-0.52,1.24-1.08,2.04-1.36
			c0.06-0.02,0.12-0.22,0.09-0.31c-0.03-0.09-0.17-0.17-0.27-0.19c-0.11-0.02-0.24,0.02-0.35,0.07c-0.46,0.23-0.92,0.46-1.35,0.73
			C10.2,7.96,10.13,8.21,10.28,8.73z M13.31,8.52c-0.21-0.32-0.41-0.39-0.67-0.22c-0.31,0.2-0.63,0.38-0.92,0.61
			c-0.21,0.16-0.4,0.37-0.53,0.6c-0.07,0.13-0.08,0.4,0.01,0.51c0.16,0.21,0.34,0.03,0.49-0.1c0.45-0.37,0.9-0.74,1.35-1.11
			C13.14,8.73,13.21,8.63,13.31,8.52z M12.95,11.16c0.51-0.46,1.02-0.92,1.54-1.37c-0.28-0.54-0.3-0.56-0.72-0.28
			c-0.32,0.22-0.61,0.48-0.9,0.74C12.5,10.58,12.51,10.64,12.95,11.16z"/>
		<path class="st1" d="M5.49,30.49c-0.23,0.12-0.48,0.28-0.75,0.38c-0.87,0.34-1.68,0.23-2.42-0.36c-1.27-1.01-1.68-2.79-0.57-4.26
			c0.19-0.25,0.41-0.49,0.63-0.72c0.1-0.1,0.24-0.16,0.38-0.25c0.19,0.13,0.37,0.26,0.58,0.41c0.2-0.14,0.39-0.28,0.59-0.43
			c0.48,0.19,0.69,0.59,0.79,1.06c0.08,0.41,0.1,0.83,0.17,1.24C5.07,28.5,5.28,29.44,5.49,30.49z"/>
		<path class="st1" d="M35.04,27.2c0.05-0.86,0.13-1.73,0.13-2.61c0-0.55,0.16-0.95,0.51-1.38c0.5-0.62,1.1-0.59,1.72-0.46
			c0.65,0.14,1.11,0.49,1.29,1.23c0.21,0.89-0.07,1.59-0.63,2.22c-0.24,0.27-0.53,0.51-0.81,0.74C36.6,27.46,35.92,27.8,35.04,27.2z
			"/>
		<path class="st0" d="M27.15,20.65c0,1.02-0.53,1.64-1.29,1.65c-0.17,0-0.42-0.06-0.52-0.18c-0.86-1.08-0.7-2,0.32-2.85
			c0.29-0.24,1.04,0.06,1.23,0.5C27.04,20.09,27.1,20.46,27.15,20.65z"/>
		<path class="st0" d="M14.1,19.79c1.23,0.43,1.72,1.96,0.94,2.86c-0.45,0.52-0.91,0.5-1.35-0.03C13,21.8,12.93,20.73,14.1,19.79z"
			/>
		<path class="st0" d="M21.46,24.46c-0.01,0.65-0.49,1.23-1.13,1.36c-0.57,0.11-1.05-0.16-1.34-0.78c-0.09-0.2-0.14-0.42-0.24-0.62
			c-0.4-0.79,0.44-1.67,1.29-1.5C20.85,23.08,21.47,23.71,21.46,24.46z M20.05,25.08c0.21-0.21,0.39-0.34,0.5-0.52
			c0.13-0.21,0.17-0.47-0.08-0.65c-0.24-0.17-0.5-0.22-0.74-0.01c-0.22,0.19-0.35,0.44-0.18,0.71
			C19.66,24.76,19.83,24.87,20.05,25.08z"/>
		<path class="st0" d="M10.2,19.91c-0.1-0.3-0.26-0.59-0.29-0.88c-0.12-1.11,0.22-2.09,1.01-2.88c0.89-0.9,2.08-0.76,2.74,0.31
			c0.07,0.12,0.13,0.27,0.13,0.4c0,0.22-0.25,0.33-0.43,0.2c-0.1-0.07-0.16-0.18-0.25-0.27c-0.53-0.58-1.08-0.62-1.62-0.03
			c-0.47,0.51-0.81,1.12-0.81,1.85c0,0.24,0.04,0.49,0.06,0.73C10.76,19.62,10.67,19.83,10.2,19.91z"/>
		<path class="st0" d="M27.76,15.77c0.32-0.26,0.6-0.34,0.94-0.25c1.39,0.36,2.4,1.98,2.09,3.38c-0.03,0.12-0.05,0.24-0.11,0.35
			c-0.15,0.27-0.45,0.29-0.56,0.01c-0.11-0.29-0.15-0.61-0.15-0.92c0-0.5,0-0.99-0.34-1.4c-0.33-0.4-0.72-0.7-1.26-0.62
			C27.93,16.39,27.84,16.14,27.76,15.77z"/>
		<path class="st3" d="M10.28,8.73c-0.15-0.52-0.09-0.78,0.35-1.05c0.43-0.27,0.9-0.5,1.35-0.73c0.1-0.05,0.24-0.09,0.35-0.07
			c0.1,0.02,0.24,0.1,0.27,0.19c0.03,0.08-0.03,0.29-0.09,0.31c-0.8,0.28-1.41,0.84-2.04,1.36C10.45,8.76,10.38,8.74,10.28,8.73z"/>
		<path class="st3" d="M13.31,8.52c-0.1,0.11-0.18,0.2-0.27,0.28c-0.45,0.37-0.9,0.74-1.35,1.11c-0.15,0.13-0.33,0.31-0.49,0.1
			C11.12,9.9,11.13,9.63,11.2,9.5c0.13-0.23,0.32-0.43,0.53-0.6c0.29-0.23,0.61-0.41,0.92-0.61C12.91,8.13,13.11,8.2,13.31,8.52z"/>
		<path class="st3" d="M12.95,11.16c-0.44-0.52-0.45-0.58-0.08-0.91c0.29-0.26,0.58-0.52,0.9-0.74c0.41-0.28,0.44-0.26,0.72,0.28
			C13.97,10.24,13.46,10.7,12.95,11.16z"/>
		<path class="st1" d="M20.05,25.08c-0.22-0.21-0.39-0.32-0.49-0.48c-0.17-0.28-0.04-0.52,0.18-0.71c0.24-0.21,0.51-0.16,0.74,0.01
			c0.25,0.18,0.21,0.44,0.08,0.65C20.45,24.73,20.26,24.86,20.05,25.08z"/>
		<ellipse class="st4" cx="30.63" cy="24.06" rx="2.88" ry="1.4"/>
		<ellipse class="st4" cx="9.48" cy="24.06" rx="2.88" ry="1.4"/>
	</g>
	<path class="st0" d="M10.46,31.54c0.07-0.56,0.11-1.12,0.21-1.68c0.23-1.36,1.5-2.53,2.87-2.69c1.43-0.17,2.78,0.16,4.1,0.65
		c0.74,0.27,1.44,0.6,2.27,0.57c0.7-0.03,1.36-0.15,2.01-0.41c1.14-0.45,2.3-0.85,3.44-1.3c0.86-0.34,1.74-0.32,2.61-0.16
		c1.11,0.21,2.31,1.55,2.51,2.82c0.13,0.86,0.07,1.71-0.23,2.54c-0.58,1.64-1.83,2.45-3.46,2.71c-0.72,0.12-1.47,0.11-2.19,0.05
		c-1.29-0.11-2.58-0.32-3.87-0.46c-0.39-0.04-0.79-0.03-1.17,0.02c-1.66,0.2-3.3,0.46-4.96,0.63c-0.88,0.09-1.75,0.06-2.6-0.3
		c-0.97-0.4-1.37-1.14-1.46-2.11c-0.03-0.29,0-0.59,0-0.88C10.49,31.54,10.48,31.54,10.46,31.54z M15.07,31.38
		c-0.03,0.32-0.02,0.53-0.07,0.71c-0.04,0.12-0.2,0.3-0.26,0.28c-0.14-0.04-0.27-0.16-0.36-0.29c-0.06-0.09,0-0.26-0.07-0.35
		c-0.1-0.14-0.25-0.34-0.39-0.34c-0.68-0.03-1.37-0.02-2.06,0.02c-0.28,0.01-0.5,0.14-0.56,0.48c-0.18,1.06,0.2,1.72,1.23,2.01
		c0.21,0.06,0.43,0.07,0.65,0.08c1.55,0.08,3.08-0.18,4.61-0.39c0.85-0.11,1.71-0.32,2.55-0.29c1.24,0.06,2.48,0.3,3.72,0.45
		c1.13,0.14,2.25,0.14,3.35-0.23c1.08-0.36,1.76-1.09,2.1-2.34c-1.03,0.16-1.97-0.28-2.96-0.01c-0.02,0.19-0.03,0.33-0.04,0.48
		c-0.01,0.21-0.06,0.45-0.3,0.41c-0.14-0.02-0.29-0.23-0.37-0.38c-0.08-0.16-0.08-0.36-0.12-0.61c-0.29,0.02-0.53,0.04-0.76,0.05
		c-0.32,0.03-0.63,0.07-0.95,0.08c-0.88,0.04-1.76,0.06-2.64,0.1c-0.34,0.02-0.65,0.02-0.84,0.43c-0.16,0.35-0.49,0.33-0.68-0.01
		c-0.18-0.33-0.42-0.36-0.72-0.37c-0.61-0.03-1.22-0.1-1.84-0.1C16.57,31.27,15.84,31.34,15.07,31.38z M20.01,30
		c0.22,0.14,0.37,0.19,0.45,0.29c0.21,0.27,0.5,0.31,0.8,0.29c1.49-0.08,2.99-0.17,4.44-0.26c0.14-0.27,0.23-0.46,0.37-0.74
		c0.22,0.27,0.37,0.47,0.57,0.71c0.98-0.08,2,0.3,2.98-0.1c0.45-1.04-0.62-2.54-1.46-2.77c-0.84-0.23-1.7-0.28-2.54,0.05
		c-1.1,0.42-2.2,0.84-3.3,1.27c-1.4,0.55-2.81,0.67-4.23,0.06c-0.32-0.14-0.63-0.28-0.96-0.36c-1.09-0.29-2.17-0.61-3.33-0.47
		c-0.86,0.1-1.53,0.53-2.02,1.21c-0.28,0.39-0.45,0.85-0.35,1.42c0.89,0,1.74,0,2.64,0c0.13-0.22,0.07-0.73,0.51-0.61
		c0.25,0.07,0.44,0.39,0.66,0.61c1.26,0,2.54-0.02,3.81,0.01C19.51,30.62,19.85,30.55,20.01,30z"/>
	<path class="st5" d="M15.07,31.38c0.78-0.04,1.5-0.11,2.23-0.12c0.61,0,1.22,0.07,1.84,0.1c0.3,0.01,0.54,0.04,0.72,0.37
		c0.19,0.35,0.52,0.36,0.68,0.01c0.19-0.42,0.5-0.42,0.84-0.43c0.88-0.04,1.76-0.06,2.64-0.1c0.32-0.01,0.63-0.06,0.95-0.08
		c0.24-0.02,0.48-0.03,0.76-0.05c0.04,0.24,0.04,0.44,0.12,0.61c0.08,0.16,0.22,0.36,0.37,0.38c0.24,0.04,0.29-0.2,0.3-0.41
		c0.01-0.14,0.02-0.29,0.04-0.48c0.99-0.27,1.93,0.17,2.96,0.01c-0.33,1.25-1.02,1.97-2.1,2.34c-1.1,0.37-2.22,0.37-3.35,0.23
		c-1.24-0.15-2.48-0.4-3.72-0.45c-0.84-0.04-1.7,0.17-2.55,0.29c-1.53,0.2-3.06,0.46-4.61,0.39c-0.22-0.01-0.44-0.02-0.65-0.08
		c-1.03-0.3-1.41-0.96-1.23-2.01c0.06-0.34,0.28-0.46,0.56-0.48c0.68-0.03,1.37-0.04,2.06-0.02c0.14,0.01,0.29,0.2,0.39,0.34
		c0.06,0.09,0.01,0.26,0.07,0.35c0.08,0.12,0.22,0.25,0.36,0.29c0.06,0.02,0.23-0.17,0.26-0.28C15.05,31.91,15.04,31.7,15.07,31.38z
		"/>
	<path class="st5" d="M20.01,30c-0.16,0.55-0.5,0.62-0.93,0.61c-1.28-0.03-2.55-0.01-3.81-0.01c-0.22-0.22-0.41-0.55-0.66-0.61
		c-0.44-0.11-0.38,0.4-0.51,0.61c-0.9,0-1.75,0-2.64,0c-0.1-0.56,0.07-1.02,0.35-1.42c0.49-0.68,1.16-1.11,2.02-1.21
		c1.15-0.14,2.24,0.18,3.33,0.47c0.33,0.09,0.65,0.23,0.96,0.36c1.42,0.61,2.82,0.49,4.23-0.06c1.1-0.43,2.2-0.85,3.3-1.27
		c0.84-0.32,1.69-0.28,2.54-0.05c0.84,0.23,1.91,1.73,1.46,2.77c-0.98,0.4-2.01,0.02-2.98,0.1c-0.19-0.24-0.35-0.44-0.57-0.71
		c-0.14,0.28-0.23,0.47-0.37,0.74c-1.46,0.09-2.95,0.18-4.44,0.26c-0.29,0.02-0.58-0.02-0.8-0.29C20.38,30.19,20.23,30.14,20.01,30z
		"/>
</g>
</svg>
