<?xml version="1.0" encoding="utf-8"?>
<!-- Generator: Adobe Illustrator 26.4.1, SVG Export Plug-In . SVG Version: 6.00 Build 0)  -->
<svg version="1.1" id="レイヤー_1" xmlns="http://www.w3.org/2000/svg" xmlns:xlink="http://www.w3.org/1999/xlink" x="0px"
	 y="0px" viewBox="0 0 40 40" style="enable-background:new 0 0 40 40;" xml:space="preserve">
<style type="text/css">
	.st0{fill:#231815;}
	.st1{fill:#FDE9C2;}
	.st2{fill:#6A3906;}
	.st3{fill:#B28146;}
	.st4{fill:#F9C55C;}
</style>
<g>
	<g>
		<path class="st0" d="M34.6,27.78c-0.2,0.62-0.4,1.24-0.58,1.86c-0.29,0.99-0.78,1.86-1.35,2.71c-0.88,1.32-1.89,2.51-3.31,3.27
			c-0.76,0.41-1.58,0.71-2.38,1.05c-1.17,0.51-2.37,0.95-3.63,1.2c-2.6,0.52-5.23,0.69-7.81-0.02c-2.04-0.57-4.04-1.27-5.83-2.49
			C8.42,34.48,7.47,33.33,6.7,32c-0.12-0.21-0.23-0.42-0.35-0.63c-0.02-0.04-0.07-0.07-0.17-0.16C5.12,31.57,4,32.01,2.86,31.26
			c-0.89-0.59-1.58-1.31-1.98-2.32c-0.65-1.64-0.11-3.01,1.92-4.68c-0.81-2.63-0.54-5.32,0.05-8.08c-0.35,0.1-0.57,0.17-0.78,0.24
			c-0.34-0.21-0.38-0.49-0.34-0.83c0.1-1.04,0.62-1.92,1.03-2.84c0.29-0.66,0.63-1.31,1.05-1.89c0.54-0.76,1.14-1.5,1.8-2.16
			c0.62-0.63,1.35-1.16,2.04-1.72c1.08-0.86,2.23-1.6,3.48-2.18c0.8-0.37,1.58-0.81,2.34-1.21c0.01-0.1,0.03-0.15,0.01-0.19
			C13.13,2.57,13.16,2.41,14,2.2c0.83-0.21,1.7-0.32,2.55-0.43c2.12-0.29,4.17,0.15,6.19,0.74c0.51,0.15,1.03,0.23,1.55,0.37
			c1.91,0.51,3.69,1.34,5.19,2.62c0.86,0.74,1.82,1.23,2.82,1.7c2.09,0.98,3.45,2.66,4.48,4.66c0.24,0.47,0.22,0.49-0.39,1.08
			c0.42,1.39,0.67,2.86,0.66,4.36c0,1.48-0.37,2.9-0.91,4.37c0.37,0.08,0.64,0.14,0.92,0.2c1.42,0.33,2.25,1.31,2.33,2.76
			c0.05,0.78-0.28,1.43-0.78,1.97c-0.42,0.46-0.91,0.87-1.42,1.23C36.47,28.33,35.75,28.61,34.6,27.78z M19.38,11.55
			c-0.33,0.12-0.57,0.2-0.81,0.29c-0.79,0.3-1.57,0.62-2.36,0.92c-1.49,0.57-2.95,1.2-4.3,2.06c-1.71,1.09-3.23,2.37-4.28,4.13
			c-0.68,1.15-1.11,2.39-1.44,3.69c-0.32,1.27-0.64,2.52-0.41,3.83c0.17,0.95,0.22,1.94,0.54,2.83c0.39,1.08,0.94,2.12,1.53,3.1
			c0.5,0.82,1.17,1.5,1.99,2.06c1.47,1,3.05,1.72,4.75,2.25c2.55,0.8,5.12,0.84,7.72,0.44c2-0.31,3.84-1.12,5.68-1.89
			c1.19-0.5,2.22-1.26,3.02-2.29c0.44-0.57,0.85-1.17,1.25-1.78c0.59-0.92,1-1.92,1.28-2.98c0.55-2.05,0.77-4.13,0.38-6.23
			c-0.19-1.04-0.44-2.06-1.27-2.85c-1.15-1.09-2.05-2.37-2.72-3.81c-0.29-0.63-0.61-1.24-0.93-1.9c-0.12,0.11-0.23,0.19-0.32,0.29
			c-0.6,0.7-1.17,1.42-1.79,2.09c-0.32,0.35-0.7,0.66-1.11,0.9c-0.51,0.3-0.82,0.1-0.83-0.51c-0.01-0.38,0.04-0.77,0.08-1.15
			c0.07-0.66,0.15-1.32,0.24-2.06c-0.19,0.08-0.28,0.1-0.36,0.15c-1.59,1.02-3.27,1.87-5.01,2.59c-0.69,0.29-1.4,0.54-2.12,0.69
			c-0.6,0.13-0.89-0.26-0.74-0.87c0.04-0.19,0.11-0.38,0.21-0.54c0.3-0.5,0.61-0.98,0.93-1.46C18.6,12.92,19.09,12.35,19.38,11.55z
			 M25.78,15.54c0.05,0.02,0.09,0.03,0.14,0.05c0.07-0.06,0.16-0.1,0.22-0.17c0.81-0.95,1.63-1.91,2.43-2.87
			c0.17-0.2,0.3-0.44,0.63-0.38c0.36,0.06,0.42,0.32,0.51,0.61c0.65,2.31,1.9,4.27,3.56,5.96c0.61,0.63,1.07,1.29,1.24,2.15
			c0.07,0.36,0.21,0.71,0.32,1.07c0.05,0,0.11,0,0.16,0c0.11-0.21,0.24-0.4,0.32-0.62c0.78-1.99,1.15-4.04,0.81-6.17
			c-0.12-0.76-0.33-1.51-0.5-2.26c-0.1-0.44-0.16-0.85,0.38-1.1c-0.27-0.42-0.49-0.79-0.75-1.13c-0.86-1.16-1.87-2.14-3.2-2.76
			c-1.02-0.48-2.02-0.93-2.87-1.75c-1.15-1.11-2.61-1.81-4.13-2.32c-1.26-0.42-2.53-0.8-3.82-1.1C19.3,2.29,17.31,2.07,15.3,2.4
			c-0.44,0.07-0.87,0.21-1.3,0.32c-0.01,0.06-0.02,0.12-0.03,0.18c0.35,0.24,0.7,0.48,1.19,0.81c-0.4,0.18-0.64,0.3-0.9,0.39
			c-0.5,0.18-1.01,0.32-1.5,0.52c-2.2,0.87-4.14,2.16-5.91,3.72C6.38,8.76,5.93,9.2,5.53,9.68c-1.03,1.25-1.8,2.68-2.52,4.13
			c-0.2,0.41-0.4,0.85-0.35,1.4c0.23-0.1,0.4-0.2,0.58-0.25c0.39-0.11,0.66,0.13,0.59,0.54c-0.04,0.24-0.1,0.47-0.16,0.7
			c-0.5,1.86-0.56,3.76-0.48,5.67c0.02,0.5,0.1,1.01,0.21,1.5c0.23,0.98,0.43,1.13,1.46,1.24c0.28-1.02,0.62-2.02,0.83-3.05
			c0.4-1.9,1.49-3.41,2.69-4.85c0.33-0.4,0.79-0.7,1.18-1.05c1.73-1.56,3.73-2.64,5.89-3.45c1.63-0.61,3.24-1.24,4.77-2.08
			c0.06-0.03,0.12-0.08,0.18-0.11c0.26-0.15,0.5-0.07,0.63,0.15c0.07,0.12,0.03,0.37-0.04,0.51c-0.2,0.38-0.44,0.75-0.69,1.11
			c-0.66,0.98-1.33,1.95-1.99,2.92c-0.18,0.27-0.42,0.51-0.47,0.85c0.09,0.03,0.14,0.06,0.18,0.05c0.14-0.04,0.28-0.07,0.41-0.13
			c2.43-1.12,4.93-2.11,7.04-3.82c0.22-0.18,0.45-0.27,0.72-0.07c0.28,0.21,0.19,0.44,0.1,0.71C25.96,13.35,25.91,14.45,25.78,15.54
			z M5.76,30.3c-0.21-1.03-0.41-1.95-0.59-2.87c-0.08-0.4-0.09-0.82-0.17-1.22c-0.09-0.46-0.3-0.86-0.78-1.04
			c-0.2,0.14-0.38,0.28-0.58,0.42c-0.21-0.15-0.39-0.27-0.57-0.4c-0.13,0.09-0.27,0.15-0.37,0.25c-0.22,0.22-0.43,0.46-0.62,0.71
			C1,27.58,1.39,29.33,2.64,30.32c0.73,0.58,1.52,0.69,2.38,0.35C5.28,30.57,5.53,30.42,5.76,30.3z M34.77,27.07
			c0.86,0.59,1.53,0.25,2.16-0.25c0.28-0.22,0.56-0.46,0.8-0.73c0.55-0.62,0.83-1.3,0.62-2.18c-0.17-0.73-0.63-1.08-1.27-1.21
			c-0.61-0.13-1.21-0.15-1.69,0.45c-0.34,0.42-0.5,0.81-0.5,1.35C34.9,25.37,34.82,26.23,34.77,27.07z"/>
		<path class="st1" d="M19.38,11.55c-0.3,0.8-0.79,1.37-1.19,1.98c-0.32,0.48-0.63,0.97-0.93,1.46c-0.1,0.16-0.16,0.35-0.21,0.54
			c-0.15,0.61,0.14,1,0.74,0.87c0.72-0.15,1.43-0.41,2.12-0.69c1.74-0.72,3.42-1.57,5.01-2.59c0.08-0.05,0.17-0.07,0.36-0.15
			c-0.09,0.74-0.17,1.4-0.24,2.06c-0.04,0.38-0.09,0.77-0.08,1.15c0.01,0.61,0.32,0.82,0.83,0.51c0.41-0.24,0.79-0.55,1.11-0.9
			c0.62-0.67,1.19-1.39,1.79-2.09c0.09-0.1,0.21-0.19,0.32-0.29c0.32,0.66,0.64,1.27,0.93,1.9c0.67,1.44,1.57,2.72,2.72,3.81
			c0.83,0.79,1.08,1.81,1.27,2.85c0.39,2.1,0.16,4.18-0.38,6.23c-0.28,1.06-0.69,2.06-1.28,2.98c-0.39,0.61-0.81,1.2-1.25,1.78
			c-0.8,1.03-1.83,1.79-3.02,2.29c-1.84,0.78-3.68,1.59-5.68,1.89c-2.61,0.4-5.17,0.36-7.72-0.44c-1.7-0.53-3.28-1.24-4.75-2.25
			c-0.82-0.56-1.5-1.24-1.99-2.06c-0.6-0.98-1.15-2.02-1.53-3.1c-0.32-0.89-0.37-1.89-0.54-2.83c-0.23-1.32,0.09-2.57,0.41-3.83
			c0.33-1.3,0.76-2.54,1.44-3.69c1.05-1.77,2.57-3.05,4.28-4.13c1.35-0.86,2.81-1.49,4.3-2.06c0.79-0.3,1.57-0.61,2.36-0.92
			C18.81,11.75,19.06,11.67,19.38,11.55z M27.02,20.64c-0.05-0.19-0.11-0.55-0.25-0.88c-0.18-0.43-0.92-0.72-1.2-0.49
			c-1,0.84-1.16,1.74-0.31,2.8c0.1,0.12,0.33,0.18,0.51,0.18C26.51,22.25,27.03,21.64,27.02,20.64z M14.2,19.79
			c-1.14,0.93-1.08,1.98-0.4,2.78c0.43,0.51,0.88,0.53,1.32,0.02C15.89,21.72,15.41,20.22,14.2,19.79z M21.44,24.38
			c0.01-0.73-0.61-1.35-1.4-1.51c-0.84-0.17-1.65,0.7-1.26,1.47c0.1,0.19,0.15,0.41,0.24,0.6c0.29,0.61,0.76,0.88,1.32,0.77
			C20.96,25.59,21.43,25.01,21.44,24.38z M10.37,19.92c0.46-0.09,0.55-0.29,0.53-0.56c-0.02-0.24-0.05-0.48-0.06-0.72
			c0-0.72,0.33-1.31,0.79-1.81c0.53-0.57,1.07-0.54,1.59,0.03c0.08,0.09,0.15,0.2,0.24,0.27c0.18,0.13,0.42,0.02,0.42-0.2
			c0-0.13-0.06-0.28-0.13-0.4c-0.65-1.05-1.81-1.19-2.69-0.31c-0.78,0.78-1.11,1.74-0.99,2.83C10.12,19.34,10.27,19.62,10.37,19.92z
			 M27.62,15.84c0.08,0.37,0.17,0.61,0.62,0.54c0.53-0.08,0.91,0.22,1.24,0.61c0.33,0.4,0.33,0.88,0.33,1.37
			c0,0.3,0.04,0.62,0.14,0.9c0.1,0.28,0.4,0.26,0.55-0.01c0.06-0.1,0.08-0.23,0.1-0.34c0.3-1.37-0.69-2.97-2.06-3.32
			C28.2,15.51,27.93,15.59,27.62,15.84z"/>
		<path class="st2" d="M25.78,15.54c0.13-1.09,0.18-2.19,0.53-3.24c0.09-0.27,0.17-0.5-0.1-0.71c-0.27-0.21-0.5-0.11-0.72,0.07
			c-2.11,1.71-4.61,2.69-7.04,3.82c-0.13,0.06-0.27,0.1-0.41,0.13c-0.04,0.01-0.09-0.02-0.18-0.05c0.04-0.34,0.29-0.58,0.47-0.85
			c0.66-0.98,1.33-1.95,1.99-2.92c0.24-0.36,0.48-0.72,0.69-1.11c0.08-0.14,0.12-0.39,0.04-0.51c-0.13-0.21-0.37-0.3-0.63-0.15
			c-0.06,0.04-0.12,0.08-0.18,0.11c-1.53,0.84-3.14,1.47-4.77,2.08c-2.16,0.81-4.17,1.89-5.89,3.45c-0.39,0.35-0.85,0.65-1.18,1.05
			c-1.2,1.44-2.29,2.95-2.69,4.85c-0.22,1.03-0.55,2.03-0.83,3.05c-1.03-0.1-1.23-0.25-1.46-1.24c-0.11-0.49-0.19-1-0.21-1.5
			c-0.08-1.91-0.02-3.81,0.48-5.67c0.06-0.23,0.13-0.47,0.16-0.7c0.06-0.41-0.2-0.64-0.59-0.54c-0.18,0.05-0.34,0.15-0.58,0.25
			c-0.05-0.55,0.14-0.99,0.35-1.4c0.72-1.45,1.48-2.88,2.52-4.13c0.4-0.48,0.85-0.92,1.32-1.34c1.77-1.56,3.71-2.85,5.91-3.72
			c0.49-0.19,1-0.34,1.5-0.52c0.25-0.09,0.5-0.22,0.9-0.39c-0.49-0.33-0.84-0.57-1.19-0.81c0.01-0.06,0.02-0.12,0.03-0.18
			c0.43-0.11,0.86-0.24,1.3-0.32c2.01-0.33,4-0.11,5.96,0.34c1.29,0.3,2.57,0.67,3.82,1.1c1.52,0.51,2.98,1.21,4.13,2.32
			c0.85,0.82,1.85,1.27,2.87,1.75c1.32,0.62,2.34,1.6,3.2,2.76c0.26,0.35,0.47,0.72,0.75,1.13c-0.55,0.25-0.49,0.67-0.38,1.1
			c0.18,0.75,0.38,1.5,0.5,2.26c0.34,2.13-0.03,4.18-0.81,6.17c-0.08,0.22-0.21,0.41-0.32,0.62c-0.05,0-0.11,0-0.16,0
			c-0.11-0.36-0.25-0.7-0.32-1.07c-0.18-0.86-0.63-1.52-1.24-2.15c-1.65-1.7-2.91-3.66-3.56-5.96c-0.08-0.29-0.15-0.55-0.51-0.61
			c-0.33-0.05-0.46,0.18-0.63,0.38c-0.81,0.96-1.62,1.91-2.43,2.87c-0.06,0.07-0.15,0.12-0.22,0.17
			C25.88,15.57,25.83,15.56,25.78,15.54z M10.46,8.94c0.1,0,0.16,0.03,0.19,0.01c0.62-0.51,1.22-1.06,2.01-1.33
			c0.06-0.02,0.12-0.22,0.09-0.3c-0.03-0.09-0.17-0.17-0.27-0.19c-0.11-0.02-0.24,0.02-0.34,0.07c-0.45,0.23-0.9,0.45-1.33,0.72
			C10.37,8.17,10.31,8.43,10.46,8.94z M13.44,8.73c-0.2-0.32-0.4-0.39-0.66-0.22c-0.3,0.2-0.62,0.37-0.9,0.6
			c-0.2,0.16-0.39,0.36-0.52,0.59c-0.07,0.13-0.08,0.39,0.01,0.5c0.16,0.21,0.33,0.03,0.48-0.1c0.44-0.37,0.88-0.73,1.32-1.09
			C13.26,8.93,13.33,8.84,13.44,8.73z M13.07,11.32c0.5-0.45,1.01-0.9,1.51-1.35c-0.27-0.53-0.3-0.55-0.7-0.27
			c-0.31,0.21-0.6,0.47-0.88,0.73C12.63,10.75,12.64,10.81,13.07,11.32z"/>
		<path class="st1" d="M5.76,30.3c-0.23,0.12-0.47,0.27-0.74,0.37c-0.85,0.33-1.65,0.23-2.38-0.35C1.39,29.33,1,27.58,2.08,26.14
			c0.19-0.25,0.4-0.48,0.62-0.71c0.1-0.1,0.23-0.16,0.37-0.25c0.19,0.13,0.36,0.25,0.57,0.4c0.19-0.14,0.38-0.27,0.58-0.42
			c0.48,0.18,0.68,0.58,0.78,1.04c0.08,0.4,0.09,0.82,0.17,1.22C5.34,28.35,5.54,29.27,5.76,30.3z"/>
		<path class="st1" d="M34.77,27.07c0.05-0.84,0.13-1.7,0.12-2.56c0-0.54,0.16-0.93,0.5-1.35c0.49-0.61,1.08-0.58,1.69-0.45
			c0.64,0.13,1.09,0.48,1.27,1.21c0.21,0.88-0.07,1.56-0.62,2.18c-0.24,0.27-0.52,0.5-0.8,0.73C36.3,27.32,35.63,27.66,34.77,27.07z
			"/>
		<path class="st0" d="M27.02,20.64c0,1-0.52,1.61-1.26,1.62c-0.17,0-0.41-0.06-0.51-0.18c-0.84-1.06-0.68-1.96,0.31-2.8
			c0.28-0.24,1.02,0.06,1.2,0.49C26.91,20.09,26.97,20.45,27.02,20.64z"/>
		<path class="st0" d="M14.2,19.79c1.21,0.42,1.69,1.92,0.93,2.81c-0.44,0.51-0.89,0.49-1.32-0.02
			C13.12,21.77,13.06,20.72,14.2,19.79z"/>
		<path class="st0" d="M21.44,24.38c-0.01,0.64-0.48,1.21-1.11,1.33c-0.56,0.11-1.03-0.16-1.32-0.77c-0.09-0.2-0.14-0.41-0.24-0.6
			c-0.39-0.78,0.43-1.64,1.26-1.47C20.83,23.03,21.45,23.64,21.44,24.38z M20.05,24.98c0.21-0.21,0.39-0.34,0.49-0.51
			c0.13-0.21,0.17-0.46-0.07-0.64c-0.23-0.17-0.49-0.22-0.73-0.01c-0.21,0.19-0.34,0.43-0.17,0.7
			C19.67,24.67,19.84,24.78,20.05,24.98z"/>
		<path class="st0" d="M10.37,19.92c-0.1-0.3-0.25-0.57-0.29-0.87c-0.12-1.09,0.21-2.05,0.99-2.83c0.88-0.88,2.04-0.75,2.69,0.31
			c0.07,0.12,0.13,0.26,0.13,0.4c0,0.22-0.24,0.33-0.42,0.2c-0.09-0.07-0.16-0.18-0.24-0.27c-0.52-0.57-1.06-0.61-1.59-0.03
			c-0.46,0.5-0.79,1.1-0.79,1.81c0,0.24,0.04,0.48,0.06,0.72C10.92,19.63,10.84,19.83,10.37,19.92z"/>
		<path class="st0" d="M27.62,15.84c0.31-0.25,0.59-0.33,0.93-0.24c1.36,0.35,2.36,1.95,2.06,3.32c-0.03,0.12-0.05,0.24-0.1,0.34
			c-0.14,0.27-0.45,0.28-0.55,0.01c-0.1-0.28-0.15-0.6-0.14-0.9c0-0.49,0-0.97-0.33-1.37c-0.32-0.39-0.71-0.69-1.24-0.61
			C27.79,16.46,27.7,16.21,27.62,15.84z"/>
		<path class="st3" d="M10.46,8.94c-0.15-0.51-0.08-0.76,0.35-1.03c0.42-0.27,0.88-0.49,1.33-0.72c0.1-0.05,0.23-0.09,0.34-0.07
			c0.1,0.02,0.24,0.1,0.27,0.19c0.03,0.08-0.03,0.28-0.09,0.3c-0.79,0.27-1.38,0.82-2.01,1.33C10.62,8.96,10.56,8.94,10.46,8.94z"/>
		<path class="st3" d="M13.44,8.73c-0.1,0.11-0.17,0.2-0.26,0.27c-0.44,0.37-0.89,0.72-1.32,1.09c-0.15,0.13-0.32,0.3-0.48,0.1
			c-0.08-0.11-0.08-0.37-0.01-0.5c0.13-0.22,0.32-0.43,0.52-0.59c0.28-0.22,0.6-0.4,0.9-0.6C13.04,8.34,13.23,8.41,13.44,8.73z"/>
		<path class="st3" d="M13.07,11.32c-0.43-0.51-0.44-0.57-0.08-0.89c0.28-0.25,0.57-0.51,0.88-0.73c0.41-0.28,0.43-0.25,0.7,0.27
			C14.08,10.42,13.57,10.87,13.07,11.32z"/>
		<path class="st1" d="M20.05,24.98c-0.22-0.2-0.39-0.31-0.48-0.47c-0.17-0.27-0.04-0.51,0.17-0.7c0.24-0.21,0.5-0.16,0.73,0.01
			c0.24,0.18,0.2,0.43,0.07,0.64C20.44,24.65,20.26,24.78,20.05,24.98z"/>
		<ellipse class="st4" cx="30.44" cy="23.98" rx="2.83" ry="1.38"/>
		<ellipse class="st4" cx="9.67" cy="23.98" rx="2.83" ry="1.38"/>
	</g>
	<path class="st0" d="M19.92,32.93c-0.96-0.09-1.18-1.07-1.3-2.03c-0.08-0.66-1.01-0.49,0.09-1.39c0.17-0.09,0.2-0.42,0.32-0.63
		c0.22-0.39,0.51-0.75,1.01-0.69c0.47,0.05,0.8,0.38,0.92,0.82c0.14,0.52,0.27,0.65,0.73,1c0.08,0.06,0.11,0.37,0.04,0.43
		c-0.33,0.29-0.3,1.04-0.38,1.41C21.2,32.56,20.59,33,19.92,32.93z"/>
	<path class="st0" d="M18.39,33.28c0.16,0.15,0.36,0.28,0.48,0.47c0.46,0.69,1.5,0.71,2.07-0.12c0.09-0.14,0.16-0.3,0.24-0.44
		c0.12-0.22,0.3-0.32,0.54-0.2c0.23,0.11,0.41,0.28,0.31,0.57c-0.23,0.68-0.66,1.21-1.35,1.41c-0.67,0.2-1.35,0.17-1.86-0.43
		c-0.2-0.24-0.4-0.48-0.56-0.74c-0.07-0.11-0.01-0.29-0.01-0.44C18.3,33.34,18.34,33.31,18.39,33.28z"/>
</g>
</svg>
