<?xml version="1.0" encoding="utf-8"?>
<!-- Generator: Adobe Illustrator 26.4.1, SVG Export Plug-In . SVG Version: 6.00 Build 0)  -->
<svg version="1.1" id="レイヤー_1" xmlns="http://www.w3.org/2000/svg" xmlns:xlink="http://www.w3.org/1999/xlink" x="0px"
	 y="0px" viewBox="0 0 40 40" style="enable-background:new 0 0 40 40;" xml:space="preserve">
<style type="text/css">
	.st0{fill:#231815;}
	.st1{fill:#FDE9C2;}
	.st2{fill:#6A3906;}
	.st3{fill:#B28146;}
	.st4{fill:#F9C55C;}
</style>
<g>
	<path class="st0" d="M34.34,27.64c-0.19,0.61-0.39,1.21-0.57,1.82c-0.28,0.97-0.77,1.83-1.33,2.66c-0.87,1.29-1.86,2.47-3.25,3.21
		c-0.75,0.4-1.55,0.7-2.33,1.04c-1.15,0.5-2.33,0.94-3.56,1.18c-2.55,0.51-5.14,0.68-7.67-0.02c-2.01-0.56-3.97-1.25-5.73-2.44
		c-1.27-0.86-2.2-1.99-2.96-3.3c-0.12-0.21-0.23-0.42-0.34-0.62c-0.02-0.04-0.07-0.06-0.17-0.16c-1.04,0.36-2.14,0.79-3.26,0.05
		c-0.87-0.58-1.56-1.29-1.95-2.28c-0.64-1.61-0.11-2.95,1.89-4.6c-0.8-2.59-0.53-5.23,0.04-7.94c-0.34,0.1-0.56,0.17-0.76,0.23
		c-0.33-0.21-0.37-0.48-0.34-0.81c0.1-1.02,0.61-1.88,1.01-2.79c0.29-0.65,0.62-1.29,1.03-1.86c0.53-0.75,1.12-1.47,1.76-2.12
		C6.47,8.26,7.18,7.74,7.86,7.2c1.06-0.84,2.19-1.57,3.42-2.14c0.79-0.36,1.55-0.8,2.3-1.19c0.01-0.1,0.03-0.15,0.01-0.19
		c-0.34-0.8-0.31-0.95,0.51-1.16c0.82-0.21,1.67-0.31,2.51-0.43c2.09-0.28,4.09,0.15,6.08,0.73c0.5,0.15,1.02,0.23,1.52,0.36
		c1.88,0.5,3.63,1.31,5.1,2.58c0.85,0.73,1.78,1.21,2.77,1.67c2.05,0.96,3.39,2.61,4.4,4.57c0.24,0.46,0.21,0.48-0.39,1.06
		c0.42,1.37,0.65,2.81,0.65,4.29c0,1.45-0.37,2.85-0.89,4.3c0.36,0.08,0.63,0.14,0.9,0.2c1.39,0.32,2.21,1.29,2.29,2.71
		c0.04,0.76-0.28,1.4-0.76,1.93c-0.41,0.45-0.89,0.85-1.39,1.2C36.17,28.18,35.47,28.46,34.34,27.64z M19.39,11.7
		c-0.32,0.12-0.56,0.2-0.79,0.29c-0.77,0.3-1.54,0.61-2.32,0.9c-1.46,0.56-2.9,1.18-4.22,2.02c-1.68,1.07-3.18,2.33-4.2,4.06
		c-0.67,1.13-1.09,2.35-1.42,3.63c-0.31,1.24-0.63,2.47-0.4,3.77c0.16,0.93,0.22,1.9,0.53,2.78c0.38,1.06,0.92,2.08,1.51,3.04
		c0.49,0.8,1.15,1.47,1.96,2.03c1.45,0.99,3,1.69,4.67,2.21c2.5,0.78,5.02,0.82,7.58,0.43c1.97-0.3,3.77-1.1,5.58-1.86
		c1.17-0.49,2.18-1.24,2.97-2.25c0.43-0.56,0.84-1.15,1.23-1.75c0.58-0.9,0.98-1.89,1.26-2.92c0.54-2.02,0.76-4.06,0.38-6.12
		c-0.19-1.02-0.43-2.03-1.25-2.8c-1.13-1.07-2.01-2.33-2.67-3.74c-0.29-0.61-0.6-1.22-0.91-1.86c-0.12,0.1-0.23,0.18-0.32,0.29
		c-0.59,0.68-1.15,1.39-1.76,2.05c-0.32,0.34-0.69,0.65-1.09,0.88c-0.5,0.3-0.8,0.1-0.82-0.5c-0.01-0.38,0.04-0.76,0.08-1.13
		c0.07-0.65,0.15-1.29,0.24-2.02c-0.19,0.08-0.28,0.1-0.35,0.15c-1.56,1.01-3.21,1.83-4.92,2.54c-0.67,0.28-1.37,0.53-2.08,0.68
		c-0.59,0.13-0.87-0.26-0.73-0.86c0.04-0.18,0.11-0.37,0.2-0.53c0.29-0.49,0.6-0.96,0.91-1.44C18.62,13.05,19.1,12.49,19.39,11.7z
		 M25.68,15.62c0.05,0.01,0.09,0.03,0.14,0.04c0.07-0.06,0.16-0.1,0.22-0.17c0.8-0.94,1.6-1.87,2.39-2.81
		c0.17-0.2,0.3-0.43,0.62-0.38c0.36,0.06,0.42,0.31,0.5,0.6c0.64,2.27,1.87,4.19,3.49,5.86c0.6,0.62,1.05,1.26,1.22,2.11
		c0.07,0.36,0.21,0.7,0.32,1.05c0.05,0,0.11,0,0.16,0c0.11-0.2,0.23-0.4,0.32-0.61c0.76-1.95,1.13-3.96,0.8-6.06
		c-0.12-0.75-0.32-1.48-0.49-2.22c-0.1-0.43-0.16-0.84,0.38-1.08c-0.27-0.41-0.48-0.77-0.73-1.11c-0.84-1.14-1.84-2.1-3.14-2.71
		c-1-0.47-1.98-0.92-2.81-1.72c-1.13-1.09-2.57-1.78-4.06-2.28c-1.23-0.41-2.49-0.78-3.75-1.08c-1.92-0.45-3.88-0.66-5.85-0.33
		c-0.43,0.07-0.85,0.21-1.28,0.31c-0.01,0.06-0.02,0.12-0.03,0.18c0.34,0.24,0.69,0.47,1.17,0.8c-0.39,0.17-0.63,0.3-0.88,0.39
		c-0.49,0.18-0.99,0.32-1.48,0.51c-2.16,0.86-4.07,2.12-5.8,3.65c-0.46,0.41-0.9,0.84-1.29,1.31c-1.02,1.23-1.77,2.63-2.47,4.06
		c-0.2,0.4-0.39,0.83-0.34,1.38c0.23-0.1,0.39-0.2,0.57-0.24c0.39-0.1,0.64,0.13,0.58,0.53c-0.04,0.23-0.1,0.46-0.16,0.69
		c-0.49,1.83-0.55,3.7-0.47,5.57c0.02,0.49,0.09,0.99,0.21,1.48c0.22,0.96,0.42,1.11,1.43,1.21c0.28-1,0.61-1.99,0.82-3
		c0.39-1.87,1.47-3.35,2.65-4.77c0.33-0.39,0.78-0.69,1.16-1.03c1.69-1.53,3.66-2.59,5.79-3.39c1.6-0.6,3.19-1.22,4.69-2.04
		c0.06-0.03,0.12-0.08,0.18-0.11c0.25-0.15,0.49-0.06,0.62,0.15c0.07,0.12,0.03,0.36-0.04,0.5c-0.2,0.38-0.44,0.73-0.67,1.09
		c-0.65,0.96-1.31,1.91-1.95,2.87c-0.18,0.26-0.42,0.5-0.46,0.83c0.09,0.03,0.14,0.06,0.18,0.05c0.14-0.04,0.28-0.07,0.4-0.13
		c2.38-1.1,4.84-2.07,6.91-3.75c0.22-0.17,0.44-0.27,0.71-0.07c0.27,0.21,0.19,0.43,0.1,0.69C25.85,13.47,25.81,14.55,25.68,15.62z
		 M6.01,30.12C5.8,29.1,5.6,28.2,5.43,27.3c-0.08-0.39-0.09-0.8-0.17-1.2c-0.09-0.45-0.29-0.85-0.76-1.02
		c-0.2,0.14-0.38,0.27-0.57,0.41c-0.21-0.15-0.38-0.27-0.56-0.4c-0.13,0.09-0.27,0.15-0.36,0.24c-0.21,0.22-0.42,0.45-0.61,0.69
		c-1.06,1.42-0.67,3.14,0.55,4.11c0.72,0.57,1.49,0.67,2.33,0.35C5.55,30.38,5.79,30.23,6.01,30.12z M34.51,26.95
		c0.84,0.58,1.5,0.25,2.12-0.25c0.28-0.22,0.55-0.45,0.78-0.71c0.54-0.61,0.82-1.27,0.61-2.14c-0.17-0.71-0.62-1.06-1.24-1.19
		c-0.6-0.13-1.18-0.15-1.66,0.45c-0.33,0.42-0.49,0.8-0.49,1.33C34.64,25.27,34.56,26.12,34.51,26.95z"/>
	<path class="st1" d="M19.39,11.7c-0.29,0.79-0.77,1.34-1.17,1.95c-0.31,0.48-0.62,0.95-0.91,1.44c-0.1,0.16-0.16,0.35-0.2,0.53
		c-0.14,0.6,0.14,0.98,0.73,0.86c0.71-0.15,1.41-0.4,2.08-0.68c1.71-0.71,3.36-1.54,4.92-2.54c0.07-0.05,0.16-0.07,0.35-0.15
		c-0.09,0.73-0.17,1.37-0.24,2.02c-0.04,0.38-0.08,0.76-0.08,1.13c0.01,0.6,0.32,0.8,0.82,0.5c0.4-0.24,0.77-0.54,1.09-0.88
		c0.61-0.66,1.17-1.37,1.76-2.05c0.09-0.1,0.2-0.18,0.32-0.29c0.32,0.64,0.63,1.25,0.91,1.86c0.66,1.41,1.54,2.67,2.67,3.74
		c0.82,0.78,1.06,1.78,1.25,2.8c0.38,2.06,0.16,4.11-0.38,6.12c-0.28,1.04-0.68,2.02-1.26,2.92c-0.39,0.6-0.79,1.18-1.23,1.75
		c-0.78,1.01-1.79,1.76-2.97,2.25c-1.81,0.76-3.61,1.56-5.58,1.86c-2.56,0.39-5.08,0.35-7.58-0.43c-1.67-0.52-3.22-1.22-4.67-2.21
		C9.23,33.67,8.57,33,8.08,32.19c-0.59-0.97-1.13-1.98-1.51-3.04c-0.31-0.88-0.37-1.85-0.53-2.78c-0.23-1.29,0.09-2.52,0.4-3.77
		c0.32-1.27,0.75-2.5,1.42-3.63c1.03-1.73,2.52-2.99,4.2-4.06c1.33-0.84,2.76-1.46,4.22-2.02c0.77-0.3,1.54-0.6,2.32-0.9
		C18.84,11.9,19.07,11.82,19.39,11.7z M19.72,36.3c0.3-0.02,0.52-0.04,0.73-0.05c1.42-0.06,2.74-0.56,4.01-1.11
		c1.26-0.55,2.45-1.25,3.35-2.33c1.01-1.21,1.4-2.62,1.18-4.18c-0.21-1.47-1.31-2.62-2.76-2.88c-0.96-0.18-1.93-0.13-2.87,0.19
		c-0.89,0.31-1.78,0.63-2.67,0.96c-0.57,0.21-1.15,0.29-1.74,0.18c-0.74-0.14-1.48-0.32-2.23-0.43c-0.75-0.11-1.5-0.23-2.25-0.22
		c-1.71,0.02-2.97,1.14-3.32,2.76c-0.27,1.25,0.05,2.35,0.59,3.42c0.2,0.39,0.46,0.8,0.8,1.06c0.89,0.7,1.83,1.32,2.91,1.75
		C16.86,35.94,18.33,36.15,19.72,36.3z M26.9,20.63c-0.05-0.19-0.11-0.54-0.25-0.86c-0.18-0.42-0.91-0.71-1.18-0.48
		c-0.98,0.83-1.13,1.71-0.31,2.75c0.09,0.12,0.33,0.18,0.5,0.17C26.39,22.21,26.9,21.61,26.9,20.63z M14.31,19.8
		c-1.12,0.91-1.06,1.94-0.39,2.73c0.43,0.5,0.87,0.52,1.3,0.02C15.97,21.69,15.49,20.21,14.31,19.8z M21.41,24.3
		c0.01-0.72-0.59-1.33-1.38-1.49c-0.82-0.17-1.62,0.68-1.24,1.45c0.09,0.19,0.14,0.4,0.23,0.59c0.28,0.6,0.75,0.87,1.3,0.75
		C20.94,25.49,21.41,24.93,21.41,24.3z M10.54,19.92c0.46-0.08,0.54-0.28,0.52-0.55c-0.02-0.24-0.05-0.47-0.05-0.71
		c0-0.7,0.32-1.29,0.78-1.78c0.52-0.56,1.06-0.53,1.57,0.03c0.08,0.09,0.14,0.19,0.24,0.26c0.17,0.13,0.41,0.02,0.41-0.2
		c0-0.13-0.06-0.28-0.13-0.39c-0.64-1.04-1.78-1.17-2.64-0.3c-0.76,0.77-1.09,1.71-0.97,2.78C10.29,19.35,10.44,19.63,10.54,19.92z
		 M27.48,15.92c0.08,0.36,0.17,0.6,0.61,0.54c0.52-0.08,0.9,0.22,1.21,0.6c0.33,0.4,0.33,0.86,0.33,1.35c0,0.3,0.04,0.61,0.14,0.89
		c0.1,0.27,0.4,0.25,0.54-0.01c0.05-0.1,0.08-0.22,0.1-0.34c0.29-1.35-0.68-2.91-2.02-3.26C28.06,15.59,27.79,15.67,27.48,15.92z"/>
	<path class="st2" d="M25.68,15.62c0.13-1.07,0.18-2.15,0.52-3.19c0.09-0.26,0.17-0.49-0.1-0.69c-0.26-0.2-0.49-0.11-0.71,0.07
		c-2.07,1.68-4.53,2.65-6.91,3.75c-0.13,0.06-0.27,0.1-0.4,0.13c-0.04,0.01-0.09-0.02-0.18-0.05c0.04-0.34,0.28-0.57,0.46-0.83
		c0.65-0.96,1.3-1.91,1.95-2.87c0.24-0.35,0.48-0.71,0.67-1.09c0.07-0.14,0.11-0.38,0.04-0.5c-0.13-0.21-0.37-0.29-0.62-0.15
		c-0.06,0.04-0.12,0.08-0.18,0.11c-1.5,0.83-3.09,1.44-4.69,2.04c-2.12,0.8-4.09,1.85-5.79,3.39c-0.39,0.35-0.83,0.64-1.16,1.03
		c-1.18,1.42-2.25,2.9-2.65,4.77c-0.21,1.01-0.54,2-0.82,3c-1.01-0.1-1.21-0.25-1.43-1.21c-0.11-0.48-0.18-0.98-0.21-1.48
		c-0.08-1.88-0.02-3.74,0.47-5.57c0.06-0.23,0.13-0.46,0.16-0.69c0.06-0.4-0.2-0.63-0.58-0.53C3.36,15.1,3.2,15.2,2.97,15.3
		c-0.05-0.54,0.14-0.97,0.34-1.38c0.71-1.42,1.46-2.82,2.47-4.06c0.39-0.47,0.83-0.91,1.29-1.31c1.74-1.53,3.64-2.8,5.8-3.65
		c0.48-0.19,0.99-0.33,1.48-0.51C14.61,4.3,14.85,4.18,15.24,4c-0.48-0.33-0.82-0.56-1.17-0.8c0.01-0.06,0.02-0.12,0.03-0.18
		c0.43-0.11,0.85-0.24,1.28-0.31c1.97-0.32,3.93-0.11,5.85,0.33c1.27,0.29,2.52,0.66,3.75,1.08c1.49,0.5,2.93,1.19,4.06,2.28
		c0.84,0.8,1.81,1.25,2.81,1.72c1.3,0.61,2.3,1.57,3.14,2.71c0.25,0.34,0.47,0.71,0.73,1.11c-0.54,0.24-0.48,0.65-0.38,1.08
		c0.17,0.74,0.38,1.47,0.49,2.22c0.33,2.09-0.03,4.1-0.8,6.06c-0.08,0.21-0.21,0.41-0.32,0.61c-0.05,0-0.11,0-0.16,0
		c-0.11-0.35-0.24-0.69-0.32-1.05c-0.17-0.84-0.62-1.49-1.22-2.11c-1.62-1.67-2.86-3.59-3.49-5.86c-0.08-0.29-0.14-0.54-0.5-0.6
		c-0.33-0.05-0.46,0.18-0.62,0.38c-0.79,0.94-1.59,1.88-2.39,2.81c-0.06,0.07-0.14,0.11-0.22,0.17
		C25.77,15.65,25.73,15.64,25.68,15.62z M10.63,9.13c0.1,0,0.16,0.03,0.19,0.01c0.61-0.5,1.2-1.04,1.97-1.31
		c0.06-0.02,0.12-0.22,0.09-0.3c-0.03-0.09-0.16-0.17-0.26-0.18c-0.11-0.02-0.24,0.02-0.34,0.07c-0.44,0.22-0.89,0.44-1.3,0.7
		C10.55,8.38,10.48,8.63,10.63,9.13z M13.55,8.93c-0.2-0.31-0.39-0.38-0.64-0.22c-0.3,0.19-0.61,0.37-0.88,0.58
		c-0.2,0.16-0.39,0.36-0.51,0.58c-0.07,0.13-0.07,0.38,0.01,0.49c0.16,0.2,0.32,0.03,0.47-0.09c0.43-0.36,0.87-0.71,1.3-1.07
		C13.38,9.13,13.45,9.04,13.55,8.93z M13.2,11.47c0.49-0.44,0.99-0.88,1.48-1.32c-0.27-0.52-0.29-0.54-0.69-0.27
		c-0.31,0.21-0.59,0.46-0.87,0.71C12.76,10.91,12.77,10.97,13.2,11.47z"/>
	<path class="st1" d="M6.01,30.12c-0.22,0.11-0.46,0.27-0.72,0.37c-0.84,0.33-1.62,0.22-2.33-0.35c-1.23-0.97-1.62-2.69-0.55-4.11
		c0.18-0.25,0.39-0.47,0.61-0.69c0.1-0.1,0.23-0.16,0.36-0.24c0.18,0.13,0.35,0.25,0.56,0.4c0.19-0.14,0.37-0.27,0.57-0.41
		c0.47,0.18,0.67,0.57,0.76,1.02c0.08,0.39,0.09,0.8,0.17,1.2C5.6,28.2,5.8,29.1,6.01,30.12z"/>
	<path class="st1" d="M34.51,26.95c0.04-0.83,0.13-1.67,0.12-2.52c0-0.53,0.15-0.91,0.49-1.33c0.48-0.6,1.07-0.57,1.66-0.45
		c0.63,0.13,1.07,0.48,1.24,1.19c0.21,0.86-0.07,1.53-0.61,2.14c-0.23,0.26-0.51,0.49-0.78,0.71
		C36.01,27.19,35.35,27.53,34.51,26.95z"/>
	<path class="st0" d="M19.72,36.3c-1.4-0.15-2.86-0.35-4.27-0.91c-1.08-0.42-2.02-1.05-2.91-1.75c-0.34-0.27-0.6-0.67-0.8-1.06
		c-0.54-1.07-0.86-2.16-0.59-3.42c0.34-1.61,1.61-2.73,3.32-2.76c0.75-0.01,1.5,0.11,2.25,0.22c0.75,0.11,1.49,0.29,2.23,0.43
		c0.6,0.11,1.18,0.03,1.74-0.18c0.89-0.32,1.78-0.65,2.67-0.96c0.94-0.32,1.91-0.37,2.87-0.19c1.45,0.26,2.55,1.41,2.76,2.88
		c0.22,1.55-0.17,2.96-1.18,4.18c-0.9,1.08-2.09,1.78-3.35,2.33c-1.28,0.56-2.59,1.06-4.01,1.11C20.24,36.25,20.03,36.28,19.72,36.3
		z M14.91,28.75c-0.76,0.06-1.36,0.06-1.93,0.18c-0.48,0.1-1,0.32-1.1,0.87c-0.23,1.27,0.13,2.43,1.06,3.3
		c0.65,0.61,1.44,1.05,2.28,1.42c1.15,0.5,2.35,0.7,3.56,0.9c0.89,0.14,1.76,0.05,2.6-0.16c1.4-0.34,2.76-0.85,4-1.62
		c1.38-0.85,2.46-1.92,2.79-3.58c0.13-0.63,0.13-0.66-0.44-0.92c-0.83-0.39-1.73-0.52-2.63-0.5c-1.68,0.04-3.12,0.69-4.28,1.92
		c-0.1,0.1-0.17,0.23-0.26,0.33c-0.31,0.31-0.66,0.27-0.75-0.15c-0.1-0.47-0.43-0.67-0.77-0.86C17.7,29.16,16.21,28.99,14.91,28.75z
		"/>
	<path class="st0" d="M26.9,20.63c0,0.98-0.51,1.58-1.24,1.59c-0.17,0-0.4-0.06-0.5-0.17c-0.83-1.05-0.67-1.92,0.31-2.75
		c0.28-0.23,1,0.06,1.18,0.48C26.79,20.09,26.85,20.44,26.9,20.63z"/>
	<path class="st0" d="M14.31,19.8c1.19,0.42,1.66,1.89,0.91,2.76c-0.43,0.5-0.87,0.48-1.3-0.02C13.25,21.74,13.18,20.71,14.31,19.8z
		"/>
	<path class="st0" d="M21.41,24.3c-0.01,0.62-0.47,1.19-1.09,1.31c-0.55,0.11-1.01-0.15-1.3-0.75c-0.09-0.19-0.14-0.4-0.23-0.59
		c-0.38-0.76,0.42-1.61,1.24-1.45C20.82,22.97,21.42,23.58,21.41,24.3z M20.05,24.9c0.2-0.2,0.38-0.33,0.48-0.5
		c0.13-0.21,0.17-0.46-0.07-0.63c-0.23-0.17-0.48-0.22-0.72-0.01c-0.21,0.18-0.34,0.42-0.17,0.69
		C19.67,24.59,19.84,24.69,20.05,24.9z"/>
	<path class="st0" d="M10.54,19.92c-0.1-0.29-0.25-0.56-0.28-0.85c-0.12-1.07,0.21-2.01,0.97-2.78c0.86-0.87,2-0.73,2.64,0.3
		C13.95,16.7,14,16.85,14,16.98c0,0.21-0.24,0.32-0.41,0.2c-0.09-0.07-0.16-0.17-0.24-0.26c-0.51-0.56-1.05-0.6-1.57-0.03
		c-0.46,0.49-0.78,1.08-0.78,1.78c0,0.24,0.04,0.47,0.05,0.71C11.09,19.64,11,19.83,10.54,19.92z"/>
	<path class="st0" d="M27.48,15.92c0.31-0.25,0.58-0.32,0.91-0.24c1.34,0.35,2.31,1.91,2.02,3.26c-0.03,0.11-0.05,0.24-0.1,0.34
		c-0.14,0.26-0.44,0.28-0.54,0.01c-0.1-0.28-0.14-0.59-0.14-0.89c0-0.48,0-0.95-0.33-1.35c-0.31-0.38-0.69-0.68-1.21-0.6
		C27.65,16.52,27.56,16.28,27.48,15.92z"/>
	<path class="st3" d="M10.63,9.13c-0.15-0.5-0.08-0.75,0.34-1.01c0.42-0.26,0.86-0.48,1.3-0.7c0.1-0.05,0.23-0.09,0.34-0.07
		c0.1,0.02,0.23,0.1,0.26,0.18c0.03,0.08-0.03,0.28-0.09,0.3c-0.77,0.27-1.36,0.81-1.97,1.31C10.79,9.16,10.72,9.14,10.63,9.13z"/>
	<path class="st3" d="M13.55,8.93c-0.1,0.11-0.17,0.2-0.26,0.27c-0.43,0.36-0.87,0.71-1.3,1.07c-0.15,0.13-0.32,0.3-0.47,0.09
		c-0.08-0.11-0.08-0.36-0.01-0.49c0.12-0.22,0.31-0.42,0.51-0.58c0.28-0.22,0.59-0.39,0.88-0.58C13.16,8.55,13.35,8.62,13.55,8.93z"
		/>
	<path class="st3" d="M13.2,11.47c-0.42-0.5-0.43-0.56-0.08-0.88c0.28-0.25,0.56-0.51,0.87-0.71c0.4-0.27,0.42-0.25,0.69,0.27
		C14.18,10.59,13.69,11.03,13.2,11.47z"/>
	<path class="st4" d="M14.91,28.75c1.3,0.24,2.79,0.42,4.12,1.14c0.34,0.19,0.67,0.39,0.77,0.86c0.09,0.42,0.43,0.46,0.75,0.15
		c0.1-0.1,0.17-0.23,0.26-0.33c1.16-1.23,2.6-1.88,4.28-1.92c0.9-0.02,1.8,0.11,2.63,0.5c0.56,0.26,0.57,0.3,0.44,0.92
		c-0.34,1.66-1.41,2.74-2.79,3.58c-1.24,0.76-2.6,1.27-4,1.62c-0.84,0.21-1.72,0.3-2.6,0.16c-1.21-0.2-2.41-0.4-3.56-0.9
		c-0.84-0.37-1.63-0.81-2.28-1.42c-0.93-0.88-1.29-2.03-1.06-3.3c0.1-0.55,0.62-0.78,1.1-0.87C13.55,28.81,14.15,28.81,14.91,28.75z
		"/>
	<path class="st1" d="M20.05,24.9c-0.21-0.2-0.38-0.31-0.47-0.46c-0.17-0.27-0.04-0.5,0.17-0.69c0.23-0.2,0.49-0.15,0.72,0.01
		c0.24,0.17,0.2,0.42,0.07,0.63C20.43,24.57,20.25,24.69,20.05,24.9z"/>
	<ellipse class="st4" cx="30.25" cy="23.91" rx="2.78" ry="1.35"/>
	<ellipse class="st4" cx="9.85" cy="23.91" rx="2.78" ry="1.35"/>
</g>
</svg>
