<?xml version="1.0" encoding="utf-8"?>
<!-- Generator: Adobe Illustrator 26.4.1, SVG Export Plug-In . SVG Version: 6.00 Build 0)  -->
<svg version="1.1" id="レイヤー_1" xmlns="http://www.w3.org/2000/svg" xmlns:xlink="http://www.w3.org/1999/xlink" x="0px"
	 y="0px" viewBox="0 0 40 40" style="enable-background:new 0 0 40 40;" xml:space="preserve">
<style type="text/css">
	.st0{fill:#231815;}
	.st1{fill:#FDE9C2;}
	.st2{fill:#6A3906;}
	.st3{fill:#B28146;}
	.st4{fill:#F9C55C;}
</style>
<g>
	<g>
		<path class="st0" d="M34.5,27.73c-0.19,0.62-0.4,1.23-0.58,1.84c-0.29,0.98-0.78,1.85-1.34,2.69c-0.88,1.31-1.88,2.49-3.29,3.25
			c-0.76,0.41-1.57,0.71-2.36,1.05c-1.17,0.5-2.36,0.95-3.6,1.19c-2.58,0.51-5.19,0.69-7.76-0.02c-2.03-0.56-4.02-1.26-5.79-2.47
			c-1.28-0.87-2.23-2.02-2.99-3.34c-0.12-0.21-0.23-0.42-0.35-0.63c-0.02-0.04-0.07-0.07-0.17-0.16c-1.06,0.36-2.17,0.8-3.3,0.05
			c-0.88-0.59-1.57-1.3-1.97-2.31c-0.64-1.62-0.11-2.99,1.91-4.65c-0.81-2.62-0.54-5.29,0.04-8.03c-0.34,0.1-0.56,0.17-0.77,0.23
			c-0.33-0.21-0.37-0.48-0.34-0.82c0.1-1.03,0.62-1.9,1.02-2.82c0.29-0.65,0.63-1.3,1.04-1.88c0.54-0.76,1.13-1.49,1.78-2.15
			c0.62-0.63,1.34-1.15,2.03-1.71C8.8,6.2,9.94,5.47,11.19,4.89c0.8-0.37,1.57-0.81,2.32-1.2c0.01-0.1,0.03-0.15,0.01-0.19
			c-0.34-0.81-0.31-0.96,0.52-1.18c0.83-0.21,1.69-0.31,2.54-0.43c2.11-0.29,4.14,0.15,6.15,0.74c0.5,0.15,1.03,0.23,1.54,0.37
			c1.9,0.5,3.67,1.33,5.15,2.6c0.86,0.74,1.8,1.23,2.8,1.69c2.07,0.97,3.43,2.64,4.45,4.62c0.24,0.47,0.21,0.48-0.39,1.07
			c0.42,1.38,0.66,2.84,0.66,4.33c0,1.47-0.37,2.88-0.9,4.34c0.37,0.08,0.64,0.14,0.91,0.2c1.41,0.33,2.23,1.3,2.32,2.74
			c0.04,0.77-0.28,1.42-0.77,1.95c-0.42,0.45-0.9,0.86-1.41,1.22C36.35,28.27,35.64,28.55,34.5,27.73z M19.39,11.61
			c-0.32,0.12-0.56,0.2-0.8,0.29c-0.78,0.3-1.56,0.61-2.34,0.91c-1.48,0.57-2.93,1.19-4.27,2.04c-1.7,1.08-3.21,2.35-4.25,4.1
			c-0.68,1.14-1.11,2.38-1.43,3.67c-0.32,1.26-0.63,2.5-0.4,3.81c0.17,0.94,0.22,1.93,0.54,2.81c0.38,1.07,0.93,2.1,1.52,3.08
			c0.49,0.81,1.16,1.49,1.98,2.05c1.46,1,3.03,1.7,4.72,2.23c2.53,0.79,5.08,0.83,7.67,0.43c1.99-0.3,3.81-1.11,5.64-1.88
			c1.19-0.5,2.21-1.25,3-2.28c0.44-0.57,0.85-1.16,1.24-1.76c0.59-0.91,0.99-1.91,1.27-2.96c0.54-2.04,0.76-4.1,0.38-6.19
			c-0.19-1.03-0.43-2.05-1.26-2.83c-1.14-1.08-2.03-2.35-2.7-3.78c-0.29-0.62-0.6-1.23-0.92-1.88c-0.12,0.1-0.23,0.19-0.32,0.29
			c-0.59,0.69-1.16,1.41-1.78,2.07c-0.32,0.34-0.7,0.65-1.1,0.89c-0.5,0.3-0.81,0.1-0.82-0.51c-0.01-0.38,0.04-0.76,0.08-1.15
			c0.07-0.65,0.15-1.31,0.24-2.04c-0.19,0.08-0.28,0.1-0.36,0.15c-1.57,1.02-3.24,1.85-4.97,2.57c-0.68,0.28-1.39,0.54-2.11,0.69
			c-0.6,0.13-0.88-0.26-0.74-0.87c0.04-0.18,0.11-0.37,0.2-0.54c0.3-0.49,0.61-0.97,0.92-1.45C18.61,12.97,19.09,12.41,19.39,11.61z
			 M25.74,15.57c0.05,0.02,0.09,0.03,0.14,0.05c0.07-0.06,0.16-0.1,0.22-0.17c0.81-0.95,1.62-1.89,2.42-2.85
			c0.17-0.2,0.3-0.43,0.63-0.38c0.36,0.06,0.42,0.31,0.5,0.61c0.64,2.29,1.89,4.24,3.53,5.92c0.61,0.63,1.06,1.28,1.23,2.13
			c0.07,0.36,0.21,0.71,0.32,1.06c0.05,0,0.11,0,0.16,0c0.11-0.2,0.24-0.4,0.32-0.62c0.77-1.97,1.14-4.01,0.8-6.12
			c-0.12-0.76-0.32-1.5-0.5-2.24c-0.1-0.43-0.16-0.85,0.38-1.09c-0.27-0.41-0.49-0.78-0.74-1.13c-0.85-1.15-1.86-2.13-3.17-2.74
			c-1.01-0.47-2-0.93-2.85-1.74c-1.14-1.1-2.6-1.8-4.1-2.3c-1.25-0.42-2.51-0.79-3.8-1.09c-1.95-0.45-3.92-0.66-5.91-0.34
			c-0.44,0.07-0.86,0.21-1.29,0.31c-0.01,0.06-0.02,0.12-0.03,0.18c0.35,0.24,0.7,0.48,1.18,0.81c-0.4,0.18-0.64,0.3-0.89,0.39
			c-0.49,0.18-1,0.32-1.49,0.51C10.62,5.6,8.69,6.88,6.94,8.43C6.47,8.84,6.02,9.28,5.63,9.75c-1.03,1.24-1.78,2.66-2.5,4.1
			c-0.2,0.41-0.4,0.84-0.35,1.39c0.23-0.1,0.39-0.2,0.57-0.25c0.39-0.11,0.65,0.13,0.59,0.53c-0.04,0.24-0.1,0.47-0.16,0.7
			c-0.5,1.85-0.55,3.74-0.48,5.63c0.02,0.5,0.09,1,0.21,1.49c0.23,0.97,0.43,1.12,1.45,1.23c0.28-1.01,0.61-2.01,0.83-3.03
			c0.4-1.89,1.48-3.38,2.67-4.82c0.33-0.4,0.78-0.69,1.17-1.05c1.71-1.55,3.7-2.62,5.85-3.42c1.61-0.61,3.22-1.23,4.74-2.06
			c0.06-0.03,0.12-0.08,0.18-0.11c0.26-0.15,0.5-0.07,0.63,0.15c0.07,0.12,0.03,0.36-0.04,0.5c-0.2,0.38-0.44,0.74-0.68,1.1
			c-0.65,0.97-1.32,1.93-1.97,2.9c-0.18,0.26-0.42,0.5-0.46,0.84c0.09,0.03,0.14,0.06,0.18,0.05c0.14-0.04,0.28-0.07,0.41-0.13
			c2.41-1.12,4.89-2.1,6.99-3.79c0.22-0.18,0.45-0.27,0.71-0.07c0.27,0.21,0.19,0.43,0.1,0.7C25.92,13.4,25.87,14.49,25.74,15.57z
			 M5.86,30.23c-0.21-1.03-0.41-1.94-0.59-2.85c-0.08-0.4-0.09-0.81-0.17-1.21C5,25.71,4.8,25.31,4.33,25.13
			c-0.2,0.14-0.38,0.28-0.57,0.41c-0.21-0.15-0.38-0.27-0.57-0.4c-0.13,0.09-0.27,0.15-0.37,0.25c-0.22,0.22-0.43,0.45-0.61,0.7
			c-1.07,1.43-0.68,3.17,0.56,4.15c0.73,0.58,1.51,0.68,2.36,0.35C5.39,30.5,5.63,30.34,5.86,30.23z M34.67,27.02
			c0.85,0.59,1.52,0.25,2.15-0.25c0.28-0.22,0.56-0.46,0.79-0.72c0.55-0.62,0.82-1.29,0.62-2.16c-0.17-0.72-0.62-1.07-1.26-1.2
			c-0.6-0.13-1.2-0.15-1.68,0.45c-0.34,0.42-0.5,0.81-0.49,1.34C34.8,25.33,34.72,26.19,34.67,27.02z"/>
		<path class="st1" d="M19.39,11.61c-0.29,0.79-0.78,1.36-1.18,1.97c-0.31,0.48-0.63,0.96-0.92,1.45c-0.1,0.16-0.16,0.35-0.2,0.54
			c-0.15,0.61,0.14,0.99,0.74,0.87c0.72-0.15,1.42-0.41,2.11-0.69c1.73-0.72,3.4-1.56,4.97-2.57c0.07-0.05,0.17-0.07,0.36-0.15
			c-0.09,0.74-0.17,1.39-0.24,2.04c-0.04,0.38-0.09,0.76-0.08,1.15c0.01,0.61,0.32,0.81,0.82,0.51c0.4-0.24,0.78-0.55,1.1-0.89
			c0.62-0.67,1.19-1.38,1.78-2.07c0.09-0.1,0.2-0.18,0.32-0.29c0.32,0.65,0.63,1.26,0.92,1.88c0.67,1.43,1.56,2.7,2.7,3.78
			c0.83,0.79,1.07,1.8,1.26,2.83c0.38,2.09,0.16,4.15-0.38,6.19c-0.28,1.05-0.68,2.05-1.27,2.96c-0.39,0.6-0.8,1.2-1.24,1.76
			c-0.79,1.03-1.81,1.78-3,2.28c-1.83,0.77-3.65,1.58-5.64,1.88c-2.59,0.4-5.14,0.36-7.67-0.43c-1.69-0.53-3.25-1.23-4.72-2.23
			c-0.82-0.56-1.49-1.24-1.98-2.05c-0.59-0.98-1.14-2.01-1.52-3.08c-0.32-0.89-0.37-1.87-0.54-2.81c-0.23-1.31,0.09-2.55,0.4-3.81
			c0.32-1.29,0.76-2.52,1.43-3.67c1.04-1.75,2.55-3.03,4.25-4.1c1.34-0.85,2.79-1.48,4.27-2.04c0.78-0.3,1.56-0.61,2.34-0.91
			C18.82,11.81,19.06,11.73,19.39,11.61z M26.97,20.64c-0.05-0.19-0.11-0.55-0.25-0.87c-0.18-0.42-0.92-0.72-1.2-0.48
			c-0.99,0.84-1.15,1.73-0.31,2.78c0.09,0.12,0.33,0.18,0.5,0.18C26.46,22.24,26.98,21.63,26.97,20.64z M14.24,19.79
			c-1.13,0.92-1.07,1.96-0.39,2.76c0.43,0.51,0.88,0.53,1.31,0.02C15.92,21.7,15.44,20.21,14.24,19.79z M21.43,24.35
			c0.01-0.73-0.6-1.34-1.39-1.5c-0.83-0.17-1.64,0.69-1.25,1.46c0.1,0.19,0.14,0.41,0.24,0.6c0.29,0.61,0.75,0.87,1.31,0.76
			C20.95,25.55,21.42,24.98,21.43,24.35z M10.44,19.92c0.46-0.09,0.55-0.28,0.53-0.55c-0.02-0.24-0.05-0.48-0.06-0.71
			c0-0.71,0.32-1.3,0.79-1.8c0.53-0.57,1.07-0.54,1.58,0.03c0.08,0.09,0.15,0.2,0.24,0.26c0.17,0.13,0.42,0.02,0.41-0.2
			c0-0.13-0.06-0.28-0.13-0.39c-0.64-1.05-1.8-1.18-2.67-0.31c-0.77,0.78-1.1,1.73-0.98,2.81C10.19,19.35,10.34,19.62,10.44,19.92z
			 M27.56,15.87c0.08,0.37,0.17,0.61,0.61,0.54c0.52-0.08,0.91,0.22,1.23,0.6c0.33,0.4,0.33,0.87,0.33,1.36
			c0,0.3,0.04,0.62,0.14,0.9c0.1,0.27,0.4,0.26,0.54-0.01c0.06-0.1,0.08-0.23,0.1-0.34c0.3-1.36-0.69-2.95-2.04-3.3
			C28.15,15.54,27.87,15.62,27.56,15.87z"/>
		<path class="st2" d="M25.74,15.57c0.13-1.08,0.18-2.18,0.53-3.22c0.09-0.27,0.17-0.49-0.1-0.7c-0.27-0.2-0.5-0.11-0.71,0.07
			c-2.09,1.7-4.58,2.67-6.99,3.79c-0.13,0.06-0.27,0.1-0.41,0.13c-0.04,0.01-0.09-0.02-0.18-0.05c0.04-0.34,0.29-0.58,0.46-0.84
			c0.65-0.97,1.32-1.93,1.97-2.9c0.24-0.36,0.48-0.72,0.68-1.1c0.08-0.14,0.11-0.38,0.04-0.5c-0.13-0.21-0.37-0.3-0.63-0.15
			c-0.06,0.04-0.12,0.08-0.18,0.11c-1.51,0.84-3.12,1.46-4.74,2.06c-2.15,0.8-4.14,1.88-5.85,3.42c-0.39,0.35-0.84,0.65-1.17,1.05
			c-1.19,1.43-2.28,2.93-2.67,4.82c-0.21,1.02-0.55,2.02-0.83,3.03c-1.02-0.1-1.22-0.25-1.45-1.23c-0.11-0.49-0.19-0.99-0.21-1.49
			c-0.08-1.9-0.02-3.78,0.48-5.63c0.06-0.23,0.13-0.46,0.16-0.7c0.06-0.4-0.2-0.64-0.59-0.53c-0.18,0.05-0.34,0.15-0.57,0.25
			c-0.05-0.55,0.14-0.98,0.35-1.39c0.71-1.44,1.47-2.86,2.5-4.1c0.39-0.48,0.84-0.92,1.31-1.33c1.75-1.55,3.68-2.83,5.87-3.69
			c0.49-0.19,1-0.33,1.49-0.51c0.25-0.09,0.49-0.22,0.89-0.39c-0.49-0.33-0.83-0.57-1.18-0.81c0.01-0.06,0.02-0.12,0.03-0.18
			c0.43-0.11,0.85-0.24,1.29-0.31c1.99-0.33,3.97-0.11,5.91,0.34c1.28,0.3,2.55,0.67,3.8,1.09c1.51,0.51,2.96,1.2,4.1,2.3
			c0.84,0.81,1.83,1.26,2.85,1.74c1.31,0.62,2.32,1.59,3.17,2.74c0.25,0.34,0.47,0.71,0.74,1.13c-0.54,0.25-0.48,0.66-0.38,1.09
			c0.18,0.75,0.38,1.49,0.5,2.24c0.33,2.11-0.03,4.15-0.8,6.12c-0.08,0.21-0.21,0.41-0.32,0.62c-0.05,0-0.11,0-0.16,0
			c-0.11-0.35-0.25-0.7-0.32-1.06c-0.17-0.85-0.62-1.51-1.23-2.13c-1.64-1.68-2.89-3.63-3.53-5.92c-0.08-0.29-0.14-0.55-0.5-0.61
			c-0.33-0.05-0.46,0.18-0.63,0.38c-0.8,0.95-1.61,1.9-2.42,2.85c-0.06,0.07-0.15,0.12-0.22,0.17
			C25.84,15.6,25.79,15.59,25.74,15.57z M10.52,9.01c0.1,0,0.16,0.03,0.19,0.01c0.62-0.51,1.21-1.05,1.99-1.32
			c0.06-0.02,0.12-0.22,0.09-0.3c-0.03-0.09-0.17-0.17-0.27-0.19c-0.11-0.02-0.24,0.02-0.34,0.07c-0.44,0.23-0.9,0.45-1.32,0.71
			C10.44,8.26,10.38,8.51,10.52,9.01z M13.48,8.81c-0.2-0.31-0.4-0.38-0.65-0.22c-0.3,0.2-0.61,0.37-0.89,0.59
			c-0.2,0.16-0.39,0.36-0.52,0.58c-0.07,0.13-0.08,0.39,0.01,0.5c0.16,0.2,0.33,0.03,0.48-0.1c0.43-0.37,0.88-0.72,1.31-1.08
			C13.31,9.01,13.38,8.92,13.48,8.81z M13.12,11.38c0.5-0.45,1-0.89,1.5-1.34c-0.27-0.52-0.3-0.55-0.7-0.27
			c-0.31,0.21-0.59,0.47-0.88,0.72C12.68,10.81,12.69,10.88,13.12,11.38z"/>
		<path class="st1" d="M5.86,30.23c-0.23,0.12-0.47,0.27-0.73,0.37c-0.85,0.33-1.63,0.22-2.36-0.35c-1.24-0.98-1.63-2.72-0.56-4.15
			c0.19-0.25,0.4-0.48,0.61-0.7c0.1-0.1,0.23-0.16,0.37-0.25c0.18,0.13,0.36,0.25,0.57,0.4c0.19-0.14,0.38-0.27,0.57-0.41
			C4.8,25.31,5,25.71,5.1,26.17c0.08,0.4,0.09,0.81,0.17,1.21C5.44,28.29,5.64,29.2,5.86,30.23z"/>
		<path class="st1" d="M34.67,27.02c0.05-0.84,0.13-1.69,0.12-2.54c0-0.53,0.15-0.92,0.49-1.34c0.48-0.6,1.08-0.58,1.68-0.45
			c0.63,0.13,1.08,0.48,1.26,1.2c0.21,0.87-0.07,1.55-0.62,2.16c-0.24,0.27-0.51,0.5-0.79,0.72C36.19,27.27,35.52,27.61,34.67,27.02
			z"/>
		<path class="st0" d="M26.97,20.64c0,0.99-0.51,1.6-1.25,1.6c-0.17,0-0.41-0.06-0.5-0.18c-0.83-1.06-0.68-1.95,0.31-2.78
			c0.28-0.24,1.02,0.06,1.2,0.48C26.86,20.09,26.92,20.45,26.97,20.64z"/>
		<path class="st0" d="M14.24,19.79c1.2,0.42,1.68,1.91,0.92,2.79c-0.44,0.51-0.88,0.49-1.31-0.02
			C13.17,21.76,13.11,20.71,14.24,19.79z"/>
		<path class="st0" d="M21.43,24.35c-0.01,0.63-0.48,1.2-1.1,1.32c-0.56,0.11-1.02-0.16-1.31-0.76c-0.09-0.19-0.14-0.41-0.24-0.6
			c-0.39-0.77,0.42-1.63,1.25-1.46C20.83,23,21.44,23.62,21.43,24.35z M20.05,24.95c0.21-0.21,0.38-0.33,0.49-0.51
			c0.13-0.21,0.17-0.46-0.07-0.64c-0.23-0.17-0.49-0.22-0.72-0.01c-0.21,0.18-0.34,0.43-0.17,0.69
			C19.67,24.64,19.84,24.75,20.05,24.95z"/>
		<path class="st0" d="M10.44,19.92c-0.1-0.29-0.25-0.57-0.28-0.86c-0.12-1.09,0.21-2.04,0.98-2.81c0.87-0.88,2.03-0.74,2.67,0.31
			c0.07,0.12,0.13,0.26,0.13,0.39c0,0.22-0.24,0.33-0.41,0.2c-0.09-0.07-0.16-0.18-0.24-0.26c-0.52-0.57-1.06-0.6-1.58-0.03
			c-0.46,0.5-0.79,1.09-0.79,1.8c0,0.24,0.04,0.48,0.06,0.71C10.99,19.63,10.9,19.83,10.44,19.92z"/>
		<path class="st0" d="M27.56,15.87c0.31-0.25,0.58-0.33,0.92-0.24c1.35,0.35,2.34,1.93,2.04,3.3c-0.03,0.12-0.05,0.24-0.1,0.34
			c-0.14,0.26-0.44,0.28-0.54,0.01c-0.1-0.28-0.14-0.6-0.14-0.9c0-0.49,0-0.96-0.33-1.36c-0.32-0.39-0.7-0.69-1.23-0.6
			C27.73,16.48,27.64,16.24,27.56,15.87z"/>
		<path class="st3" d="M10.52,9.01c-0.15-0.51-0.08-0.76,0.34-1.03c0.42-0.27,0.87-0.48,1.32-0.71c0.1-0.05,0.23-0.09,0.34-0.07
			c0.1,0.02,0.24,0.1,0.27,0.19c0.03,0.08-0.03,0.28-0.09,0.3c-0.78,0.27-1.37,0.82-1.99,1.32C10.69,9.04,10.62,9.02,10.52,9.01z"/>
		<path class="st3" d="M13.48,8.81c-0.1,0.11-0.17,0.2-0.26,0.27c-0.44,0.36-0.88,0.72-1.31,1.08c-0.15,0.13-0.32,0.3-0.48,0.1
			c-0.08-0.11-0.08-0.37-0.01-0.5c0.12-0.22,0.31-0.42,0.52-0.58c0.28-0.22,0.59-0.4,0.89-0.59C13.08,8.42,13.28,8.49,13.48,8.81z"
			/>
		<path class="st3" d="M13.12,11.38c-0.43-0.5-0.44-0.57-0.08-0.89c0.28-0.25,0.56-0.51,0.88-0.72c0.4-0.27,0.43-0.25,0.7,0.27
			C14.12,10.49,13.62,10.93,13.12,11.38z"/>
		<path class="st1" d="M20.05,24.95c-0.22-0.2-0.38-0.31-0.48-0.46c-0.17-0.27-0.04-0.51,0.17-0.69c0.24-0.2,0.49-0.15,0.72,0.01
			c0.24,0.18,0.2,0.43,0.07,0.64C20.44,24.62,20.26,24.74,20.05,24.95z"/>
		<ellipse class="st4" cx="30.36" cy="23.95" rx="2.81" ry="1.37"/>
		<ellipse class="st4" cx="9.74" cy="23.95" rx="2.81" ry="1.37"/>
	</g>
	<path class="st0" d="M14.04,30.16c0.12-2.1,2.03-3.25,3.66-2.52c0.28,0.13,0.6,0.19,0.87,0.34c1.01,0.55,1.96,0.36,2.94-0.11
		c0.66-0.31,1.38-0.53,2.1-0.68c1.1-0.24,1.92,0.35,2.51,1.19c0.55,0.78,0.73,1.68,0.19,2.57c-0.26,0.43-0.59,0.81-0.85,1.23
		c-0.14,0.23-0.27,0.51-0.31,0.78c-0.23,1.64-1.14,2.8-2.6,3.47c-2.05,0.95-4.33,0.44-5.73-1.39c-0.31-0.4-0.45-0.94-0.59-1.44
		c-0.09-0.34-0.24-0.55-0.55-0.69C14.3,32.31,14.02,31.26,14.04,30.16z M24.35,32.54c0.1-1.22-0.67-2.18-1.78-2.09
		c-0.45,0.03-0.9,0.27-1.33,0.47c-0.31,0.14-0.24,0.48-0.29,0.76c-0.02,0.09-0.15,0.24-0.22,0.23c-0.12-0.01-0.27-0.09-0.36-0.18
		c-0.25-0.26-0.43-0.57-0.7-0.8c-0.79-0.66-2.03-0.47-2.43,0.37c-0.5,1.06-0.52,2.16,0.08,3.17c0.76,1.28,1.96,1.74,3.43,1.59
		C22.65,35.86,24.19,34.36,24.35,32.54z"/>
	<path class="st4" d="M24.35,32.54c-0.15,1.83-1.69,3.32-3.6,3.51c-1.46,0.15-2.67-0.31-3.43-1.59c-0.6-1.01-0.58-2.11-0.08-3.17
		c0.4-0.84,1.64-1.02,2.43-0.37c0.27,0.22,0.46,0.54,0.7,0.8c0.09,0.09,0.23,0.17,0.36,0.18c0.07,0,0.2-0.14,0.22-0.23
		c0.05-0.28-0.02-0.62,0.29-0.76c0.43-0.19,0.88-0.43,1.33-0.47C23.68,30.36,24.45,31.32,24.35,32.54z"/>
</g>
</svg>
