<?xml version="1.0" encoding="utf-8"?>
<!-- Generator: Adobe Illustrator 26.4.1, SVG Export Plug-In . SVG Version: 6.00 Build 0)  -->
<svg version="1.1" id="レイヤー_1" xmlns="http://www.w3.org/2000/svg" xmlns:xlink="http://www.w3.org/1999/xlink" x="0px"
	 y="0px" viewBox="0 0 40 40" style="enable-background:new 0 0 40 40;" xml:space="preserve">
<style type="text/css">
	.st0{fill:#231815;}
	.st1{fill:#F29600;}
	.st2{fill:#FDE9C2;}
	.st3{fill:#6A3906;}
	.st4{fill:#FFFFFF;}
	.st5{fill:#B28146;}
	.st6{fill:#F8B634;}
	.st7{fill:#F9C55C;}
</style>
<g>
	<path class="st0" d="M27.37,19.55c0.36,0.39,0.31,0.84,0.09,1.28c-0.3,0.6-0.63,1.19-0.96,1.78c-0.61,1.1-1.23,2.2-1.86,3.3
		c-0.66,1.16-1.34,2.32-2.01,3.47c-0.25,0.43-0.51,0.85-0.76,1.28c-0.07,0.12-0.11,0.25-0.13,0.38c-0.18,1.04-0.35,2.09-0.51,3.14
		c-0.07,0.43-0.09,0.86-0.15,1.29c-0.01,0.09-0.1,0.24-0.15,0.23c-0.12-0.01-0.24-0.08-0.36-0.14c-0.03-0.01-0.04-0.08-0.04-0.12
		c0-0.38,0.15-0.77-0.03-1.15c0.27-0.43,0.19-0.93,0.28-1.39c0.1-0.53,0.17-1.06,0.26-1.59c0.07-0.43,0.22-0.82,0.46-1.21
		c0.67-1.07,1.3-2.16,1.94-3.26c0.36-0.61,0.69-1.23,1.03-1.85c0.03-0.06,0.04-0.13,0.04-0.22c-0.67,0.76-1.45,1.26-2.54,1.04
		c-0.19,0.28-0.37,0.55-0.57,0.82c-0.5,0.67-1.06,1.28-1.74,1.78c-0.07,0.05-0.17,0.13-0.17,0.19c0.01,0.39-0.24,0.67-0.4,0.98
		c-0.43,0.84-0.85,1.68-1.32,2.51c-0.5,0.89-0.68,0.74-1.28,0.27c-0.66-0.51-1.32-1.03-1.98-1.54c-0.46-0.36-0.46-0.37-0.93,0
		c-0.19,0.15-0.36,0.32-0.55,0.48c-0.5,0.42-1,0.84-1.51,1.25c-0.33,0.26-0.49,0.23-0.69-0.13c-0.33-0.62-0.63-1.26-0.93-1.9
		c-0.11-0.23-0.23-0.46-0.32-0.69c-0.07-0.16-0.1-0.33-0.17-0.59c-0.58-0.3-1.14-0.76-1.61-1.32c-0.47-0.57-0.69-1.25-0.9-1.87
		c-0.39,0-0.73,0.06-1.04-0.01c-0.48-0.11-0.79-0.47-0.93-0.92c-0.14-0.44-0.26-0.88-0.23-1.36c0.06-0.86,0.8-1.63,1.72-1.72
		c-0.12-0.47-0.23-0.93-0.35-1.42c-0.39-0.31-0.8-0.21-1.24,0.03c-0.42,0.24-0.89,0.4-1.33,0.61c-0.19,0.09-0.37,0.21-0.56,0.31
		c-0.22,0.12-0.25,0.29-0.16,0.49c0.11,0.26,0.23,0.52,0.35,0.78c0.54,1.12,1.07,2.25,1.64,3.36c0.39,0.76,0.82,1.5,1.25,2.24
		c0.58,1.02,1.19,2.02,1.76,3.04c0.09,0.16,0.11,0.37,0.12,0.56c0.02,0.78,0.02,1.55,0.03,2.33c0,0.31,0,0.63,0.01,0.94
		c0,0.2-0.08,0.33-0.29,0.32c-0.21-0.01-0.28-0.14-0.28-0.34c0-0.64-0.01-1.28-0.01-1.93c0-0.15,0.01-0.3,0.01-0.45
		c0.01-0.65-0.08-1.25-0.45-1.83C6.25,30.06,5.65,29,5.07,27.93c-0.57-1.06-1.08-2.14-1.62-3.22c-0.3-0.6-0.61-1.2-0.9-1.81
		c-0.15-0.32-0.27-0.66-0.41-0.99c-0.1-0.23-0.02-0.4,0.18-0.54c0.16-0.11,0.32-0.22,0.53-0.37c-0.19-0.08-0.32-0.15-0.46-0.2
		c-0.84-0.3-1.25-0.93-1.4-1.75c-0.15-0.83,0.16-1.5,0.83-2c0.76-0.57,1.64-0.82,2.58-0.83c0.46,0,0.9,0.15,1.27,0.47
		c0.57,0.5,0.6,1.12,0.44,1.77c-0.09,0.34-0.13,0.67-0.02,1.01c0.01,0.04,0.04,0.07,0.11,0.17c0.09-0.33,0.24-0.58,0.08-0.88
		c-0.05-0.08-0.01-0.24,0.04-0.34c0.3-0.52,0.49-1.09,0.9-1.55c0.5-0.56,0.97-1.16,1.62-1.58c0.21-0.14,0.45-0.24,0.7-0.37
		c-0.05-0.11-0.1-0.23-0.17-0.39c1.21-0.66,2.52-1,3.91-1.21c-0.18-0.27-0.33-0.5-0.5-0.74c0.49-0.24,0.94-0.46,1.39-0.68
		c0.3-0.14,0.61-0.13,0.89,0.02c0.74,0.39,1.49,0.78,2.18,1.24c0.3,0.2,0.47,0.58,0.7,0.88c0.07,0.1,0.11,0.21,0.19,0.37
		c0.11-0.12,0.2-0.21,0.29-0.3c0.19-0.21,0.36-0.45,0.57-0.64c0.09-0.08,0.29-0.09,0.42-0.06c0.18,0.04,0.17,0.21,0.15,0.37
		c-0.04,0.26-0.05,0.53-0.08,0.83c0.21-0.05,0.37-0.11,0.53-0.12c0.15-0.02,0.3-0.01,0.45,0.02c0.22,0.05,0.3,0.19,0.21,0.41
		c-0.06,0.14-0.09,0.28-0.15,0.45c1.5,0.69,2.36,1.95,3.16,3.34c0.2-0.33,0.36-0.58,0.49-0.84c0.04-0.08,0.02-0.2,0-0.3
		c-0.03-0.16-0.07-0.32-0.13-0.48c-0.18-0.46-0.04-0.86,0.23-1.22c0.77-1.04,1.9-1.45,3.15-0.93c0.55,0.23,1.06,0.57,1.42,1.04
		c0.77,1.01,0.29,2.22-0.67,2.72C27.79,18.9,27.53,19.14,27.37,19.55z M9.31,19.48c-0.48,0.61-1,1.19-1.26,1.92
		c-0.09,0.25-0.1,0.52-0.44,0.61c-0.08,0.02-0.13,0.19-0.18,0.3c-0.25,0.51-0.32,1.06-0.33,1.61c-0.02,0.81,0.16,1.59,0.42,2.37
		c0.23,0.68,0.57,1.28,1.08,1.8c0.41,0.42,0.93,0.68,1.42,0.98c1.36,0.83,2.84,1.11,4.41,0.9c1.02-0.13,2.02-0.4,2.95-0.84
		c1.34-0.63,2.52-1.47,3.41-2.67c0.67-0.9,1.11-1.89,1.26-2.99c0.03-0.2,0.03-0.42-0.02-0.62c-0.1-0.37-0.25-0.73-0.39-1.09
		c-0.07-0.18-0.12-0.4-0.25-0.52c-0.31-0.27-0.38-0.63-0.49-0.99c-0.12-0.41-0.26-0.81-0.39-1.24c-0.08,0.06-0.12,0.08-0.15,0.11
		c-0.29,0.3-0.34,0.31-0.61,0.01c-0.23-0.26-0.41-0.55-0.61-0.84c-0.28-0.41-0.56-0.82-0.84-1.23c-0.11,0.05-0.19,0.08-0.25,0.12
		c-0.87,0.63-1.84,1.08-2.81,1.54c-0.47,0.22-0.96,0.41-1.45,0.58c-0.32,0.11-0.45,0.03-0.52-0.29c-0.03-0.13-0.03-0.27-0.03-0.4
		c-0.01-0.18,0-0.37,0-0.61c-0.56,0.36-1.06,0.69-1.56,1c-0.67,0.41-1.18,0.94-1.35,1.73c-0.03,0.15-0.15,0.17-0.29,0.11
		c-0.25-0.12-0.31-0.28-0.27-0.62C9.62,19.95,9.48,19.73,9.31,19.48z M19.94,18.56c0.05-0.1,0.07-0.14,0.09-0.18
		c0.07-0.14,0.09-0.34,0.31-0.34c0.22,0,0.38,0.12,0.47,0.31c0.1,0.22,0.2,0.43,0.28,0.66c0.15,0.44,0.27,0.89,0.44,1.32
		c0.22,0.55,0.48,1.09,0.73,1.64c0.05,0.1,0.1,0.2,0.19,0.36c0.09-0.18,0.14-0.29,0.21-0.41c0.47-0.79,0.67-1.63,0.48-2.54
		c-0.01-0.06-0.03-0.14,0-0.17c0.22-0.25,0.03-0.44-0.09-0.64c-0.1-0.17-0.2-0.34-0.29-0.51c-0.39-0.69-0.89-1.29-1.52-1.79
		c-0.2-0.16-0.44-0.32-0.68-0.36c-0.43-0.07-0.68-0.25-0.68-0.71c-0.1,0.04-0.17,0.07-0.24,0.1c-0.51,0.23-0.79,0.03-0.74-0.52
		c0.01-0.09,0-0.19,0-0.36c-0.2,0.26-0.36,0.45-0.48,0.61c-0.47-0.06-0.66-0.32-0.8-0.66c-0.18-0.45-0.42-0.86-0.87-1.12
		c-0.52-0.29-1.03-0.59-1.55-0.88c-0.21-0.12-0.44-0.17-0.66-0.08c-0.35,0.15-0.68,0.33-1.12,0.54c0.25,0.21,0.45,0.36,0.62,0.53
		c0.07,0.07,0.09,0.2,0.13,0.3c-0.11,0.04-0.21,0.09-0.32,0.1c-0.12,0.01-0.25-0.04-0.36-0.02c-1.13,0.16-2.23,0.42-3.26,0.92
		c-0.04,0.02-0.07,0.05-0.11,0.08c0.05,0.11,0.11,0.22,0.18,0.37c-0.17,0.09-0.32,0.17-0.48,0.25c-0.15,0.07-0.33,0.11-0.46,0.2
		c-1.04,0.77-1.89,1.71-2.4,2.9c-0.02,0.05-0.06,0.13-0.04,0.17c0.15,0.31,0.01,0.59-0.06,0.87c-0.18,0.69-0.2,1.38,0.02,2.07
		c0.03,0.09,0.08,0.16,0.12,0.23c0.64-0.91,1.25-1.8,1.89-2.67c0.23-0.31,0.5-0.61,0.78-0.88c0.27-0.25,0.33-0.23,0.64,0.08
		c-0.11,0.35-0.36,0.68-0.26,1.15c0.23-0.15,0.42-0.29,0.62-0.42c0.75-0.52,1.51-1.03,2.26-1.55c0.19-0.13,0.35-0.29,0.54-0.42
		c0.34-0.24,0.36-0.23,0.68,0.09c-0.1,0.51-0.57,0.96-0.32,1.6c0.81-0.38,1.58-0.71,2.32-1.1c0.74-0.38,1.45-0.81,2.18-1.23
		C19.02,17.06,19.41,17.84,19.94,18.56z M5.5,19.85c-0.02-0.12-0.05-0.26-0.04-0.39c0-0.34,0.01-0.68,0.04-1.02
		c0.01-0.16,0.08-0.32,0.1-0.48c0.11-0.84-0.41-1.37-1.27-1.25c-0.47,0.07-0.95,0.17-1.38,0.35c-0.67,0.28-1.18,0.75-1.37,1.47
		c-0.21,0.8,0.29,1.66,1.08,1.92c0.24,0.08,0.46,0.2,0.72,0.32C4.05,20.49,4.75,20.18,5.5,19.85z M24.64,24.51
		c0.01,0.01,0.03,0.01,0.04,0.02c0.08-0.13,0.17-0.25,0.24-0.38c0.52-0.91,1.05-1.82,1.55-2.74c0.2-0.37,0.36-0.76,0.53-1.14
		c0.07-0.16,0.08-0.32-0.1-0.43c-0.7-0.41-1.38-0.83-2.09-1.23c-0.25-0.14-0.39-0.1-0.53,0.16c-0.26,0.48-0.59,0.94-0.53,1.52
		c0.01,0.1-0.01,0.21-0.04,0.31c-0.08,0.39-0.17,0.77-0.26,1.17c0.13,0.03,0.25,0.05,0.37,0.08c0.55,0.14,1.16,0.55,1.06,1.35
		c-0.02,0.19-0.03,0.39-0.07,0.58C24.78,24.03,24.71,24.27,24.64,24.51z M26.79,19.21c0.08-0.12,0.17-0.22,0.23-0.34
		c0.13-0.23,0.31-0.39,0.58-0.48c0.59-0.19,0.9-0.63,0.99-1.19c0.09-0.58-0.05-1.1-0.62-1.43c-0.11-0.06-0.2-0.13-0.31-0.2
		c-0.76-0.51-1.67-0.49-2.4,0.06c-0.63,0.47-0.79,0.98-0.57,1.73c0.07,0.25,0.11,0.52,0.16,0.77
		C25.49,18.48,26.12,18.83,26.79,19.21z M16.99,32.17c0.69-0.94,1.05-2,1.57-2.99c-0.32,0.12-0.6,0.31-0.91,0.41
		c-0.74,0.25-1.49,0.46-2.23,0.68c-0.18,0.05-0.36,0.11-0.63,0.19C15.56,31.06,16.15,31.71,16.99,32.17z M22.17,25.33
		c0.46,0.05,0.6,0.05,0.83-0.07c1.03-0.52,1.37-1.39,1.34-2.4c-0.01-0.32-0.24-0.51-0.57-0.54c-0.51-0.05-1.04,0.35-1.12,0.85
		c-0.08,0.51-0.18,1.03-0.28,1.53C22.33,24.91,22.25,25.1,22.17,25.33z M6.69,25.42c-0.05-0.52-0.1-1.02-0.15-1.52
		c0-0.04,0-0.1-0.03-0.13c-0.27-0.25-0.16-0.51-0.01-0.77c0.09-0.16,0.06-0.28-0.06-0.4c-0.13-0.12-0.26-0.05-0.38,0
		c-0.08,0.04-0.15,0.1-0.22,0.16c-0.67,0.6-0.8,1.76-0.29,2.49c0.25,0.35,0.44,0.41,0.85,0.26C6.48,25.5,6.57,25.47,6.69,25.42z
		 M11.17,32.02c0.6-0.33,1.47-1.09,1.75-1.51c-0.47-0.11-0.95-0.19-1.41-0.32c-0.47-0.14-0.92-0.33-1.48-0.53
		C10.43,30.5,10.79,31.25,11.17,32.02z"/>
	<path class="st1" d="M31.88,7.82c0.26,0.05,0.51,0.07,0.73,0.15c1.01,0.35,1.79,0.94,2.17,1.97c0.4,1.06-0.09,1.92-0.79,2.4
		c-0.66,0.45-1.39,0.68-2.21,0.47c-0.28-0.07-0.58-0.05-0.86-0.13c-1-0.29-1.59-1.1-1.6-2.15C29.32,9.37,29.99,8.36,31.04,8
		C31.31,7.9,31.6,7.88,31.88,7.82z M34.34,10.9c-0.01-1.39-0.78-2.22-1.88-2.49c-0.78-0.19-1.47,0.01-2.02,0.58
		c-0.64,0.66-0.8,1.95-0.32,2.72c0.11,0.18,0.25,0.42,0.52,0.36c0.16-0.03,0.25,0.02,0.38,0.07c0.89,0.35,1.77,0.35,2.59-0.2
		C34.06,11.63,34.34,11.22,34.34,10.9z"/>
	<path class="st0" d="M14.66,32.76c-0.01,0.49-0.19,0.71-0.86,0.76c-0.46,0.03-0.84-0.32-0.83-0.71c0.01-0.39,0.42-0.74,0.84-0.73
		C14.3,32.09,14.67,32.39,14.66,32.76z M14.07,32.71c-0.05-0.02-0.09-0.04-0.13-0.04c-0.17,0-0.35,0.02-0.38,0.23
		c-0.01,0.05,0.06,0.15,0.11,0.16c0.19,0.04,0.33-0.04,0.4-0.22C14.09,32.81,14.07,32.76,14.07,32.71z"/>
	<path class="st0" d="M13.64,36c-0.19-0.09-0.39-0.15-0.56-0.26c-0.09-0.06-0.16-0.19-0.18-0.29c-0.06-0.29,0.27-0.75,0.57-0.82
		c0.33-0.07,0.64,0.05,0.92,0.19c0.09,0.05,0.15,0.22,0.16,0.34C14.58,35.63,14.19,35.96,13.64,36z M13.47,35.4
		c0.44,0.05,0.49-0.01,0.43-0.4C13.73,35.16,13.6,35.28,13.47,35.4z"/>
	<path class="st1" d="M27.64,9.89c-0.02,0.22-0.15,0.31-0.37,0.32c-0.57,0.03-1.13,0.07-1.7,0.1c-0.12,0.01-0.25,0.01-0.35-0.04
		c-0.08-0.04-0.16-0.16-0.15-0.24c0-0.06,0.13-0.14,0.22-0.16c0.24-0.05,0.48-0.07,0.73-0.09c0.34-0.03,0.67-0.05,1.01-0.08
		C27.26,9.66,27.47,9.68,27.64,9.89z"/>
	<path class="st1" d="M28.24,12.36c-0.11,0.07-0.19,0.18-0.29,0.19c-0.49,0.06-0.89,0.29-1.32,0.5c-0.17,0.08-0.34,0.12-0.52,0
		c-0.16-0.11-0.18-0.28-0.01-0.36c0.44-0.21,0.88-0.41,1.34-0.56C27.76,12.02,27.88,12.09,28.24,12.36z"/>
	<path class="st1" d="M38.08,7.44c0.17,0.06,0.28,0.07,0.36,0.13c0.17,0.11,0.16,0.3-0.02,0.39c-0.08,0.04-0.17,0.06-0.26,0.08
		c-0.36,0.12-0.72,0.25-1.08,0.37c-0.07,0.02-0.16,0.06-0.21,0.04c-0.1-0.06-0.21-0.14-0.24-0.23c-0.02-0.06,0.06-0.21,0.14-0.25
		C37.21,7.78,37.67,7.61,38.08,7.44z"/>
	<path class="st1" d="M35.64,5.08c0.17-0.03,0.28-0.07,0.38-0.07c0.2,0.01,0.29,0.18,0.18,0.35c-0.05,0.07-0.12,0.13-0.18,0.2
		c-0.25,0.28-0.5,0.56-0.75,0.84c-0.05,0.05-0.11,0.13-0.17,0.13c-0.11,0-0.25-0.02-0.33-0.09c-0.05-0.05-0.05-0.22-0.01-0.28
		C35.06,5.79,35.36,5.42,35.64,5.08z"/>
	<path class="st1" d="M32.47,4.3c0.13-0.12,0.19-0.21,0.28-0.26c0.17-0.1,0.34-0.01,0.36,0.19c0.01,0.09-0.02,0.18-0.03,0.26
		c-0.04,0.37-0.08,0.74-0.13,1.1c-0.01,0.07-0.01,0.17-0.06,0.2c-0.09,0.06-0.22,0.12-0.32,0.11c-0.07-0.01-0.17-0.15-0.17-0.23
		C32.41,5.21,32.45,4.74,32.47,4.3z"/>
	<path class="st1" d="M30.34,15.91c0.07-0.42,0.14-0.8,0.2-1.18c0.03-0.17,0.09-0.3,0.29-0.27c0.18,0.03,0.32,0.14,0.29,0.34
		c-0.05,0.4-0.11,0.8-0.19,1.19c-0.03,0.16-0.11,0.33-0.34,0.29C30.4,16.24,30.33,16.12,30.34,15.91z"/>
	<path class="st1" d="M39.06,10.89c-0.07,0.04-0.12,0.08-0.18,0.1c-0.55,0.19-1.11,0.21-1.67,0.05c-0.08-0.02-0.16-0.09-0.21-0.16
		c-0.1-0.15,0.01-0.33,0.19-0.29c0.47,0.12,0.91,0.06,1.36-0.06C38.8,10.47,38.92,10.62,39.06,10.89z"/>
	<path class="st1" d="M32.95,14.45c0.27,0.08,0.4,0.19,0.46,0.4c0.09,0.34,0.22,0.68,0.31,1.02c0.02,0.09,0.01,0.23-0.04,0.27
		c-0.06,0.05-0.2,0.04-0.29,0.01c-0.08-0.02-0.16-0.1-0.19-0.18C32.97,15.51,32.81,15.02,32.95,14.45z"/>
	<path class="st1" d="M35.97,13.47c0.37,0.12,0.91,0.68,1.18,1.18c-0.14,0.19-0.34,0.19-0.47,0.05c-0.28-0.29-0.51-0.62-0.75-0.95
		C35.89,13.71,35.95,13.59,35.97,13.47z"/>
	<path class="st1" d="M26.89,6.95c0.09-0.04,0.17-0.11,0.24-0.11c0.24,0.01,1.12,0.53,1.34,0.79c-0.09,0.05-0.18,0.14-0.25,0.13
		c-0.47-0.09-0.87-0.32-1.24-0.62C26.94,7.1,26.93,7.03,26.89,6.95z"/>
	<path class="st1" d="M29.19,4.91c0.1-0.01,0.19-0.06,0.26-0.03c0.22,0.08,0.9,0.83,1.03,1.14c-0.1,0.02-0.22,0.08-0.28,0.05
		c-0.42-0.23-0.73-0.56-0.99-0.95C29.19,5.06,29.2,4.99,29.19,4.91z"/>
	<path class="st2" d="M9.31,19.48c0.16,0.25,0.3,0.47,0.48,0.73c-0.04,0.34,0.02,0.5,0.27,0.62c0.14,0.07,0.26,0.04,0.29-0.11
		c0.17-0.79,0.68-1.31,1.35-1.73c0.5-0.31,0.99-0.64,1.56-1c0,0.24,0,0.42,0,0.61c0,0.13,0,0.27,0.03,0.4
		c0.07,0.32,0.2,0.4,0.52,0.29c0.49-0.17,0.98-0.36,1.45-0.58c0.97-0.46,1.94-0.91,2.81-1.54c0.06-0.04,0.13-0.07,0.25-0.12
		c0.28,0.41,0.56,0.82,0.84,1.23c0.2,0.28,0.38,0.58,0.61,0.84c0.27,0.31,0.32,0.29,0.61-0.01c0.03-0.03,0.07-0.05,0.15-0.11
		c0.14,0.43,0.27,0.84,0.39,1.24c0.11,0.35,0.18,0.72,0.49,0.99c0.14,0.12,0.18,0.34,0.25,0.52c0.14,0.36,0.29,0.72,0.39,1.09
		c0.05,0.19,0.05,0.41,0.02,0.62c-0.15,1.1-0.59,2.09-1.26,2.99c-0.89,1.2-2.07,2.04-3.41,2.67c-0.93,0.44-1.93,0.7-2.95,0.84
		c-1.57,0.21-3.05-0.08-4.41-0.9c-0.5-0.3-1.01-0.56-1.42-0.98c-0.51-0.52-0.85-1.11-1.08-1.8c-0.26-0.77-0.45-1.55-0.42-2.37
		c0.02-0.55,0.08-1.1,0.33-1.61c0.05-0.11,0.1-0.27,0.18-0.3c0.34-0.09,0.35-0.36,0.44-0.61C8.31,20.67,8.84,20.09,9.31,19.48z
		 M14.02,28.68c0.4,0,0.79-0.07,1.15-0.27c1.26-0.71,1.64-1.86,1.67-3.18c0.01-0.28-0.12-0.39-0.45-0.39
		c-1.09,0-2.18-0.12-3.26,0.12c-0.12,0.03-0.25,0.03-0.36,0.02c-0.46-0.07-0.51-0.04-0.63,0.4c-0.19,0.73-0.14,1.46,0.07,2.16
		c0.07,0.25,0.28,0.51,0.49,0.68C13.08,28.51,13.53,28.68,14.02,28.68z M10.92,22.74c0.11-0.27,0.18-0.53,0.32-0.75
		c0.19-0.3,0.4-0.6,0.66-0.84c0.26-0.24,0.51-0.13,0.61,0.21c0.05,0.17,0.05,0.36,0.11,0.52c0.05,0.15,0.14,0.29,0.24,0.41
		c0.05,0.06,0.2,0.07,0.28,0.04c0.05-0.02,0.1-0.15,0.09-0.22c-0.06-0.31-0.09-0.63-0.21-0.91c-0.28-0.63-1.04-0.8-1.62-0.4
		c-0.51,0.36-0.75,0.9-0.9,1.46C10.43,22.53,10.49,22.57,10.92,22.74z M16.99,22.02c0.11-0.22,0.22-0.45,0.35-0.67
		c0.1-0.16,0.22-0.33,0.37-0.45c0.27-0.23,0.54-0.13,0.61,0.2c0.04,0.17,0.02,0.36,0.07,0.53c0.04,0.13,0.11,0.28,0.21,0.37
		c0.18,0.16,0.37,0.08,0.36-0.16c0-0.28-0.03-0.57-0.11-0.84c-0.22-0.69-1.17-0.92-1.68-0.4c-0.25,0.25-0.43,0.58-0.58,0.9
		C16.45,21.84,16.57,21.97,16.99,22.02z M14.44,23.67c0.27,0,0.57-0.22,0.65-0.48c0.07-0.23,0.01-0.32-0.34-0.54
		c-0.08-0.05-0.14-0.12-0.22-0.15c-0.22-0.08-0.45-0.08-0.65,0.07c-0.16,0.13-0.23,0.4-0.15,0.61
		C13.82,23.44,14.16,23.67,14.44,23.67z M19.51,20.5c0.07-0.66-0.2-1.18-0.66-1.63c-0.22-0.22-0.44-0.51-0.91-0.35
		c0.13,0.15,0.22,0.29,0.35,0.38c0.35,0.26,0.54,0.6,0.62,1.01c0.02,0.1,0.03,0.21,0.07,0.3C19.06,20.42,19.2,20.57,19.51,20.5z"/>
	<path class="st3" d="M19.94,18.56c-0.54-0.73-0.92-1.5-1.61-2.09c-0.73,0.41-1.44,0.84-2.18,1.23c-0.74,0.38-1.51,0.72-2.32,1.1
		c-0.25-0.65,0.22-1.09,0.32-1.6c-0.32-0.32-0.34-0.33-0.68-0.09c-0.19,0.13-0.35,0.29-0.54,0.42c-0.75,0.52-1.51,1.03-2.26,1.55
		c-0.19,0.13-0.39,0.27-0.62,0.42c-0.1-0.46,0.16-0.79,0.26-1.15c-0.31-0.3-0.38-0.33-0.64-0.08c-0.29,0.27-0.55,0.56-0.78,0.88
		C8.25,20.01,7.64,20.9,7,21.81c-0.04-0.07-0.09-0.14-0.12-0.23c-0.22-0.69-0.21-1.37-0.02-2.07c0.07-0.28,0.22-0.57,0.06-0.87
		c-0.02-0.04,0.01-0.11,0.04-0.17c0.51-1.19,1.35-2.12,2.4-2.9c0.13-0.1,0.31-0.13,0.46-0.2c0.16-0.08,0.31-0.16,0.48-0.25
		c-0.08-0.15-0.13-0.26-0.18-0.37c0.04-0.03,0.07-0.07,0.11-0.08c1.03-0.49,2.13-0.76,3.26-0.92c0.12-0.02,0.24,0.04,0.36,0.02
		c0.11-0.01,0.21-0.07,0.32-0.1c-0.04-0.1-0.06-0.23-0.13-0.3c-0.17-0.17-0.36-0.32-0.62-0.53c0.44-0.22,0.77-0.39,1.12-0.54
		c0.22-0.1,0.46-0.04,0.66,0.08c0.52,0.29,1.03,0.6,1.55,0.88c0.46,0.25,0.69,0.67,0.87,1.12c0.14,0.34,0.33,0.6,0.8,0.66
		c0.13-0.16,0.28-0.36,0.48-0.61c0,0.18,0.01,0.27,0,0.36c-0.05,0.56,0.23,0.75,0.74,0.52c0.07-0.03,0.14-0.06,0.24-0.1
		c0.01,0.46,0.25,0.64,0.68,0.71c0.24,0.04,0.48,0.2,0.68,0.36c0.62,0.5,1.13,1.1,1.52,1.79c0.1,0.17,0.2,0.34,0.29,0.51
		c0.11,0.2,0.3,0.39,0.09,0.64c-0.03,0.03-0.01,0.12,0,0.17c0.18,0.91-0.01,1.75-0.48,2.54c-0.07,0.11-0.12,0.23-0.21,0.41
		c-0.08-0.16-0.14-0.26-0.19-0.36c-0.25-0.54-0.51-1.08-0.73-1.64c-0.17-0.43-0.29-0.88-0.44-1.32c-0.08-0.23-0.18-0.44-0.28-0.66
		c-0.09-0.19-0.24-0.32-0.47-0.31c-0.22,0-0.24,0.2-0.31,0.34C20.01,18.42,19.99,18.46,19.94,18.56z M13.73,15.29
		c-0.18-0.27-0.2-0.29-0.39-0.22c-0.31,0.11-0.62,0.25-0.92,0.39c-0.14,0.06-0.23,0.2-0.13,0.33c0.05,0.07,0.21,0.06,0.33,0.08
		c0.04,0,0.08-0.03,0.12-0.05C13.05,15.64,13.37,15.48,13.73,15.29z M15.26,17.05c0.11-0.04,0.16-0.05,0.19-0.08
		c0.2-0.28,0.4-0.56,0.59-0.85c0.03-0.04-0.01-0.15-0.05-0.2c-0.04-0.04-0.14-0.07-0.2-0.05c-0.24,0.06-0.69,0.66-0.67,0.91
		C15.13,16.88,15.21,16.96,15.26,17.05z M14.55,15.55c-0.24,0.14-0.47,0.25-0.67,0.4c-0.11,0.08-0.13,0.23-0.02,0.35
		c0.11,0.11,0.22,0.05,0.32-0.02c0.16-0.11,0.34-0.2,0.49-0.32c0.07-0.05,0.14-0.17,0.12-0.23C14.78,15.66,14.65,15.62,14.55,15.55z
		"/>
	<path class="st2" d="M5.5,19.85c-0.76,0.33-1.45,0.64-2.12,0.93c-0.26-0.12-0.48-0.24-0.72-0.32c-0.8-0.26-1.29-1.12-1.08-1.92
		c0.19-0.73,0.7-1.19,1.37-1.47c0.43-0.18,0.91-0.28,1.38-0.35c0.87-0.12,1.38,0.4,1.27,1.25c-0.02,0.16-0.09,0.32-0.1,0.48
		c-0.02,0.34-0.03,0.68-0.04,1.02C5.46,19.6,5.49,19.73,5.5,19.85z M4.16,19.03c0.08,0.13,0.13,0.27,0.23,0.35
		c0.14,0.13,0.31,0.23,0.48,0.32c0.05,0.03,0.18-0.02,0.23-0.08c0.03-0.03,0-0.14-0.03-0.2c-0.12-0.21-0.26-0.4-0.38-0.61
		c-0.13-0.22-0.32-0.3-0.57-0.29c-0.18,0.01-0.35,0-0.62,0c0.11-0.21,0.16-0.36,0.26-0.48c0.1-0.12,0.26-0.2,0.38-0.32
		c0.07-0.06,0.15-0.18,0.13-0.24c-0.03-0.08-0.15-0.16-0.24-0.17c-0.11-0.02-0.25,0.01-0.35,0.07c-0.31,0.16-0.53,0.41-0.66,0.72
		c-0.11,0.27-0.06,0.45,0.17,0.64C3.46,19,3.78,19.12,4.16,19.03z"/>
	<path class="st4" d="M24.64,24.51c0.06-0.24,0.13-0.48,0.18-0.72c0.04-0.19,0.05-0.38,0.07-0.58c0.1-0.8-0.51-1.21-1.06-1.35
		c-0.12-0.03-0.24-0.05-0.37-0.08c0.09-0.4,0.18-0.78,0.26-1.17c0.02-0.1,0.05-0.21,0.04-0.31c-0.06-0.59,0.27-1.04,0.53-1.52
		c0.14-0.26,0.27-0.3,0.53-0.16c0.7,0.4,1.39,0.82,2.09,1.23c0.19,0.11,0.17,0.28,0.1,0.43c-0.17,0.38-0.33,0.77-0.53,1.14
		c-0.51,0.92-1.03,1.83-1.55,2.74c-0.07,0.13-0.16,0.25-0.24,0.38C24.67,24.52,24.66,24.51,24.64,24.51z"/>
	<path class="st2" d="M26.79,19.21c-0.67-0.37-1.31-0.73-1.94-1.08c-0.05-0.25-0.09-0.52-0.16-0.77c-0.22-0.75-0.06-1.26,0.57-1.73
		c0.73-0.54,1.64-0.57,2.4-0.06c0.1,0.07,0.2,0.14,0.31,0.2c0.57,0.33,0.72,0.85,0.62,1.43c-0.09,0.56-0.4,1-0.99,1.19
		c-0.27,0.09-0.45,0.25-0.58,0.48C26.96,18.98,26.88,19.08,26.79,19.21z M26.43,16.81c-0.12,0.23-0.34,0.22-0.56,0.22
		c-0.44,0-0.44,0.01-0.55,0.43c-0.01,0.06-0.04,0.11-0.05,0.17c-0.02,0.2,0.12,0.3,0.28,0.36c0.16,0.06,0.26-0.05,0.33-0.17
		c0.06-0.1,0.1-0.21,0.14-0.32c0.11-0.01,0.2-0.02,0.29-0.04c0.09-0.02,0.18-0.03,0.27-0.07c0.28-0.11,0.45-0.37,0.41-0.58
		c-0.09-0.44-0.78-0.87-1.29-0.8C25.75,16.45,26.4,16.37,26.43,16.81z"/>
	<path class="st4" d="M16.99,32.17c-0.84-0.46-1.43-1.11-2.2-1.7c0.27-0.08,0.45-0.13,0.63-0.19c0.74-0.22,1.49-0.43,2.23-0.68
		c0.31-0.1,0.59-0.29,0.91-0.41C18.04,30.18,17.68,31.24,16.99,32.17z"/>
	<path class="st2" d="M22.17,25.33c0.08-0.23,0.16-0.42,0.2-0.62c0.11-0.51,0.2-1.02,0.28-1.53c0.08-0.5,0.6-0.9,1.12-0.85
		c0.33,0.03,0.56,0.22,0.57,0.54c0.03,1.02-0.31,1.88-1.34,2.4C22.77,25.37,22.63,25.38,22.17,25.33z"/>
	<path class="st2" d="M6.69,25.42c-0.13,0.05-0.21,0.08-0.3,0.11c-0.41,0.15-0.61,0.09-0.85-0.26c-0.51-0.73-0.38-1.89,0.29-2.49
		c0.07-0.06,0.14-0.12,0.22-0.16c0.12-0.06,0.25-0.13,0.38,0c0.12,0.12,0.16,0.24,0.06,0.4c-0.15,0.25-0.26,0.51,0.01,0.77
		c0.03,0.03,0.03,0.08,0.03,0.13C6.59,24.4,6.64,24.9,6.69,25.42z"/>
	<path class="st4" d="M11.17,32.02c-0.37-0.77-0.74-1.52-1.15-2.37c0.56,0.2,1.01,0.4,1.48,0.53c0.46,0.14,0.94,0.22,1.41,0.32
		C12.64,30.93,11.77,31.69,11.17,32.02z"/>
	<path class="st1" d="M34.34,10.9c0,0.32-0.27,0.73-0.73,1.04c-0.82,0.56-1.69,0.55-2.59,0.2c-0.13-0.05-0.22-0.1-0.38-0.07
		c-0.27,0.06-0.41-0.18-0.52-0.36c-0.48-0.78-0.32-2.07,0.32-2.72c0.55-0.57,1.24-0.77,2.02-0.58C33.55,8.68,34.32,9.51,34.34,10.9z
		 M32.17,10.97c-0.17-0.09-0.29-0.18-0.41-0.22c-0.13-0.04-0.28,0-0.24,0.16c0.05,0.24,0.23,0.42,0.46,0.52
		c0.22,0.09,0.43,0.06,0.59-0.12c0.15-0.17,0.28-0.35,0.41-0.54c0.09-0.13,0.07-0.25-0.07-0.35c-0.16-0.11-0.32-0.09-0.43,0.06
		C32.37,10.64,32.28,10.79,32.17,10.97z M32.98,10.1c0.29-0.26,0.35-0.41,0.23-0.61c-0.08-0.14-0.23-0.25-0.37-0.17
		c-0.12,0.07-0.25,0.23-0.27,0.36C32.53,9.95,32.76,10.04,32.98,10.1z M31.11,9.48c-0.2,0.01-0.25,0.14-0.24,0.31
		c0.01,0.23,0.2,0.43,0.39,0.41c0.12-0.01,0.31-0.27,0.3-0.41C31.54,9.64,31.31,9.47,31.11,9.48z"/>
	<path class="st4" d="M14.07,32.71c0,0.05,0.02,0.1,0.01,0.13c-0.07,0.17-0.22,0.25-0.4,0.22c-0.05-0.01-0.12-0.11-0.11-0.16
		c0.02-0.22,0.21-0.23,0.38-0.23C13.98,32.66,14.02,32.69,14.07,32.71z"/>
	<path class="st4" d="M13.47,35.4c0.13-0.12,0.27-0.25,0.43-0.4C13.96,35.39,13.9,35.45,13.47,35.4z"/>
	<path class="st0" d="M14.02,28.68c-0.5,0-0.94-0.17-1.32-0.46c-0.21-0.17-0.41-0.42-0.49-0.68c-0.21-0.71-0.26-1.44-0.07-2.16
		c0.12-0.44,0.17-0.46,0.63-0.4c0.12,0.02,0.25,0.01,0.36-0.02c1.08-0.24,2.17-0.13,3.26-0.12c0.33,0,0.45,0.11,0.45,0.39
		c-0.04,1.31-0.41,2.47-1.67,3.18C14.81,28.6,14.43,28.67,14.02,28.68z M12.77,25.57c-0.24,0.69-0.14,1.37,0.04,2.03
		c0.04,0.15,0.19,0.31,0.34,0.4c0.32,0.19,0.68,0.26,1.06,0.18c1.2-0.25,2.11-1.53,1.97-2.83C15.04,25.28,13.9,25.24,12.77,25.57z"
		/>
	<path class="st0" d="M10.92,22.74c-0.43-0.16-0.49-0.21-0.42-0.47c0.16-0.57,0.39-1.1,0.9-1.46c0.58-0.41,1.34-0.24,1.62,0.4
		c0.13,0.28,0.16,0.6,0.21,0.91c0.01,0.07-0.04,0.2-0.09,0.22c-0.08,0.03-0.23,0.01-0.28-0.04c-0.11-0.11-0.19-0.26-0.24-0.41
		c-0.06-0.17-0.06-0.35-0.11-0.52c-0.1-0.34-0.35-0.45-0.61-0.21c-0.26,0.24-0.47,0.54-0.66,0.84
		C11.11,22.2,11.04,22.47,10.92,22.74z"/>
	<path class="st0" d="M16.99,22.02c-0.43-0.06-0.55-0.18-0.4-0.5c0.15-0.32,0.33-0.65,0.58-0.9c0.51-0.52,1.46-0.29,1.68,0.4
		c0.08,0.27,0.11,0.56,0.11,0.84c0,0.24-0.19,0.32-0.36,0.16c-0.1-0.09-0.17-0.24-0.21-0.37c-0.05-0.17-0.03-0.36-0.07-0.53
		c-0.07-0.34-0.34-0.43-0.61-0.2c-0.15,0.12-0.27,0.29-0.37,0.45C17.21,21.57,17.11,21.8,16.99,22.02z"/>
	<path class="st0" d="M14.44,23.67c-0.28,0-0.62-0.23-0.71-0.48c-0.07-0.21-0.01-0.48,0.15-0.61c0.2-0.16,0.42-0.16,0.65-0.07
		c0.08,0.03,0.14,0.11,0.22,0.15c0.35,0.21,0.41,0.31,0.34,0.54C15.01,23.45,14.71,23.67,14.44,23.67z"/>
	<path class="st0" d="M19.51,20.5c-0.31,0.07-0.45-0.07-0.53-0.28c-0.04-0.1-0.05-0.2-0.07-0.3c-0.08-0.41-0.27-0.75-0.62-1.01
		c-0.13-0.09-0.21-0.23-0.35-0.38c0.48-0.17,0.69,0.13,0.91,0.35C19.31,19.31,19.58,19.84,19.51,20.5z"/>
	<path class="st5" d="M13.73,15.29c-0.35,0.18-0.67,0.35-0.99,0.52c-0.04,0.02-0.09,0.06-0.12,0.05c-0.11-0.01-0.28-0.01-0.33-0.08
		c-0.1-0.13,0-0.26,0.13-0.33c0.3-0.14,0.61-0.28,0.92-0.39C13.53,15,13.55,15.03,13.73,15.29z"/>
	<path class="st5" d="M15.26,17.05c-0.05-0.09-0.13-0.17-0.14-0.27c-0.02-0.25,0.42-0.85,0.67-0.91c0.06-0.02,0.16,0.01,0.2,0.05
		c0.04,0.04,0.08,0.16,0.05,0.2c-0.19,0.29-0.39,0.57-0.59,0.85C15.43,17,15.37,17.01,15.26,17.05z"/>
	<path class="st5" d="M14.55,15.55c0.11,0.07,0.23,0.11,0.25,0.18c0.02,0.06-0.06,0.18-0.12,0.23c-0.15,0.12-0.32,0.22-0.49,0.32
		c-0.11,0.07-0.22,0.13-0.32,0.02c-0.11-0.12-0.1-0.27,0.02-0.35C14.08,15.8,14.31,15.69,14.55,15.55z"/>
	<path class="st0" d="M4.16,19.03c-0.38,0.09-0.7-0.04-0.98-0.27c-0.23-0.19-0.28-0.37-0.17-0.64c0.13-0.31,0.35-0.56,0.66-0.72
		c0.1-0.05,0.24-0.08,0.35-0.07c0.09,0.01,0.21,0.09,0.24,0.17c0.02,0.06-0.07,0.18-0.13,0.24c-0.12,0.12-0.28,0.2-0.38,0.32
		c-0.1,0.12-0.15,0.27-0.26,0.48c0.27,0,0.44,0.01,0.62,0c0.25-0.02,0.44,0.06,0.57,0.29c0.12,0.21,0.26,0.4,0.38,0.61
		c0.03,0.06,0.06,0.17,0.03,0.2c-0.06,0.05-0.18,0.1-0.23,0.08c-0.17-0.09-0.34-0.19-0.48-0.32C4.29,19.3,4.24,19.17,4.16,19.03z"/>
	<path class="st0" d="M26.43,16.81c-0.03-0.43-0.67-0.36-0.71-0.8c0.51-0.07,1.2,0.36,1.29,0.8c0.04,0.21-0.13,0.47-0.41,0.58
		c-0.08,0.03-0.18,0.05-0.27,0.07c-0.09,0.02-0.18,0.02-0.29,0.04c-0.05,0.11-0.09,0.22-0.14,0.32c-0.07,0.12-0.17,0.23-0.33,0.17
		c-0.16-0.06-0.31-0.15-0.28-0.36c0.01-0.06,0.03-0.11,0.05-0.17c0.1-0.42,0.1-0.42,0.55-0.43C26.09,17.03,26.31,17.04,26.43,16.81z
		"/>
	<path class="st4" d="M32.17,10.97c0.11-0.17,0.2-0.33,0.3-0.47c0.11-0.16,0.27-0.17,0.43-0.06c0.14,0.09,0.16,0.21,0.07,0.35
		c-0.13,0.18-0.26,0.37-0.41,0.54c-0.16,0.18-0.37,0.21-0.59,0.12c-0.24-0.1-0.41-0.28-0.46-0.52c-0.04-0.16,0.11-0.2,0.24-0.16
		C31.89,10.79,32,10.87,32.17,10.97z"/>
	<path class="st4" d="M32.98,10.1c-0.22-0.06-0.45-0.14-0.42-0.42c0.02-0.13,0.15-0.29,0.27-0.36c0.14-0.08,0.29,0.03,0.37,0.17
		C33.33,9.69,33.28,9.83,32.98,10.1z"/>
	<path class="st4" d="M31.11,9.48c0.2-0.01,0.44,0.16,0.45,0.31c0.01,0.14-0.18,0.39-0.3,0.41c-0.19,0.02-0.38-0.18-0.39-0.41
		C30.86,9.62,30.9,9.49,31.11,9.48z"/>
	<path class="st6" d="M12.77,25.57c1.13-0.33,2.27-0.29,3.41-0.23c0.13,1.31-0.77,2.59-1.97,2.83c-0.38,0.08-0.74,0.02-1.06-0.18
		c-0.15-0.09-0.3-0.25-0.34-0.4C12.64,26.93,12.54,26.26,12.77,25.57z"/>
	<ellipse class="st2" cx="14.39" cy="23.05" rx="0.19" ry="0.17"/>
	<ellipse class="st7" cx="19.37" cy="23.47" rx="1.8" ry="0.85"/>
	<ellipse class="st7" cx="9.34" cy="23.71" rx="1.8" ry="0.85"/>
</g>
</svg>
