<?xml version="1.0" encoding="UTF-8"?><svg xmlns="http://www.w3.org/2000/svg" viewBox="0 0 166.99 130.07"><defs><style>.cls-1{fill:#a8aaac;}.cls-2{fill:#5cbda6;}.cls-3{isolation:isolate;}.cls-4{fill:#473d3a;}.cls-5{fill:#db856d;}.cls-6{fill:#f19a86;}.cls-7{fill:#804f21;}.cls-8{fill:#f9cd9c;}.cls-9{fill:#e7c69c;mix-blend-mode:multiply;opacity:.33;}.cls-10{fill:#ffe878;}.cls-11{fill:#ffe520;}</style></defs><g class="cls-3"><g id="_レイヤー_2"><g id="_レイヤー_1-2"><g><ellipse class="cls-9" cx="72.42" cy="124.84" rx="72.37" ry="5.23"/><g><path class="cls-4" d="M59.37,67.69c-.56,.74-1.13,1.47-1.67,2.23-12.24,17.46-24.49,34.91-36.66,52.41-1.24,1.78-2.58,2.78-4.79,2.91-3.96,.24-7.9,.75-11.86,1.06-2.51,.2-3.14-.26-3.29-2.78C.64,115.95,.2,108.36,0,100.77c-.05-1.91,.5-4,1.35-5.72,1.41-2.83,3.04-5.64,5.02-8.1,12.22-15.1,24.55-30.12,36.89-45.11,1.28-1.55,1.96-3.07,1.85-5.13-.17-3.36-.08-6.73-.08-10.1,0-4.69,.65-9.3,2.13-13.75,1.39-4.18,3.55-7.93,7.44-10.27,4.39-2.64,8.96-3.05,13.4-.11,1.37,.91,2.23,.82,3.56-.11,7.02-4.91,16.66-1.97,19.17,6.93,1.74,6.2,2.53,12.52,2.79,18.9,.19,4.47-.13,8.97-.33,13.45-.07,1.51,.4,2.58,1.5,3.6,7.04,6.5,14.03,13.06,21.05,19.59,13.27,12.36,26.46,24.8,39.87,37.01,4.3,3.92,7.98,8.15,9.98,13.61,.76,2.07,.96,4.34,1.36,6.54,.2,1.14-.39,1.64-1.53,1.9-7.89,1.83-15.78,3.69-23.64,5.65-1.42,.35-2.27-.11-3.17-1.03-3.82-3.87-7.67-7.71-11.51-11.57-16.95-17-33.89-34.01-50.85-51-.81-.82-1.44-1.84-2.98-1.67-3.29,.35-3.29,.25-3.26,3.58,.2,18.14,.27,36.27,.69,54.4,.09,3.95-2.98,5.9-6.46,5.01-1.82-.47-2.7-1.59-2.75-3.52-.36-12.43-.69-24.86-1.05-37.29-.18-6.2-.39-12.39-.59-18.59-.16-.07-.32-.14-.47-.21Zm15.08-24.84c.06,0,.12,0,.18,0,0-3.88,.09-7.77-.02-11.65-.11-3.88-.32-7.76-.67-11.62-.37-4.04-1.01-8.01-2.84-11.74-3.03-6.18-10.42-7.5-15.68-4.15-2.32,1.47-4,3.51-5.3,5.9-2.36,4.34-3.44,9.08-3.49,13.92-.12,12.6,.06,25.19,.14,37.79,.01,1.93,.31,2.23,2.6,2.19,7.59-.14,15.18-.35,22.77-.59,2.21-.07,2.3-.23,2.31-2.45,.02-5.87,0-11.74,0-17.61ZM3.95,124.75c.75,.05,1.1,.11,1.44,.08,3.95-.36,7.9-.77,11.86-1.08,1.25-.1,1.76-.97,2.34-1.8,12.93-18.45,25.86-36.91,38.78-55.37,.36-.52,.6-1.12,.93-1.74-3.36,0-6.47,.14-9.56-.04-2.46-.15-3.93,.86-5.31,2.82-12.9,18.27-25.88,36.47-38.84,54.7-.49,.69-.94,1.4-1.63,2.44Zm134.97,1.96c-.26-7.95-2.37-14.28-8.02-19.52-17.85-16.55-35.48-33.35-53.2-50.04-.46-.44-1-.79-1.93-1.52,0,2.1,.12,3.72-.03,5.32-.17,1.77,.38,3,1.66,4.28,19.8,19.77,39.53,39.6,59.28,59.41,.59,.59,1.22,1.13,2.25,2.08ZM72.31,7.03c1.02-.63,1.94-1.27,2.92-1.79,1.95-1.02,3.95-1.05,6-.22,2.27,.93,4.06,2.47,4.87,4.74,.86,2.41,1.51,4.95,1.87,7.48,.36,2.55,.24,5.17,.34,7.76,.08,2.19,.06,2.25-2.28,2.28-2.76,.04-5.53,.07-8.29,.03-1.19-.02-1.66,.35-1.66,1.62,0,6.22-.06,12.44-.19,18.65-.03,1.35,.48,2.25,1.44,3.12,2.67,2.45,5.32,4.93,7.88,7.5,1.25,1.25,2.57,1.86,4.35,1.76,2.11-.12,2.13-.02,2.16-2.15,.08-5.87,.07-11.75,.22-17.62,.2-7.6,.4-15.2-.8-22.73-.57-3.57-1.17-7.15-2.86-10.43C84.89,.47,76.73-.07,71.84,3.8c-.7,.56-1.09,1.07-.41,1.9,.32,.39,.56,.84,.88,1.33Zm20.92,43.55c0,2.66,.11,4.72-.04,6.77-.12,1.65,.51,2.71,1.71,3.77,21.81,19.37,43.58,38.77,65.37,58.17,.67,.59,1.4,1.11,2.5,1.98-.77-5.28-2.86-9.19-6.34-12.41-20.34-18.81-40.66-37.63-60.99-56.44-.55-.51-1.16-.97-2.2-1.84Zm50.35,77.1c6.19-1.47,12.33-2.93,18.84-4.48-1.06-1.01-1.78-1.74-2.54-2.42-21.78-19.4-43.59-38.77-65.32-58.24-1.73-1.55-3.3-1.5-5.48-1.03,.53,.62,.83,1.03,1.19,1.37,15.03,14.26,30.04,28.53,45.1,42.75,4.25,4.01,6.86,8.81,7.62,14.58,.31,2.36,.39,4.76,.6,7.46Zm-74.51-32.88c0-8.98-.38-18.03-.38-27,0-.6-.04-1.21-.04-1.81,0-.95-.39-1.42-1.4-1.39-1.47,.05-2.93,0-4.4,.04-1.68,.05-1.73,.07-1.68,1.78,.1,3.45,.27,6.9,.37,10.35,.39,14.23,.75,28.46,1.13,42.7,.04,1.38,.11,2.76,.12,4.14,.01,1.34,.7,2.01,1.95,2.33,2.77,.72,4.51-.59,4.52-3.52,0-9.23,0-27.62-.2-27.62Zm-23.64-35.62c-.19-.09-.38-.18-.57-.28-.64,.87-1.29,1.74-1.92,2.62-13.09,18.21-26.13,36.45-39.33,54.58-1.83,2.52-1.48,4.75-.9,7.81,.47-.65,.61-.85,.76-1.06,13.8-19.39,27.61-38.78,41.39-58.19,.28-.39,.51-.9,.53-1.36,.07-1.37,.03-2.75,.03-4.13ZM81.26,25.84h0c1.47,0,2.93-.03,4.4,0,1,.03,1.37-.39,1.31-1.39-.19-3.01-.15-6.04-.56-9.02-.26-1.92-.92-3.88-1.81-5.61-2.19-4.24-6.95-5.19-10.42-2.31-.82,.68-1.12,1.29-.71,2.42,.55,1.52,.9,3.13,1.13,4.74,.46,3.15,.83,6.31,1.12,9.48,.12,1.31,.61,1.83,1.94,1.72,1.2-.1,2.41-.02,3.62-.02Zm12.26,20.27c-.53,1.46-.25,2.44,.7,3.27,.65,.57,1.25,1.19,1.88,1.78,20.29,18.74,40.58,37.48,60.85,56.23,3.1,2.86,5.47,6.21,6.5,10.37,.29,1.17,.48,2.36,.8,3.52,.12,.44,.47,.81,.71,1.21,.23-.5,.72-1.04,.64-1.48-.28-1.6-.6-3.23-1.17-4.75-1.83-4.95-4.93-8.94-8.84-12.53-20.06-18.48-39.97-37.11-59.94-55.69-.67-.63-1.37-1.23-2.15-1.93Zm-17.18,5.56c-1.09,1.56-.03,2.24,.76,2.99,4.07,3.86,8.15,7.71,12.23,11.56,14.07,13.27,28.07,26.63,42.27,39.76,4.89,4.53,7.75,9.8,8.34,16.38,.14,1.55,.36,3.09,.64,4.61,.08,.41,.52,.74,.79,1.11,.19-.43,.54-.86,.54-1.29,0-2.07,.05-4.15-.22-6.2-.77-5.9-3.66-10.62-8-14.67-9.48-8.82-18.83-17.79-28.23-26.7-9.65-9.14-19.31-18.28-29.12-27.56ZM14.82,84.2c-.53,.3-.8,.37-.93,.54-2.19,2.67-4.52,5.23-6.48,8.06-1.3,1.88-2.7,4.06-2.92,6.23-.41,4.07-.01,8.23,.07,12.35,0,.1,.21,.2,.44,.42,.42-.54,.85-1.05,1.25-1.59,1.87-2.58,3.57-5.31,5.63-7.73,2.48-2.92,3.66-6.03,3.2-9.9-.33-2.68-.19-5.42-.26-8.37Zm5.26,5.92c.47-.17,.68-.18,.75-.29,3.23-4.45,6.46-8.9,9.66-13.38,.28-.39,.54-.93,.53-1.39-.09-3.3-.26-6.6-.41-10.02-.51,.2-.71,.22-.8,.33-3.13,3.77-6.26,7.54-9.35,11.35-.4,.5-.78,1.21-.77,1.82,.06,3.83,.24,7.65,.38,11.58Zm24.7-47.87c-.62,.7-1.19,1.31-1.72,1.96-11.69,14.29-23.42,28.55-35.03,42.91-1.99,2.46-3.61,5.25-5.22,8-1.15,1.95-1.6,4.19-1.54,6.47,.08,3.62,.24,7.24,.41,10.86,.05,.96,.25,1.91,.38,2.86,.22,.01,.43,.02,.65,.03,.2-.75,.59-1.51,.56-2.25-.1-3.36-.29-6.71-.51-10.07-.31-4.77,1.49-8.76,4.43-12.34,4.43-5.41,8.88-10.8,13.31-16.2,7.83-9.53,15.65-19.08,23.5-28.6,.86-1.04,1.57-2.03,.78-3.64Zm.4,5.18c-.19-.03-.39-.07-.58-.1-2.9,3.53-5.81,7.05-8.68,10.61-.36,.44-.73,1.05-.72,1.57,.08,2.98,.28,5.95,.45,9.23,.53-.41,.76-.52,.9-.7,2.73-3.78,5.45-7.55,8.15-11.35,.29-.41,.65-.91,.65-1.37,0-2.63-.1-5.26-.17-7.89Zm-28.61,48.02c1.7-1.53,2.44-2.95,2.24-4.96-.29-2.98-.33-5.99-.49-8.99-.02-.44-.16-.88-.25-1.32-.17-.04-.34-.08-.51-.12-.46,.86-1.3,1.71-1.31,2.57-.02,4.15,.18,8.31,.32,12.81Zm17.32-34.61c-1.72,1.26-2.24,2.3-1.99,3.9,.29,1.86,.22,3.78,.33,5.67,.05,.83,.14,1.65,.24,2.78,1.47-1.13,1.97-2.14,1.8-3.72-.29-2.7-.26-5.44-.38-8.62Z"/><path class="cls-5" d="M74.44,42.85c0,5.87,.02,11.74,0,17.61,0,2.22-.1,2.38-2.31,2.45-7.59,.24-15.18,.45-22.77,.59-2.29,.04-2.59-.26-2.6-2.19-.08-12.6-.26-25.19-.14-37.79,.04-4.84,1.12-9.58,3.49-13.92,1.3-2.39,2.98-4.43,5.3-5.9,5.26-3.35,12.64-2.02,15.68,4.15,1.83,3.73,2.48,7.7,2.84,11.74,.35,3.86,.56,7.74,.67,11.62,.11,3.88,.02,7.77,.02,11.65-.06,0-.12,0-.18,0Zm-13.78-15.05s0-.02,0-.03c2.93,0,5.86-.02,8.79,.01,1.1,.01,1.55-.43,1.5-1.53-.15-2.93-.06-5.88-.43-8.77-.31-2.45-.82-4.97-1.8-7.21-2.61-5.97-9.23-7.05-13.75-2.38-.88,.91-1.62,2.02-2.24,3.13-2.59,4.61-3,9.65-2.64,14.79,.13,1.82,.34,1.95,2.29,1.98,2.76,.03,5.52,0,8.28,0Z"/><path class="cls-11" d="M3.95,124.75c.69-1.04,1.14-1.75,1.63-2.44,12.96-18.23,25.94-36.43,38.84-54.7,1.38-1.96,2.85-2.97,5.31-2.82,3.09,.18,6.21,.04,9.56,.04-.33,.63-.57,1.23-.93,1.74-12.92,18.46-25.85,36.92-38.78,55.37-.58,.83-1.09,1.7-2.34,1.8-3.96,.31-7.9,.72-11.86,1.08-.34,.03-.68-.03-1.44-.08Zm38.49-45.01s0-.05,0-.07c1.11,0,2.21,.03,3.32-.03,.25-.01,.49-.34,.73-.53-.28-.25-.55-.7-.83-.7-1.79-.04-3.57,0-5.36,.05-.33,0-.69,.08-.99,.22-.18,.08-.38,.37-.36,.55,.01,.18,.27,.48,.43,.49,1.02,.04,2.04,.02,3.06,.02Zm-5.16,7.17s0,0,0,.01c.94,0,1.88,.04,2.81-.02,.26-.02,.5-.34,.75-.52-.19-.24-.37-.69-.56-.69-1.96-.03-3.91,0-5.87,.08-.18,0-.39,.45-.48,.72-.02,.07,.34,.39,.53,.4,.94,.04,1.88,.02,2.81,.02Zm-14.25,13.59c-.07,.37-.13,.51-.1,.53,1.15,.99,5.69,1.28,6.81,.44,.12-.09,.25-.33,.2-.43-.08-.2-.27-.51-.42-.52-2.18-.03-4.37-.02-6.49-.02Zm8.12-6.94s0-.05,0-.07c-.85-.07-1.7-.2-2.55-.17-.32,.01-.64,.39-.95,.61,.29,.25,.57,.7,.87,.72,2.04,.09,4.09,.1,6.13,.08,.25,0,.49-.35,.74-.54-.22-.21-.44-.59-.67-.6-1.19-.06-2.38-.03-3.57-.03Zm-9.1,16.35c.88-.12,1.65-.18,2.39-.34,.15-.03,.33-.39,.33-.59,0-.2-.22-.56-.36-.56-2.03-.12-4.06-.2-6.09-.26-.17,0-.52,.36-.49,.4,.14,.26,.33,.64,.56,.69,1.25,.27,2.51,.45,3.67,.65Zm29.55-38.46c-2.55,0-4.56-.03-6.57,.03-.31,0-.62,.39-.93,.6,.31,.24,.63,.69,.93,.68,1.86-.07,3.73-.23,5.58-.4,.18-.02,.34-.3,.99-.91ZM15.51,116.39s0,.04,0,.07c-1.03,0-2.05-.02-3.08,.02-.17,0-.44,.29-.46,.47-.02,.18,.21,.56,.33,.56,2.03,0,4.07-.02,6.1-.09,.14,0,.37-.36,.36-.55,0-.17-.28-.45-.45-.46-.94-.05-1.88-.02-2.81-.02Z"/><path class="cls-10" d="M138.92,126.71c-1.03-.94-1.66-1.49-2.25-2.08-19.75-19.81-39.49-39.64-59.28-59.41-1.28-1.28-1.84-2.51-1.66-4.28,.16-1.59,.03-3.22,.03-5.32,.93,.73,1.47,1.08,1.93,1.52,17.72,16.7,35.35,33.49,53.2,50.04,5.65,5.24,7.77,11.57,8.02,19.52Z"/><path class="cls-5" d="M72.31,7.03c-.32-.48-.56-.94-.88-1.33-.68-.83-.29-1.34,.41-1.9,4.89-3.88,13.05-3.34,16.43,3.23,1.69,3.28,2.29,6.87,2.86,10.43,1.2,7.54,1,15.14,.8,22.73-.15,5.87-.14,11.74-.22,17.62-.03,2.13-.05,2.03-2.16,2.15-1.79,.1-3.11-.51-4.35-1.76-2.56-2.56-5.21-5.05-7.88-7.5-.95-.87-1.46-1.77-1.44-3.12,.12-6.22,.18-12.43,.19-18.65,0-1.27,.46-1.64,1.66-1.62,2.76,.04,5.53,.01,8.29-.03,2.34-.03,2.37-.09,2.28-2.28-.1-2.59,.02-5.2-.34-7.76-.36-2.53-1.01-5.07-1.87-7.48-.81-2.27-2.59-3.81-4.87-4.74-2.04-.83-4.05-.81-6,.22-.98,.52-1.9,1.16-2.92,1.79Z"/><path class="cls-10" d="M93.23,50.58c1.05,.87,1.65,1.33,2.2,1.84,20.33,18.81,40.66,37.63,60.99,56.44,3.48,3.22,5.57,7.13,6.34,12.41-1.1-.87-1.83-1.39-2.5-1.98-21.79-19.39-43.56-38.8-65.37-58.17-1.19-1.06-1.83-2.12-1.71-3.77,.15-2.05,.04-4.12,.04-6.77Z"/><path class="cls-11" d="M143.58,127.68c-.21-2.7-.29-5.1-.6-7.46-.77-5.77-3.37-10.57-7.62-14.58-15.06-14.22-30.07-28.49-45.1-42.75-.36-.34-.65-.75-1.19-1.37,2.18-.47,3.76-.52,5.48,1.03,21.73,19.46,43.54,38.83,65.32,58.24,.76,.68,1.48,1.4,2.54,2.42-6.51,1.55-12.64,3.01-18.84,4.48Z"/><path class="cls-5" d="M69.27,122.43c0,2.93-1.74,4.24-4.52,3.52-1.25-.33-1.94-1-1.95-2.33-.01-1.38-.08-2.76-.12-4.14-.38-14.23-.74-28.47-1.13-42.7-.09-3.45-.27-6.9-.37-10.35-.05-1.71,0-1.73,1.68-1.78,1.47-.04,2.93,0,4.4-.04,1.01-.03,1.4,.43,1.4,1.39,0,.6,.04,1.21,.04,1.81,0,8.98,.38,18.03,.38,27,.19,0,.21,18.39,.2,27.62Z"/><path class="cls-10" d="M45.43,59.18c0,1.38,.05,2.75-.03,4.13-.02,.47-.26,.97-.53,1.36-13.79,19.4-27.59,38.79-41.39,58.19-.15,.21-.3,.41-.76,1.06-.59-3.07-.94-5.3,.9-7.81,13.2-18.12,26.24-36.37,39.33-54.58,.63-.88,1.28-1.75,1.92-2.62,.19,.09,.38,.18,.57,.28Z"/><path class="cls-11" d="M93.52,46.11c.78,.7,1.47,1.3,2.15,1.93,19.97,18.58,39.89,37.21,59.94,55.69,3.9,3.6,7,7.59,8.84,12.53,.56,1.52,.89,3.14,1.17,4.75,.08,.44-.41,.98-.64,1.48-.24-.4-.59-.78-.71-1.21-.32-1.16-.51-2.36-.8-3.52-1.04-4.16-3.41-7.51-6.5-10.37-20.28-18.75-40.57-37.49-60.85-56.23-.63-.59-1.23-1.21-1.88-1.78-.95-.83-1.23-1.81-.7-3.27Z"/><path class="cls-11" d="M76.34,51.67c9.81,9.28,19.47,18.42,29.12,27.56,9.41,8.91,18.75,17.88,28.23,26.7,4.34,4.04,7.23,8.77,8,14.67,.27,2.04,.21,4.13,.22,6.2,0,.43-.35,.86-.54,1.29-.27-.37-.72-.71-.79-1.11-.28-1.53-.5-3.07-.64-4.61-.6-6.58-3.45-11.86-8.34-16.38-14.2-13.13-28.19-26.49-42.27-39.76-4.08-3.85-8.16-7.7-12.23-11.56-.79-.75-1.85-1.43-.76-2.99Z"/><path class="cls-10" d="M44.78,42.25c.79,1.61,.08,2.6-.78,3.64-7.85,9.52-15.67,19.06-23.5,28.6-4.44,5.4-8.89,10.79-13.31,16.2-2.93,3.58-4.74,7.58-4.43,12.34,.22,3.35,.41,6.71,.51,10.07,.02,.74-.37,1.5-.56,2.25-.22-.01-.43-.02-.65-.03-.13-.95-.33-1.91-.38-2.86-.17-3.62-.33-7.24-.41-10.86-.05-2.28,.4-4.52,1.54-6.47,1.61-2.74,3.23-5.53,5.22-8,11.62-14.35,23.34-28.62,35.03-42.91,.53-.65,1.1-1.26,1.72-1.96Z"/><path class="cls-10" d="M16.57,95.45c-.14-4.51-.34-8.66-.32-12.81,0-.86,.85-1.72,1.31-2.57,.17,.04,.34,.08,.51,.12,.09,.44,.23,.88,.25,1.32,.16,3,.2,6,.49,8.99,.2,2.01-.54,3.42-2.24,4.96Z"/><path class="cls-10" d="M33.89,60.83c.12,3.17,.09,5.91,.38,8.62,.17,1.59-.33,2.6-1.8,3.72-.1-1.12-.19-1.95-.24-2.78-.11-1.89-.03-3.81-.33-5.67-.25-1.6,.27-2.64,1.99-3.9Z"/><path class="cls-4" d="M60.67,27.8c-2.76,0-5.52,.03-8.28,0-1.95-.02-2.16-.16-2.29-1.98-.36-5.14,.05-10.18,2.64-14.79,.63-1.11,1.36-2.22,2.24-3.13,4.52-4.67,11.13-3.59,13.75,2.38,.98,2.24,1.49,4.76,1.8,7.21,.37,2.89,.28,5.85,.43,8.77,.06,1.11-.39,1.54-1.5,1.53-2.93-.03-5.86-.01-8.79-.01,0,0,0,.02,0,.03Zm-3.87-1.45h0c1.38,0,2.76-.03,4.13,.02,.94,.03,1.47-.28,1.49-1.28,.01-.6,.06-1.2,.1-1.8,.32-4.3,.97-8.54,2.61-12.57,.95-2.33,.74-2.81-1.62-3.84-1.68-.73-3.38-.91-4.94,.12-1.27,.84-2.65,1.73-3.52,2.93-3.3,4.53-3.93,9.8-3.72,15.23,.03,.85,.48,1.21,1.32,1.2,1.38-.02,2.75,0,4.13,0Zm10.17-16.31c-2.33,5.14-2.95,10.23-3.2,15.4-.01,.22,.15,.64,.27,.65,.92,.11,1.87,.25,2.77,.12,.25-.04,.49-.94,.54-1.47,.26-3,.21-6.05,.77-8.98,.38-2.04,.19-3.71-1.14-5.72Zm2.4,8.92c-.89,3.92-.87,4.62,0,6.52v-6.52Z"/><path class="cls-4" d="M42.44,79.74c-1.02,0-2.04,.02-3.06-.02-.16,0-.42-.31-.43-.49-.01-.18,.19-.47,.36-.55,.3-.14,.65-.21,.99-.22,1.79-.04,3.57-.09,5.36-.05,.28,0,.56,.46,.83,.7-.24,.18-.48,.52-.73,.53-1.1,.06-2.21,.03-3.32,.03,0,.02,0,.05,0,.07Z"/><path class="cls-4" d="M37.28,86.91c-.94,0-1.88,.02-2.81-.02-.19,0-.55-.33-.53-.4,.09-.27,.3-.72,.48-.72,1.95-.08,3.91-.11,5.87-.08,.19,0,.38,.45,.56,.69-.25,.18-.49,.5-.75,.52-.93,.06-1.88,.02-2.81,.02,0,0,0,0,0-.01Z"/><path class="cls-4" d="M23.03,100.5c2.12,0,4.31-.01,6.49,.02,.15,0,.34,.31,.42,.52,.04,.1-.09,.34-.2,.43-1.11,.85-5.66,.55-6.81-.44-.03-.03,.03-.16,.1-.53Z"/><path class="cls-4" d="M31.14,93.56c1.19,0,2.38-.03,3.57,.03,.23,.01,.45,.39,.67,.6-.25,.19-.49,.53-.74,.54-2.04,.02-4.09,0-6.13-.08-.3-.01-.58-.47-.87-.72,.32-.21,.63-.6,.95-.61,.85-.03,1.7,.1,2.55,.17,0,.02,0,.05,0,.07Z"/><path class="cls-4" d="M22.04,109.91c-1.16-.2-2.42-.38-3.67-.65-.24-.05-.42-.43-.56-.69-.02-.04,.32-.41,.49-.4,2.03,.05,4.06,.14,6.09,.26,.14,0,.35,.36,.36,.56,0,.2-.18,.56-.33,.59-.74,.15-1.51,.22-2.39,.34Z"/><path class="cls-4" d="M51.6,71.46c-.65,.61-.81,.89-.99,.91-1.86,.17-3.72,.33-5.58,.4-.3,.01-.62-.44-.93-.68,.31-.21,.61-.59,.93-.6,2.01-.05,4.02-.03,6.57-.03Z"/><path class="cls-4" d="M15.51,116.39c.94,0,1.88-.02,2.81,.02,.17,0,.44,.29,.45,.46,0,.18-.23,.54-.36,.55-2.03,.07-4.07,.09-6.1,.09-.12,0-.35-.38-.33-.56,.02-.18,.29-.46,.46-.47,1.02-.04,2.05-.02,3.08-.02,0-.02,0-.04,0-.07Z"/><path class="cls-5" d="M66.96,10.05c1.34,2.02,1.53,3.68,1.14,5.72-.55,2.94-.5,5.99-.77,8.98-.05,.52-.29,1.43-.54,1.47-.9,.13-1.85-.01-2.77-.12-.12-.01-.28-.43-.27-.65,.25-5.17,.87-10.26,3.2-15.4Z"/></g><path class="cls-2" d="M130.17,102.19c2.92-1.98,5.32-2.26,7.5-1.24s7.89,5.08,7.89,5.08c0,0-.55,3-1.81,3.87s-2.78,3.77-2.78,3.77c0,0-4.46-6.93-5.93-8.13s-4.87-3.35-4.87-3.35Z"/><path class="cls-1" d="M117.44,89.99s2.33-3.3,4.43-2.86,5.82,1.61,7.15,.97,6.29-3.4,8.31-5.18,5.71-3.87,5.71-3.87l4.04,3.87s-4.79,5.8-8.49,7.07c-1.26,.43-2.53,2.14-2.83,4s-2.45,6.97-4.76,7.82l-13.56-11.83Z"/><g><path class="cls-4" d="M155.24,101.43c-.21-1.44-1.03-2.14-2.43-1.84-1.04,.22-2.09,.67-2.97,1.26-.98,.65-1.69,.62-2.72,.08-2.06-1.1-4.18-2.16-6.39-2.9-1.61-.53-3.41-.52-5.32-.77,.35-1.13,.8-2.21,1.01-3.34,.31-1.71,1.11-2.79,2.78-3.48,2.84-1.16,5.16-3.12,7.15-5.42,.94-1.09,1.93-1.98,3.27-2.61,2.24-1.06,2.83-2.63,1.73-4.72-.59-1.13-1.6-2.12-2.62-2.92-.41-.32-1.36,.06-2.07,.08-.38,.01-.78,.02-1.14-.08-1.75-.5-2.23-.43-2.5,1.23-.45,2.8-2.63,3.69-4.58,5.16-.09-.38-.13-.47-.12-.54,.11-.49,.25-.98,.35-1.47,1.2-5.91-.2-10.93-4.97-14.87-4-3.3-9.45-3.17-13.22,.44-.64,.62-1.22,1.05-2.17,.96-1.34-.14-2.42,.53-3.41,1.34-3.85,3.17-4.73,8.84-2.08,13.17,.33,.54,.45,1.22,.66,1.83,.43,1.25,1.09,2.52,2.53,2.42,1.84-.12,2.66,1.1,4.18,2.54-.76,.57-1.48,.93-1.94,1.5-.42,.53-.7,1.18-1,1.81,.03,.02,.07,.03,.09,.06,.15,.19,.34,.35,.53,.5,.54-.22,.7-1.06,1.2-1.34,.14-.08,.25-.22,.36-.35,.99-1.25,2.01-1.56,3.69-1,3.8,1.27,7.46,.58,10.73-1.79,2.43-1.76,4.82-3.59,7.21-5.42,2.13-1.63,2.12-1.65,3.89,.39,.06,.06,.11,.13,.16,.19,1.22,1.46,1.25,1.52-.04,2.9-1.96,2.1-4.16,3.95-6.86,4.99-1.77,.68-2.54,1.85-3,3.62-.75,2.88-1.24,5.95-3.97,7.88-.2,.14-.48,1.12-.56,1.42,.37,.02,1.14-.34,1.39-.5,1.52-.98,3.22-1.21,4.83-.68,1.56,.52,3.1,1.33,4.43,2.3,4.49,3.27,4.22,3.36,.38,7.37-1.39,1.45-1.21,2.78,.69,3.45,.66,.23,1.71,.05,2.4-.14,2.62-.74,4.92-2.1,6.93-3.92,.41-.37,.87-.96,.88-1.45,.02-1.4,.84-2.34,1.6-3.32,.93-1.21,1.22-2.56,1.01-4.03Zm-26.51-14.21c-3.04,.64-5.86,.02-8.24-1.99-.89-.75-1.45-1.89-2.23-2.95,.04,0-.17-.07-.26,.01-.76,.7-1.49,1.45-2.56,.49-.76-.68-1.07-2.8-.37-3.49,.26-.25,1.09-.22,1.47,0,1.25,.72,1.35,.37,1.17-.89-.24-1.67,1.41-2.24,2.38-3.72,.57,1.63,1.44,2.14,2.57,1.28,2.26-1.7,4.44-3.51,6.62-5.32,.24-.2,.23-.71,.34-1.07-.43,.05-.99-.05-1.27,.19-1.42,1.17-2.74,2.45-4.14,3.63-.61,.51-1.34,.88-2.04,1.33-.16-1.01-.3-1.86-.43-2.71-.79,.54-1.59,1.06-2.35,1.62-.33,.25-.63,.56-.88,.89-1.33,1.73-2.85,3.2-5.01,3.84-1.8-3.09-.72-8.69,2.93-10.77,.62-.35,1.52-.77,2.09-.57,1.29,.46,1.85,.01,2.62-.98,2.3-2.99,7.03-3.77,10.22-1.73,4.34,2.78,6.63,6.58,6.31,11.96-.33,5.52-3.59,9.81-8.92,10.94Zm15.57-10.89q1.42,.91,3.44-.42c.64,.79,1.35,1.55,1.9,2.4,.54,.84,1,1.76-.09,2.61-1.31,1.02-2.25,1.08-3.17-.03-1.06-1.27-3-2.16-2.08-4.57Zm-8.54,22.94c1.84-.7,3.65-.52,5.38,.25,1.83,.81,3.64,1.69,5.43,2.61,.49,.25,1.16,.75,1.18,1.15,.03,.74-.36,1.5-.58,2.26-.67-.22-1.52-.25-1.97-.68-2.68-2.62-5.71-4.59-9.44-5.58Zm15,10.05c-2.14,1.25-4.31,2.44-6.49,3.63-.2,.11-.49,.09-.74,.06-.8-.08-1.13-.75-.64-1.37,1.07-1.37,2.14-2.75,3.29-4.07,.81-.93,3.78-1.13,4.67-.35,.29,.25,.42,.68,.65,1.06-.26,.39-.42,.86-.73,1.04Zm3.17-6.08c-.35,.54-.95,1.51-1.61,2.44-.22,.31-2.88-.1-2.91-.48-.08-.83-.15-1.9,.28-2.49,.54-.74,1.55-1.21,2.45-1.58,1.35-.56,2.03,.08,1.79,2.11Z"/><path class="cls-7" d="M131.91,70.05c.21-.17,.6-.15,.91-.15,.08,0,.16,.25,.28,.44-.08,.19-.11,.47-.28,.62-1.27,1.14-2.54,2.27-3.86,3.36,2.03,.81,3.27-.82,5.12-2.09,.19-.61,.38-1.22,.59-1.82,.09-.25,.44-.56,.68-.57,.2,0,.6,.41,.58,.62-.1,1.28-.28,2.54-1.02,3.63,1.19-.22,2-.82,2.42-1.8-.76-3.34-2.83-5.93-6-7.96-3.18-2.04-7.92-1.26-10.22,1.73-.77,1-1.32,1.44-2.62,.98-.56-.2-1.46,.21-2.09,.57-3.65,2.08-4.73,7.68-2.93,10.77,2.16-.64,3.69-2.11,5.01-3.84,.25-.33,.55-.64,.88-.89,.77-.57,1.57-1.08,2.35-1.62,.14,.85,.27,1.69,.43,2.71,.7-.45,1.43-.82,2.04-1.33,1.41-1.18,2.73-2.46,4.14-3.63,.28-.23,.84-.13,1.27-.19-.11,.36-.1,.87-.34,1.07-1.43,1.19-2.87,2.37-4.33,3.52,1.32-.03,2.32-.41,3.34-.95,1.18-1.09,2.38-2.15,3.61-3.18Z"/><path class="cls-8" d="M137.33,72.28c-.43,.99-1.23,1.59-2.43,1.81-.31,.45-.7,.89-1.25,1.26-.08-.53-.22-.86-.14-1.14,.18-.67,.36-1.33,.57-1.99-1.85,1.26-3.1,2.89-5.12,2.09-.09,.08-.18,.15-.28,.23-.21,.18-.72,0-1.1-.01,.13-.35,.15-.8,.4-1.02,.1-.1,.22-.19,.32-.28-1.02,.54-2.01,.92-3.34,.94-.76,.61-1.51,1.21-2.3,1.79-1.12,.85-2,.35-2.57-1.28-.97,1.48-2.62,2.05-2.37,3.72,.18,1.25,.08,1.61-1.17,.89-.39-.22-1.21-.26-1.47,0-.68,.68-.37,2.81,.37,3.48,1.07,.97,1.81,.22,2.56-.49,.09-.08,.3-.01,.26-.01,.79,1.06,1.34,2.19,2.23,2.96,2.37,2.01,5.2,2.63,8.23,1.99,3.3-.7,5.81-2.61,7.31-5.28,.3-.5,.55-1.05,.76-1.6,.48-1.25,.77-2.61,.85-4.07,.09-1.45-.04-2.76-.31-4Z"/><path class="cls-1" d="M151.49,108.29c-.26,.39-.42,.86-.73,1.04-2.14,1.25-4.31,2.44-6.49,3.63-.2,.11-.49,.09-.74,.06-.8-.08-1.13-.75-.64-1.37,1.07-1.37,2.14-2.75,3.29-4.07,.81-.93,3.78-1.13,4.67-.35,.29,.25,.42,.68,.65,1.06Z"/><path class="cls-2" d="M135.76,99.27c1.83-.7,3.65-.52,5.38,.25,1.83,.81,3.64,1.69,5.43,2.61,.49,.25,1.16,.75,1.18,1.15,.03,.74-.36,1.5-.58,2.26-.67-.22-1.52-.25-1.97-.68-2.68-2.62-5.71-4.59-9.44-5.58Z"/><path class="cls-8" d="M144.3,76.33q1.42,.91,3.44-.42c.64,.79,1.35,1.55,1.9,2.4,.54,.84,1,1.76-.09,2.61-1.31,1.02-2.25,1.08-3.17-.03-1.06-1.27-3-2.16-2.08-4.57Z"/><path class="cls-1" d="M153.93,103.25c-.35,.54-.95,1.51-1.61,2.44-.22,.31-2.88-.1-2.91-.48-.08-.83-.15-1.9,.28-2.49,.54-.74,1.55-1.21,2.45-1.58,1.35-.56,2.03,.08,1.79,2.11Z"/><path class="cls-4" d="M133.09,70.34c-.08,.19-.11,.47-.28,.62-1.36,1.22-2.72,2.44-4.14,3.6-.22,.18-.73,0-1.1-.02,.13-.35,.16-.8,.4-1.02,1.28-1.19,2.6-2.34,3.94-3.46,.21-.17,.6-.15,.91-.15,.08,0,.16,.25,.28,.44Z"/><path class="cls-4" d="M133.66,75.35c-.08-.53-.22-.86-.15-1.14,.34-1.28,.73-2.56,1.16-3.81,.09-.25,.44-.56,.68-.57,.2,0,.6,.41,.58,.62-.14,1.82-.42,3.6-2.27,4.9Z"/></g><ellipse class="cls-6" cx="121.87" cy="81.1" rx="2.12" ry=".86"/><path class="cls-6" d="M136.79,80.34c-.21,.56-.46,1.1-.76,1.6-.09,.01-.18,.01-.27,.01-1.17,0-2.13-.39-2.13-.86s.96-.85,2.13-.85c.37,0,.74,.04,1.03,.1Z"/><path class="cls-4" d="M141.62,114.79c-.61-2.22-1.69-4.72-3.55-6.44-9.65-8.93-19.23-17.95-28.83-26.94l-.82,.3,8.23,8.03,10.65,10.32s8.91,7.85,11.04,10.03c.4,.41,1.86,3.62,2.08,4.2,.51,0,.86,.08,1.18,.51Z"/><path class="cls-4" d="M126.1,94.59c1.73,.25,3.13,1.01,3.95,2.67,.69,1.41,.19,2.62-.66,3.73-.29,.38-.9,.91-1.17,.82-1.55-.53-3.41,.26-4.71-1.58-.85-1.2-1.6-2.12-.93-3.55,.68-1.45,1.98-1.97,3.52-2.09Zm-.74,1.38c-.69-.02-1.2,.9-1.7,1.77-.08,.15,.02,.52,.16,.66,.51,.51,1.12,1.39,1.61,1.35,.98-.09,1.69,.12,2.44,.65,.06,.05,.52-.34,.7-.59,.53-.75,.63-1.55,.06-2.33-.68-.91-1.55-1.51-3.27-1.5Z"/><path class="cls-8" d="M125.36,95.97c1.72,0,2.59,.59,3.27,1.5,.58,.77,.48,1.58-.06,2.33-.18,.25-.64,.64-.7,.59-.74-.53-1.46-.74-2.44-.65-.49,.05-1.1-.84-1.61-1.35-.14-.14-.25-.51-.16-.66,.5-.87,1.01-1.78,1.7-1.77Z"/><path class="cls-4" d="M134.11,77.62c.03,1.12-.66,2.23-1.38,2.11-1.01-.17-1.23-.98-1.22-1.89,.01-.91,.26-1.75,1.26-1.86,1.17-.13,1.2,.88,1.34,1.64Z"/><path class="cls-4" d="M123.41,78.1c.05-1.11,1.33-1.58,1.92-1.64,.91-.1,1.09,.84,1.08,1.63,0,.89-.28,1.88-1.26,1.81-.53-.04-1.8-.69-1.75-1.8Z"/><path class="cls-4" d="M129.41,85.07c-1.34,.39-3.03-.73-2.29-1.79,.24-.34,.91-.19,1.23-.02,1.37,.81,1.82-.85,3.07-.62,.43,1.34-1.03,2.15-2,2.43Z"/><path class="cls-4" d="M130.16,80.96c.08,.55-.68,.71-.87,.68-.22-.03-.44-.38-.56-.64-.03-.08,.29-.45,.45-.45,.25,0,.91-.11,.98,.41Z"/></g></g></g></g></svg>