<?xml version="1.0" encoding="UTF-8"?><svg id="_レイヤー_2" xmlns="http://www.w3.org/2000/svg" viewBox="0 0 231.12 269.01"><defs><style>.cls-1{fill:#fff;}.cls-2{fill:#715f3a;}.cls-3{fill:#a8aaac;}.cls-4{fill:#5cbda6;}.cls-5{fill:#f6bb93;}.cls-6{fill:#fbd163;}.cls-7{fill:#473d3a;}.cls-8{fill:#f08c52;}.cls-9{fill:#f19a86;}.cls-10{fill:#804f21;}.cls-11{fill:#f9cd9c;}.cls-12{fill:#92d3f4;}.cls-13{fill:#558bb0;}</style></defs><g id="_レイヤー_1-2"><g><g><g><path class="cls-7" d="M59.3,63.52c-1.66-1.95-3.38-3.99-5.15-5.99-.3-.34-.8-.69-1.23-.7-1.77-.07-2.96-1.11-4.06-2.27-2.35-2.46-4.15-5.26-4.97-8.61-.06-.24-.22-.5-.18-.73,.83-4.33-2.06-7.75-2.76-11.79-.3,.12-.5,.2-.7,.29-1.62,.71-2.29,.43-2.17-1.25,.21-2.91,.43-5.87,1.13-8.68,1.39-5.59,4.83-9.86,9.41-13.25,1.65-1.22,3.54-1.45,5.5-1.35,1,.05,2.01,.26,3,.22,.5-.02,1.18-.29,1.43-.68C64.24,.1,72.48-1.4,81.58,1.08c10.13,2.76,17.08,9.33,20.07,19.62,1.43,4.91,.6,9.61-1.75,14.08-.19,.37-.4,.83-.73,1.01-1.71,.93-1.58,2.49-1.71,4.11-.39,4.5-.89,9-1.47,13.48-.79,6.12-4.1,10.49-9.53,13.33-.81,.42-1.6,.89-2.78,1.54,1.19,.62,2.09,1.21,3.07,1.56,3.53,1.25,6.64,3.12,9.32,5.77,3.05,3.02,4.15,6.62,3.46,10.78-.86,5.19-3.11,9.91-5.5,14.51-1.94,3.75-3.44,7.6-4.27,11.75-.24,1.22-.24,2.3,.25,3.41,.23,.54,.44,1.09,.65,1.63,.42,1.09,.56,2.52,1.35,3.17,.58,.47,2-.06,3.04-.17,1.8-.2,3.06,.61,3.99,2.07,.99,1.55,2.11,3.04,2.93,4.68,.49,.99,.82,2.27,.68,3.34-.44,3.43-2.21,6.12-5,8.23-1.5,1.14-2.89,1.14-4.42,.33-1.73-.92-2.69-2.46-3.32-4.25-.12-.34-.15-.71-.23-1.07-.19,.03-.38,.07-.57,.1,.35,1.9,.68,3.81,1.07,5.7,.53,2.61,1.07,5.22,1.7,7.8,.15,.62,.62,1.17,.99,1.71,5.25,7.68,10.5,15.35,15.75,23.03,.57,.83,1.16,1.65,1.61,2.54,.54,1.07,1,2.18-.61,2.91-.81,.36-.88,1.06-.53,1.91,.92,2.24,1.72,4.54,2.65,6.78,1.52,3.66,1.89,7.25,1,11.25-1.55,7.02-2.52,14.18-3.73,21.27-.1,.58-.14,1.17-.29,1.73-.4,1.53-.67,2.89,1.32,3.64,.69,.26,1.14,1.15,1.74,1.78,.51-.74,.92-1.47,1.47-2.1,1.14-1.31,2.53-1.13,3.1,.48,.38,1.08,.03,2.59,.67,3.36,.64,.77,1.72,1.17,1.33,2.63,.64-.27,.92-.3,1.07-.46,.93-.96,1.65-.84,1.89,.48,.21,1.13,.63,1.27,1.51,.65,.2-.14,.43-.24,.67-.3,.15-.04,.46,.01,.47,.06,.3,1.95,2.52,.69,3.25,1.96,.53,.92,1.22,1.76,1.76,2.68,.66,1.14,1.44,2.28,1.8,3.53,.82,2.88-.34,5.23-3.16,6.19-1.71,.58-3.6,.94-5.39,.86-3.17-.14-6.32-.76-9.49-1.02-1.82-.15-3.67,0-5.51,.07-3.1,.11-6.19,.31-9.29,.38-2.93,.06-5.28-1.54-7.55-3.08-1.47-1-1.87-2.78-1.93-4.47-.05-1.41,.22-2.83,.35-4.24,.19-1.99,.42-3.99,.55-5.98,.15-2.23,1.34-3.83,3.19-4.81,1.38-.73,1.51-1.66,1.44-3.03-.28-5.44-.41-10.89-.64-16.33-.15-3.6,.56-7.02,2.14-10.22,.65-1.32,.6-2.31-.4-3.39-.85-.92-1.56-1.97-2.3-2.98-.39-.53-.76-.77-1.47-.49-1.7,.69-3.48,1.19-5.13,1.96-1.01,.47-1.54,.23-2.08-.59-3.03-4.62-6.15-9.19-9.08-13.88-2.35-3.77-4.79-7.45-7.96-10.98-1,1.46-1.93,2.81-2.83,4.17-4.62,6.99-9.22,14-13.86,20.97-.75,1.13-1.35,2.65-3.27,2.08-.18-.05-.66,.43-.79,.74-.38,.93-.67,1.89-.95,2.86-.78,2.72-2.42,4.77-4.85,6.15-4.22,2.4-8.47,4.76-12.71,7.13-.88,.49-1.75,.99-2.67,1.4-.97,.42-.98,.88-.4,1.7,1.06,1.49,1.21,3.01,.13,4.66-.77,1.18-.5,1.59,.96,2.06,1.05,.34,2.16,.59,2.57,1.78,.66,1.87-.29,4.53-2.78,4.12-1.37-.23-1.77,.33-1.73,1.61,.02,.83-.15,1.67-.28,2.5-.3,1.94,.15,3.7,1.39,5.17,1.88,2.23,2.3,4.61,.93,7.2-1.43,2.7-4,3.53-6.78,3.5-6.65-.06-12.61-5.46-13.83-12.07-1.2-6.49-1.92-13.09-4.44-19.3-.85-2.09-1.08-4.37-.69-6.68,.37-2.16,1.29-3.95,2.97-5.37,1.28-1.09,2.55-2.19,3.75-3.35,2.37-2.29,5.14-2.78,8.12-1.67,1.46,.54,2.41,.2,3.64-.61,3-1.97,6.1-3.82,9.27-5.51,.99-.53,1.21-1.31,1.58-2.09,1.77-3.81,1.75-3.8-1.92-5.89-1.16-.66-2.26-1.43-3.39-2.16-1.01-.65-1.18-1.45-.7-2.58,3.17-7.38,6.28-14.79,9.45-22.18,.82-1.91,1.77-3.77,2.87-6.1-1.12,.21-1.8,.38-2.49,.45-1.25,.13-1.88-.54-1.4-1.61,2.38-5.19,2.76-10.84,3.88-16.31,.42-2.04,.32-2.07-1.57-2.87-2.05-.87-3.46-2.35-4.17-4.44-.43-1.27-.89-2.58-.97-3.89-.1-1.61-.67-2.62-2.15-3.3-1.05-.49-1.93-1.32-2.89-1.99-1.84-1.29-1.99-1.53-1.46-3.72,2.98-12.28,8.03-23.62,15.68-33.7,1.03-1.36,2.48-2.57,4-3.34,3.28-1.66,6.74-2.94,10.09-4.47,1.11-.5,2.1-1.27,3.12-1.95,1.3-.88,2.58-1.8,3.8-2.65Zm34.59,59.68c-.74,.27-1.51,.49-2.2,.86-.21,.11-.2,.65-.28,.99,.28-.07,.65-.05,.84-.22,.57-.52,1.07-1.12,1.61-1.68h1.98c-.03-.18-.07-.36-.1-.53-.61,.2-1.23,.39-1.84,.59Zm-37.53,22.43c-6.3-.47-11.72,.79-17.19,1.49-.89,.11-1.27,.58-1.61,1.33-.92,2.06-1.98,4.07-2.88,6.14-2.91,6.76-5.76,13.56-8.67,20.32-.52,1.21-.34,2.01,.88,2.62,2.31,1.17,4.57,2.45,6.89,3.61,3.59,1.8,7.26,3.45,10.8,5.34,3.99,2.13,2.94,2.21,5.25-1.23,5.18-7.72,10.25-15.52,15.43-23.24,.67-.99,1.68-1.82,2.69-2.5,2.51-1.67,5.1-3.21,7.66-4.8,.49-.31,.96-.71,1.5-.87,.3-.09,.81,.13,1.06,.38,.16,.15,.14,.72-.03,.92-.42,.51-.91,.98-1.46,1.34-2.24,1.47-4.49,2.93-6.79,4.3-.89,.53-.97,1.04-.4,1.8,.3,.4,.59,.81,.89,1.22,1.58,2.16,3.25,4.27,4.74,6.49,3.22,4.8,6.41,9.62,9.49,14.51,.8,1.26,1.62,1.53,2.89,1.04,.47-.18,.97-.28,1.43-.48,5.57-2.52,11.16-4.98,16.68-7.59,3.17-1.5,3.14-1.62,1.2-4.42-3.29-4.75-6.63-9.47-9.91-14.23-2.23-3.24-4.43-6.51-6.56-9.82-.73-1.13-1.6-1.48-2.9-1.52-3.6-.12-7.21-.23-10.79-.62-6.99-.76-13.92-2.17-20.29-1.52ZM73.78,30.88c.2-.12,.41-.24,.61-.36-.71-3.17-1.42-6.35-2.13-9.52-.13-.57-.41-1.14-.38-1.7,.03-.41,.38-1.01,.72-1.13,.32-.11,.91,.22,1.22,.52,.27,.26,.28,.77,.45,1.15,1.69,4.02,4.24,7.32,8.06,9.57-.04-.32-.19-.57-.36-.81-1.54-2.29-3.11-4.56-4.61-6.87-.4-.61-.67-1.35-.82-2.07-.06-.27,.33-.82,.63-.94,.28-.11,.8,.08,1.07,.31,.3,.26,.44,.7,.63,1.07,2,3.87,5.27,6.43,8.89,8.62,.25,.15,.56,.21,1.3,.48-1.97-2.46-3.64-4.5-5.25-6.6-.5-.65-.93-1.41-1.19-2.18-.1-.31,.28-.91,.6-1.18,.15-.13,.72,.17,1.04,.36,.19,.11,.27,.41,.43,.61,2.33,2.85,4.54,5.81,7.03,8.52,1.78,1.93,3.93,3.53,6.37,5.67,.35-1.77,.82-2.97,.78-4.15-.07-1.82-.51-3.63-.77-5.44-.16-1.06-.52-2.04,1.13-2.52,1.29-.37,.29-1.59,.07-2.27-3.64-11.37-16.13-19.45-27.59-17.61-5.49,.88-9.95,3.42-11.9,9.1-.36,1.05-.97,.75-1.78,.45-2.58-.94-5.42-1.44-7.74,.08-6.09,3.96-9.34,9.75-9.94,17.11,1.97-.53,2.33-.35,2.53,1.22,.05,.41-.05,.86,.05,1.25,.53,2.1,1.09,4.19,1.66,6.28,.21,.76,.62,.93,1.48,.82,4.36-.54,6.69,1.07,7.98,5.22,.42,1.34,.6,2.85,2,3.94,.12-.8,.25-1.38,.28-1.96,.14-2.5,1.08-4.57,2.62-6.6,2.79-3.68,4.96-7.75,5.95-12.35,.37-1.72,1.06-3.41-.53-4.9-.16-.15-.28-.49-.22-.69,.1-.37,.28-.78,.57-1,.18-.14,.68-.06,.9,.11,.39,.3,.68,.73,.98,1.13,1.72,2.27,3.42,4.56,5.15,6.82,.64,.84,1.37,1.62,2.05,2.42Zm14.43,78.84c-1.12,1.35-2.6,1.78-4.24,1.95-1.75,.18-1.77,.23-1.52,1.97,.29,1.92-.09,3.94-1.46,5.03-2.56,2.05-5.53,3.45-9.07,2.59-2.03-.49-4.1-.84-6.17-1.07-1.12-.13-2.34-.04-3.43,.25-2.66,.72-5.27,1.66-7.91,2.43-5.05,1.48-10.1,2.94-15.18,4.31-.99,.27-1.06,.82-1.2,1.59-.61,3.54-1.24,7.08-1.9,10.62-.36,1.92-.78,3.82-1.23,6,2.67-.29,5.01-.4,7.3-.81,7.81-1.4,15.65-1.46,23.51-.81,3.58,.3,7.14,.9,10.72,1.23,3.83,.35,7.68,.55,11.53,.76,1.49,.08,1.58-.08,1.25-1.56-.13-.57-.28-1.14-.44-1.7-1.78-6.24-2.49-12.61-2.5-19.1,0-4.65,.9-9.13,1.95-13.68ZM67.41,26.31c-.3,.72-.47,1.01-.54,1.33-1.14,5.19-3.74,9.66-6.87,13.85-.84,1.12-1.29,2.25-1.46,3.63-.3,2.32-.77,4.62-1.28,6.91-.1,.45-.69,1.07-1.09,1.11-.42,.03-.95-.5-1.31-.89-.26-.29-.3-.77-.44-1.16-.92-2.6-1.83-5.21-2.77-7.8-.54-1.49-3.01-2.95-4.43-2.65-1.21,.25-1.85,2-1.49,4.09,.03,.16,.08,.32,.12,.49,.84,3.35,2.65,6.13,5.14,8.47,.47,.44,1.19,1.04,1.69,.95,1.92-.34,2.63,.96,3.58,2.16,6.52,8.28,14.79,12.21,25.36,9.55,5.65-1.42,10.06-4.69,11.69-10.6,1.41-5.1,1.98-10.37,2-15.65,.01-3.82-1.88-4.77-5.27-2.91-.35,.19-.88,.06-1.33,.08,0-.53-.2-1.22,.06-1.56,.44-.57,1.12-1.02,1.79-1.32,.88-.39,1.85-.57,2.78-.84l.05-.42c-1.77-.6-3.55-1.19-5.33-1.79-.38,1.96-.38,1.98-2.16,1.73-2.01-.29-3.91-.86-5.49-2.26-1.42-1.27-2.91-2.46-4.56-3.85,.17,1.27,.37,2.32,.44,3.37,.1,1.45,.27,2.77,1.63,3.72,.56,.39,.87,1.22,1.13,1.91,.11,.29-.11,.98-.32,1.05-.39,.13-.91,0-1.34-.15-.19-.06-.27-.4-.43-.6-1.64-2.07-3.33-2.17-5.24-.3-.36,.35-.62,.83-1.02,1.1-.29,.2-.97,.35-1.08,.2-.27-.34-.52-.96-.38-1.28,.29-.67,.8-1.27,1.31-1.8,.55-.57,1.21-1.03,1.81-1.53-1.66-2.11-3.21-4.07-4.97-6.31Zm-14.65,44.05c-3.58,.86-6.49,2.46-9.43,3.97-1.61,.82-2.83,2.02-3.89,3.48-5.54,7.66-9.85,15.93-12.72,24.95-.75,2.35-1.37,4.75-2.19,7.6,1.64-.47,2.74-.78,3.83-1.11,5.03-1.5,10.19-1.92,15.4-1.85,2.48,.03,2.54,.19,2.85-2.17,.54-4.15,1-8.31,1.5-12.46,.07-.58,.04-1.22,.29-1.71,.22-.43,.78-.68,1.18-1.01,.24,.4,.53,.78,.7,1.2,.08,.2-.05,.49-.07,.74-.25,2.67-.41,5.35-.77,8-.43,3.2-1.03,6.38-1.57,9.66,2.05,.17,4.29,.36,6.53,.53,1.82,.14,1.93,.12,1.75-1.64-.34-3.41-.67-6.84-1.28-10.21-1.03-5.68-2.28-11.31-3.43-16.97-.6-2.93-.51-5.82,.53-8.65,.25-.67,.45-1.36,.77-2.33Zm18.55,35.65c-.96,.85-1.85,1.59-2.69,2.37-.86,.8-1.61,1.72-2.53,2.44-1.74,1.37-3.67,2.41-5.98,2.21-1.83-.16-3.64-.54-5.47-.72-5.34-.51-10.69-1.1-15.89,.89-.23,.09-.5,.23-.71,.19-.3-.06-.74-.22-.81-.44-.11-.34-.11-.94,.1-1.12,.49-.42,1.12-.7,1.73-.95,.89-.35,1.81-.62,2.71-.93-3.48-.34-6.84-.15-10.17,.64-.84,.2-1.04,.74-1.03,1.47,.05,3.36,.34,6.71,1.53,9.88,.81,2.15,2.36,3.53,4.8,3.23,2.56-.32,5.15-.64,7.62-1.35,5.15-1.47,10.25-3.1,15.31-4.85,2.69-.94,5.27-1.36,8.06-.5,1.5,.46,3.13,.52,4.7,.8,2.76,.5,4.92-.69,7.49-2.46-.89,0-1.21-.03-1.53,0-.78,.08-1.69,.18-1.64-.88,.02-.41,.82-.89,1.36-1.14,.61-.28,1.32-.34,1.98-.49l-.07-.55c-.69-.04-1.4,.02-2.07-.14-.42-.1-.77-.5-1.15-.76,.35-.39,.65-.88,1.07-1.16,.54-.35,1.53,.23,1.91-.99-.88,0-1.62,.09-2.32-.03-.49-.09-.93-.48-1.39-.74,.43-.42,.79-.96,1.29-1.24,.56-.32,1.48,.16,2.13-1.05-2.17-.19-4.03-.16-5.9,.23-1.9,.4-1.9,.38-2.45-1.87Zm-10.07-26.93c.08,.3,.28,.63,.23,.91-.08,.44-.32,.85-.49,1.27-.48-.22-1.04-.35-1.41-.69-.27-.24-.37-.74-.44-1.15-.34-1.81-.7-3.61-.96-5.43-.32-2.24,.4-4.12,2.1-5.64,.62-.55,1.23-1.14,1.76-1.78,.18-.21,.22-.7,.09-.95-.1-.19-.6-.36-.83-.28-2.14,.74-4.34,1.41-5.21,3.89-.22,.62-.59,1.19-.95,1.75-1.86,2.9-2.43,6.07-1.74,9.4,2.01,9.59,4.29,19.13,4.89,28.95,.06,.92,.45,1.43,1.33,1.49,.73,.04,1.5,.07,2.21-.1,2.42-.58,4.02-2.33,5.54-4.13,.29-.35,.44-.91,.45-1.38,.06-2.34,.26-4.71,.02-7.03-.71-6.85-3.89-12.93-6.58-19.11Zm32.97,106.32c1.14,1.52,2.1,2.98,3.25,4.28,1.06,1.2,1.08,2.3,.35,3.65-1.98,3.63-2.64,7.54-2.42,11.64,.1,1.87,.37,2.3,2.18,2.8,3.32,.91,6.64,.55,9.94-.13,.92-.19,1.33-.74,1.5-1.72,.57-3.29,1.25-6.57,1.94-9.84,.35-1.66,.64-3.31,.06-4.95-1.25-3.54-2.55-7.07-3.83-10.6-.34-.95-1-.67-1.62-.38-3.71,1.71-7.41,3.43-11.35,5.26ZM61.13,70.3c-.13,.62-.41,1.18-.31,1.65,.17,.81,.57,1.57,.89,2.34,1.78,4.24,3.7,8.42,5.32,12.72,1.89,5.02,3.5,10.14,3.07,15.64-.08,.99,.12,1.58,1.36,1.43,.9-.11,1.86-.04,2.74,.19,1.23,.32,1.91,.07,2.13-1.25,.12-.74,.44-1.44,.54-2.18,.56-4.14,1.26-8.28,1.57-12.44,.24-3.32,.03-6.68-.07-10.02-.03-.88-.37-1.75-.71-3.21-1.32,3.07-3.57,2.97-5.77,2.68-2.71-.35-5.18-1.39-7.11-3.42-1.2-1.26-2.31-2.61-3.64-4.12ZM13.07,238.8c-.28-.76-.31-1.01-.44-1.17-2.73-3.56-4-7.67-4.62-12.04-.21-1.49-.34-2.99-.56-4.48-.66-4.56-1.24-9.14-3.64-13.22-.13-.22-.33-.48-.29-.68,.1-.51,.31-1,.47-1.51,.47,.23,1.19,.34,1.35,.71,1.03,2.28,2.23,4.54,2.81,6.95,.83,3.4,1.27,6.91,1.7,10.39,.42,3.44,1.17,6.76,2.67,9.88,1.67,3.47,4.47,5.59,8.23,6.31,2.13,.41,3.52-.82,3.8-2.98,.14-1.07-1.79-4.99-2.65-5.34-.21-.08-.49-.06-.72,0-.62,.15-1.23,.34-2.04,.57,.37,.28,.53,.49,.74,.54,.7,.16,1.73,.04,1.49,1.18-.22,1.07-1.22,1.04-2.05,.87-.64-.13-1.32-.39-1.81-.79-1.45-1.17-2.69-2.57-3.08-4.45-.32-1.55-.5-3.14-.63-4.71-.1-1.19-.07-2.24-1.57-2.75-.59-.2-1.07-1.26-1.25-2.01-.47-1.94,.18-3.47,2.11-4.32,1.23-.54,1.45-1.28,1.3-2.31-.1-.7-.33-1.44-.71-2.02-3.09-4.75-3.68-9.82-2.03-15.24-1.27-.26-2.11,.49-2.92,1.17-1.16,.96-2.18,2.1-3.39,2.98-2.68,1.95-3.53,4.6-3.06,7.72,.24,1.56,.63,3.12,1.17,4.6,1.49,4.11,2.34,8.35,3,12.67,.43,2.79,1.21,5.55,2.1,8.24,.69,2.08,2.09,3.78,4.53,5.25Zm113.6-2.61c-.6,1.04-1.03,1.82-1.5,2.59-.49,.82-1.03,1.21-2.03,.55-.74-.49-1.65-.75-2.51-1.03-2.3-.75-4.66-1.36-6.92-2.22-1.14-.43-1.86-.79-2.55,.65-.5,1.06-1.7,1.37-2.85,1.01-1.28-.4-2.57-.88-3.18-2.23-.12-.26-.09-.72,.07-.95,.78-1.16-.01-1.5-.83-2.08-1-.72-1.99-1.07-3.22-1.11-2.58-.08-4.92-1-6.93-2.6-.6-.47-1.1-1.28-1.27-2.02-.21-.92,.78-.83,1.36-1.09,.13-.06,.12-.56,.08-.85-.01-.09-.41-.21-.57-.16-1.36,.51-2.36,2.05-2.4,3.53-.04,1.15-.12,2.31-.26,3.46-.18,1.5-.54,2.97-.64,4.47-.18,2.91,.4,4.69,3.05,5.95,1.95,.92,3.82,1.63,5.98,1.49,2.42-.16,4.84-.38,7.27-.41,2.5-.03,5,.07,7.49,.23,2.84,.18,5.67,.54,8.5,.74,1.33,.09,2.66-.07,4.15-1.04-2.6-.17-4.76-.33-6.92-.46-5.34-.32-10.67-1.15-16.03-.24-3.96,.67-7.64-.37-11.2-1.97-.79-.35-1.95-.83-1.32-1.99,.58-1.07,1.44-.21,2.16,.1,3.02,1.3,6.09,2.39,9.47,1.85,4.51-.71,9.01-.45,13.53-.11,2.91,.22,5.83,.21,8.74,.4,1.24,.08,2.58,.17,3.07-1.06,.54-1.36-.7-2.24-1.79-3.44ZM80.63,69.07c.65,1.24,1.35,2.45,1.93,3.72,.49,1.06,.92,2.17,1.2,3.29,.22,.88,.96,2.21-.46,2.57-1.19,.3-1.21-1.06-1.5-1.89-.42-1.18-.82-2.38-1.35-3.51-.48-1.01-1.14-1.93-1.72-2.89-.43,.59-.5,1.03-.34,1.33,2.03,3.74,2.48,7.79,2.37,11.93-.17,6.63-.92,13.19-2.34,19.66-.4,1.82-.43,1.86,1.28,2.28,1.48,.36,2.12,1.34,2.03,2.74-.07,1.22,.51,1.37,1.5,1.34,2.14-.08,2.76-.59,3.03-2.78,.09-.74,.04-1.51,.07-2.26,.09-2.34,.11-4.69,.29-7.02,.57-7.26,1.24-14.52-.27-21.76-.68-3.27-2.64-5.44-5.72-6.76Zm-35.99,120.31c-.28-.3-.58-.81-1.02-1.04-3.12-1.61-6.26-3.16-9.41-4.72-.72-.36-1.33-.24-1.6,.58-.41,1.25-.96,2.51-1.04,3.79-.07,1.09-.54,1.39-1.39,1.74-1.76,.74-3.48,1.61-5.21,2.44-.82,.4-.98,.94-.54,1.82,1.48,2.97,3.36,5.57,6.03,7.59,.91,.69,1.69,.88,2.72,.27,2.15-1.29,4.34-2.51,6.52-3.74,3.29-1.86,3.77-5.34,4.93-8.72Zm50.93,19.92c-.08,.54-.17,.79-.14,1.03,.51,5.65,1.01,11.31,1.58,16.95,.05,.45,.54,1.03,.97,1.22,.9,.4,1.9,.62,2.87,.83,1.06,.23,1.71,0,1.69-1.35-.02-1.78,.7-3.2,2.52-3.95,.51-.21,1.08-.86,1.17-1.39,.77-4.23,1.42-8.48,2.17-13.09-4.47,.82-8.61,1.16-12.83-.25Zm-73.4-15.44c-2.42,1.76-4.57,3.33-6.73,4.89-2.85,2.05-3.17,2.82-2.28,6.27,.33,1.29,.84,2.54,1.36,3.76,.37,.86,.88,1.37,1.89,.52,.61-.51,1.49-1.06,2.22-1.02,2.42,.11,4.33-1.15,6.36-2.05,1.58-.69,3.05-1.61,4.92-2.61-3.63-2.54-5.87-5.72-7.74-9.76ZM93.25,96.29l.51,.14c1.62-3.19,3.01-6.48,3.66-10.02,.48-2.62,.33-5.26-1.29-7.48-1.79-2.46-4.08-4.43-6.85-5.77-.34-.16-.75-.2-1.08-.28-.12,.2-.22,.28-.2,.34,2.05,8.46,1.38,16.97,.57,25.49-.14,1.5-.17,3.01-.21,4.51-.03,1.41,0,2.82,0,4.24,.17,0,.33,.01,.5,.02,.51-1.93,1.2-3.82,1.49-5.78,.83-5.62,1.47-11.28,2.27-16.91,.12-.87-.23-2.46,1.21-2.33,1.63,.15,.94,1.67,.83,2.65-.43,3.73-.94,7.45-1.41,11.18Zm-29.19-29.77c.14,1.71-.21,3.4,.46,4.42,2.03,3.07,5.02,4.85,8.84,4.95,1.33,.04,2.05-.53,2.2-1.84,.17-1.48,.35-2.96,.54-4.52-2.04-.32-3.96-.48-5.81-.94-1.93-.48-3.8-1.24-6.23-2.06Zm28.06,64.59c.2,1.24,.21,1.21,1.69,2.28,.37,.27,.59,.75,.88,1.13-.45,.27-.88,.58-1.35,.81-.22,.11-.51,.09-.92,.15,.33,.51,.47,.82,.69,1.05,1.49,1.52,2.02,1.56,3.74,.19,1.77-1.41,3.02-3.12,3.5-5.44,.28-1.34,.45-2.57-.63-3.46-1.32-1.08-2.46-2.66-4.87-2.4,.83,.89,1.52,1.5,2.02,2.23,.2,.3,.07,.96-.14,1.32-.1,.18-.82,.18-1.12,.02-.57-.32-1-.91-1.58-1.21-.36-.19-.88-.05-1.33-.06,.1,.41,.08,.95,.34,1.21,.7,.71,1.59,1.25,2.26,1.98,.31,.34,.28,.99,.4,1.5-.54,.03-1.16,.26-1.6,.06-.72-.32-1.32-.9-1.97-1.38ZM16.32,214.84c.11,.39,.11,1.02,.35,1.13,1.19,.56,2.43,1.02,3.69,1.41,.21,.06,.67-.4,.88-.72,.65-.96,1.29-1.93,1.82-2.96,.24-.47,.41-1.13,.29-1.62-.27-1.13-1.64-1.83-3.25-1.88-1.37-.04-2.54,.33-3.05,1.7-.35,.93-.48,1.94-.72,2.95Zm88.24,13.63c.03,1.62,1.65,3.31,3.12,3.23,1.17-.06,2.99-1.65,2.97-2.58-.03-1.47-1.94-3.38-3.34-3.34-1.99,.06-2.79,.84-2.76,2.69Zm-15.59-108.79l-.56,.02c0,2.88-.05,5.77,.04,8.65,.02,.63,.53,1.24,.82,1.86,.34-.69,.84-1.34,.97-2.07,.08-.45-.25-1.13-.62-1.47-.99-.92-1.11-1.96-.35-2.91,1.28-1.61,.36-2.8-.31-4.08ZM18.94,222.86s0,.04,0,.05c.67,0,1.34,.04,2-.02,.28-.02,.7-.18,.79-.39,.09-.21-.09-.64-.29-.82-1.57-1.46-3.57-1.53-5.11-.16-.22,.19-.41,.59-.36,.84,.04,.2,.45,.45,.71,.47,.75,.06,1.5,.02,2.25,.02Zm-.05,3.3v.14c.58,0,1.16,.07,1.72-.03,.32-.06,.59-.38,.89-.58-.23-.21-.45-.58-.69-.59-1.39-.08-2.79-.11-4.18-.09-.22,0-.43,.37-.64,.57,.23,.19,.44,.52,.69,.55,.73,.07,1.48,.03,2.22,.03Zm-2.72,2.31c.42,.73,.68,1.67,1.04,1.7,.87,.09,1.79-.17,2.66-.42,.53-.15,.99-.52,1.48-.8-.06-.16-.13-.33-.19-.49h-4.99Zm95.83,4.13c1.78,1.85,2.19,1.33,2.98-.44,.11-.24,.03-.81-.1-.86-.32-.13-.8-.17-1.09-.01-.64,.36-1.19,.86-1.8,1.31Zm-85.43-12.2c.03-.2,.06-.4,.08-.61-.5-.27-.98-.66-1.51-.74-.24-.04-.82,.55-.81,.84,.01,.31,.51,.8,.85,.85,.43,.07,.92-.22,1.39-.35Zm90.63,14.96c.49-1.07,.85-1.81,1.14-2.58,.02-.04-.67-.42-.69-.4-.45,.63-.88,1.28-1.24,1.96-.05,.1,.31,.42,.78,1.01Zm4.36-1.19c-.13-.23-.2-.52-.37-.61-.17-.09-.56-.04-.65,.09-.31,.47-.56,.99-.77,1.52-.07,.17,.04,.59,.11,.6,.28,.04,.72,.08,.85-.08,.34-.44,.56-.98,.83-1.51ZM26,112.14c1.03,.7,1.59,1.09,2.58,1.77-.14-1.05-.21-1.63-.29-2.22-.59,.12-1.18,.23-2.29,.45Zm98.68,122.94c-.23-.21-.37-.41-.56-.5-.1-.05-.35,.04-.41,.14-.25,.43-.49,.87-.65,1.34-.06,.18,.1,.44,.17,.67,.28-.09,.66-.09,.8-.28,.28-.39,.43-.87,.66-1.36Zm-111.79-15.09c1.11-.46,.96-1.21,.41-2.04-.14,.68-.27,1.36-.41,2.04Zm95.52,14.28c-.36,.26-.54,.39-.72,.52,.4,.3,.77,.63,1.2,.88,.08,.05,.35-.22,.53-.34-.33-.35-.66-.7-1.01-1.06Zm5.83-5.81c.19-.62,.36-1.01,.42-1.42,.02-.13-.23-.31-.35-.46-.22,.38-.48,.75-.65,1.16-.04,.09,.24,.31,.58,.72Z"/><path class="cls-3" d="M56.36,145.63c6.37-.64,13.3,.76,20.29,1.52,3.58,.39,7.19,.51,10.79,.62,1.3,.04,2.17,.39,2.9,1.52,2.13,3.31,4.33,6.58,6.56,9.82,3.28,4.76,6.62,9.48,9.91,14.23,1.94,2.8,1.97,2.92-1.2,4.42-5.52,2.61-11.11,5.08-16.68,7.59-.46,.21-.96,.3-1.43,.48-1.27,.49-2.09,.22-2.89-1.04-3.08-4.89-6.27-9.71-9.49-14.51-1.49-2.22-3.15-4.33-4.74-6.49-.3-.4-.59-.81-.89-1.22-.57-.76-.48-1.27,.4-1.8,2.3-1.37,4.55-2.83,6.79-4.3,.55-.36,1.04-.84,1.46-1.34,.16-.2,.18-.77,.03-.92-.25-.25-.76-.47-1.06-.38-.54,.16-1,.57-1.5,.87-2.56,1.59-5.16,3.13-7.66,4.8-1.01,.67-2.03,1.5-2.69,2.5-5.19,7.72-10.25,15.52-15.43,23.24-2.31,3.44-1.27,3.35-5.25,1.23-3.54-1.89-7.21-3.54-10.8-5.34-2.32-1.16-4.58-2.44-6.89-3.61-1.22-.61-1.4-1.41-.88-2.62,2.91-6.77,5.76-13.56,8.67-20.32,.89-2.07,1.95-4.08,2.88-6.14,.34-.75,.71-1.22,1.61-1.33,5.48-.7,10.9-1.96,17.19-1.49Zm16.13,18.47c2.69-.76,5.17-1.45,7.65-2.19,.79-.24,1.62-.52,2.28-.98,.34-.24,.37-.93,.55-1.41-.44-.13-.93-.47-1.3-.36-3.13,.87-6.24,1.8-9.34,2.79-.42,.14-.7,.74-1.04,1.13,.39,.34,.79,.67,1.2,1.02Z"/><path class="cls-2" d="M73.78,30.88c-.69-.81-1.41-1.59-2.05-2.42-1.73-2.26-3.43-4.55-5.15-6.82-.3-.4-.59-.83-.98-1.13-.21-.17-.72-.25-.9-.11-.28,.22-.46,.64-.57,1-.06,.2,.06,.54,.22,.69,1.6,1.49,.9,3.18,.53,4.9-.98,4.61-3.16,8.67-5.95,12.35-1.54,2.03-2.49,4.1-2.62,6.6-.03,.58-.16,1.15-.28,1.96-1.39-1.09-1.58-2.6-2-3.94-1.29-4.15-3.61-5.76-7.98-5.22-.87,.11-1.28-.06-1.48-.82-.57-2.09-1.13-4.18-1.66-6.28-.1-.4,0-.84-.05-1.25-.2-1.57-.56-1.76-2.53-1.22,.6-7.36,3.85-13.14,9.94-17.11,2.33-1.51,5.17-1.01,7.74-.08,.81,.29,1.42,.6,1.78-.45,1.94-5.68,6.41-8.21,11.9-9.1,11.46-1.84,23.94,6.24,27.59,17.61,.22,.69,1.21,1.9-.07,2.27-1.65,.48-1.29,1.46-1.13,2.52,.27,1.81,.7,3.62,.77,5.44,.05,1.18-.42,2.38-.78,4.15-2.44-2.15-4.59-3.74-6.37-5.67-2.49-2.71-4.7-5.66-7.03-8.52-.16-.19-.24-.49-.43-.61-.33-.19-.89-.48-1.04-.36-.32,.28-.71,.87-.6,1.18,.25,.78,.69,1.53,1.19,2.18,1.61,2.09,3.29,4.14,5.25,6.6-.74-.27-1.04-.33-1.3-.48-3.62-2.19-6.89-4.75-8.89-8.62-.19-.37-.34-.81-.63-1.07-.27-.23-.79-.43-1.07-.31-.3,.12-.69,.66-.63,.94,.15,.72,.42,1.45,.82,2.07,1.5,2.32,3.07,4.59,4.61,6.87,.16,.24,.31,.49,.36,.81-3.82-2.25-6.37-5.56-8.06-9.57-.16-.38-.18-.89-.45-1.15-.31-.3-.9-.63-1.22-.52-.34,.12-.7,.72-.72,1.13-.03,.56,.25,1.13,.38,1.7,.71,3.17,1.42,6.34,2.13,9.52-.2,.12-.41,.24-.61,.36Z"/><path class="cls-4" d="M88.21,109.72c-1.05,4.55-1.96,9.04-1.95,13.68,0,6.48,.72,12.86,2.5,19.1,.16,.56,.31,1.13,.44,1.7,.33,1.47,.24,1.64-1.25,1.56-3.84-.21-7.69-.42-11.53-.76-3.58-.32-7.14-.93-10.72-1.23-7.86-.65-15.71-.59-23.51,.81-2.29,.41-4.64,.52-7.3,.81,.45-2.17,.88-4.08,1.23-6,.66-3.53,1.3-7.07,1.9-10.62,.13-.77,.2-1.33,1.2-1.59,5.08-1.37,10.13-2.83,15.18-4.31,2.65-.77,5.25-1.71,7.91-2.43,1.09-.29,2.3-.37,3.43-.25,2.07,.23,4.14,.58,6.17,1.07,3.54,.85,6.51-.54,9.07-2.59,1.36-1.09,1.74-3.11,1.46-5.03-.26-1.74-.23-1.79,1.52-1.97,1.64-.17,3.12-.6,4.24-1.95Z"/><path class="cls-11" d="M90.03,37.17c-.35,.19-.88,.06-1.33,.07,.01-.52-.19-1.22,.06-1.55,.44-.57,1.12-1.03,1.79-1.32,.87-.38,1.85-.57,2.77-.84,.02-.14,.04-.28,.05-.42-1.77-.6-3.55-1.2-5.33-1.79-.38,1.96-.39,1.98-2.16,1.72-2-.28-3.9-.85-5.49-2.26-1.42-1.27-2.91-2.46-4.55-3.86,.17,1.27,.37,2.32,.44,3.38,.09,1.45,.27,2.77,1.63,3.72,.57,.39,.87,1.22,1.13,1.91,.12,.28-.1,.98-.31,1.05-.4,.13-.91-.01-1.34-.15-.19-.06-.27-.41-.43-.6-1.64-2.08-3.32-2.18-5.23-.3-.36,.36-.62,.83-1.02,1.1-.29,.2-.96,.35-1.08,.21-.26-.35-.52-.96-.38-1.29,.29-.66,.8-1.27,1.31-1.8,.56-.57,1.21-1.03,1.81-1.53-1.67-2.11-3.21-4.07-4.97-6.3-.29,.71-.47,1.01-.53,1.33-1.14,5.18-3.74,9.66-6.87,13.84-.84,1.12-1.29,2.26-1.47,3.63-.29,2.33-.77,4.63-1.28,6.91-.1,.45-.69,1.07-1.1,1.1-.41,.03-.94-.49-1.3-.89-.26-.29-.3-.77-.44-1.16-.92-2.6-1.84-5.2-2.77-7.8-.55-1.49-3.01-2.95-4.44-2.65-1.21,.25-1.85,2-1.49,4.09,.03,.17,.08,.33,.13,.49,.84,3.35,2.64,6.13,5.15,8.46,.46,.44,1.19,1.04,1.69,.94,1.92-.34,2.63,.96,3.58,2.16,6.51,8.29,14.79,12.21,25.35,9.56,5.65-1.43,10.06-4.69,11.69-10.6,.48-1.72,.86-3.46,1.15-5.22,.15-.87,.27-1.74,.38-2.61,.31-2.59,.46-5.2,.47-7.81,.01-3.83-1.88-4.77-5.28-2.91Zm-24.42,14.74c-.39,1.27-1.34,1.89-2.65,1.85-1.33-.04-2.21-.69-2.5-2.03-.15-.72-.19-1.52-.02-2.23,.46-1.94,1.07-3.86,1.59-5.79,.22-.83,.71-1.48,1.56-1.24,.5,.15,1.08,.79,1.21,1.31,.5,1.94,.83,3.92,1.19,5.73-.14,.93-.17,1.7-.38,2.41Zm10.18-5.73c-.95,.9-2.46,.68-3.16-.61-.42-.78-.51-1.73-.74-2.6,.29-1.11,.44-2.21,.88-3.17,.79-1.71,2.42-1.83,3.55-.37,1.24,1.6,.95,5.35-.52,6.74Zm10.91,1.6c.5,.69,.98,1.08,1.07,1.54,.16,.76-.31,1.45-1.08,1.28-.46-.09-1-.8-1.1-1.31-.07-.34,.57-.82,1.11-1.51Zm3.41,8.43c-.72,2.13-2.86,3.62-4.96,3.58-1.99-.03-4.28-1.68-4.71-3.53-.1-.43,.29-.99,.46-1.48,.43,.17,.86,.33,1.28,.49,.06,.03,.08,.15,.14,.21,2.5,3.14,3.45,3.1,6-.21,.42-.55,.87-1.22,1.56-.59,.3,.27,.39,1.08,.23,1.53Zm-.04-10.69c-.29-.67-.31-1.46-.45-2.16,.15-.8,.13-1.62,.46-2.24,.36-.68,.99-1.58,1.59-1.66,.64-.09,1.57,.51,2.09,1.08,1.08,1.22,.52,4.78-.76,5.8-.94,.73-2.42,.39-2.94-.82Z"/><path class="cls-4" d="M52.76,70.36c-.32,.97-.53,1.66-.77,2.33-1.04,2.83-1.13,5.72-.53,8.65,1.15,5.65,2.4,11.29,3.43,16.97,.61,3.37,.93,6.8,1.28,10.21,.18,1.76,.07,1.78-1.75,1.64-2.24-.17-4.48-.37-6.53-.53,.54-3.27,1.14-6.45,1.57-9.66,.36-2.65,.52-5.33,.77-8,.02-.25,.15-.54,.07-.74-.18-.42-.46-.8-.7-1.2-.41,.33-.96,.59-1.18,1.01-.25,.49-.22,1.13-.29,1.71-.5,4.15-.96,8.31-1.5,12.46-.31,2.36-.37,2.21-2.85,2.17-5.2-.07-10.37,.35-15.4,1.85-1.09,.33-2.19,.64-3.83,1.11,.82-2.86,1.44-5.25,2.19-7.6,2.86-9.01,7.18-17.29,12.72-24.95,1.05-1.46,2.28-2.65,3.89-3.48,2.95-1.51,5.86-3.11,9.43-3.97Zm-5.08,14.81l-.44,.16c-.9-1.68-1.75-3.38-2.74-5.01-.22-.36-.91-.43-1.39-.63-.13,.52-.53,1.15-.36,1.53,1.18,2.57,2.45,5.11,3.76,7.63,.69,1.32,2,.57,2.95,.56,.98-.01,.78-1.12,.67-1.83-.46-2.8-.96-5.59-1.47-8.38-.15-.82-.31-1.89-1.4-1.7-1.19,.2-.75,1.29-.62,2.06,.31,1.88,.68,3.75,1.02,5.63Z"/><path class="cls-11" d="M71.32,106.01c.55,2.25,.55,2.27,2.45,1.87,1.87-.39,3.73-.42,5.9-.23-.65,1.21-1.56,.73-2.13,1.05-.5,.28-.87,.82-1.29,1.24,.46,.26,.9,.65,1.39,.74,.7,.13,1.45,.03,2.32,.03-.38,1.22-1.38,.64-1.91,.99-.43,.28-.72,.76-1.07,1.16,.38,.26,.73,.66,1.15,.76,.67,.15,1.38,.1,2.07,.14l.07,.55c-.67,.15-1.38,.21-1.98,.49-.54,.25-1.34,.73-1.36,1.14-.04,1.06,.87,.96,1.64,.88,.32-.03,.64,0,1.53,0-2.57,1.77-4.74,2.96-7.49,2.46-1.56-.28-3.19-.34-4.7-.8-2.79-.86-5.37-.43-8.06,.5-5.06,1.76-10.16,3.38-15.31,4.85-2.47,.71-5.06,1.03-7.62,1.35-2.44,.31-4-1.08-4.8-3.23-1.19-3.17-1.47-6.52-1.53-9.88-.01-.73,.19-1.27,1.03-1.47,3.32-.79,6.69-.98,10.17-.64-.91,.3-1.83,.57-2.71,.93-.61,.24-1.24,.53-1.73,.95-.21,.18-.21,.78-.1,1.12,.07,.22,.51,.38,.81,.44,.22,.04,.48-.1,.71-.19,5.2-1.99,10.55-1.4,15.89-.89,1.83,.17,3.64,.56,5.47,.72,2.31,.2,4.24-.84,5.98-2.21,.92-.72,1.67-1.65,2.53-2.44,.84-.78,1.73-1.52,2.69-2.37Z"/><path class="cls-1" d="M61.25,79.08c2.69,6.18,5.87,12.26,6.58,19.11,.24,2.32,.04,4.68-.02,7.03-.01,.47-.16,1.03-.45,1.38-1.52,1.8-3.12,3.55-5.54,4.13-.7,.17-1.47,.14-2.21,.1-.88-.05-1.27-.57-1.33-1.49-.6-9.82-2.88-19.36-4.89-28.95-.7-3.32-.12-6.5,1.74-9.4,.36-.56,.73-1.13,.95-1.75,.87-2.48,3.07-3.15,5.21-3.89,.23-.08,.73,.09,.83,.28,.12,.25,.08,.74-.09,.95-.53,.64-1.14,1.22-1.76,1.78-1.7,1.51-2.42,3.4-2.1,5.64,.26,1.82,.62,3.63,.96,5.43,.08,.4,.17,.9,.44,1.15,.38,.34,.93,.47,1.41,.69,.17-.42,.41-.83,.49-1.27,.05-.28-.14-.6-.23-.91Z"/><path class="cls-11" d="M94.21,185.4c3.94-1.83,7.64-3.55,11.35-5.26,.63-.29,1.28-.56,1.62,.38,1.28,3.53,2.58,7.06,3.83,10.6,.58,1.64,.29,3.29-.06,4.95-.69,3.27-1.36,6.55-1.94,9.84-.17,.98-.58,1.53-1.5,1.72-3.3,.68-6.62,1.05-9.94,.13-1.81-.5-2.08-.93-2.18-2.8-.22-4.1,.44-8.01,2.42-11.64,.73-1.34,.72-2.45-.35-3.65-1.15-1.3-2.11-2.76-3.25-4.28Z"/><path class="cls-4" d="M61.13,70.3c1.33,1.51,2.44,2.86,3.64,4.12,1.93,2.03,4.4,3.06,7.11,3.42,2.2,.29,4.45,.39,5.77-2.68,.33,1.46,.68,2.33,.71,3.21,.1,3.34,.31,6.7,.07,10.02-.31,4.16-1,8.3-1.57,12.44-.1,.74-.42,1.44-.54,2.18-.21,1.32-.9,1.57-2.13,1.25-.87-.23-1.84-.3-2.74-.19-1.24,.15-1.43-.44-1.36-1.43,.43-5.5-1.18-10.62-3.07-15.64-1.62-4.3-3.54-8.48-5.32-12.72-.32-.77-.72-1.53-.89-2.34-.1-.47,.18-1.02,.31-1.65Z"/><path class="cls-13" d="M13.07,238.8c-2.44-1.47-3.84-3.17-4.53-5.25-.89-2.69-1.67-5.45-2.1-8.24-.67-4.31-1.52-8.55-3-12.67-.54-1.48-.93-3.04-1.17-4.6-.47-3.12,.38-5.77,3.06-7.72,1.21-.88,2.23-2.03,3.39-2.98,.82-.67,1.66-1.43,2.92-1.17-1.65,5.43-1.07,10.49,2.03,15.24,.38,.58,.61,1.32,.71,2.02,.14,1.03-.08,1.78-1.3,2.31-1.93,.85-2.58,2.37-2.11,4.32,.18,.75,.66,1.81,1.25,2.01,1.5,.51,1.47,1.56,1.57,2.75,.14,1.58,.31,3.16,.63,4.71,.39,1.89,1.64,3.28,3.08,4.45,.5,.4,1.18,.66,1.81,.79,.83,.17,1.83,.2,2.05-.87,.24-1.14-.78-1.02-1.49-1.18-.2-.05-.37-.26-.74-.54,.81-.23,1.42-.42,2.04-.57,.23-.06,.51-.08,.72,0,.86,.35,2.79,4.27,2.65,5.34-.28,2.16-1.66,3.39-3.8,2.98-3.75-.71-6.56-2.84-8.23-6.31-1.5-3.12-2.24-6.45-2.67-9.88-.43-3.48-.87-6.99-1.7-10.39-.59-2.4-1.78-4.67-2.81-6.95-.17-.37-.89-.48-1.35-.71-.16,.5-.38,.99-.47,1.51-.04,.2,.16,.47,.29,.68,2.4,4.08,2.98,8.66,3.64,13.22,.22,1.49,.35,2.99,.56,4.48,.61,4.37,1.89,8.48,4.62,12.04,.13,.17,.16,.41,.44,1.17Z"/><path class="cls-13" d="M126.67,236.19c1.09,1.2,2.34,2.08,1.79,3.44-.49,1.22-1.84,1.14-3.07,1.06-2.91-.2-5.84-.18-8.74-.4-4.52-.34-9.02-.6-13.53,.11-3.38,.53-6.44-.55-9.47-1.85-.72-.31-1.58-1.17-2.16-.1-.63,1.16,.53,1.64,1.32,1.99,3.56,1.6,7.24,2.64,11.2,1.97,5.36-.91,10.69-.08,16.03,.24,2.16,.13,4.33,.28,6.92,.46-1.48,.97-2.82,1.13-4.15,1.04-2.84-.2-5.67-.56-8.5-.74-2.49-.16-4.99-.26-7.49-.23-2.42,.03-4.85,.25-7.27,.41-2.16,.14-4.03-.56-5.98-1.49-2.64-1.25-3.23-3.04-3.05-5.95,.09-1.5,.46-2.98,.64-4.47,.14-1.15,.22-2.3,.26-3.46,.05-1.49,1.04-3.03,2.4-3.53,.16-.06,.55,.07,.57,.16,.05,.28,.06,.79-.08,.85-.58,.25-1.56,.17-1.36,1.09,.17,.74,.67,1.55,1.27,2.02,2.01,1.6,4.35,2.52,6.93,2.6,1.23,.04,2.22,.39,3.22,1.11,.81,.59,1.6,.93,.83,2.08-.16,.23-.19,.69-.07,.95,.62,1.35,1.91,1.83,3.18,2.23,1.15,.36,2.34,.05,2.85-1.01,.69-1.45,1.41-1.09,2.55-.65,2.26,.86,4.61,1.47,6.92,2.22,.86,.28,1.77,.54,2.51,1.03,1,.66,1.53,.27,2.03-.55,.46-.77,.9-1.56,1.5-2.59Z"/><path class="cls-1" d="M80.63,69.07c3.08,1.32,5.04,3.49,5.72,6.76,1.51,7.24,.84,14.5,.27,21.76-.18,2.33-.2,4.68-.29,7.02-.03,.75,.02,1.51-.07,2.26-.27,2.2-.88,2.71-3.03,2.78-.99,.03-1.57-.12-1.5-1.34,.08-1.4-.55-2.37-2.03-2.74-1.71-.42-1.68-.46-1.28-2.28,1.42-6.48,2.17-13.04,2.34-19.66,.11-4.15-.34-8.2-2.37-11.93-.17-.31-.09-.75,.34-1.33,.58,.96,1.24,1.88,1.72,2.89,.54,1.13,.94,2.32,1.35,3.51,.29,.84,.31,2.19,1.5,1.89,1.42-.36,.67-1.68,.46-2.57-.28-1.13-.72-2.23-1.2-3.29-.58-1.27-1.28-2.49-1.93-3.72Z"/><path class="cls-11" d="M44.64,189.38c-1.17,3.38-1.64,6.85-4.93,8.72-2.18,1.24-4.37,2.46-6.52,3.74-1.03,.61-1.81,.42-2.72-.27-2.67-2.02-4.55-4.63-6.03-7.59-.44-.88-.28-1.42,.54-1.82,1.73-.83,3.44-1.69,5.21-2.44,.84-.36,1.31-.66,1.39-1.74,.09-1.28,.64-2.54,1.04-3.79,.26-.82,.88-.93,1.6-.58,3.14,1.56,6.29,3.11,9.41,4.72,.45,.23,.74,.75,1.02,1.04Z"/><path class="cls-1" d="M95.57,209.3c4.22,1.41,8.35,1.08,12.83,.25-.75,4.6-1.41,8.85-2.17,13.09-.1,.53-.66,1.18-1.17,1.39-1.81,.75-2.53,2.17-2.52,3.95,.01,1.36-.63,1.58-1.69,1.35-.97-.21-1.97-.43-2.87-.83-.43-.19-.92-.77-.97-1.22-.57-5.65-1.07-11.3-1.58-16.95-.02-.24,.06-.49,.14-1.03Z"/><path class="cls-1" d="M22.17,193.86c1.87,4.04,4.11,7.22,7.74,9.76-1.87,1-3.34,1.92-4.92,2.61-2.04,.89-3.95,2.16-6.36,2.05-.73-.03-1.61,.51-2.22,1.02-1.01,.85-1.52,.34-1.89-.52-.52-1.23-1.03-2.48-1.36-3.76-.89-3.45-.57-4.21,2.28-6.27,2.16-1.56,4.31-3.13,6.73-4.89Z"/><path class="cls-4" d="M93.25,96.29c.48-3.73,.98-7.45,1.41-11.18,.11-.98,.8-2.49-.83-2.65-1.44-.14-1.09,1.45-1.21,2.33-.79,5.63-1.43,11.28-2.27,16.91-.29,1.96-.98,3.86-1.49,5.78-.17,0-.33-.01-.5-.02,0-1.41-.03-2.82,0-4.24,.04-1.51,.06-3.02,.21-4.51,.81-8.52,1.48-17.04-.57-25.49-.01-.06,.08-.14,.2-.34,.33,.08,.74,.12,1.08,.28,2.77,1.33,5.06,3.3,6.85,5.77,1.62,2.23,1.77,4.86,1.29,7.48-.65,3.54-2.04,6.83-3.66,10.02l-.51-.14Z"/><path class="cls-11" d="M64.05,66.53c2.43,.82,4.3,1.58,6.23,2.06,1.85,.46,3.77,.62,5.81,.94-.18,1.56-.36,3.04-.54,4.52-.15,1.31-.88,1.88-2.2,1.84-3.83-.1-6.81-1.87-8.84-4.95-.67-1.02-.32-2.71-.46-4.42Z"/><path class="cls-11" d="M92.11,131.11c.65,.47,1.25,1.06,1.97,1.38,.44,.19,1.06-.03,1.6-.06-.12-.51-.09-1.16-.4-1.5-.67-.74-1.56-1.27-2.26-1.98-.26-.26-.23-.8-.34-1.21,.45,0,.97-.13,1.33,.06,.58,.3,1.01,.89,1.58,1.21,.3,.17,1.02,.16,1.12-.02,.21-.36,.33-1.02,.14-1.32-.49-.74-1.19-1.34-2.02-2.23,2.41-.26,3.55,1.32,4.87,2.4,1.09,.89,.91,2.13,.63,3.46-.48,2.31-1.74,4.02-3.5,5.44-1.71,1.37-2.25,1.33-3.74-.19-.23-.23-.37-.55-.69-1.05,.41-.06,.7-.04,.92-.15,.47-.23,.9-.54,1.35-.81-.29-.38-.51-.86-.88-1.13-1.48-1.07-1.5-1.05-1.69-2.28Z"/><path class="cls-13" d="M16.32,214.84c.24-1.01,.37-2.02,.72-2.95,.51-1.37,1.69-1.74,3.05-1.7,1.61,.05,2.98,.75,3.25,1.88,.12,.5-.04,1.15-.29,1.62-.53,1.03-1.17,2-1.82,2.96-.21,.31-.67,.78-.88,.72-1.26-.38-2.5-.85-3.69-1.41-.24-.11-.24-.74-.35-1.13Z"/><path class="cls-13" d="M104.56,228.46c-.03-1.85,.77-2.63,2.76-2.69,1.4-.04,3.31,1.87,3.34,3.34,.02,.94-1.8,2.52-2.97,2.58-1.47,.08-3.1-1.6-3.12-3.23Z"/><path class="cls-11" d="M88.97,119.67c.67,1.28,1.59,2.47,.31,4.08-.75,.95-.64,1.99,.35,2.91,.37,.34,.7,1.03,.62,1.47-.14,.72-.63,1.38-.97,2.07-.29-.62-.8-1.24-.82-1.86-.09-2.88-.04-5.76-.04-8.65l.56-.02Z"/><path class="cls-13" d="M18.94,222.86c-.75,0-1.51,.04-2.25-.02-.26-.02-.67-.27-.71-.47-.05-.25,.14-.65,.36-.84,1.55-1.37,3.54-1.3,5.11,.16,.2,.19,.37,.62,.29,.82-.09,.21-.5,.36-.79,.39-.66,.06-1.34,.02-2,.02,0-.02,0-.04,0-.05Z"/><path class="cls-13" d="M18.89,226.16c-.74,0-1.48,.05-2.22-.03-.24-.02-.46-.36-.69-.55,.21-.2,.43-.57,.64-.57,1.39-.02,2.79,0,4.18,.09,.24,.01,.46,.39,.69,.59-.3,.2-.57,.53-.89,.58-.56,.1-1.15,.03-1.72,.03v-.14Z"/><path class="cls-13" d="M16.17,228.47h4.99c.06,.16,.13,.33,.19,.49-.49,.27-.95,.65-1.48,.8-.87,.24-1.79,.51-2.66,.42-.35-.04-.62-.97-1.04-1.7Z"/><path class="cls-13" d="M112,232.61c.6-.45,1.16-.96,1.8-1.31,.28-.16,.76-.11,1.09,.01,.13,.05,.21,.62,.1,.86-.8,1.77-1.2,2.29-2.98,.44Z"/><path class="cls-13" d="M117.2,235.37c-.46-.59-.83-.91-.78-1.01,.35-.69,.79-1.33,1.24-1.96,.02-.02,.7,.36,.69,.4-.3,.77-.65,1.51-1.14,2.58Z"/><path class="cls-13" d="M121.55,234.18c-.28,.52-.49,1.07-.83,1.51-.13,.16-.57,.13-.85,.08-.07-.01-.18-.43-.11-.6,.21-.53,.46-1.04,.77-1.52,.08-.13,.48-.17,.65-.09,.17,.09,.24,.38,.37,.61Z"/><path class="cls-4" d="M26,112.14c1.11-.22,1.7-.33,2.29-.45,.08,.58,.15,1.17,.29,2.22-.98-.68-1.55-1.07-2.58-1.77Z"/><path class="cls-13" d="M124.68,235.07c-.22,.49-.37,.97-.66,1.36-.14,.19-.53,.19-.8,.28-.06-.22-.23-.49-.17-.67,.16-.47,.4-.91,.65-1.34,.06-.1,.32-.19,.41-.14,.19,.1,.34,.29,.56,.5Z"/><path class="cls-11" d="M93.85,123.14c-.53,.57-1.03,1.16-1.6,1.68-.19,.17-.55,.15-.84,.22,.09-.34,.07-.87,.28-.99,.69-.37,1.46-.59,2.2-.86l-.04-.05Z"/><path class="cls-13" d="M12.89,219.98c.14-.68,.27-1.36,.41-2.04,.56,.83,.7,1.57-.41,2.04Z"/><path class="cls-13" d="M108.41,234.26c.35,.37,.68,.72,1.01,1.06-.18,.12-.45,.38-.53,.34-.43-.25-.8-.58-1.2-.88,.18-.13,.35-.26,.72-.52Z"/><path class="cls-11" d="M93.89,123.2c.61-.2,1.23-.39,1.84-.59,.04,.18,.07,.36,.1,.53-.66,0-1.32,0-1.98,0,0,0,.04,.05,.04,.05Z"/><path class="cls-7" d="M72.48,164.1c-.41-.35-.8-.68-1.2-1.02,.34-.39,.62-.99,1.04-1.13,3.09-.99,6.21-1.92,9.34-2.79,.37-.1,.86,.23,1.3,.36-.17,.48-.2,1.17-.55,1.41-.67,.46-1.49,.74-2.28,.98-2.47,.74-4.96,1.43-7.65,2.19Z"/><path class="cls-7" d="M65.99,49.49c-.14,.93-.16,1.7-.38,2.41-.39,1.28-1.34,1.89-2.65,1.85-1.33-.04-2.21-.69-2.49-2.04-.15-.72-.19-1.52-.02-2.23,.46-1.95,1.06-3.86,1.59-5.8,.22-.82,.72-1.47,1.56-1.23,.5,.14,1.08,.79,1.21,1.31,.49,1.94,.82,3.91,1.18,5.72Zm-2.3-1.88c-1.11,1.2-1.55,2.79-1.07,3.63,.09,.16,.42,.32,.58,.28,.19-.05,.46-.31,.47-.5,.04-1.07,.02-2.14,.02-3.41Z"/><path class="cls-7" d="M71.89,42.97c.3-1.11,.44-2.21,.88-3.17,.78-1.71,2.42-1.83,3.54-.37,1.24,1.61,.95,5.35-.52,6.74-.95,.9-2.46,.68-3.16-.61-.42-.77-.51-1.72-.75-2.6Z"/><path class="cls-7" d="M89.62,43.36c.15-.79,.13-1.61,.46-2.24,.36-.68,.99-1.58,1.59-1.66,.65-.09,1.58,.52,2.09,1.09,1.08,1.22,.53,4.78-.75,5.79-.94,.74-2.42,.39-2.94-.81-.29-.67-.32-1.46-.46-2.17Z"/><path class="cls-7" d="M85.15,59.8c-1.99-.04-4.28-1.68-4.71-3.53-.1-.43,.29-.99,.46-1.48,.43,.16,.86,.32,1.28,.5,.06,.03,.08,.14,.13,.21,2.49,3.13,3.45,3.1,6-.21,.42-.55,.87-1.22,1.57-.59,.3,.28,.38,1.08,.23,1.53-.72,2.13-2.87,3.62-4.96,3.58Z"/><path class="cls-7" d="M86.7,47.78c.5,.7,.97,1.08,1.07,1.54,.16,.75-.31,1.44-1.08,1.28-.46-.1-.99-.8-1.1-1.32-.07-.33,.57-.81,1.11-1.51Z"/><path class="cls-7" d="M47.68,85.17c-.34-1.87-.72-3.75-1.02-5.63-.13-.77-.57-1.86,.62-2.06,1.09-.18,1.25,.88,1.4,1.7,.5,2.79,1.01,5.58,1.47,8.38,.12,.71,.31,1.82-.67,1.83-.95,.01-2.26,.76-2.95-.56-1.31-2.52-2.58-5.05-3.76-7.63-.17-.38,.22-1.01,.36-1.53,.48,.2,1.17,.27,1.39,.63,.99,1.62,1.84,3.33,2.74,5.01l.44-.16Z"/><path class="cls-1" d="M63.69,47.61c0,1.26,.02,2.34-.02,3.41,0,.18-.28,.45-.47,.5-.17,.04-.49-.12-.58-.28-.47-.84-.04-2.42,1.07-3.63Z"/></g><ellipse class="cls-9" cx="71.02" cy="49.21" rx="3.08" ry="1.33"/><path class="cls-9" d="M94.83,47.89c-.1,.87-.23,1.74-.38,2.61-1.42-.12-2.48-.64-2.48-1.29,0-.7,1.26-1.28,2.85-1.32Z"/></g><g><g><path class="cls-7" d="M154.99,221.42c-3.24,4.62-7.33,8.19-11.69,11.49-.07,.05-.13,.1-.2,.15-3.45,2.59-3.86,2.51-6.14-1.11-.18-.28-.39-.53-.73-1-2.39,1.76-4.7,3.54-7.08,5.21-1.02,.72-1.26,1.53-.69,2.57,1.77,3.23,3.45,6.5,5.39,9.63,1.39,2.24,2.48,4.57,3.03,7.12,.21,.97,.29,2,.23,2.99-.12,2.05-1.04,3.94-2.85,4.74-2,.89-4.27,.88-6.18-.69-.58-.48-1.2-.94-1.68-1.51-2.67-3.18-5.9-5.68-9.33-7.98-1.88-1.26-3.68-2.65-5.41-4.09-1.22-1.01-2.36-2.15-3.39-3.36-3.49-4.12-3.56-8.21,.14-12.15,2.56-2.72,5.35-5.16,8.74-7.04,3.48-1.93,6.52-4.67,9.75-7.06,.56-.41,.7-.88,.29-1.5-.91-1.39-.09-2.25,.88-3.22,3.63-3.59,7.19-7.25,10.77-10.89,.18-.18,.33-.38,.48-.58,1.24-1.57,1.26-1.59,.02-3.21-2.78-3.64-4.93-7.66-6.16-12.02-1.85-6.56-2.09-13.21,.33-19.76,.08-.21,.04-.47,.08-.9-1.72,.55-3.31,1.37-4.95,1.51-2.7,.23-5.53,.41-7.8-1.62-2.01-1.8-2.5-4.13-2.01-6.66,.48-2.48,.07-4.72-.94-7.04-2.84-6.53-5.37-13.17-6.78-20.21-.58-2.87-.46-5.67,.04-8.48,.36-2.02,1.31-3.8,2.78-5.25,1.07-1.05,2.19-2.05,3.19-3-2.1-2.47-4.48-4.74-6.18-7.43-1.67-2.65-2.66-5.73-3.98-8.68-.28,1.21-.52,2.51-.92,3.76-.15,.46-.69,.8-1.05,1.2-.38-.37-.93-.68-1.11-1.13-.29-.77-.43-1.62-.48-2.45-.5-7.46,.9-14.53,4.54-21.08,2.83-5.08,6.81-9.11,11.66-12.27,1.25-.82,2.56-1.48,2.9-3.21,.23-1.16,1.2-1.86,2.46-1.68,1.3,.18,1.41-.54,1.68-1.55,.63-2.34,1.26-4.71,2.27-6.9,6.32-13.75,21.72-19.79,35.68-13.99,1.72,.71,3.24,.86,5.06,.51,10.85-2.14,21.29,4.7,23.48,15.42,1.09,5.33,.06,10.37-3.13,14.82-1.43,1.99-1.73,3.88-1.31,6.33,1.42,8.23-1.35,15-7.84,20.25-.65,.52-1.32,1.01-2.07,1.59,.94,1.08,1.83,2.07,2.67,3.1,.53,.65,1.23,1.29,1.41,2.05,.56,2.31,2.29,3.65,3.91,5.06,3.79,3.31,7.64,6.54,11.5,9.77,1.56,1.31,1.63,1.29,3.25,.15,3.23-2.26,6.44-4.54,9.64-6.84,.46-.33,.94-.76,1.2-1.25,1.9-3.71,5.02-6.23,8.27-8.63,2.42-1.78,3.39-1.63,5.63,.48,.65,.62,1.85,.89,2.15,1.6,1.07,2.52,3.39,4.69,2.44,7.87-.23,.78-.06,1.67-.12,2.5-.11,1.41-.67,2.63-1.89,3.38-1.97,1.21-3.99,2.33-6.24,3.63,.02,.24,.25,1,.05,1.62-.22,.67-.83,1.24-1.31,1.81-4.08,4.85-8.93,8.87-14,12.59-4.77,3.5-9.99,3.43-15.2,.78-1.26-.64-2.48-1.37-3.96-2.2-.13,.68-.26,1.19-.31,1.71-.34,3.12-1.88,5.69-3.67,8.15-2.24,3.07-3.64,6.4-3.15,10.3,.19,1.5,.43,2.99,.56,4.49,.29,3.59,.54,7.18,.79,10.78,.1,1.4-.03,2.68-1.62,3.32-.37,.15-.71,.71-.8,1.14-1.27,6.23-3.77,11.95-7.11,17.33-.57,.93-1.02,1.93-1.64,2.83-.56,.81-.55,1.5,.02,2.29,.49,.68,.81,1.48,1.32,2.14,4.84,6.23,7.7,13.51,11.02,20.55,.29,.61,.55,1.22,.81,1.84,.8,1.92,.7,2.17-1.19,3.03-1.69,.77-1.77,.79-1.17,2.51,1.69,4.82,3.48,9.6,5.16,14.42,.48,1.39,1.37,2.13,2.77,2.1,1.99-.05,4-.11,5.97-.42,2.31-.36,4.57-1.02,6.87-1.5,2.56-.53,4.99-.16,7.28,1.13,3.59,2.01,4.27,5.69,1.23,8.49-2.01,1.85-4.45,3.25-6.81,4.67-1.2,.73-2.61,1.12-3.96,1.57-3.84,1.29-7.42,3.02-10.68,5.49-1.45,1.1-3.14,1.91-4.82,2.64-2.92,1.28-6.1,.24-7.49-2.58-.76-1.54-1.38-3.31-1.45-5-.16-3.82-1-7.44-2.38-10.97-1.92-4.91-3.83-9.83-5.66-14.77-.4-1.08-.87-1.53-1.99-1.12-1.28,.47-2.03-.23-2.72-1.19-2.4-3.33-4.83-6.64-7.25-9.96-.34-.46-.72-.9-1.17-1.46Zm47,35.92c1.34-.09,2.56-.39,3.1-1.83,.99-.57,1.98-1.14,2.96-1.72,1.34-.38,2.3-1.13,2.59-2.57l-.08,.09c1.03-1.13,.63-2.12-.31-3.03-1.31-1.26-2.92-1.68-4.82-1.8,0,1.21,.09,2.22-.05,3.19-.05,.36-.65,.64-.99,.95-.3-.34-.73-.63-.85-1.03-.17-.54,.02-1.2-.17-1.73-.16-.45-.61-1.03-1.01-1.1-.82-.14-.83,.58-.8,1.19,.04,.75,.18,1.53,.04,2.25-.09,.44-.62,.79-.96,1.18-.32-.33-.81-.61-.93-1-.19-.62-.07-1.34-.23-1.98-.08-.3-.51-.5-.78-.75-.22,.29-.58,.57-.62,.89-.07,.66,.16,1.36,.02,1.99-.13,.56-.52,1.4-.93,1.48-.82,.16-1.02-.62-1.04-1.35-.02-.5,.02-1.03-.13-1.49-.1-.33-.48-.57-.73-.85-.3,.32-.77,.6-.85,.97-.19,.89-.09,1.85-.33,2.72-.12,.43-.73,.73-1.12,1.09-.28-.45-.73-.88-.8-1.36-.1-.72,.14-1.5,.07-2.23-.03-.29-.46-.68-.77-.75-.19-.04-.66,.38-.74,.67-1.09,3.7-3.73,6.04-6.85,7.95-1.03,.63-2.14,.85-3.37,.48-.74-.22-1.54-.27-2.26-.39,0,1.39-.13,2.49,.03,3.55,.19,1.22,.49,2.47,1.02,3.57,1.03,2.15,2.49,2.75,4.72,1.92,1.55-.57,3.14-1.23,4.44-2.21,3.64-2.78,7.64-4.76,12-6.1,.59-.18,1.09-.63,1.64-.95l-.09,.07Zm-21.19-151.8c-.27,.28-.36,.44-.5,.51-.48,.22-.98,.41-1.47,.61-.13-.52-.27-1.04-.37-1.57-.03-.14,.08-.32,.15-.47,.55-1.16-.15-1.89-.86-2.64-.75-.81-1.53-.77-2.49-.33-1.17,.54-2.42,.91-3.65,1.36,1.6,2.87,1.22,4.31-1.45,5.93-1.29,.78-2.55,1.59-3.83,2.4-1.38,.88-1.58,.76-2.75-.32-1.28-1.18-2.62-2.38-4.13-3.18-1.76-.93-3.74-1.43-5.61-2.15-.73-.28-1.9-.29-1.67-1.46,.24-1.21,1.23-.82,2.04-.59,.16,.04,.35,.15,.48,.11,.34-.1,.9-.24,.93-.43,.05-.31-.16-.84-.43-1-.64-.38-1.43-.51-2.06-.9-2.66-1.66-5.37-2.02-8.31-.73-1.59,.7-3.46,.86-4.93,1.72-1.23,.71-2.1,2.06-3.05,3.19-.2,.24-.03,.78-.03,1.18,.38,0,.94,.15,1.12-.04,1.03-1.11,2.07-.57,3.23-.28,4.38,1.08,8.78,2.11,13.2,3.03,1.62,.33,3.31,.32,4.97,.4,.78,.04,1.64-.03,1.72,.99,.07,.9-.72,.99-1.41,1.04-1,.06-2.03,.3-2.99,.12-4.03-.76-8.09-1.42-12.02-2.55-3.13-.9-6.04-.99-9,.32-.53,.24-1.13,.35-1.65,.61-4.86,2.43-9.85,4.65-14.54,7.38-5.62,3.27-7.59,6.77-6.29,14.71,1.19,7.24,4.11,13.95,6.81,20.72,.51,1.28,1.24,1.72,2.47,1.37,2.89-.83,5.78-1.71,8.66-2.59,.64-.2,.96-.61,.65-1.34-.16-.38-.23-.8-.34-1.21-1.56-6.08-3.13-12.16-4.65-18.25-.57-2.28-.26-2.72,1.92-3.57,1.87-.73,3.73-1.49,5.59-2.24,2.17-.87,4.33-1.79,6.54-2.58,.42-.15,1.02,.22,1.53,.35-.21,.47-.31,1.2-.66,1.35-1.1,.48-1.09,1.29-1.04,2.26,.17,2.84,.55,5.71,.37,8.53-.64,9.69-.96,19.43-3.86,28.82-.32,1.04-.04,1.77,.89,2.33,.86,.52,1.66,1.14,2.52,1.65,6.35,3.77,13.2,6.09,20.48,7.25,5.34,.85,10.71,1.11,15.98-.19,3.89-.96,3.53-.46,3.31-4.49-.22-4.01-.78-8-1.22-12-.41-3.69-.03-7.19,2.08-10.37,.97-1.47,1.9-2.96,2.86-4.43,2.16-3.3,2.44-7,1.67-10.65-.78-3.67-2.12-7.22-3.21-10.83-.17-.56-.53-1.12-.5-1.67,.03-.56,.43-1.11,.67-1.66,.41,.35,.94,.63,1.21,1.07,.34,.56,.51,1.23,.71,1.87,.88,2.88,2.13,5.72,2.51,8.66,.54,4.14,3.23,5.95,6.52,7.41,.84,.37,1.71,.7,2.59,.95,3.53,.99,6.94,.46,9.82-1.68,4.9-3.66,9.64-7.54,13.7-12.17,.88-1,.82-1.68,.05-2.56-1.93-2.2-3.93-4.36-5.76-6.65-.92-1.15-1.62-1.01-2.66-.24-2.56,1.9-5.19,3.69-7.77,5.56-3.74,2.71-3.77,2.72-7.22-.17-.77-.65-1.53-1.31-2.29-1.96-3.18-2.73-6.36-5.45-9.52-8.21-.59-.51-.97-.51-1.73-.19-1.27,.53-2.69,.8-4.06,.94-2.4,.25-4.82,.37-7.24,.45-.48,.02-.97-.38-1.46-.58,.3-.44,.52-1.15,.91-1.27,1.27-.37,2.6-.62,3.92-.71,1.58-.11,3.19,.05,4.77-.01,1.88-.08,2.33-.76,1.8-2.61-.11-.39-.35-.74-.67-1.38Zm-36.61-14.03c-3.18-.42-4.51-2.61-5.19-5.21-.44-1.68-.68-3.47-.64-5.2,.09-4.16,2.26-5.76,6.25-4.65,1.01,.28,1.61,.07,2.15-.67,.84-1.15,1.71-2.28,2.46-3.49,3-4.86,5.83-9.8,6.91-15.51,.23-1.23,.4-2.48,.67-3.71,.13-.56,.36-1.14,.71-1.58,.2-.26,.78-.43,1.08-.33,.29,.1,.56,.59,.6,.94,.05,.38-.22,.8-.27,1.21-.32,2.91-1.06,5.85-.12,8.73,.92,2.82,1.95,5.63,3.27,8.27,.33,.67,1.94,.68,2.96,1.03,.22,.08,.42,.27,.6,.45,.55,.56,1.11,1.21,.51,1.96-.56,.7-1.13,.16-1.72-.21-1.91-1.2-2.64-1.1-4.14,.44-.5,.52-.93,1.45-1.77,.71-.83-.73-.23-1.52,.28-2.21,.15-.2,.3-.45,.51-.55,1.53-.72,1.21-1.48,.37-2.68-.99-1.43-1.59-3.12-2.35-4.7-.21-.43-.39-.88-.73-1.63-.66,1.32-1.1,2.39-1.69,3.37-2.13,3.6-4.26,7.2-6.48,10.73-.49,.78-1.2,1.33-.74,2.41,.1,.24-.2,.86-.47,.99-.28,.14-.83,.02-1.11-.19-.53-.4-.89-1.01-1.42-1.41-1.99-1.51-3.75-.81-4.19,1.65-.44,2.49,.09,4.85,1.28,7.03,.37,.68,1.08,1.37,1.78,1.61,.94,.32,1.05-.81,1.5-1.35,.26-.32,.89-.64,1.2-.53,.34,.12,.74,.76,.71,1.14-.09,1.16-.13,2.43-.64,3.43-1.11,2.19-.56,2.46,1.06,3.75,6.7,5.29,14.31,7.25,22.68,5.57,11.3-2.27,19.43-12.14,16.37-24.26-.53-2.09,.16-4.11,1.45-5.63,4.87-5.71,5.29-15.91-1.3-22.46-5.08-5.04-11.2-6.43-18.07-4.79-.97,.23-1.76,.55-2.84-.03-11.27-6.07-25.16-2.64-32.53,7.97-9.16,13.17-5.23,32.38,8.44,41.18,.46,.29,.97,.5,1.54,.79,.4-.87,.7-1.54,1.08-2.37Zm-8.05,76.15c-.44,.98-.78,1.65-1.04,2.34-.21,.54-.4,1.11-.5,1.68-1.1,6.74-.88,13.29,2.09,19.64,2.49,5.31,6.2,9.72,9.74,14.28,2.36,3.04,4.71,6.09,6.95,9.23,3.64,5.11,7.16,10.31,10.77,15.44,1.39,1.97,1.56,1.88,3.7,.98,4.31-1.82,8.65-3.57,13-5.3,1.74-.69,1.84-.66,.99-2.42-3.23-6.6-5.71-13.6-10.33-19.48-.72-.92-1.26-1.98-1.86-2.98-3.64-6.12-7.28-12.23-10.91-18.35-.21-.36-.44-.72-.58-1.11-.26-.77,.05-1.43,.8-1.55,.4-.06,1.03,.33,1.3,.71,.47,.67,.69,1.51,1.12,2.22,2.47,4.18,4.97,8.34,7.47,12.5,.15,.25,.43,.42,.69,.67,3.88-5.83,6.78-11.94,8.46-19.02-7.54,1.53-14.67,1-21.73-.65-7.16-1.67-13.86-4.41-20.12-8.85Zm-5.77-58.25c-.86-.65-1.66-1.13-2.3-1.76-5.74-5.67-8.22-12.56-7.07-20.53,.51-3.53,1.76-6.94,2.63-10.42,.2-.78,.49-1.7,.25-2.39-.56-1.59-1.43-3.08-2.17-4.61-10.08,5.59-16.32,17.5-15.91,26.87,.39-.94,.73-1.79,1.09-2.62,.31-.71,.67-1.47,1.61-1.25,1.02,.24,.76,1.07,.71,1.84-.07,1.33-.19,2.69,.01,3.98,.98,6.28,3.82,11.52,8.88,15.5,.91,.71,1.68,1,2.69,.47,3.02-1.6,6.04-3.21,9.56-5.09Zm11.78,94.26c-4.19,4.17-8.27,8.25-12.39,12.29-.6,.59-.69,1.03-.22,1.71,3.45,4.94,6.88,9.89,10.36,14.9,.44-.21,.86-.33,1.16-.59,3.17-2.73,6.37-5.44,9.45-8.27,1.03-.95,1.74-2.24,2.6-3.38,.43-.57,.6-1.08,.16-1.81-3.23-5.41-7.28-10.2-11.13-14.85Zm4.31-105.54c.04-.21,.09-.41,.13-.62-.62-.34-1.33-1.08-1.84-.96-1.38,.32-2.27-.47-3.23-1.05-6.43-3.84-10.87-9.35-13.46-16.36-.26-.71-.43-1.45-.75-2.13-.15-.33-.53-.55-.8-.82-.26,.29-.66,.53-.77,.87-.8,2.47-1.74,4.91-2.24,7.45-.48,2.44-.76,4.99-.62,7.47,.37,6.57,3.55,11.75,8.5,15.95,.62,.52,1.12,.83,2,.49,.94-.36,1.3-.89,1.25-1.87-.09-1.82,.84-3.18,2.06-4.41,1.78-1.81,4.03-2.65,6.41-3.24,1.12-.28,2.24-.51,3.36-.76Zm-18.57,144.63c-2.55,1.36-3.67,1.31-5.8-.41-.96-.78-1.83-1.72-2.6-2.7-2.16-2.73-3.51-5.84-4.18-9.57-2.43,1.95-4.79,3.64-6.36,6.17-1.62,2.61-1.65,4.84,.33,7.17,1.67,1.96,3.56,3.77,5.59,5.37,4.65,3.67,9.87,6.65,13.64,11.37,.05,.06,.13,.11,.19,.16,1.69,1.46,2.93,1.69,4.56,.86,1.48-.75,1.93-1.93,1.63-4.31-.23,.03-.48,.01-.7,.09-.83,.29-1.88,1.05-2.42-.05-.59-1.22,.79-1.41,1.52-1.83,.85-.5,1.27-1.05,.54-2.05-.82,.38-1.62,.85-2.49,1.1-.34,.1-1.04-.19-1.19-.5-.14-.29,.1-.96,.39-1.23,.54-.5,1.27-.79,1.85-1.25,.16-.13,.19-.66,.06-.86-.1-.16-.6-.23-.82-.13-.53,.24-.97,.73-1.51,.88-.57,.15-1.47,.27-1.77-.03-.6-.62,.04-1.18,.6-1.6,.53-.4,1.11-.76,1.57-1.22,.15-.15,.12-.67-.03-.88-.12-.18-.58-.29-.81-.2-.54,.2-1.01,.6-1.55,.81-.88,.34-2.07,1.14-2.6-.12-.51-1.21,.9-1.3,1.67-1.68,1.92-.97,1.98-1.2,.68-3.32Zm10.55-116.78c-3.26,1.31-6.21,2.45-9.11,3.71-.29,.13-.48,.98-.39,1.43,.42,2.14,.89,4.26,1.44,6.37,1.15,4.37,2.58,8.68,3.46,13.1,.44,2.21,1.48,3.63,3.31,5.16,.87-9.99,2.66-19.6,1.28-29.78Zm35.96,117.47c.78-.17,1.32-.18,1.74-.41,1.9-1.03,3.77-2.13,5.65-3.2,1.02-.58,.98-1.38,.64-2.36-.87-2.53-1.73-5.07-2.48-7.64-.34-1.16-.9-1.2-1.84-.8-2.38,1.03-4.75,2.08-7.17,2.99-1.29,.49-1.39,1.25-.94,2.33,1.12,2.71,2.21,5.42,3.38,8.11,.19,.44,.74,.71,1.02,.97Zm9.39-2.32c-1.56,1.01-2.76,1.94-4.1,2.6-1.41,.7-2.97,1.1-4.41,1.73-.28,.12-.6,.8-.5,1.08,.84,2.36,1.61,4.77,2.73,6.99,1.28,2.55,4,3.1,6.32,1.4,1.2-.88,2.22-2.01,3.27-3.08,.92-.93,1.15-1.83,.13-3.02-.79-.92-1.21-2.17-1.71-3.32-.6-1.37-1.1-2.79-1.72-4.38Zm-49-81.83c.67-3.46-1.62-5.68-4.86-4.75-2.49,.71-4.99,1.36-7.46,2.13-.46,.14-1.1,.66-1.15,1.06-.21,1.9-.39,3.83-.26,5.73,.05,.78,.84,1.57,1.42,2.25,.39,.46,.92,.68,1.35-.16,.58-1.16,1.3-.64,2.01-.05,.59,.49,.98,1.4,1.74,1.24,.07-.93-.16-1.97,.25-2.35,.67-.65,1.33,.16,1.86,.7,.12,.12,.23,.28,.38,.32,.45,.13,.91,.21,1.37,.3-.08-.42-.12-.85-.26-1.24-.08-.22-.42-.38-.45-.58-.05-.46-.14-1.08,.11-1.34,.2-.22,.9-.12,1.3,.04,.69,.27,1.02,1.26,2.48,1.17-.86-1.43-1.65-2.49-2.16-3.66-.38-.87-.54-1.88-.54-2.84,0-.4,.64-.8,.99-1.2,.34,.4,.87,.75,.98,1.21,.18,.75-.18,1.69,.92,2.04Zm-10.94,65.37c-1.85,1.21-3.57,2.38-5.34,3.48-.83,.51-1.14,1.18-.98,2.1,.75,4.47,2.88,8.14,6.47,10.91,.39,.3,1.22,.48,1.55,.26,.36-.24,.43-.99,.5-1.54,.08-.63-.18-.95-.89-1.22-1.38-.51-1.4-1.12-.24-2.01,.53-.41,1.14-.7,1.66-1.11,1.01-.79,1.98-1.62,3.06-2.52-2.98-2.25-4.32-5.23-5.79-8.34Zm98.95-115.68c-3.74-1.1-5.92-.24-7.71,2.6-.63,.99-.7,1.76,.15,2.66,1.43,1.51,2.77,3.12,4.18,4.65,1.52,1.65,2.67,1.88,4.6,.93,.3-.15,.7-.62,.65-.87-.23-1.16-.59-2.29-.94-3.42,0,0-.44,.09-.66,.19-.78,.36-1.26,0-1.63-.66-.31-.56-.63-1.11-1.22-2.14-.36,.62-.49,1.15-.81,1.31-.52,.25-1.32,.54-1.72,.31-.77-.45-.27-1.07,.13-1.66,.64-.95,.92-2.27,1.75-2.93,.81-.65,2.13-.66,3.22-.95Zm-93.89,111.5c-.83,.66-1.63,1.14-2.21,1.82-.38,.44-.73,1.24-.59,1.73,.78,2.6,2.04,4.97,4.16,6.73,1.13,.94,3.95-.04,4.39-1.45,.08-.26-.06-.66-.23-.9-1.8-2.61-3.62-5.21-5.51-7.92Zm40.54-113.64c-.42-.84-.95-1.52-1.08-2.26-.14-.77-.4-.91-1.11-.93-2.66-.09-5.31-.29-7.97-.36-.47-.01-.95,.34-1.42,.52,.29,.43,.49,1,.89,1.27,1.92,1.3,3.88,2.53,5.87,3.74,.35,.21,.96,.36,1.26,.19,1.31-.7,2.55-1.53,3.58-2.17Zm-43.08-33.24c-.12-2.32-.21-4.23-.31-6.15-.02-.33,.02-.72-.13-.98-.2-.32-.56-.72-.87-.74-.25-.02-.71,.44-.78,.75-.51,2.57-.13,4.92,2.09,7.11Zm98.71,33.63c-.03-1.32-.24-2.51-1.37-2.8-1.21-.31-1.96,.81-2.74,1.77,1.63-.86,2.79,.09,4.11,1.03Zm3.62,5.2c-.97,.22-1.84,.37-2.67,.65-.17,.06-.17,.63-.24,.97,.62-.05,1.24-.11,1.86-.15,.8-.04,1.2-.41,1.05-1.47Zm-.17,3.67c-.9-.03-1.66,.06-2.07,.94-.06,.12,.18,.55,.32,.57,1.01,.14,1.53-.39,1.75-1.51Zm-1.5-7.28c-.79,.6-1.46,1.1-2.46,1.85q2.34,.08,2.46-1.85Z"/><path class="cls-6" d="M180.8,105.54c.31,.64,.55,.99,.67,1.38,.53,1.85,.08,2.53-1.8,2.61-1.59,.07-3.19-.1-4.77,.01-1.32,.09-2.65,.35-3.92,.71-.39,.11-.61,.83-.91,1.27,.49,.21,.98,.6,1.46,.58,2.42-.08,4.83-.2,7.24-.45,1.38-.15,2.79-.42,4.06-.94,.76-.31,1.14-.32,1.73,.19,3.16,2.76,6.34,5.48,9.52,8.21,.76,.66,1.52,1.32,2.29,1.96,3.45,2.89,3.48,2.88,7.22,.17,2.58-1.87,5.21-3.66,7.77-5.56,1.04-.77,1.74-.91,2.66,.24,1.83,2.29,3.83,4.44,5.76,6.65,.77,.88,.83,1.55-.05,2.56-4.07,4.63-8.8,8.52-13.7,12.17-2.88,2.15-6.29,2.67-9.82,1.68-.88-.25-1.75-.58-2.59-.95-3.3-1.46-5.98-3.27-6.52-7.41-.39-2.95-1.63-5.78-2.51-8.66-.2-.64-.36-1.32-.71-1.87-.27-.44-.79-.72-1.21-1.07-.24,.55-.64,1.1-.67,1.66-.03,.54,.33,1.11,.5,1.67,1.1,3.6,2.44,7.15,3.21,10.83,.77,3.66,.5,7.35-1.67,10.65-.96,1.47-1.89,2.97-2.86,4.43-2.1,3.18-2.49,6.68-2.08,10.37,.45,4,1,7.99,1.22,12,.22,4.03,.58,3.54-3.31,4.49-5.28,1.3-10.65,1.03-15.98,.19-7.27-1.15-14.13-3.48-20.48-7.25-.86-.51-1.66-1.13-2.52-1.65-.93-.56-1.21-1.29-.89-2.33,2.9-9.39,3.22-19.13,3.86-28.82,.19-2.82-.2-5.69-.37-8.53-.06-.97-.07-1.77,1.04-2.26,.35-.15,.45-.88,.66-1.35-.52-.13-1.12-.5-1.53-.35-2.2,.79-4.36,1.7-6.54,2.58-1.86,.75-3.72,1.51-5.59,2.24-2.18,.85-2.49,1.29-1.92,3.57,1.52,6.09,3.1,12.17,4.65,18.25,.1,.41,.17,.83,.34,1.21,.31,.73,0,1.14-.65,1.34-2.88,.88-5.76,1.75-8.66,2.59-1.23,.35-1.97-.09-2.47-1.37-2.7-6.77-5.62-13.47-6.81-20.72-1.3-7.94,.68-11.44,6.29-14.71,4.69-2.73,9.68-4.95,14.54-7.38,.52-.26,1.11-.38,1.65-.61,2.96-1.31,5.87-1.22,9-.32,3.93,1.13,7.99,1.79,12.02,2.55,.95,.18,1.99-.06,2.99-.12,.69-.04,1.48-.14,1.41-1.04-.07-1.02-.94-.95-1.72-.99-1.66-.09-3.36-.07-4.97-.4-4.42-.91-8.82-1.95-13.2-3.03-1.16-.28-2.2-.82-3.23,.28-.18,.19-.74,.04-1.12,.04,0-.4-.17-.95,.03-1.18,.95-1.14,1.82-2.48,3.05-3.19,1.48-.86,3.34-1.02,4.93-1.72,2.95-1.29,5.65-.93,8.31,.73,.63,.39,1.42,.52,2.06,.9,.27,.16,.48,.69,.43,1-.03,.19-.59,.33-.93,.43-.14,.04-.32-.06-.48-.11-.81-.23-1.8-.62-2.04,.59-.23,1.17,.94,1.18,1.67,1.46,1.87,.72,3.86,1.22,5.61,2.15,1.52,.81,2.85,2.01,4.13,3.18,1.17,1.08,1.37,1.2,2.75,.32,1.27-.81,2.54-1.62,3.83-2.4,2.66-1.62,3.05-3.05,1.45-5.93,1.23-.45,2.48-.82,3.65-1.36,.96-.44,1.74-.48,2.49,.33,.71,.75,1.41,1.49,.86,2.64-.07,.15-.18,.33-.15,.47,.1,.53,.24,1.05,.37,1.57,.49-.2,.99-.39,1.47-.61,.14-.06,.23-.23,.5-.51Zm-15.49,60.26c0,1.78-.01,3.2,0,4.63,0,.89,.17,1.82,1.3,1.67,.3-.04,.52-1.02,.69-1.6,.09-.31-.01-.66-.01-1,0-4.52-.16-9.07,1.69-13.36,.63-1.46,1.23-2.94,1.94-4.35,3.37-6.67,4.61-13.73,2.74-20.96-1.34-5.15-3.55-10.08-5.43-15.08-.13-.35-.81-.78-1.09-.7-.35,.11-.81,.75-.76,1.09,.14,.88,.54,1.73,.84,2.58,1.53,4.33,3.4,8.58,4.52,13.02,1.71,6.78,.28,13.27-2.85,19.45-2.38,4.69-3.98,9.59-3.58,14.6Zm37.47-42.71c-.29,.19-.71,.31-.78,.55-.11,.34-.11,.88,.09,1.12,1.46,1.7,2.96,3.38,4.52,4.99,.25,.26,.88,.15,1.34,.22,.03-.52,.29-1.23,.05-1.54-1.29-1.62-2.69-3.16-4.09-4.69-.26-.29-.7-.41-1.12-.65Zm-4.31,8.16c0,.37-.11,.75,.02,1.02,.22,.45,.6,.82,.91,1.22,.34-.31,.92-.58,.98-.94,.38-2.05,.68-4.12,.9-6.19,.04-.37-.38-1.05-.69-1.12-.34-.08-.86,.33-1.19,.64-.21,.2-.27,.6-.32,.92-.23,1.49-.42,2.98-.63,4.44Zm-77.45-7.12c-.19,.12-.67,.26-.8,.56-.13,.29-.04,.93,.18,1.08,1.43,.96,2.91,1.86,4.42,2.7,.26,.15,.89,0,1.09-.22,.2-.23,.24-.88,.06-1.11-1.22-1.54-2.75-2.63-4.94-3.01Zm1.27,4.88s0-.05,0-.07c-.74,0-1.5-.08-2.23,.04-.31,.05-.76,.48-.78,.77-.02,.3,.36,.9,.61,.92,1.55,.15,3.12,.22,4.68,.21,.27,0,.79-.58,.74-.8-.09-.4-.46-.95-.8-1.02-.71-.16-1.48-.05-2.23-.05Z"/><path class="cls-11" d="M188.15,70.84h-4.95c.09,.38,.31,.74,.72,1.1,.47,.41,.79,1.07,1,1.68,.1,.28-.14,.88-.41,1.04-.25,.15-.76-.02-1.11-.15-.2-.08-.32-.37-.49-.55-1.98-2.1-2.12-2.09-4.54-.43-.37,.25-.99,.13-1.49,.18,.02-.53-.16-1.27,.11-1.55,.47-.47,1.01-.96,1.58-1.3h-15.63c.64,.19,1.47,.28,2.09,.49,.22,.08,.42,.27,.6,.45,.55,.56,1.11,1.21,.51,1.96-.56,.7-1.13,.16-1.72-.21-1.91-1.2-2.64-1.1-4.14,.44-.5,.52-.93,1.45-1.77,.71-.83-.73-.23-1.52,.28-2.21,.15-.2,.3-.45,.51-.55,1.53-.72,1.21-1.48,.37-2.68-.99-1.43-1.59-3.12-2.35-4.7-.21-.43-.39-.88-.73-1.63-.66,1.32-1.1,2.39-1.69,3.37-2.13,3.6-4.26,7.2-6.49,10.73-.49,.78-1.2,1.33-.74,2.41,.1,.24-.2,.86-.47,.99-.28,.14-.83,.02-1.11-.19-.53-.4-.89-1.01-1.42-1.41-1.99-1.51-3.75-.81-4.19,1.65-.44,2.49,.09,4.85,1.28,7.03,.37,.68,1.08,1.37,1.78,1.61,.94,.32,1.05-.81,1.5-1.35,.26-.32,.89-.64,1.2-.53,.34,.12,.74,.76,.71,1.14-.09,1.16-.13,2.43-.64,3.43-1.11,2.19-.56,2.46,1.06,3.75,6.7,5.29,14.31,7.25,22.68,5.57,11.3-2.27,19.43-12.14,16.37-24.26-.53-2.09,.16-4.11,1.45-5.63,.1-.12,.19-.25,.29-.38Zm-33.88,13.01c0,.17,0,.33,0,.5-.11,1.89-1.11,3.2-2.49,3.25-1.44,.05-2.93-1.46-2.75-3.28,.22-2.14,.77-4.26,1.38-6.33,.16-.53,1.04-1.06,1.66-1.16,.3-.05,.97,.83,1.12,1.39,.5,1.84,.85,3.73,1.25,5.6-.06,.01-.12,.02-.18,.04Zm10.95-2.94c-.13,.57-.99,1.37-1.49,1.35-.67-.03-1.48-.62-1.93-1.2-.41-.54-.43-1.39-.56-1.87,.09-.76,.08-1.27,.21-1.75,.25-.98,.56-2.04,1.84-2.02,1.15,.01,1.94,.83,2.09,1.83,.18,1.19,.11,2.48-.16,3.66Zm7.68,1.66c.34,0,.69,.46,1.23,.87-.53,.43-.98,1-1.18,.92-.42-.16-.71-.67-1.06-1.03,.34-.27,.67-.76,1.01-.76Zm5.5,8.63c-.53,2.07-3.7,4.73-5.86,4.92-2.84,.24-5.22-1.22-6.33-3.9-.84-2.02-.35-3.04,1.8-3.33,1.56-.21,3.16-.19,4.74-.27,0,.03,0,.06,0,.1,1.33,0,2.68-.11,4,.03,1.49,.15,2.01,1.04,1.65,2.45Zm3.24-10.53c-.83,1.41-2.46,1.26-3.1-.26-.6-1.43-.61-2.93-.09-4.4,.29-.83,.84-1.64,1.77-1.44,.71,.16,1.46,.74,1.91,1.34,.35,.47,.28,1.26,.43,2.14-.26,.78-.43,1.8-.92,2.63Z"/><path class="cls-10" d="M186.56,48.75c-5.08-5.04-11.2-6.43-18.07-4.79-.97,.23-1.76,.55-2.84-.03-11.27-6.07-25.16-2.64-32.53,7.97-9.16,13.17-5.23,32.38,8.44,41.18,.46,.29,.97,.5,1.54,.79,.4-.87,.7-1.54,1.08-2.37-3.18-.42-4.51-2.61-5.19-5.21-.44-1.68-.68-3.47-.64-5.2,.09-4.16,2.26-5.76,6.25-4.65,1.01,.28,1.61,.07,2.15-.67,.84-1.15,1.71-2.28,2.46-3.49,3-4.86,5.83-9.8,6.91-15.51,.23-1.23,.4-2.48,.67-3.71,.13-.56,.36-1.14,.71-1.58,.2-.26,.78-.43,1.08-.33,.29,.1,.56,.59,.6,.94,.05,.38-.22,.8-.27,1.21-.32,2.91-1.06,5.85-.12,8.73,.75,2.3,1.59,4.58,2.58,6.78,.23,.5,.45,1,.69,1.49,.13,.26,.46,.42,.87,.54h15.63c.27-.16,.54-.29,.82-.35,1.01-.23,1.52-.7,1.81-1.4,.12-.29,.21-.61,.28-.97,.74-3.95,.66-7.8-.88-11.58-.31-.77-1.23-1.81,.07-2.35,1.19-.49,1.46,.77,1.82,1.57,1.13,2.48,1.52,5.11,1.65,7.85-.26,1.84-.4,3.71-.82,5.51-.01,.06-.02,.11-.03,.17-.15,.6-.21,1.1-.1,1.55h4.95c.41-.52,.79-1.06,1.12-1.64,3.45-5.87,3.16-14.61-2.71-20.45Zm-18.26,20.59c-.4,.11-.93-.02-1.32-.21-.1-.05-.17-.14-.24-.24-.11-.17-.21-.39-.31-.57-1.86-3.45-2.76-7.13-2.52-11.06,.03-.42,.06-.84,.15-1.24,.17-.75,.44-1.63,1.39-1.33,.36,.11,.53,1.04,.65,1.62,.07,.38-.11,.82-.18,1.23-.05,3.04,.47,5.96,1.82,8.72,.33,.67,.71,1.34,.91,2.05,.04,.15,0,.4-.06,.61-.07,.22-.18,.4-.29,.43Zm5.29,.18c-.31,.05-.97-.28-.99-.49,0-.02,0-.04,0-.06-.33-3.69-.61-7.39-.83-11.08-.01-.25,.61-.79,.81-.73,.39,.11,.73,.51,1.01,.86,.13,.16,.09,.48,.11,.73,.19,2.99,.39,5.98,.58,8.97,.03,0,.05,0,.08,0,0,.33,.1,.7-.02,.99-.04,.1-.1,.2-.16,.31-.15,.26-.36,.5-.57,.54Z"/><path class="cls-12" d="M136.13,167.66c6.26,4.44,12.96,7.18,20.12,8.85,7.06,1.65,14.19,2.18,21.73,.65-1.68,7.08-4.58,13.19-8.46,19.02-.26-.24-.54-.42-.69-.67-2.5-4.16-5-8.33-7.47-12.5-.42-.71-.64-1.55-1.12-2.22-.27-.38-.9-.77-1.3-.71-.75,.12-1.06,.78-.8,1.55,.13,.39,.36,.75,.58,1.11,3.63,6.12,7.27,12.24,10.91,18.35,.6,1.01,1.14,2.07,1.86,2.98,4.62,5.87,7.1,12.87,10.33,19.48,.86,1.75,.75,1.73-.99,2.42-4.35,1.72-8.69,3.47-13,5.3-2.14,.91-2.31,.99-3.7-.98-3.62-5.13-7.13-10.33-10.77-15.44-2.23-3.14-4.58-6.19-6.95-9.23-3.54-4.56-7.25-8.97-9.74-14.28-2.97-6.35-3.19-12.91-2.09-19.64,.09-.57,.29-1.14,.5-1.68,.27-.69,.6-1.36,1.04-2.34Z"/><path class="cls-10" d="M130.36,109.4c-3.52,1.88-6.54,3.49-9.56,5.09-1.01,.53-1.78,.25-2.69-.47-5.07-3.98-7.91-9.21-8.88-15.5-.2-1.3-.09-2.66-.01-3.98,.04-.77,.3-1.6-.71-1.84-.94-.22-1.31,.53-1.61,1.25-.36,.84-.7,1.68-1.09,2.62-.4-9.37,5.83-21.28,15.91-26.87,.74,1.53,1.6,3.02,2.17,4.61,.24,.68-.06,1.61-.25,2.39-.87,3.48-2.12,6.89-2.63,10.42-1.15,7.97,1.33,14.86,7.07,20.53,.64,.63,1.43,1.1,2.3,1.76Z"/><path class="cls-12" d="M142.15,203.66c3.85,4.66,7.9,9.44,11.13,14.85,.43,.73,.27,1.24-.16,1.81-.86,1.14-1.57,2.43-2.6,3.38-3.08,2.83-6.28,5.54-9.45,8.27-.3,.26-.72,.37-1.16,.59-3.48-5.01-6.91-9.96-10.36-14.9-.47-.68-.38-1.12,.22-1.71,4.12-4.04,8.2-8.13,12.39-12.29Z"/><path class="cls-8" d="M127.88,242.75c1.29,2.11,1.24,2.35-.68,3.32-.77,.39-2.18,.47-1.67,1.68,.53,1.26,1.71,.47,2.6,.12,.54-.21,1.01-.61,1.55-.81,.23-.09,.69,.02,.81,.2,.15,.21,.18,.73,.03,.88-.46,.47-1.04,.82-1.57,1.22-.56,.42-1.19,.98-.6,1.6,.29,.31,1.2,.19,1.77,.03,.54-.15,.98-.64,1.51-.88,.22-.1,.72-.03,.82,.13,.13,.21,.11,.73-.06,.86-.58,.47-1.31,.75-1.85,1.25-.29,.27-.53,.94-.39,1.23,.15,.3,.85,.6,1.19,.5,.87-.25,1.67-.72,2.49-1.1,.74,.99,.31,1.55-.54,2.05-.73,.43-2.11,.62-1.52,1.83,.54,1.1,1.59,.34,2.42,.05,.22-.07,.46-.06,.7-.09,.3,2.38-.15,3.55-1.63,4.31-1.63,.83-2.88,.6-4.56-.86-.06-.05-.14-.1-.19-.16-3.77-4.72-8.99-7.7-13.64-11.37-2.02-1.59-3.92-3.41-5.59-5.37-1.98-2.33-1.96-4.56-.33-7.17,1.57-2.53,3.93-4.22,6.36-6.17,.67,3.73,2.02,6.85,4.18,9.57,.77,.98,1.64,1.92,2.6,2.7,2.13,1.73,3.26,1.77,5.8,.41Zm-18.39-4.19c.49,2.82,1.21,5.56,3.61,7.47,1.37,1.09,2.76,2.2,4.25,3.11,4.05,2.46,7.61,5.44,10.63,9.1,.58,.7,1.28,1.36,2.04,1.83,.37,.23,1.02,0,1.55-.04-.06-.46-.1-.92-.2-1.37-.03-.14-.23-.23-.35-.35-4.02-4.4-8.22-8.58-13.48-11.54-.8-.45-1.48-1.1-2.24-1.61-2.27-1.5-3.23-3.76-3.65-6.32-.07-.41,.09-.88-.07-1.24-.17-.39-.6-.95-.88-.93-.37,.03-.76,.51-1.02,.88-.17,.25-.13,.64-.2,1.01Z"/><path class="cls-8" d="M202.08,257.27c-.54,.32-1.05,.77-1.64,.95-4.35,1.35-8.35,3.33-12,6.1-1.29,.99-2.89,1.64-4.44,2.21-2.23,.83-3.69,.23-4.72-1.92-.53-1.1-.83-2.35-1.02-3.57-.17-1.05-.03-2.16-.03-3.55,.72,.12,1.52,.16,2.26,.39,1.22,.37,2.34,.15,3.37-.48,3.13-1.91,5.77-4.26,6.85-7.95,.09-.29,.55-.72,.74-.67,.31,.07,.74,.46,.77,.75,.07,.74-.17,1.51-.07,2.23,.07,.48,.52,.91,.8,1.36,.39-.36,1-.65,1.12-1.09,.24-.87,.14-1.83,.33-2.72,.08-.37,.56-.65,.85-.97,.25,.28,.63,.52,.73,.85,.15,.46,.11,.99,.13,1.49,.03,.73,.22,1.51,1.04,1.35,.4-.08,.8-.92,.93-1.48,.14-.63-.09-1.34-.02-1.99,.04-.31,.4-.59,.62-.89,.27,.25,.7,.45,.78,.75,.16,.64,.04,1.36,.23,1.98,.12,.39,.61,.67,.93,1,.33-.39,.87-.74,.96-1.18,.14-.72,0-1.49-.04-2.25-.03-.62-.02-1.33,.8-1.19,.4,.07,.85,.66,1.01,1.1,.19,.52,0,1.19,.17,1.73,.12,.39,.56,.69,.85,1.03,.35-.32,.94-.6,.99-.95,.14-.98,.05-1.98,.05-3.19,1.9,.13,3.51,.55,4.82,1.8,.94,.91,1.34,1.9,.31,3.03-.25-.57-.49-1.13-.74-1.7-.56,.3-1.16,.53-1.66,.91-1.05,.81-1.93,1.94-3.09,2.5-2.93,1.41-5.99,2.55-8.98,3.83-2.15,.91-4.35,1.73-6.4,2.83-2.7,1.45-4.97,3.73-8.26,4.03-.32,.03-.58,.67-.86,1.02,.37,.29,.76,.87,1.09,.83,1.23-.14,2.52-.29,3.62-.8,1.58-.74,3.06-1.74,4.51-2.73,3.73-2.55,8.02-3.62,12.29-4.78Z"/><path class="cls-11" d="M174.39,243.44c-.28-.26-.83-.54-1.02-.97-1.17-2.68-2.26-5.4-3.38-8.11-.45-1.08-.34-1.84,.94-2.33,2.42-.91,4.79-1.97,7.17-2.99,.94-.4,1.5-.36,1.84,.8,.75,2.57,1.61,5.11,2.48,7.64,.34,.98,.38,1.78-.64,2.36-1.89,1.06-3.75,2.17-5.65,3.2-.42,.23-.97,.24-1.74,.41Z"/><path class="cls-1" d="M183.78,241.12c.62,1.6,1.13,3.01,1.72,4.38,.5,1.14,.92,2.4,1.71,3.32,1.02,1.19,.79,2.09-.13,3.02-1.05,1.07-2.07,2.2-3.27,3.08-2.32,1.7-5.04,1.15-6.32-1.4-1.12-2.23-1.89-4.64-2.73-6.99-.1-.28,.22-.96,.5-1.08,1.45-.63,3-1.03,4.41-1.73,1.33-.66,2.53-1.59,4.1-2.6Z"/><path class="cls-11" d="M134.78,159.29c-1.1-.35-.74-1.29-.92-2.04-.11-.46-.64-.81-.98-1.21-.35,.4-.99,.8-.99,1.2,0,.95,.16,1.97,.54,2.84,.52,1.18,1.3,2.23,2.16,3.66-1.46,.08-1.79-.9-2.48-1.17-.4-.16-1.1-.25-1.3-.04-.24,.26-.16,.89-.11,1.34,.02,.21,.37,.36,.45,.58,.14,.4,.18,.83,.26,1.24-.46-.1-.92-.18-1.37-.3-.14-.04-.26-.2-.38-.32-.53-.54-1.19-1.34-1.86-.7-.4,.39-.18,1.43-.25,2.35-.76,.15-1.15-.75-1.74-1.24-.71-.59-1.42-1.11-2.01,.05-.42,.84-.95,.63-1.35,.16-.58-.68-1.37-1.46-1.42-2.25-.13-1.9,.05-3.83,.26-5.73,.04-.4,.68-.92,1.15-1.06,2.47-.76,4.97-1.42,7.46-2.13,3.24-.92,5.53,1.29,4.86,4.75Z"/><path class="cls-1" d="M123.84,224.66c1.47,3.11,2.82,6.09,5.79,8.34-1.08,.89-2.05,1.73-3.06,2.52-.52,.41-1.14,.71-1.66,1.11-1.16,.9-1.14,1.5,.24,2.01,.71,.26,.97,.59,.89,1.22-.07,.55-.14,1.3-.5,1.54-.33,.22-1.16,.04-1.55-.26-3.6-2.77-5.72-6.44-6.47-10.91-.15-.91,.16-1.58,.98-2.1,1.76-1.09,3.48-2.26,5.34-3.48Z"/><path class="cls-5" d="M202.08,257.27c-4.27,1.15-8.56,2.22-12.29,4.78-1.45,.99-2.92,1.99-4.51,2.73-1.1,.51-2.39,.66-3.62,.8-.33,.04-.73-.54-1.09-.83,.29-.36,.55-.99,.86-1.02,3.28-.3,5.56-2.58,8.26-4.03,2.05-1.1,4.25-1.92,6.4-2.83,3-1.27,6.05-2.42,8.98-3.83,1.16-.56,2.03-1.69,3.09-2.5,.49-.38,1.1-.61,1.66-.91,.25,.57,.49,1.13,.74,1.7,0,0,.08-.09,.08-.09-.86,.86-1.73,1.71-2.59,2.57-.99,.57-1.98,1.14-2.96,1.72-1.03,.61-2.06,1.22-3.1,1.83l.09-.07Z"/><path class="cls-11" d="M222.79,108.98c-1.09,.29-2.41,.31-3.22,.95-.83,.66-1.11,1.98-1.75,2.93-.4,.6-.91,1.22-.13,1.66,.4,.23,1.2-.05,1.72-.31,.32-.15,.45-.69,.81-1.31,.59,1.03,.91,1.58,1.22,2.14,.37,.66,.84,1.01,1.63,.66,.21-.1,.66-.19,.66-.19,.35,1.13,.71,2.26,.94,3.42,.05,.24-.35,.72-.65,.87-1.93,.95-3.08,.72-4.6-.93-1.41-1.53-2.75-3.13-4.18-4.65-.85-.89-.78-1.66-.15-2.66,1.79-2.84,3.97-3.7,7.71-2.6Z"/><path class="cls-11" d="M128.89,220.49c1.89,2.71,3.71,5.3,5.51,7.92,.17,.25,.31,.64,.23,.9-.44,1.41-3.26,2.39-4.39,1.45-2.12-1.76-3.38-4.13-4.16-6.73-.15-.49,.21-1.29,.59-1.73,.59-.68,1.39-1.16,2.21-1.82Z"/><path class="cls-11" d="M169.44,106.85c-1.03,.64-2.27,1.47-3.58,2.17-.31,.16-.92,.02-1.26-.19-1.98-1.2-3.94-2.44-5.87-3.74-.4-.27-.6-.84-.89-1.27,.47-.18,.95-.54,1.42-.52,2.66,.08,5.31,.28,7.97,.36,.71,.02,.97,.17,1.11,.93,.13,.74,.66,1.41,1.08,2.26Z"/><path class="cls-6" d="M126.36,73.61c-2.21-2.18-2.6-4.53-2.09-7.11,.06-.31,.52-.77,.78-.75,.31,.02,.67,.42,.87,.74,.16,.26,.12,.64,.13,.98,.1,1.91,.19,3.82,.31,6.15Z"/><path class="cls-11" d="M225.07,107.24c-1.32-.95-2.48-1.89-4.11-1.03,.79-.96,1.53-2.09,2.74-1.77,1.13,.29,1.34,1.49,1.37,2.8Z"/><path class="cls-11" d="M228.69,112.44c.15,1.06-.24,1.43-1.05,1.47-.62,.03-1.24,.1-1.86,.15,.08-.34,.07-.91,.24-.97,.82-.28,1.69-.43,2.67-.65Z"/><path class="cls-11" d="M228.51,116.11c-.22,1.12-.74,1.65-1.75,1.51-.14-.02-.38-.45-.32-.57,.41-.88,1.17-.98,2.07-.94Z"/><path class="cls-11" d="M227.01,108.83q-.11,1.93-2.46,1.85c.99-.75,1.66-1.25,2.46-1.85Z"/><path class="cls-8" d="M208.05,253.79c.86-.86,1.73-1.71,2.59-2.57-.29,1.44-1.25,2.19-2.59,2.57Z"/><path class="cls-8" d="M201.99,257.34c1.03-.61,2.06-1.22,3.1-1.83-.54,1.44-1.76,1.74-3.1,1.83Z"/><path class="cls-7" d="M165.31,165.8c-.4-5.01,1.2-9.91,3.58-14.6,3.13-6.17,4.56-12.67,2.85-19.45-1.12-4.44-2.99-8.69-4.52-13.02-.3-.86-.7-1.7-.84-2.58-.05-.34,.41-.99,.76-1.09,.28-.09,.96,.35,1.09,.7,1.88,5.01,4.09,9.93,5.43,15.08,1.88,7.23,.63,14.29-2.74,20.96-.72,1.42-1.32,2.89-1.94,4.35-1.84,4.29-1.68,8.83-1.69,13.36,0,.34,.1,.69,.01,1-.17,.57-.39,1.56-.69,1.6-1.13,.15-1.29-.78-1.3-1.67-.01-1.42,0-2.85,0-4.63Z"/><path class="cls-7" d="M202.77,123.08c.42,.24,.86,.36,1.12,.65,1.4,1.53,2.8,3.07,4.09,4.69,.24,.31-.02,1.01-.05,1.54-.46-.06-1.09,.04-1.34-.22-1.56-1.61-3.06-3.29-4.52-4.99-.21-.24-.2-.79-.09-1.12,.08-.24,.5-.36,.78-.55Z"/><path class="cls-7" d="M198.46,131.24c.2-1.46,.4-2.95,.63-4.44,.05-.32,.11-.72,.32-.92,.33-.31,.85-.72,1.19-.64,.31,.07,.73,.75,.69,1.12-.22,2.07-.52,4.14-.9,6.19-.07,.36-.64,.63-.98,.94-.31-.4-.69-.77-.91-1.22-.13-.27-.02-.66-.02-1.02Z"/><path class="cls-7" d="M121.01,124.12c2.19,.37,3.73,1.47,4.94,3.01,.18,.23,.14,.88-.06,1.11-.2,.23-.83,.37-1.09,.22-1.51-.84-2.99-1.74-4.42-2.7-.22-.15-.31-.79-.18-1.08,.14-.3,.61-.44,.8-.56Z"/><path class="cls-7" d="M122.28,129c.75,0,1.52-.11,2.23,.05,.34,.08,.71,.63,.8,1.02,.05,.21-.47,.79-.74,.8-1.56,.01-3.13-.06-4.68-.21-.25-.02-.64-.62-.61-.92,.02-.29,.47-.72,.78-.77,.73-.11,1.48-.04,2.23-.04,0,.02,0,.05,0,.07Z"/><path class="cls-7" d="M172.75,88.72c1.33,0,2.68-.11,4,.03,1.49,.15,2.01,1.04,1.65,2.45-.53,2.07-3.7,4.73-5.86,4.92-2.84,.24-5.22-1.22-6.33-3.9-.84-2.02-.35-3.04,1.8-3.33,1.56-.21,3.16-.19,4.74-.27,0,.03,0,.06,0,.1Zm3.24,2.04c-2.08,0-4.04-.03-6.01,.02-.54,.01-1.07,.28-1.6,.43,.26,.57,.4,1.25,.8,1.68,.42,.45,1.07,.8,1.67,.97,2.16,.59,3.65-.31,5.13-3.1Z"/><path class="cls-7" d="M184.15,63.61c-.27,1.9-.4,3.83-.85,5.68-.27,1.11-.28,1.86,.62,2.65,.47,.41,.79,1.07,1,1.68,.1,.28-.14,.88-.41,1.04-.25,.15-.76-.02-1.11-.15-.2-.08-.32-.37-.49-.55-1.98-2.1-2.12-2.09-4.54-.43-.37,.25-.99,.13-1.49,.18,.02-.53-.16-1.27,.11-1.55,.68-.69,1.51-1.45,2.4-1.65,1.42-.32,1.86-1.12,2.1-2.37,.74-3.95,.66-7.8-.88-11.58-.31-.77-1.23-1.81,.07-2.35,1.19-.49,1.46,.77,1.82,1.57,1.13,2.48,1.52,5.11,1.65,7.85Z"/><path class="cls-7" d="M154.27,83.85c0,.17,0,.33,0,.5-.11,1.89-1.11,3.2-2.49,3.25-1.44,.05-2.93-1.46-2.75-3.28,.22-2.14,.77-4.26,1.38-6.33,.16-.53,1.04-1.06,1.66-1.16,.3-.05,.97,.83,1.12,1.39,.5,1.84,.85,3.73,1.25,5.6-.06,.01-.12,.02-.18,.04Zm-2.61-2.16q-.6,2.2,.26,3.67c.44-1.26,.45-2.23-.26-3.67Z"/><path class="cls-7" d="M165.92,57.53c-.05,3.04,.47,5.96,1.82,8.72,.33,.67,.71,1.34,.91,2.05,.09,.31-.14,.98-.35,1.04-.4,.11-.93-.02-1.32-.21-.25-.12-.39-.52-.55-.82-1.86-3.45-2.76-7.13-2.52-11.06,.03-.42,.06-.84,.15-1.24,.17-.75,.44-1.63,1.39-1.33,.36,.11,.53,1.04,.65,1.62,.08,.38-.11,.82-.18,1.23Z"/><path class="cls-7" d="M174.34,67.7c0,.33,.1,.7-.02,.99-.14,.34-.44,.79-.73,.84-.31,.05-.97-.28-.99-.49-.34-3.71-.62-7.43-.84-11.15-.01-.25,.61-.79,.81-.73,.39,.11,.73,.51,1.01,.86,.13,.16,.09,.48,.11,.73,.19,2.99,.39,5.98,.58,8.97h.08Z"/><path class="cls-7" d="M182.56,78.05c-.26,.78-.43,1.8-.92,2.63-.83,1.41-2.46,1.26-3.1-.26-.6-1.43-.61-2.93-.09-4.4,.29-.83,.84-1.64,1.77-1.44,.71,.16,1.46,.74,1.91,1.34,.35,.47,.28,1.26,.43,2.14Z"/><path class="cls-7" d="M161.24,79.2c.09-.76,.08-1.27,.21-1.75,.25-.98,.56-2.04,1.84-2.02,1.15,.01,1.94,.83,2.09,1.83,.18,1.19,.11,2.48-.16,3.66-.13,.57-.99,1.37-1.49,1.35-.67-.03-1.48-.62-1.93-1.2-.41-.54-.43-1.39-.56-1.87Z"/><path class="cls-7" d="M174.12,83.44c-.53,.43-.98,1-1.18,.92-.42-.16-.71-.67-1.06-1.03,.34-.27,.67-.76,1.01-.76,.34,0,.69,.46,1.23,.87Z"/><path class="cls-5" d="M109.49,238.56c.06-.37,.02-.76,.2-1.01,.26-.37,.66-.85,1.02-.88,.28-.02,.71,.54,.88,.93,.16,.35,0,.83,.07,1.24,.42,2.56,1.38,4.81,3.65,6.32,.77,.51,1.45,1.16,2.24,1.61,5.26,2.96,9.45,7.14,13.48,11.54,.11,.12,.32,.22,.35,.35,.1,.45,.14,.91,.2,1.37-.53,.03-1.18,.26-1.55,.04-.77-.48-1.46-1.13-2.04-1.83-3.02-3.65-6.58-6.64-10.63-9.1-1.5-.91-2.88-2.02-4.25-3.11-2.4-1.91-3.13-4.64-3.61-7.47Z"/><path class="cls-9" d="M175.99,90.77c-1.48,2.8-2.97,3.69-5.13,3.1-.61-.17-1.25-.51-1.67-.97-.4-.43-.54-1.11-.8-1.68,.53-.15,1.06-.42,1.6-.43,1.96-.05,3.93-.02,6.01-.02Z"/><path class="cls-1" d="M151.66,81.69c.71,1.44,.71,2.41,.26,3.67q-.86-1.46-.26-3.67Z"/></g><ellipse class="cls-9" cx="159.57" cy="85.36" rx="3.79" ry="1.63"/><ellipse class="cls-9" cx="182.56" cy="85.36" rx="3.79" ry="1.63"/></g></g></g></svg>