<?xml version="1.0" encoding="utf-8"?>
<!-- Generator: Adobe Illustrator 26.4.1, SVG Export Plug-In . SVG Version: 6.00 Build 0)  -->
<svg version="1.1" id="レイヤー_1" xmlns="http://www.w3.org/2000/svg" xmlns:xlink="http://www.w3.org/1999/xlink" x="0px"
	 y="0px" viewBox="0 0 40 40" style="enable-background:new 0 0 40 40;" xml:space="preserve">
<style type="text/css">
	.st0{fill:#FAD7B5;stroke:#231815;stroke-width:0.9082;stroke-linecap:round;stroke-linejoin:round;stroke-miterlimit:10;}
	.st1{fill:#FFFFFF;stroke:#A7A8A8;stroke-width:0.9082;stroke-linecap:round;stroke-linejoin:round;stroke-miterlimit:10;}
</style>
<g>
	<path class="st0" d="M26.52,2.18c0,0-4.51,6.18-4.95,6.44c-0.44,0.25-2.6,0.44-3.79,0.36c-1.19-0.08-3.27,0.13-4.13,0.05
		c-0.86-0.09-2.94-0.72-3.84-1.04C8.91,7.67,7.7,8.3,8.08,9.41c0.38,1.11,1.3,2.92,3.1,2.94c2.02,0.03,3.68,0.84,2.47,1.75
		c-1.21,0.91-5.05,3.24-7.18,4.18c-2.12,0.94-4.35,1.92-4.6,2.64C1.57,21.79,1.7,23.54,4,22.98c2.12-0.52,3.83-1.5,4.68-2.06
		c0.84-0.57,2.76-1.95,3.19-1.44c0.32,0.39-2.12,2.43-3.09,3.11c-0.96,0.68-2.81,2.03-3.81,2.84c-1.04,0.83-2.63,1.62-1.87,3.09
		c0.83,1.61,4.07-0.25,5.14-0.99c1.22-0.83,4.29-3.55,4.89-4.17c0.6-0.62,1.67-1.56,2.03-1.3c0.45,0.33-2.9,3.86-3.7,4.61
		c-0.69,0.65-2.29,2.23-2.34,3.01c-0.05,0.76,0.27,1.42,1.71,1.08c1.45-0.34,2.49-1.27,3.26-2.17c0.92-1.08,2.73-3.19,3.17-3.78
		c0.45-0.6,1-1.15,1.4-0.78c0.34,0.31-2.47,3.51-3.03,4.28c-0.65,0.89-1.32,2.07,0.08,2.73c1.19,0.56,2.4-0.77,3.06-1.86
		c0.57-0.93,3.82-5.39,4.68-6.24c0.84-0.83,3.09-4.19,3.31-6.25c0.21-2.06-0.19-2.9-0.08-3.23c0.11-0.33,5.09-4.24,5.09-4.24"/>
	<path class="st1" d="M30.09,21.91c0-0.35-0.14-0.67-0.36-0.91c0.21-0.24,0.34-0.55,0.34-0.89c0-0.74-0.6-1.33-1.33-1.33
		c-0.04,0-0.08,0-0.11,0.01c-0.01-0.1-0.04-0.19-0.08-0.28c0.33-0.24,0.54-0.63,0.54-1.07c0-0.35-0.14-0.67-0.36-0.91
		c0.21-0.24,0.34-0.55,0.34-0.89c0-0.74-0.6-1.33-1.33-1.33c-0.04,0-0.08,0-0.11,0.01c-0.1-0.64-0.65-1.13-1.32-1.13
		c-0.53,0-0.99,0.31-1.2,0.77c-0.08-0.16-0.19-0.31-0.33-0.43c0.03-0.11,0.05-0.22,0.05-0.34c0-0.74-0.6-1.33-1.33-1.33
		c-0.04,0-0.08,0-0.11,0.01c-0.1-0.64-0.65-1.13-1.32-1.13c-0.53,0-0.99,0.31-1.2,0.77c-0.22-0.44-0.67-0.75-1.2-0.75
		c-0.49,0-0.92,0.26-1.15,0.66c-0.21-0.14-0.46-0.22-0.73-0.22c-0.04,0-0.08,0-0.11,0.01c-0.1-0.64-0.65-1.13-1.32-1.13
		c-0.53,0-0.99,0.31-1.2,0.77c-0.22-0.44-0.67-0.75-1.2-0.75c-0.74,0-1.33,0.6-1.33,1.33c0,0.11,0.01,0.21,0.04,0.32
		c-0.05-0.01-0.1-0.01-0.15-0.01c-0.74,0-1.33,0.6-1.33,1.33c0,0.15,0.03,0.29,0.07,0.42c-0.12-0.03-0.24-0.05-0.37-0.05
		c-0.53,0-0.99,0.31-1.2,0.77c-0.22-0.44-0.67-0.75-1.2-0.75c-0.74,0-1.33,0.6-1.33,1.33c0,0.11,0.01,0.21,0.04,0.32
		c-0.05-0.01-0.1-0.01-0.15-0.01c-0.74,0-1.33,0.6-1.33,1.33c0,0.54,0.32,1,0.78,1.21c-0.24,0.24-0.39,0.57-0.39,0.94
		c0,0.19,0.04,0.36,0.11,0.52c-0.04,0.12-0.06,0.25-0.06,0.38c0,0.11,0.01,0.21,0.04,0.32c-0.05-0.01-0.1-0.01-0.15-0.01
		c-0.74,0-1.33,0.6-1.33,1.33c0,0.54,0.32,1,0.78,1.21c-0.24,0.24-0.39,0.57-0.39,0.94c0,0.6,0.4,1.11,0.95,1.27
		c-0.2,0.23-0.33,0.54-0.33,0.87c0,0.54,0.32,1,0.78,1.21c-0.24,0.24-0.39,0.57-0.39,0.94c0,0.74,0.6,1.33,1.33,1.33
		c0.15,0,0.29-0.03,0.42-0.07c0.09,0.65,0.65,1.14,1.32,1.14c0.49,0,0.92-0.27,1.15-0.66c0.2,0.15,0.44,0.24,0.7,0.26
		c0,0.02,0,0.05,0,0.07c0,0.74,0.6,1.33,1.33,1.33c0.15,0,0.29-0.03,0.42-0.07c0.09,0.64,0.65,1.14,1.32,1.14
		c0.49,0,0.92-0.27,1.15-0.66c0.01,0.01,0.03,0.02,0.04,0.03c0.24,0.35,0.64,0.57,1.1,0.57c0.15,0,0.29-0.03,0.42-0.07
		c0.09,0.65,0.65,1.14,1.32,1.14c0.49,0,0.92-0.27,1.15-0.66c0.22,0.17,0.5,0.27,0.81,0.27c0.74,0,1.33-0.6,1.33-1.33
		c0-0.08-0.01-0.16-0.02-0.24c0.67-0.05,1.21-0.6,1.23-1.28c0.48-0.01,0.9-0.27,1.13-0.66c0.22,0.17,0.5,0.27,0.81,0.27
		c0.74,0,1.33-0.6,1.33-1.33c0-0.08-0.01-0.16-0.02-0.24c0.69-0.05,1.23-0.63,1.23-1.33c0-0.35-0.14-0.67-0.36-0.91
		c0.21-0.23,0.34-0.54,0.34-0.88c0.16,0.06,0.32,0.1,0.5,0.1c0.74,0,1.33-0.6,1.33-1.33c0-0.08-0.01-0.16-0.02-0.24
		C29.54,23.19,30.09,22.61,30.09,21.91z"/>
	<path class="st0" d="M34.26,10.93c0,0-5.49,5.34-5.96,5.51c-0.47,0.18-2.64,0-3.8-0.28c-1.16-0.28-3.24-0.42-4.08-0.65
		c-0.83-0.23-2.78-1.2-3.61-1.67c-0.83-0.46-2.13-0.05-1.95,1.11c0.19,1.16,0.79,3.09,2.56,3.42c1.98,0.37,3.49,1.45,2.14,2.14
		c-1.34,0.69-5.52,2.34-7.78,2.92c-2.24,0.57-4.61,1.16-4.98,1.83c-0.44,0.8-0.6,2.55,1.75,2.38c2.17-0.16,4.03-0.83,4.96-1.25
		c0.93-0.42,3.05-1.46,3.38-0.88c0.25,0.43-2.5,2.04-3.57,2.55c-1.07,0.51-3.11,1.53-4.23,2.16c-1.16,0.65-2.87,1.15-2.36,2.73
		c0.55,1.72,4.05,0.44,5.23-0.11c1.34-0.62,4.82-2.78,5.52-3.29c0.69-0.51,1.91-1.26,2.22-0.95c0.39,0.4-3.51,3.32-4.42,3.93
		c-0.79,0.53-2.63,1.81-2.82,2.58c-0.18,0.74,0.02,1.45,1.51,1.35c1.48-0.09,2.67-0.84,3.58-1.6c1.09-0.91,3.23-2.69,3.76-3.19
		c0.54-0.51,1.18-0.97,1.51-0.54c0.28,0.37-3.02,3.05-3.7,3.71c-0.79,0.77-1.65,1.82-0.38,2.71c1.08,0.75,2.49-0.35,3.33-1.32
		c0.71-0.82,4.67-4.67,5.66-5.36c0.97-0.67,3.75-3.61,4.31-5.61c0.56-1.99,0.3-2.89,0.46-3.2c0.17-0.3,5.73-3.33,5.73-3.33"/>
	<path class="st1" d="M27.5,14.94c0-0.84-0.68-1.53-1.53-1.53c-0.28,0-0.54,0.07-0.76,0.21c-0.28-0.4-0.74-0.66-1.26-0.66
		c-0.84,0-1.53,0.68-1.53,1.53c0,0.59,0.33,1.09,0.81,1.35c-0.07,0.18-0.12,0.38-0.12,0.58c0,0.84,0.68,1.53,1.53,1.53
		c0.83,0,1.51-0.67,1.53-1.49C26.92,16.35,27.5,15.71,27.5,14.94z"/>
	<circle class="st1" cx="16.1" cy="6.44" r="1.22"/>
	<path class="st1" d="M6.92,11.64c0,0.95-0.77,1.73-1.73,1.73c-0.95,0-1.73-0.77-1.73-1.73c0-0.95,0.77-1.73,1.73-1.73
		C6.15,9.91,6.92,10.68,6.92,11.64z"/>
</g>
</svg>
