<?xml version="1.0" encoding="utf-8"?>
<!-- Generator: Adobe Illustrator 26.4.1, SVG Export Plug-In . SVG Version: 6.00 Build 0)  -->
<svg version="1.1" id="レイヤー_1" xmlns="http://www.w3.org/2000/svg" xmlns:xlink="http://www.w3.org/1999/xlink" x="0px"
	 y="0px" viewBox="0 0 40 40" style="enable-background:new 0 0 40 40;" xml:space="preserve">
<style type="text/css">
	.st0{fill:#473D3A;}
	.st1{fill:#FAD29B;}
	.st2{fill:#685952;}
	.st3{fill:#C8BB9B;}
	.st4{fill:#A38A77;}
	.st5{fill:#C9E8F9;}
	.st6{fill:#EBF6FC;}
	.st7{fill:#FFFFFF;}
	.st8{fill:#F3AB8A;}
	.st9{fill:#F4AD7D;}
</style>
<g>
	<path class="st0" d="M36.8,8.16c0.28,0.92,0.31,1.89,0.28,2.86c-0.03,0.97-0.3,1.88-0.74,2.76c0.58,1.04,0.21,1.98-0.32,2.89
		c-0.25,0.44-0.66,0.58-1.15,0.55c-0.11-0.01-0.21-0.02-0.33-0.03c-0.18,0.51-0.31,1.04-0.54,1.51c-0.23,0.46-0.57,0.86-0.89,1.34
		c0.18,0.15,0.36,0.3,0.55,0.46c0.39,0.34,0.78,0.68,1.17,1.02c0.05,0.04,0.1,0.1,0.12,0.16c0.09,0.38,0.19,0.76,0.23,1.15
		c0.04,0.38,0.04,0.76,0.03,1.15c-0.01,1.69-0.24,3.35-0.47,5.02c-0.06,0.47-0.19,0.93-0.29,1.42c0.28,0.11,0.58,0.11,0.88,0.12
		c0.94,0.01,1.89,0.01,2.83,0.02c0.27,0,0.55,0.02,0.82,0.02c0.16,0,0.33,0.03,0.35,0.21c0.01,0.1-0.07,0.23-0.14,0.31
		c-0.64,0.73-1.28,1.45-1.93,2.17c-0.58,0.64-1.17,1.27-1.74,1.91c-0.15,0.17-0.32,0.22-0.54,0.22c-0.42-0.01-0.85,0.03-1.27,0.03
		c-0.35,0-0.71-0.03-1.06-0.03c-0.63,0.01-1.26,0.03-1.89,0.05c-2.54,0.06-5.09,0.12-7.63,0.17c-0.63,0.01-1.26-0.05-1.88-0.06
		c-0.41,0-0.82,0.04-1.23,0.06c-0.26,0.01-0.52,0.04-0.78,0.02c-0.77-0.08-1.53,0.02-2.29,0.09c-0.75,0.07-1.5,0.12-2.24,0.18
		c-0.21,0.02-0.42,0.06-0.66,0.09c0.02,0.21,0.05,0.37,0.06,0.53c0.01,0.41-0.13,0.59-0.54,0.6c-0.41,0.01-0.82-0.02-1.23-0.01
		c-0.86,0.02-1.72,0.08-2.58,0.09c-0.57,0.01-1.15-0.07-1.72-0.08c-0.75-0.02-1.5-0.01-2.25-0.01c-0.14,0-0.27,0-0.41-0.01
		c-0.34-0.02-0.44-0.13-0.41-0.46c0.01-0.13,0.07-0.26,0.11-0.39c0.04-0.13,0.09-0.26,0.13-0.39c0.01-0.02-0.01-0.05-0.03-0.13
		c-0.3-0.01-0.6-0.04-0.91-0.02c-0.82,0.03-1.64,0.08-2.46,0.13c-0.15,0.01-0.3,0.04-0.44,0.07c-0.15,0.04-0.29,0.11-0.41-0.04
		c-0.13-0.17-0.01-0.31,0.08-0.44c0.21-0.3,0.43-0.6,0.65-0.9c0.41-0.56,0.84-1.11,1.25-1.67c0.25-0.35,0.52-0.67,0.88-0.9
		c0.13-0.08,0.3-0.13,0.45-0.14c0.83-0.06,1.66-0.11,2.5-0.16c0.58-1.16,1.15-2.3,2.07-3.27c-0.87-0.52-1.74-0.91-2.4-1.7
		c-0.06,0.17-0.11,0.27-0.13,0.38c-0.21,1-0.72,1.82-1.44,2.53c-0.49,0.48-1.12,0.62-1.76,0.68c-0.72,0.07-1.42-0.08-2.06-0.43
		c-0.15-0.08-0.32-0.16-0.34-0.37c0.03-0.03,0.06-0.08,0.09-0.08c0.18-0.01,0.35,0,0.47-0.17c0.16-0.23,0.32-0.46,0.28-0.75
		c-0.04-0.27-0.12-0.53-0.2-0.79c-0.11-0.38-0.25-0.75-0.35-1.13c-0.15-0.57-0.06-1.15,0.06-1.7c0.19-0.86,1.09-1.64,2.15-1.76
		c0.22-0.02,0.44-0.04,0.65-0.07c0.03,0,0.05-0.02,0.11-0.06c-0.01-0.13-0.02-0.28-0.05-0.42c-0.31-1.35-0.14-2.66,0.25-3.96
		c0.19-0.63,0.51-1.2,0.94-1.71c0.37-0.45,0.73-0.92,1.21-1.27c1.14-0.83,2.36-1.38,3.82-1.09c0.13,0.03,0.31-0.01,0.42-0.08
		c0.76-0.46,1.59-0.51,2.45-0.49c0.87,0.01,1.63,0.33,2.39,0.67c0.81,0.36,1.35,1.01,1.73,1.8c0.06,0.12,0.11,0.27,0.09,0.39
		c-0.04,0.24,0.08,0.35,0.24,0.51c0.27,0.28,0.51,0.61,0.69,0.95c0.55,1.04,0.86,2.17,0.98,3.32c0.1,0.94,0.05,1.88-0.25,2.8
		c-0.04,0.12-0.07,0.25-0.11,0.44c0.38-0.17,0.65-0.36,0.9-0.59c0.16-0.14,0.34-0.27,0.53-0.38c0.18-0.1,0.37-0.1,0.59-0.03
		c0.61,0.19,1.23,0.34,1.9,0.52c0.06-0.15,0.15-0.33,0.22-0.52c0.39-0.96,0.78-1.93,1.16-2.89c0.08-0.21,0.2-0.37,0.42-0.47
		c0.3-0.15,0.59-0.35,0.88-0.53c-0.27-0.45-0.57-0.88-0.78-1.34c-0.21-0.47-0.35-0.97-0.52-1.48c-0.09,0.03-0.17,0.06-0.25,0.1
		c-0.48,0.21-0.82,0.13-1.09-0.32c-0.14-0.23-0.24-0.49-0.3-0.76c-0.15-0.73-0.14-1.47,0.06-2.19c0.16-0.55,0.31-0.62,0.89-0.61
		c0.05,0,0.1-0.02,0.2-0.03c-0.03-0.21-0.05-0.41-0.08-0.61c-0.18-1.14-0.24-2.29-0.05-3.43c0.2-1.21,0.56-2.37,1.28-3.38
		c0.1-0.14,0.19-0.3,0.28-0.43c-0.22-0.48-0.22-0.54,0.18-0.89c0.7-0.63,1.49-1.1,2.38-1.42c1.02-0.36,2.04-0.37,3.11-0.27
		c1.01,0.1,1.82,0.55,2.6,1.11c0.39,0.28,0.78,0.56,1.05,0.97c0.05,0.08,0.17,0.12,0.27,0.15c1.08,0.31,1.81,1.03,2.33,1.99
		c0.05,0.08,0.08,0.17,0.12,0.26C37.25,7.82,37.25,7.83,36.8,8.16z M18.63,23.5c0.15-0.57,0.2-1.1,0.14-1.62
		c-0.06-0.61-0.18-1.22-0.33-1.81c-0.19-0.8-0.47-1.57-0.95-2.26c-0.1-0.14-0.19-0.3-0.43-0.32c-0.26,0.75-0.69,1.41-1.25,2.02
		c0.12,0.06,0.19,0.09,0.26,0.13c0.13,0.07,0.27,0.14,0.39,0.23c0.03,0.03,0.04,0.12,0.02,0.18c-0.01,0.02-0.09,0.04-0.14,0.04
		c-0.04,0-0.07-0.04-0.11-0.06c-0.3-0.17-0.58-0.08-0.79,0.13c-0.3,0.3-0.54,0.65-0.6,1.09c-0.02,0.15-0.09,0.29-0.13,0.44
		c-0.27-0.06-0.28-0.23-0.3-0.39c-0.02-0.16,0-0.32,0-0.49c-0.29,0.13-0.3,0.13-0.33,0.37c-0.03,0.27-0.06,0.54-0.07,0.82
		c-0.05,1.16-0.1,2.32-0.14,3.48c-0.01,0.43-0.04,0.87,0.16,1.29c0.03,0.06,0,0.2-0.03,0.21c-0.08,0.03-0.2,0.03-0.25-0.02
		c-0.1-0.09-0.17-0.21-0.24-0.32c-0.09-0.14-0.16-0.28-0.24-0.42c-0.48,0.29-0.63,0.28-1.03-0.09c-0.16-0.15-0.29-0.33-0.39-0.52
		c-0.41-0.78-0.41-1.63-0.4-2.48c0.01-0.4,0.2-0.71,0.65-0.77c0.05-0.01,0.09-0.05,0.12-0.06c0.1-0.23-0.05-0.49,0.22-0.71
		c0.08,0.12,0.16,0.21,0.21,0.32c0.03,0.07,0.01,0.16,0.02,0.24c0.06,0.99,0.2,1.96,0.48,2.91c0.04,0.15,0.06,0.32,0.29,0.41
		c0-0.19,0-0.34,0-0.49c0-0.33-0.01-0.66,0.01-0.98c0.06-1,0.16-1.99,0.2-2.99c0.01-0.27,0.1-0.41,0.33-0.54
		c1-0.55,1.55-1.39,1.58-2.55c0-0.13,0.03-0.26,0.04-0.41c0.28,0.04,0.34,0.2,0.34,0.41c0,0.21,0,0.41,0,0.67
		c0.08-0.07,0.12-0.1,0.15-0.14c0.32-0.49,0.53-1.02,0.66-1.58c0.02-0.11-0.01-0.24-0.06-0.35c-0.24-0.62-0.66-1.09-1.24-1.42
		c-0.81-0.47-1.66-0.77-2.6-0.78c-0.78-0.01-1.56,0.01-2.22,0.55c-0.07,0.06-0.24,0.06-0.34,0.03c-0.62-0.21-1.24-0.18-1.86,0.01
		c-1.66,0.49-2.81,1.6-3.6,3.1c-0.55,1.04-0.72,2.18-0.72,3.34c0,0.58,0.1,1.17,0.36,1.71c0.08,0.01,0.15,0.01,0.21,0.03
		c0.27,0.11,0.6,0.17,0.8,0.36c0.38,0.36,0.65,0.82,0.75,1.34c0.08,0.41,0.09,0.84,0.15,1.26c0.01,0.11,0.04,0.25,0.11,0.33
		c0.74,0.74,1.58,1.33,2.59,1.66c0.96-0.64,1.69-0.84,2.74-0.76c0.65,0.05,1.25,0.3,1.86,0.47c0.43,0.12,0.84,0.08,1.25-0.04
		c0.83-0.25,1.51-0.75,2.15-1.32c0.09-0.08,0.17-0.19,0.26-0.31c-0.91-0.32-1.2-0.65-1.08-1.23c0.23-0.02,0.28,0.14,0.34,0.32
		c0.11,0.34,0.35,0.48,0.68,0.42c0.2-0.04,0.36-0.13,0.46-0.31c0.05-0.09,0.11-0.23,0.19-0.25c0.36-0.1,0.35-0.4,0.42-0.67
		c-0.49-0.03-0.66-0.12-0.76-0.43c-0.08-0.24-0.05-0.43,0.11-0.56C18.04,23.1,18.33,23.23,18.63,23.5z M25.69,9.34
		c0.3-0.05,0.5-0.08,0.7-0.1c0.33-0.04,0.62,0.08,0.87,0.29c0.04,0.03,0.06,0.14,0.04,0.17c-0.03,0.04-0.12,0.06-0.17,0.05
		c-0.17-0.04-0.33-0.15-0.5-0.15c-0.6,0-1.06,0.27-1.31,0.82c-0.14,0.32-0.24,0.67-0.31,1.02c-0.15,0.74-0.28,1.48-0.4,2.22
		c-0.2,1.25-0.27,2.5,0,3.75c0.22,0.99,0.66,1.84,1.41,2.54c0.3,0.28,0.63,0.47,1.02,0.59c1.52,0.47,3.02,0.4,4.51-0.12
		c0.32-0.11,0.64-0.27,0.9-0.48c1.03-0.87,1.65-1.95,1.66-3.34c0-0.07,0-0.14,0.03-0.2c0.06-0.15,0.22-0.18,0.32-0.05
		c0.05,0.06,0.04,0.16,0.09,0.22c0.06,0.08,0.12,0.18,0.21,0.22c0.25,0.11,0.51,0.06,0.69-0.12c0.59-0.61,0.82-1.37,0.8-2.21
		c0-0.04-0.02-0.08-0.03-0.12c-0.12-0.4-0.36-0.51-0.75-0.33c-0.41,0.19-0.65,0.53-0.84,0.92c-0.05,0.1-0.09,0.21-0.23,0.17
		c-0.15-0.04-0.24-0.13-0.22-0.3c0.01-0.11,0.03-0.22,0.03-0.33c0.03-0.87,0.06-1.75,0.07-2.62c0-0.2-0.06-0.41-0.15-0.59
		c-0.53-1.02-0.62-2.11-0.52-3.23c0.04-0.43,0.01-0.87,0.01-1.31c-0.07-0.01-0.13-0.03-0.2-0.04c-0.78-0.1-1.52,0.03-2.25,0.31
		C30.3,7.32,29.55,7.8,28.81,8.3c-0.28,0.19-0.56,0.4-0.84,0.59C27.79,9,27.65,8.94,27.59,8.75c-0.02-0.08-0.03-0.17-0.02-0.24
		c0.05-0.24,0.1-0.48,0.17-0.72c0.09-0.31,0.2-0.61,0.3-0.91C26.92,7.37,26.18,8.18,25.69,9.34z M13.94,35.54
		c0.11,0.01,0.18,0.02,0.25,0.02c0.83-0.06,1.66-0.12,2.49-0.18c0.42-0.03,0.84-0.08,1.26-0.1c0.8-0.04,1.61-0.07,2.41-0.09
		c0.48-0.01,0.96-0.01,1.43-0.01c0.85,0,1.69,0.03,2.54,0.01c1.64-0.05,3.28-0.15,4.91-0.19c1.71-0.03,3.42-0.01,5.12-0.02
		c0.52,0,1-0.12,1.34-0.57c0.08-0.11,0.19-0.2,0.28-0.3c0.8-0.91,1.61-1.82,2.41-2.74c0.08-0.1,0.16-0.21,0.27-0.36
		c-0.18-0.02-0.28-0.05-0.39-0.05c-0.67-0.01-1.34-0.03-2.01-0.03c-0.87,0-1.75-0.05-2.62,0.1c-0.36,0.06-0.73,0.08-1.1,0.07
		c-0.61-0.01-1.22-0.07-1.83-0.08c-1.11-0.03-2.21-0.04-3.32-0.06c-0.53-0.01-1.07-0.01-1.6,0.01c-0.72,0.03-1.44,0.09-2.17,0.14
		c-1.08,0.06-2.15,0.12-3.23,0.17c-0.26,0.01-0.4,0.13-0.49,0.35c-0.12,0.3-0.27,0.6-0.41,0.9c-0.24,0.54-0.63,0.96-1.13,1.27
		c-0.25,0.16-0.52,0.2-0.82,0.18c-0.52-0.04-0.98-0.22-1.43-0.45c-0.37-0.18-0.73-0.37-1.1-0.54c-0.07-0.03-0.17-0.05-0.22-0.02
		c-0.25,0.16-0.47,0.05-0.7-0.04c-0.14-0.06-0.29-0.09-0.52-0.16C13.71,33.73,13.83,34.62,13.94,35.54z M30.85,30.56
		c-0.5-0.4-0.94-0.7-1.41-0.94c-0.3-0.16-0.61-0.32-0.87-0.53c-0.21-0.17-0.39-0.19-0.63-0.12c-0.57,0.18-1.15,0.24-1.74,0.18
		c-0.56-0.06-1.07-0.26-1.37-0.78c-0.23-0.41-0.11-0.71,0.33-0.85c0.1-0.03,0.21-0.06,0.32-0.09c0.53-0.14,1.06-0.28,1.58-0.44
		c0.25-0.08,0.52-0.15,0.74-0.34c-0.01-0.08-0.01-0.15-0.03-0.21c-0.05-0.23-0.12-0.47,0.13-0.63c0.26-0.17,0.43,0.01,0.62,0.15
		c0.12,0.08,0.24,0.15,0.37,0.23c0.04-0.08,0.06-0.12,0.08-0.16c0.13-0.35,0.15-0.37,0.5-0.29c0.33,0.08,0.66,0.18,0.99,0.27
		c0.44,0.12,0.89,0.2,1.38,0.31c0-0.18,0-0.3,0-0.42c0.04-0.97,0.09-1.94,0.41-2.87c0.13-0.38,0.33-0.72,0.61-1.01
		c0.15-0.16,0.32-0.17,0.42-0.03c0.12,0.16,0.03,0.28-0.1,0.38c-0.3,0.23-0.47,0.54-0.55,0.89c-0.1,0.42-0.21,0.85-0.26,1.28
		c-0.07,0.68-0.07,1.36-0.11,2.05c-0.01,0.17,0.05,0.36-0.15,0.48c-0.04-0.02-0.1-0.02-0.11-0.05c-0.2-0.3-0.53-0.36-0.85-0.43
		c-0.31-0.07-0.6-0.16-0.91-0.24c-0.27-0.06-0.54-0.19-0.84-0.16c-0.11,0.38-0.23,0.74-0.32,1.11c-0.09,0.37-0.14,0.75-0.22,1.12
		c-0.08,0.38-0.09,0.45,0.27,0.63c0.74,0.37,1.41,0.84,2.09,1.3c0.59,0.39,1.26,0.45,1.93,0.43c0.48-0.02,0.81-0.31,0.93-0.78
		c0.11-0.45,0.22-0.9,0.28-1.36c0.12-0.8,0.21-1.6,0.3-2.4c0.14-1.18,0.16-2.37,0.13-3.56c-0.01-0.35-0.09-0.69-0.31-0.96
		c-0.47-0.57-1.05-1.02-1.67-1.42c-0.4,0.22-0.78,0.42-1.14,0.61c-0.01,0.06-0.02,0.07-0.01,0.08c0.09,0.2,0.18,0.4,0.27,0.6
		c0.15,0.34,0.13,0.4-0.13,0.63c-0.4,0.34-0.4,0.34-0.2,0.82c0.01,0.02,0.01,0.05,0.01,0.14c-0.28,0.22-0.59,0.46-0.9,0.7
		c-0.21,0.16-0.33,0.16-0.42,0.02c-0.1-0.14-0.05-0.24,0.16-0.38c0.24-0.17,0.49-0.34,0.73-0.52c-0.04-0.11-0.06-0.19-0.08-0.27
		c-0.15-0.39-0.15-0.39,0.17-0.64c0.14-0.11,0.26-0.23,0.38-0.33c-0.38-0.91-0.4-0.8-1.08-0.61c-0.11,0.03-0.23,0.15-0.29,0.25
		c-0.12,0.23-0.23,0.47-0.3,0.72c-0.26,0.86-0.67,1.64-1.12,2.41c-0.09,0.15-0.19,0.3-0.32,0.42c-0.29,0.28-0.64,0.23-0.88-0.09
		c-0.05-0.08-0.11-0.16-0.13-0.25c-0.13-0.49-0.29-0.97-0.38-1.47c-0.12-0.65-0.18-1.3-0.26-1.95c-0.04-0.29-0.33-0.5-0.54-0.35
		c-0.21,0.15-0.43,0.29-0.56,0.55c0.21,0.29,0.42,0.57,0.62,0.85c-0.06,0.1-0.1,0.17-0.14,0.24c-0.38,0.57-0.38,0.57,0.13,1.06
		c0.01,0.01,0.02,0.02,0.03,0.02c0.17,0.17,0.17,0.19-0.07,0.41c-0.31-0.13-0.44-0.44-0.64-0.67c-0.22-0.25-0.22-0.38-0.06-0.67
		c0.09-0.16,0.19-0.32,0.3-0.49c-0.14-0.18-0.27-0.34-0.39-0.51c-0.24-0.33-0.23-0.45,0.06-0.74c0.13-0.13,0.25-0.26,0.37-0.39
		c-0.18-0.26-0.38-0.25-0.57-0.14c-0.21,0.11-0.4,0.24-0.6,0.35c-0.24,0.13-0.41,0.32-0.5,0.57c-0.37,0.96-0.74,1.91-1.1,2.87
		c-0.05,0.13-0.06,0.28-0.09,0.46c0.39,0.12,0.73,0.23,1.14,0.35c0.06-0.26,0.11-0.47,0.15-0.67c0.12-0.63,0.23-1.26,0.35-1.9
		c0.02-0.11,0.05-0.23,0.2-0.19c0.13,0.03,0.17,0.12,0.15,0.25c-0.01,0.07-0.02,0.14-0.03,0.2c-0.1,0.63-0.21,1.27-0.31,1.9
		c-0.09,0.53-0.09,0.53,0.4,0.76c0.31,0.14,0.35,0.42,0.07,0.64c-0.16,0.13-0.33,0.26-0.51,0.34c-0.27,0.13-0.37,0.35-0.42,0.61
		c-0.09,0.46-0.18,0.91-0.27,1.37c-0.13,0.66-0.26,1.31-0.38,1.97c-0.02,0.12-0.01,0.24-0.02,0.4c0.18,0,0.33,0,0.47,0
		c1.19-0.03,2.38-0.07,3.57-0.08c0.82-0.01,1.64,0.04,2.46,0.05C30.36,30.62,30.56,30.59,30.85,30.56z M13.6,36.64
		c-0.13-1.72-0.38-3.4-0.55-5.08c0.16-0.09,0.26-0.01,0.31,0.11c0.06,0.12,0.1,0.26,0.12,0.39c0.03,0.2,0.12,0.32,0.31,0.39
		c0.11,0.04,0.23,0.1,0.33,0.16c0.19,0.1,0.3,0.03,0.38-0.16c0.11-0.27,0.24-0.52,0.34-0.79c0.27-0.74,0.53-1.49,0.79-2.21
		c-0.41-0.52-0.9-0.83-1.42-1.14c-0.42-0.25-0.91-0.28-1.35-0.47c-0.43-0.2-0.9-0.22-1.36-0.22c-0.78,0-1.51,0.2-2.07,0.74
		c-0.43,0.42-0.82,0.89-1.16,1.38c-0.65,0.94-1.12,1.97-1.52,3.03c-0.43,1.12-0.79,2.27-1.18,3.4c-0.05,0.15-0.09,0.3-0.15,0.51
		C8.16,36.73,10.84,36.77,13.6,36.64z M36.74,7.64c-0.16-0.7-0.61-1.16-1.09-1.62c-0.4-0.38-0.85-0.63-1.34-0.57
		c-0.25-0.28-0.43-0.51-0.65-0.72c-0.16-0.15-0.33-0.29-0.52-0.4c-0.48-0.29-0.94-0.61-1.45-0.83c-0.35-0.15-0.77-0.17-1.16-0.24
		c-1.52-0.29-2.9,0.1-4.18,0.9c-0.36,0.23-0.7,0.49-1.02,0.8c0.07,0.06,0.1,0.09,0.13,0.12c0.25,0.21,0.25,0.24,0.02,0.48
		c-0.13,0.14-0.27,0.28-0.37,0.43c-0.73,1.04-1.13,2.21-1.3,3.46c-0.15,1.1-0.08,2.21,0.08,3.31c0.04,0.27,0.05,0.56,0.24,0.81
		c0.15-0.71,0.31-1.39,0.42-2.07c0.18-1.12,0.61-2.15,1.16-3.14c0.29-0.52,0.68-1,1.2-1.33C27.47,6.66,28.05,6.33,28.6,6
		c0.29,0.24,0.32,0.29,0.14,0.52c-0.31,0.42-0.45,0.9-0.63,1.37C28.07,8,28.06,8.11,28.02,8.3c0.18-0.11,0.28-0.17,0.38-0.24
		c0.51-0.32,1.01-0.65,1.53-0.95c0.73-0.43,1.5-0.73,2.35-0.79c0.43-0.03,0.87,0,1.3,0.05c0.33,0.04,0.47,0.27,0.45,0.61
		c-0.02,0.48-0.05,0.96-0.07,1.43c-0.06,1.03,0.08,2.02,0.56,2.94c0.1,0.19,0.15,0.41,0.16,0.62c0.02,0.55-0.01,1.09-0.01,1.64
		c0,0.1,0.02,0.2,0.04,0.33c0.41-0.24,0.75-0.51,1.2-0.41c0.51-0.89,0.74-1.82,0.76-2.81c0.02-0.88-0.03-1.75-0.27-2.6
		C36.37,8,36.38,7.85,36.37,7.69C36.52,7.67,36.62,7.66,36.74,7.64z M1.45,29.72c0.28,0.07,0.54,0.16,0.8,0.19
		c0.78,0.08,1.54-0.02,2.16-0.55c0.58-0.49,1.05-1.08,1.27-1.83c0.39-1.31,0.53-2.6-0.35-3.8c-0.15-0.2-0.32-0.31-0.53-0.33
		c-0.56-0.05-1.12-0.11-1.67,0.03c-0.75,0.19-1.39,0.58-1.65,1.33c-0.16,0.45-0.16,0.96-0.15,1.45c0,0.51,0.19,0.98,0.4,1.45
		c0.3,0.66,0.35,1.32-0.21,1.9C1.5,29.57,1.5,29.61,1.45,29.72z M20.93,28.14c1.34-0.83,2.69-1.56,4.03-2.48
		c-0.2-0.1-0.33-0.17-0.46-0.21c-0.48-0.16-0.96-0.31-1.44-0.48c-0.71-0.27-1.37-0.65-2.15-0.78c-0.34-0.06-0.58-0.01-0.83,0.18
		c-0.47,0.35-0.95,0.7-1.4,1.06c-0.23,0.18-0.43,0.41-0.65,0.62c-0.31,0.31-0.6,0.64-0.93,0.92c-0.37,0.31-0.78,0.58-1.19,0.88
		c0.06,0.04,0.12,0.09,0.19,0.13c0.74,0.42,1.54,0.71,2.31,1.05c0.47,0.21,0.82,0.17,1.2-0.12c0.02-0.02,0.03-0.04,0.07-0.08
		c0-0.24-0.01-0.5,0-0.75c0.02-0.2,0.04-0.44,0.26-0.52c0.21-0.08,0.39,0.08,0.55,0.21C20.62,27.85,20.75,27.98,20.93,28.14z
		 M17.63,31.29c-0.7-0.27-1.11-0.88-1.74-1.13c-0.31,0.81-0.6,1.58-0.89,2.35c0.05,0.05,0.08,0.11,0.13,0.13
		c0.64,0.31,1.26,0.65,1.92,0.9c0.27,0.1,0.61,0.21,0.92,0.03c0.39-0.23,0.79-0.46,1-0.89c0.39-0.8,0.77-1.6,1.11-2.42
		c0.09-0.23,0.21-0.35,0.39-0.48c0.45-0.31,0.9-0.62,1.32-0.97c0.32-0.27,0.51-0.64,0.63-1.06c-0.12,0.02-0.22,0.06-0.31,0.12
		c-0.3,0.21-0.61,0.41-0.9,0.64c-0.17,0.13-0.29,0.11-0.42-0.03c-0.11-0.12-0.22-0.25-0.34-0.35c-0.1-0.09-0.23-0.16-0.38-0.25
		c-0.11,0.33-0.1,0.6-0.04,0.87c0.03,0.13,0.07,0.27,0.08,0.4c0.01,0.21-0.05,0.24-0.27,0.23c-0.13-0.01-0.28-0.01-0.38,0.05
		c-0.23,0.14-0.46,0.22-0.76,0.09C18.34,30.12,17.99,30.7,17.63,31.29z M1.53,35.46c1.32-0.06,2.57-0.12,3.85-0.19
		c0.38-1.05,0.76-2.09,1.15-3.14c-0.07-0.01-0.11-0.03-0.15-0.03c-0.68,0.03-1.36,0.06-2.04,0.09c-0.24,0.01-0.45,0.08-0.61,0.28
		c-0.1,0.13-0.22,0.24-0.32,0.37c-0.59,0.79-1.17,1.58-1.75,2.37C1.62,35.26,1.6,35.32,1.53,35.46z M28.16,26.1
		c-0.19,0.15-0.06,0.28-0.01,0.41c0.13,0.33,0.12,0.39-0.21,0.54c-0.32,0.14-0.66,0.27-1,0.37c-0.51,0.15-1.03,0.27-1.54,0.42
		c-0.12,0.03-0.27,0.12-0.31,0.22c-0.07,0.17,0.04,0.33,0.2,0.4c0.26,0.11,0.53,0.24,0.8,0.27c0.72,0.08,1.41-0.03,2.09-0.29
		c0.18-0.07,0.26-0.16,0.29-0.34c0.05-0.3,0.08-0.6,0.18-0.88c0.19-0.5,0.09-0.86-0.41-1.09C28.24,26.12,28.21,26.12,28.16,26.1z
		 M23.98,14.3c0.07-0.37-0.11-0.56-0.54-0.64c-0.32-0.06-0.5,0.04-0.61,0.39c-0.25,0.85-0.19,1.7,0.1,2.53
		c0.14,0.4,0.28,0.42,0.68,0.21c0.04-0.02,0.07-0.04,0.11-0.05c0.31-0.12,0.31-0.12,0.3-0.45C24,15.63,23.99,14.96,23.98,14.3z
		 M15.71,28.99c0.31,0.74,0.95,1.35,1.76,1.7c0.28-0.26,0.66-0.94,0.74-1.35c-0.66-0.3-1.32-0.6-1.99-0.91
		C16.05,28.62,15.89,28.8,15.71,28.99z M20.32,30.84c0.91,0.09,1.78-0.06,2.66-0.13c0.05,0,0.13-0.07,0.15-0.12
		c0.06-0.19,0.11-0.38,0.16-0.57c-0.31-0.05-0.59-0.05-0.81-0.16c-0.23-0.11-0.42-0.33-0.64-0.52c-0.36,0.25-0.71,0.51-1.07,0.75
		C20.52,30.28,20.4,30.52,20.32,30.84z M22.85,27.44c0.03,0.7-0.39,1.16-0.7,1.67c0.07,0.09,0.12,0.17,0.19,0.23
		c0.17,0.16,0.38,0.32,0.61,0.24c0.27-0.09,0.5-0.25,0.55-0.59c0.07-0.43,0.2-0.85,0.28-1.28c0.05-0.26,0.14-0.51,0.06-0.85
		C23.49,27.07,23.18,27.25,22.85,27.44z M12.25,22.75c-0.32,0.06-0.4,0.25-0.41,0.49c0,0.29,0.03,0.57,0.03,0.86
		c0,0.47,0.12,0.92,0.3,1.35c0.08,0.18,0.22,0.34,0.37,0.48c0.15,0.15,0.32,0.1,0.37-0.1c0.03-0.11,0.03-0.25-0.01-0.35
		c-0.31-0.78-0.45-1.6-0.56-2.43C12.33,22.95,12.28,22.86,12.25,22.75z M28.92,23.34c0.35-0.42,0.83-1.66,0.81-2.09
		c-0.23,0.01-0.46,0.03-0.71,0.04c0.08,0.24,0.23,0.45,0.19,0.61c-0.05,0.18-0.27,0.31-0.41,0.48c-0.06,0.07-0.12,0.17-0.1,0.24
		C28.75,22.86,28.84,23.08,28.92,23.34z M28.01,22.51c-0.13-0.19-0.25-0.35-0.37-0.52c-0.14-0.19-0.2-0.38-0.03-0.59
		c0.05-0.07,0.07-0.16,0.12-0.28c-0.18-0.03-0.32-0.05-0.51-0.08c0.12,0.75,0.13,1.44,0.37,2.2C27.76,22.96,27.88,22.74,28.01,22.51
		z M15.77,28.23c-0.33-0.26-0.63-0.2-1.05,0.04c0.13,0.08,0.23,0.12,0.31,0.19C15.39,28.77,15.58,28.71,15.77,28.23z M18.03,23.96
		c0.09-0.09,0.17-0.19,0.29-0.31C17.96,23.61,17.96,23.61,18.03,23.96z"/>
	<path class="st1" d="M17.72,23.35c0.32-0.25,0.61-0.12,0.91,0.15c0.15-0.57,0.2-1.1,0.14-1.62c-0.06-0.61-0.18-1.22-0.33-1.81
		c-0.19-0.8-0.47-1.57-0.95-2.26c-0.1-0.14-0.19-0.3-0.43-0.32c-0.26,0.75-0.69,1.41-1.25,2.02c0.12,0.06,0.19,0.09,0.26,0.13
		c0.13,0.07,0.27,0.14,0.39,0.23c0.03,0.03,0.04,0.12,0.02,0.18c-0.01,0.02-0.09,0.04-0.14,0.04c-0.04,0-0.07-0.04-0.11-0.06
		c-0.3-0.17-0.58-0.08-0.79,0.13c-0.3,0.3-0.54,0.65-0.6,1.09c-0.02,0.15-0.09,0.29-0.13,0.44c-0.27-0.06-0.28-0.23-0.3-0.39
		c-0.02-0.16,0-0.32,0-0.49c-0.29,0.13-0.3,0.13-0.33,0.37c-0.03,0.27-0.06,0.54-0.07,0.82c-0.05,1.16-0.1,2.32-0.14,3.48
		c-0.01,0.43-0.04,0.87,0.16,1.29c0.03,0.06,0,0.2-0.03,0.21c-0.08,0.03-0.2,0.03-0.25-0.02c-0.03-0.02-0.06-0.05-0.08-0.08
		c0.01,0.26-0.04,0.52-0.31,0.75c0.12,0.04,0.23,0.07,0.35,0.1c0.43,0.12,0.84,0.08,1.25-0.04c0.83-0.25,1.51-0.75,2.15-1.32
		c0.09-0.08,0.17-0.19,0.26-0.31c-0.91-0.32-1.2-0.65-1.08-1.23c0.23-0.02,0.28,0.14,0.34,0.32c0.11,0.34,0.35,0.48,0.68,0.42
		c0.2-0.04,0.36-0.13,0.46-0.31c0.05-0.09,0.11-0.23,0.19-0.25c0.36-0.1,0.35-0.4,0.42-0.67c-0.49-0.03-0.66-0.12-0.76-0.43
		C17.52,23.68,17.56,23.48,17.72,23.35z M16.67,23.04c-0.06,0.1-0.2,0.18-0.32,0.2c-0.16,0.03-0.3-0.07-0.35-0.23
		c-0.14-0.44-0.25-0.89-0.12-1.36c0.02-0.08,0.05-0.16,0.09-0.23c0.16-0.29,0.42-0.3,0.58,0c0.18,0.34,0.23,0.72,0.24,1.18
		C16.76,22.71,16.75,22.9,16.67,23.04z"/>
	<path class="st2" d="M13.68,26.88c-0.06-0.07-0.11-0.16-0.16-0.24c-0.09-0.14-0.16-0.28-0.24-0.42c-0.48,0.29-0.63,0.28-1.03-0.09
		c-0.16-0.15-0.29-0.33-0.39-0.52c-0.41-0.78-0.41-1.63-0.4-2.48c0.01-0.4,0.2-0.71,0.65-0.77c0.05-0.01,0.09-0.05,0.12-0.06
		c0.1-0.23-0.05-0.49,0.22-0.71c0.08,0.12,0.16,0.21,0.21,0.32c0.03,0.07,0.01,0.16,0.02,0.24c0.06,0.99,0.2,1.96,0.48,2.91
		c0.04,0.15,0.06,0.32,0.29,0.41c0-0.19,0-0.34,0-0.49c0-0.33-0.01-0.66,0.01-0.98c0.06-1,0.16-1.99,0.2-2.99
		c0.01-0.27,0.1-0.41,0.33-0.53c1-0.55,1.55-1.39,1.58-2.55c0-0.13,0.03-0.26,0.04-0.41c0.28,0.04,0.34,0.2,0.34,0.41
		c0,0.21,0,0.41,0,0.67c0.08-0.07,0.12-0.1,0.15-0.14c0.32-0.49,0.53-1.02,0.66-1.58c0.02-0.11-0.01-0.24-0.06-0.35
		c-0.24-0.62-0.66-1.09-1.24-1.42c-0.81-0.47-1.66-0.77-2.6-0.78c-0.78-0.01-1.56,0.01-2.22,0.55c-0.07,0.06-0.24,0.06-0.34,0.03
		c-0.62-0.21-1.24-0.18-1.86,0.01c-1.66,0.49-2.81,1.6-3.6,3.1c-0.55,1.04-0.72,2.18-0.72,3.34c0,0.58,0.1,1.17,0.36,1.71
		c0.08,0.01,0.15,0.01,0.21,0.03c0.27,0.11,0.6,0.17,0.8,0.36c0.38,0.36,0.65,0.82,0.75,1.34c0.08,0.41,0.09,0.84,0.15,1.26
		c0.01,0.11,0.04,0.25,0.11,0.33c0.74,0.74,1.58,1.33,2.59,1.66c0.96-0.64,1.69-0.84,2.74-0.76c0.53,0.04,1.02,0.21,1.52,0.37
		C13.63,27.4,13.69,27.14,13.68,26.88z"/>
	<path class="st1" d="M25.69,9.34c0.49-1.17,1.23-1.97,2.34-2.47c-0.1,0.3-0.21,0.61-0.3,0.91c-0.07,0.23-0.12,0.48-0.17,0.72
		c-0.01,0.08,0,0.17,0.02,0.24c0.06,0.19,0.2,0.25,0.38,0.14c0.29-0.19,0.56-0.39,0.84-0.59c0.74-0.5,1.49-0.97,2.33-1.29
		c0.73-0.28,1.47-0.41,2.25-0.31c0.07,0.01,0.13,0.03,0.2,0.04c0,0.44,0.03,0.88-0.01,1.31c-0.1,1.13-0.02,2.21,0.52,3.23
		c0.09,0.18,0.15,0.39,0.15,0.59c-0.01,0.87-0.04,1.75-0.07,2.62c0,0.11-0.02,0.22-0.03,0.33c-0.02,0.17,0.07,0.26,0.22,0.3
		c0.14,0.04,0.18-0.07,0.23-0.17c0.19-0.39,0.43-0.73,0.84-0.92c0.39-0.18,0.63-0.08,0.75,0.33c0.01,0.04,0.03,0.08,0.03,0.12
		c0.02,0.84-0.2,1.6-0.8,2.21c-0.18,0.18-0.44,0.23-0.69,0.12c-0.09-0.04-0.15-0.14-0.21-0.22c-0.04-0.06-0.04-0.16-0.09-0.22
		c-0.1-0.13-0.26-0.11-0.32,0.05c-0.02,0.06-0.03,0.13-0.03,0.2c-0.01,1.38-0.62,2.47-1.66,3.34c-0.26,0.21-0.58,0.37-0.9,0.48
		c-1.49,0.52-2.99,0.59-4.51,0.12c-0.39-0.12-0.72-0.31-1.02-0.59c-0.75-0.7-1.19-1.55-1.41-2.54c-0.27-1.25-0.21-2.5,0-3.75
		c0.12-0.74,0.25-1.48,0.4-2.22c0.07-0.35,0.17-0.69,0.31-1.02c0.25-0.55,0.71-0.82,1.31-0.82c0.17,0,0.33,0.11,0.5,0.15
		c0.05,0.01,0.15-0.01,0.17-0.05c0.02-0.04,0-0.14-0.04-0.17c-0.25-0.21-0.53-0.33-0.87-0.29C26.19,9.27,25.99,9.3,25.69,9.34z
		 M26.42,17.24c0.01,0,0.01,0,0.02,0c0,0.15-0.01,0.3,0,0.45c0.07,0.93,0.74,1.67,1.62,1.71c0.69,0.03,1.31-0.22,1.78-0.75
		c0.04-0.05,0.08-0.11,0.11-0.17c0.24-0.5,0.35-1.03,0.28-1.59c-0.04-0.26-0.12-0.37-0.38-0.41c-0.26-0.04-0.52-0.05-0.77-0.06
		c-0.61-0.03-1.22-0.06-1.84-0.09c-0.16-0.01-0.33-0.01-0.49,0c-0.17,0-0.29,0.08-0.3,0.27C26.44,16.8,26.43,17.02,26.42,17.24z
		 M27.02,12.9c-0.04-0.36-0.01-0.67-0.29-0.89c-0.22-0.18-0.43-0.14-0.57,0.11c-0.17,0.31-0.22,0.64-0.17,0.99
		c0.02,0.16,0.07,0.32,0.14,0.47c0.08,0.15,0.22,0.24,0.4,0.23c0.2,0,0.3-0.13,0.35-0.3C26.94,13.29,26.98,13.06,27.02,12.9z
		 M29.9,12.81c0.01,0,0.01,0,0.02,0c0,0.12-0.01,0.25,0,0.37c0.02,0.22,0.14,0.38,0.32,0.5c0.15,0.09,0.29,0.08,0.39-0.08
		c0.28-0.42,0.37-0.88,0.21-1.37c-0.03-0.09-0.08-0.17-0.15-0.24c-0.27-0.27-0.59-0.2-0.69,0.17C29.94,12.37,29.93,12.59,29.9,12.81
		z M29.87,10.02c0.08-0.07,0.14-0.13,0.2-0.18c0.49-0.44,1.09-0.47,1.59-0.04c0.2,0.17,0.31,0.44,0.48,0.64
		c0.06,0.07,0.19,0.15,0.26,0.13c0.15-0.04,0.14-0.19,0.08-0.3c-0.32-0.55-0.74-0.99-1.38-1.14c-0.48-0.11-0.93-0.01-1.27,0.38
		C29.7,9.66,29.61,9.84,29.87,10.02z M28.01,13.38c-0.05,0.18-0.11,0.34-0.14,0.5c-0.05,0.32-0.05,0.66-0.11,0.98
		c-0.13,0.66-0.02,0.78,0.73,0.83c0.01,0,0.03,0,0.04,0c0.13,0.01,0.28,0.01,0.28-0.15c0-0.09-0.12-0.2-0.22-0.25
		c-0.13-0.06-0.28-0.05-0.44-0.07c0-0.13-0.01-0.22,0-0.31c0.05-0.39,0.1-0.79,0.17-1.18C28.36,13.5,28.3,13.39,28.01,13.38z"/>
	<path class="st3" d="M13.94,35.54c-0.12-0.92-0.23-1.81-0.36-2.78c0.23,0.07,0.38,0.1,0.52,0.16c0.23,0.09,0.45,0.2,0.7,0.04
		c0.05-0.03,0.16-0.01,0.22,0.02c0.37,0.17,0.73,0.36,1.1,0.54c0.45,0.23,0.92,0.41,1.43,0.45c0.3,0.02,0.57-0.02,0.82-0.18
		c0.5-0.31,0.89-0.72,1.13-1.27c0.13-0.3,0.28-0.59,0.41-0.9c0.09-0.23,0.23-0.34,0.49-0.35c1.08-0.05,2.15-0.11,3.23-0.17
		c0.72-0.04,1.44-0.11,2.17-0.14c0.53-0.02,1.07-0.02,1.6-0.01c1.11,0.01,2.21,0.03,3.32,0.06c0.61,0.02,1.22,0.07,1.83,0.08
		c0.37,0.01,0.74-0.01,1.1-0.07c0.87-0.15,1.74-0.1,2.62-0.1c0.67,0,1.34,0.02,2.01,0.03c0.1,0,0.21,0.03,0.39,0.05
		c-0.12,0.15-0.19,0.26-0.27,0.36c-0.8,0.91-1.6,1.83-2.41,2.74c-0.09,0.1-0.19,0.19-0.28,0.3c-0.34,0.45-0.82,0.56-1.34,0.57
		c-1.71,0.01-3.42-0.02-5.12,0.02c-1.64,0.03-3.28,0.14-4.91,0.19c-0.85,0.03-1.69-0.01-2.54-0.01c-0.48,0-0.96,0-1.43,0.01
		c-0.8,0.02-1.61,0.05-2.41,0.09c-0.42,0.02-0.84,0.07-1.26,0.1c-0.83,0.06-1.66,0.12-2.49,0.18
		C14.13,35.56,14.06,35.55,13.94,35.54z"/>
	<path class="st4" d="M30.85,30.56c-0.29,0.02-0.48,0.06-0.68,0.05c-0.82-0.01-1.64-0.06-2.46-0.05c-1.19,0.01-2.38,0.05-3.57,0.08
		c-0.15,0-0.29,0-0.47,0c0.01-0.16,0-0.28,0.02-0.4c0.12-0.66,0.25-1.31,0.38-1.97c0.09-0.46,0.18-0.91,0.27-1.37
		c0.05-0.27,0.15-0.49,0.42-0.61c0.18-0.09,0.35-0.22,0.51-0.34c0.27-0.22,0.24-0.49-0.07-0.64c-0.48-0.22-0.48-0.22-0.4-0.76
		c0.1-0.63,0.21-1.27,0.31-1.9c0.01-0.07,0.02-0.14,0.03-0.2c0.02-0.12-0.02-0.22-0.15-0.25c-0.15-0.03-0.18,0.08-0.2,0.19
		c-0.12,0.63-0.23,1.26-0.35,1.9c-0.04,0.21-0.09,0.42-0.15,0.67c-0.41-0.13-0.75-0.23-1.14-0.35c0.03-0.18,0.04-0.33,0.09-0.46
		c0.36-0.96,0.74-1.91,1.1-2.87c0.1-0.25,0.26-0.44,0.5-0.57c0.2-0.11,0.4-0.24,0.6-0.35c0.2-0.1,0.39-0.12,0.57,0.14
		c-0.12,0.13-0.24,0.26-0.37,0.39c-0.29,0.29-0.3,0.41-0.06,0.74c0.12,0.17,0.25,0.33,0.39,0.51c-0.1,0.17-0.2,0.33-0.3,0.49
		c-0.16,0.28-0.16,0.42,0.06,0.67c0.2,0.23,0.34,0.54,0.64,0.67c0.24-0.22,0.24-0.23,0.07-0.41c-0.01-0.01-0.02-0.02-0.03-0.02
		c-0.51-0.49-0.51-0.49-0.13-1.06c0.05-0.07,0.08-0.14,0.14-0.24c-0.2-0.28-0.41-0.56-0.62-0.85c0.13-0.26,0.35-0.4,0.56-0.55
		c0.2-0.15,0.5,0.06,0.54,0.35c0.08,0.65,0.14,1.31,0.26,1.95c0.09,0.5,0.24,0.98,0.38,1.47c0.02,0.09,0.08,0.18,0.13,0.25
		c0.23,0.33,0.59,0.37,0.88,0.09c0.13-0.12,0.23-0.27,0.32-0.42c0.45-0.77,0.86-1.55,1.12-2.41c0.07-0.25,0.18-0.49,0.3-0.72
		c0.06-0.11,0.17-0.22,0.29-0.25c0.67-0.19,0.7-0.3,1.08,0.61c-0.12,0.1-0.25,0.22-0.38,0.33c-0.32,0.25-0.32,0.25-0.17,0.64
		c0.03,0.07,0.05,0.15,0.08,0.27c-0.25,0.17-0.49,0.35-0.73,0.52c-0.21,0.15-0.26,0.25-0.16,0.38c0.09,0.14,0.21,0.14,0.42-0.02
		c0.31-0.23,0.62-0.48,0.9-0.7c-0.01-0.09,0-0.12-0.01-0.14c-0.2-0.48-0.2-0.48,0.2-0.82c0.27-0.23,0.28-0.29,0.13-0.63
		c-0.09-0.2-0.18-0.4-0.27-0.6c0-0.01,0-0.03,0.01-0.08c0.36-0.19,0.74-0.4,1.14-0.61c0.61,0.4,1.2,0.85,1.67,1.42
		c0.22,0.27,0.3,0.61,0.31,0.96c0.03,1.19,0.01,2.38-0.13,3.56c-0.09,0.8-0.19,1.6-0.3,2.4c-0.07,0.46-0.17,0.91-0.28,1.36
		c-0.12,0.47-0.45,0.77-0.93,0.78c-0.67,0.02-1.34-0.04-1.93-0.43c-0.68-0.45-1.35-0.93-2.09-1.3c-0.36-0.18-0.35-0.24-0.27-0.63
		c0.08-0.37,0.13-0.75,0.22-1.12c0.09-0.37,0.21-0.73,0.32-1.11c0.31-0.04,0.57,0.09,0.84,0.16c0.3,0.07,0.6,0.17,0.91,0.24
		c0.32,0.07,0.65,0.13,0.85,0.43c0.02,0.03,0.07,0.03,0.11,0.05c0.19-0.12,0.14-0.31,0.15-0.48c0.04-0.68,0.04-1.37,0.11-2.05
		c0.04-0.43,0.16-0.86,0.26-1.28c0.08-0.35,0.25-0.66,0.55-0.89c0.13-0.1,0.22-0.22,0.1-0.38c-0.1-0.13-0.27-0.13-0.42,0.03
		c-0.27,0.29-0.48,0.63-0.61,1.01c-0.32,0.93-0.37,1.9-0.41,2.87c0,0.12,0,0.24,0,0.42c-0.49-0.11-0.94-0.18-1.38-0.31
		c-0.33-0.09-0.66-0.19-0.99-0.27c-0.34-0.08-0.37-0.06-0.5,0.29c-0.01,0.04-0.03,0.07-0.08,0.16c-0.13-0.08-0.25-0.15-0.37-0.23
		c-0.19-0.14-0.36-0.32-0.62-0.15c-0.25,0.17-0.18,0.4-0.13,0.63c0.01,0.07,0.02,0.13,0.03,0.21c-0.21,0.2-0.48,0.26-0.74,0.34
		c-0.52,0.16-1.05,0.29-1.58,0.44c-0.11,0.03-0.21,0.05-0.32,0.09c-0.43,0.14-0.56,0.45-0.33,0.85c0.3,0.52,0.81,0.73,1.37,0.78
		c0.59,0.06,1.17,0,1.74-0.18c0.24-0.08,0.42-0.06,0.63,0.12c0.26,0.22,0.57,0.38,0.87,0.53C29.91,29.87,30.35,30.16,30.85,30.56z"
		/>
	<path class="st5" d="M13.6,36.64c-2.77,0.13-5.45,0.09-8.18,0.03c0.06-0.2,0.1-0.35,0.15-0.51c0.39-1.14,0.75-2.28,1.18-3.4
		c0.41-1.06,0.87-2.1,1.52-3.03c0.34-0.49,0.73-0.96,1.16-1.38c0.56-0.55,1.29-0.74,2.07-0.74c0.47,0,0.93,0.03,1.36,0.22
		c0.44,0.2,0.92,0.22,1.35,0.47c0.51,0.3,1.01,0.62,1.42,1.14c-0.26,0.73-0.52,1.47-0.79,2.21c-0.1,0.27-0.23,0.53-0.34,0.79
		c-0.08,0.19-0.19,0.26-0.38,0.16c-0.11-0.06-0.22-0.11-0.33-0.16c-0.19-0.07-0.28-0.2-0.31-0.39c-0.02-0.13-0.06-0.27-0.12-0.39
		c-0.05-0.12-0.15-0.2-0.31-0.11C13.22,33.25,13.48,34.93,13.6,36.64z"/>
	<path class="st2" d="M36.74,7.64c-0.12,0.02-0.22,0.03-0.37,0.05c0.01,0.16,0,0.31,0.04,0.44c0.25,0.85,0.29,1.72,0.27,2.6
		c-0.02,0.99-0.25,1.91-0.76,2.81c-0.45-0.11-0.8,0.17-1.2,0.41c-0.02-0.13-0.04-0.23-0.04-0.33c0-0.55,0.02-1.09,0.01-1.64
		c-0.01-0.21-0.06-0.44-0.16-0.62c-0.48-0.93-0.62-1.92-0.56-2.94c0.03-0.48,0.05-0.96,0.07-1.43c0.02-0.34-0.12-0.57-0.45-0.61
		c-0.43-0.05-0.87-0.08-1.3-0.05c-0.84,0.06-1.62,0.37-2.35,0.79c-0.52,0.3-1.02,0.64-1.53,0.95c-0.1,0.06-0.2,0.13-0.38,0.24
		c0.04-0.19,0.05-0.31,0.1-0.41c0.18-0.47,0.33-0.96,0.63-1.37C28.92,6.29,28.89,6.24,28.6,6c-0.56,0.34-1.14,0.67-1.69,1.03
		C26.4,7.36,26,7.83,25.72,8.35c-0.54,0.98-0.97,2.02-1.16,3.14c-0.11,0.69-0.27,1.36-0.42,2.07c-0.2-0.25-0.2-0.53-0.24-0.81
		c-0.17-1.1-0.23-2.2-0.08-3.31c0.17-1.25,0.57-2.42,1.3-3.46c0.11-0.16,0.24-0.3,0.37-0.43c0.23-0.24,0.23-0.26-0.02-0.48
		c-0.03-0.03-0.06-0.05-0.13-0.12c0.32-0.31,0.66-0.57,1.02-0.8c1.28-0.8,2.66-1.19,4.18-0.9c0.39,0.07,0.8,0.09,1.16,0.24
		c0.51,0.22,0.98,0.54,1.45,0.83c0.19,0.11,0.36,0.25,0.52,0.4c0.21,0.21,0.4,0.44,0.65,0.72c0.49-0.06,0.94,0.19,1.34,0.57
		C36.13,6.48,36.58,6.94,36.74,7.64z"/>
	<path class="st2" d="M1.45,29.72c0.05-0.12,0.05-0.15,0.07-0.17c0.56-0.58,0.51-1.24,0.21-1.9c-0.21-0.47-0.4-0.94-0.4-1.45
		c0-0.49,0-1,0.15-1.45c0.26-0.74,0.9-1.14,1.65-1.33c0.55-0.14,1.11-0.08,1.67-0.03c0.21,0.02,0.39,0.13,0.53,0.33
		c0.88,1.2,0.73,2.49,0.35,3.8c-0.22,0.74-0.69,1.34-1.27,1.83c-0.62,0.53-1.38,0.63-2.16,0.55C1.99,29.88,1.73,29.79,1.45,29.72z"
		/>
	<path class="st6" d="M20.93,28.14c-0.18-0.16-0.31-0.28-0.44-0.39c-0.16-0.13-0.33-0.29-0.55-0.21c-0.22,0.08-0.25,0.32-0.26,0.52
		c-0.02,0.26,0,0.52,0,0.75c-0.04,0.04-0.05,0.07-0.07,0.08c-0.37,0.29-0.73,0.33-1.2,0.12c-0.77-0.35-1.57-0.63-2.31-1.05
		c-0.07-0.04-0.13-0.09-0.19-0.13c0.41-0.3,0.82-0.57,1.19-0.88c0.33-0.28,0.62-0.61,0.93-0.92c0.21-0.21,0.41-0.43,0.65-0.62
		c0.46-0.37,0.93-0.71,1.4-1.06c0.25-0.19,0.5-0.23,0.83-0.18c0.77,0.13,1.43,0.51,2.15,0.78c0.47,0.18,0.96,0.32,1.44,0.48
		c0.13,0.05,0.26,0.12,0.46,0.21C23.62,26.58,22.27,27.31,20.93,28.14z"/>
	<path class="st1" d="M17.63,31.29c0.36-0.59,0.71-1.17,1.07-1.76c0.3,0.13,0.53,0.05,0.76-0.09c0.1-0.06,0.25-0.06,0.38-0.05
		c0.22,0.02,0.28-0.01,0.27-0.23c-0.01-0.13-0.05-0.27-0.08-0.4c-0.07-0.27-0.07-0.53,0.04-0.87c0.15,0.1,0.27,0.16,0.38,0.25
		c0.12,0.11,0.23,0.23,0.34,0.35c0.13,0.14,0.25,0.16,0.42,0.03c0.29-0.23,0.6-0.43,0.9-0.64c0.09-0.06,0.18-0.1,0.31-0.12
		c-0.12,0.41-0.3,0.79-0.63,1.06c-0.42,0.35-0.87,0.66-1.32,0.97c-0.18,0.13-0.3,0.25-0.39,0.48c-0.33,0.82-0.72,1.62-1.11,2.42
		c-0.21,0.42-0.61,0.66-1,0.89c-0.3,0.18-0.65,0.07-0.92-0.03c-0.66-0.25-1.29-0.59-1.92-0.9c-0.05-0.02-0.08-0.08-0.13-0.13
		c0.29-0.77,0.58-1.54,0.89-2.35C16.52,30.41,16.92,31.02,17.63,31.29z"/>
	<path class="st3" d="M1.53,35.46c0.08-0.14,0.09-0.2,0.13-0.24c0.58-0.79,1.16-1.58,1.75-2.37c0.1-0.13,0.22-0.25,0.32-0.37
		c0.16-0.2,0.37-0.27,0.61-0.28c0.68-0.03,1.36-0.06,2.04-0.09c0.04,0,0.08,0.02,0.15,0.03c-0.38,1.05-0.76,2.09-1.15,3.14
		C4.1,35.34,2.85,35.4,1.53,35.46z"/>
	<path class="st1" d="M28.16,26.1c0.06,0.02,0.08,0.02,0.11,0.03c0.5,0.23,0.6,0.58,0.41,1.09c-0.11,0.28-0.13,0.59-0.18,0.88
		c-0.03,0.18-0.11,0.27-0.29,0.34c-0.68,0.26-1.38,0.37-2.09,0.29c-0.28-0.03-0.54-0.16-0.8-0.27c-0.16-0.07-0.27-0.23-0.2-0.4
		c0.04-0.1,0.19-0.18,0.31-0.22c0.51-0.15,1.03-0.26,1.54-0.42c0.34-0.1,0.67-0.23,1-0.37c0.32-0.14,0.33-0.2,0.21-0.54
		C28.1,26.38,27.97,26.25,28.16,26.1z"/>
	<path class="st1" d="M23.98,14.3c0.01,0.66,0.02,1.32,0.04,1.99c0.01,0.33,0.02,0.33-0.3,0.45c-0.04,0.01-0.07,0.03-0.11,0.05
		c-0.4,0.21-0.54,0.18-0.68-0.21c-0.29-0.83-0.35-1.68-0.1-2.53c0.1-0.35,0.29-0.45,0.61-0.39C23.88,13.74,24.05,13.93,23.98,14.3z"
		/>
	<path class="st7" d="M15.71,28.99c0.18-0.19,0.34-0.37,0.51-0.56c0.67,0.31,1.34,0.61,1.99,0.91c-0.09,0.41-0.47,1.1-0.74,1.35
		C16.66,30.34,16.03,29.74,15.71,28.99z"/>
	<path class="st7" d="M20.32,30.84c0.08-0.32,0.2-0.56,0.45-0.73c0.36-0.24,0.71-0.5,1.07-0.75c0.22,0.19,0.41,0.41,0.64,0.52
		c0.22,0.11,0.5,0.1,0.81,0.16c-0.05,0.19-0.09,0.38-0.16,0.57c-0.02,0.05-0.1,0.11-0.15,0.12C22.11,30.78,21.24,30.93,20.32,30.84z
		"/>
	<path class="st4" d="M22.85,27.44c0.33-0.19,0.64-0.37,0.99-0.57c0.08,0.33-0.01,0.59-0.06,0.85c-0.09,0.43-0.22,0.85-0.28,1.28
		c-0.05,0.34-0.28,0.5-0.55,0.59c-0.24,0.08-0.44-0.08-0.61-0.24c-0.07-0.06-0.12-0.15-0.19-0.23
		C22.46,28.6,22.89,28.14,22.85,27.44z"/>
	<path class="st1" d="M12.25,22.75c0.04,0.12,0.08,0.2,0.09,0.29c0.11,0.83,0.25,1.65,0.56,2.43c0.04,0.1,0.04,0.25,0.01,0.35
		c-0.06,0.2-0.22,0.25-0.37,0.1c-0.14-0.14-0.29-0.3-0.37-0.48c-0.18-0.43-0.3-0.88-0.3-1.35c0-0.29-0.03-0.57-0.03-0.86
		C11.84,23,11.93,22.81,12.25,22.75z"/>
	<path class="st7" d="M28.92,23.34c-0.08-0.26-0.17-0.48-0.22-0.71c-0.02-0.07,0.05-0.18,0.1-0.24c0.14-0.16,0.36-0.3,0.41-0.48
		c0.04-0.16-0.1-0.37-0.19-0.61c0.25-0.01,0.48-0.03,0.71-0.04C29.76,21.68,29.28,22.92,28.92,23.34z"/>
	<path class="st7" d="M28.01,22.51c-0.13,0.23-0.25,0.44-0.42,0.73c-0.25-0.75-0.25-1.45-0.37-2.2c0.2,0.03,0.33,0.05,0.51,0.08
		c-0.05,0.12-0.07,0.21-0.12,0.28c-0.17,0.21-0.11,0.4,0.03,0.59C27.76,22.16,27.88,22.33,28.01,22.51z"/>
	<path class="st1" d="M15.77,28.23c-0.19,0.48-0.39,0.54-0.74,0.23c-0.08-0.07-0.18-0.11-0.31-0.19
		C15.14,28.03,15.45,27.97,15.77,28.23z"/>
	<path class="st1" d="M18.03,23.96c-0.07-0.35-0.07-0.35,0.29-0.31C18.2,23.77,18.11,23.87,18.03,23.96z"/>
	<path class="st0" d="M16.79,22.61c-0.02,0.1-0.04,0.28-0.12,0.43c-0.06,0.1-0.2,0.18-0.32,0.2c-0.16,0.03-0.3-0.07-0.35-0.23
		c-0.14-0.44-0.25-0.89-0.12-1.36c0.02-0.08,0.05-0.16,0.09-0.23c0.16-0.29,0.42-0.3,0.58,0C16.73,21.77,16.78,22.15,16.79,22.61z"
		/>
	<path class="st0" d="M26.42,17.24c0.01-0.22,0.02-0.43,0.03-0.65c0.01-0.18,0.12-0.26,0.3-0.27c0.16,0,0.33,0,0.49,0
		c0.61,0.03,1.22,0.06,1.84,0.09c0.26,0.01,0.52,0.03,0.77,0.06c0.25,0.04,0.34,0.15,0.38,0.41c0.08,0.56-0.03,1.09-0.28,1.59
		c-0.03,0.06-0.07,0.12-0.11,0.17c-0.47,0.54-1.09,0.78-1.78,0.75c-0.88-0.04-1.55-0.79-1.62-1.71c-0.01-0.15,0-0.3,0-0.45
		C26.43,17.24,26.43,17.24,26.42,17.24z M29.86,16.91c-0.07-0.04-0.1-0.06-0.12-0.06c-0.88-0.05-1.76-0.1-2.65-0.15
		c-0.2-0.01-0.26,0.14-0.27,0.29c-0.01,0.27,0,0.54,0.03,0.81c0.05,0.55,0.35,0.95,0.86,1.15c0.49,0.19,1.44-0.08,1.76-0.5
		C29.8,18,29.92,17.48,29.86,16.91z"/>
	<path class="st0" d="M27.02,12.9c-0.04,0.16-0.08,0.39-0.14,0.61c-0.05,0.16-0.15,0.29-0.35,0.3c-0.18,0-0.33-0.08-0.4-0.23
		c-0.07-0.14-0.11-0.31-0.14-0.47c-0.05-0.35,0-0.68,0.17-0.99c0.14-0.25,0.35-0.28,0.57-0.11C27.01,12.23,26.98,12.54,27.02,12.9z"
		/>
	<path class="st0" d="M29.9,12.81c0.03-0.22,0.04-0.44,0.1-0.65c0.1-0.36,0.42-0.44,0.69-0.17c0.07,0.07,0.12,0.15,0.15,0.24
		c0.16,0.49,0.07,0.94-0.21,1.37c-0.1,0.16-0.24,0.17-0.39,0.08c-0.19-0.11-0.3-0.28-0.32-0.5c-0.01-0.12,0-0.25,0-0.37
		C29.91,12.81,29.9,12.81,29.9,12.81z"/>
	<path class="st0" d="M29.87,10.02c-0.26-0.18-0.17-0.36-0.04-0.51c0.34-0.39,0.79-0.49,1.27-0.38c0.64,0.15,1.06,0.59,1.38,1.14
		c0.07,0.12,0.07,0.26-0.08,0.3c-0.07,0.02-0.2-0.06-0.26-0.13c-0.17-0.21-0.29-0.47-0.48-0.64c-0.49-0.44-1.1-0.4-1.59,0.04
		C30.01,9.9,29.95,9.95,29.87,10.02z"/>
	<path class="st0" d="M28.01,13.38c0.29,0.01,0.35,0.12,0.31,0.35c-0.07,0.39-0.12,0.78-0.17,1.18c-0.01,0.09,0,0.19,0,0.31
		c0.15,0.02,0.31,0.02,0.44,0.07c0.09,0.04,0.21,0.16,0.22,0.25c0.01,0.16-0.15,0.16-0.28,0.15c-0.01,0-0.03,0-0.04,0
		c-0.75-0.05-0.86-0.17-0.73-0.83c0.06-0.32,0.06-0.65,0.11-0.98C27.89,13.72,27.96,13.56,28.01,13.38z"/>
	<path class="st8" d="M29.86,16.91c0.06,0.57-0.06,1.09-0.4,1.54c-0.32,0.42-1.27,0.7-1.76,0.5c-0.51-0.2-0.8-0.6-0.86-1.15
		c-0.03-0.27-0.03-0.54-0.03-0.81c0-0.16,0.07-0.3,0.27-0.29c0.88,0.05,1.76,0.1,2.65,0.15C29.76,16.85,29.78,16.87,29.86,16.91z"/>
	
		<ellipse transform="matrix(0.0536 -0.9986 0.9986 0.0536 15.2507 45.8038)" class="st9" cx="31.79" cy="14.86" rx="0.55" ry="1.3"/>
	<ellipse transform="matrix(0.9993 -0.037 0.037 0.9993 -0.8794 0.5804)" class="st9" cx="15.24" cy="24.05" rx="1.09" ry="0.48"/>
	<ellipse transform="matrix(0.0536 -0.9986 0.9986 0.0536 9.5116 39.4403)" class="st9" cx="25.56" cy="14.7" rx="0.55" ry="0.99"/>
</g>
</svg>
