<?xml version="1.0" encoding="utf-8"?>
<!-- Generator: Adobe Illustrator 26.4.1, SVG Export Plug-In . SVG Version: 6.00 Build 0)  -->
<svg version="1.1" id="レイヤー_1" xmlns="http://www.w3.org/2000/svg" xmlns:xlink="http://www.w3.org/1999/xlink" x="0px"
	 y="0px" viewBox="0 0 40 40" style="enable-background:new 0 0 40 40;" xml:space="preserve">
<style type="text/css">
	.st0{fill:#473D3A;}
	.st1{fill:#FCE8CA;}
	.st2{fill:#C89F5C;}
	.st3{fill:#FFFFFF;}
</style>
<g>
	<path class="st0" d="M38.72,30.17c-0.27-0.03-0.51-0.04-0.75-0.08c-2.58-0.41-5.15-0.35-7.74-0.02c-3.02,0.39-5.72,1.58-8.31,3.08
		c-0.53,0.3-1.09,0.55-1.46,1.09c-0.13,0.19-0.34,0.2-0.54,0.06c-1.48-1.02-3.21-1.31-4.93-1.45c-1.93-0.16-3.87-0.2-5.8-0.13
		c-1.17,0.04-2.32,0.39-3.48,0.63c-0.49,0.1-0.98,0.27-1.49,0.42c-0.23-0.17-0.3-0.43-0.35-0.72c-0.41-2.72-0.84-5.44-1.24-8.16
		c-0.2-1.35-0.33-2.71-0.53-4.06c-0.29-1.93-0.37-3.9-0.85-5.8c-0.11-0.41,0.11-0.81,0.54-1.05c0.7-0.4,1.48-0.6,2.26-0.7
		c2.2-0.3,4.4-0.25,6.58,0.11c2.46,0.41,4.86,1.05,7.05,2.31c0.3,0.17,0.54,0.13,0.84-0.03c1.34-0.7,2.66-1.44,4.05-2
		c2.54-1.03,5.17-1.74,7.95-1.79c1.68-0.04,3.34,0.05,4.97,0.47c0.46,0.12,0.69,0.29,0.77,0.83c0.16,1.13,0.52,2.22,0.71,3.34
		c0.38,2.23,0.72,4.47,1.06,6.71c0.2,1.35,0.39,2.7,0.54,4.06c0.09,0.81,0.13,1.62,0.18,2.43C38.78,29.83,38.74,29.97,38.72,30.17z
		 M38.1,29.47c-0.03-0.62-0.02-1.17-0.09-1.71c-0.25-1.9-0.51-3.8-0.8-5.69c-0.38-2.48-0.79-4.95-1.2-7.42
		c-0.06-0.38-0.2-0.75-0.3-1.12c-0.12-0.48-0.45-0.68-0.92-0.76c-3.49-0.63-6.9-0.27-10.24,0.85c-1.92,0.64-3.74,1.52-5.51,2.48
		c-0.32,0.17-0.61,0.38-0.93,0.57c-1.12-0.83-2.37-1.35-3.65-1.77c-1.16-0.38-2.36-0.63-3.55-0.89c-0.63-0.14-1.29-0.23-1.94-0.26
		c-1.53-0.06-3.06-0.12-4.58,0.1c-0.75,0.11-1.49,0.22-2.17,0.6c-0.23,0.13-0.36,0.27-0.31,0.58c0.19,1.1,0.34,2.21,0.5,3.32
		c0.43,2.98,0.86,5.97,1.3,8.95c0.23,1.59,0.47,3.18,0.72,4.78c0.04,0.27,0.12,0.54,0.19,0.86c0.69-0.16,1.3-0.29,1.91-0.45
		c1.07-0.28,2.15-0.45,3.26-0.46c0.86-0.01,1.71,0.01,2.57,0.02c2.57,0.03,5.09,0.3,7.45,1.41c0.21,0.1,0.36,0.07,0.56-0.06
		c0.84-0.54,1.66-1.12,2.55-1.55c2.43-1.18,4.89-2.23,7.64-2.43c1.53-0.11,3.04-0.29,4.58-0.18C36.1,29.31,37.08,29.39,38.1,29.47z"
		/>
	<path class="st1" d="M38.1,29.47c-1.02-0.08-2-0.16-2.97-0.23c-1.53-0.11-3.05,0.07-4.58,0.18c-2.75,0.19-5.22,1.25-7.64,2.43
		c-0.89,0.43-1.71,1.02-2.55,1.55c-0.2,0.13-0.35,0.16-0.56,0.06c-2.36-1.11-4.88-1.38-7.45-1.41c-0.86-0.01-1.71-0.03-2.57-0.02
		c-1.1,0.01-2.19,0.18-3.26,0.46c-0.61,0.16-1.22,0.29-1.91,0.45c-0.07-0.33-0.15-0.59-0.19-0.86c-0.24-1.59-0.48-3.18-0.72-4.78
		c-0.44-2.98-0.87-5.97-1.3-8.95c-0.16-1.11-0.31-2.22-0.5-3.32c-0.05-0.32,0.08-0.45,0.31-0.58c0.67-0.37,1.42-0.49,2.17-0.6
		c1.52-0.22,3.05-0.17,4.58-0.1c0.65,0.03,1.3,0.12,1.94,0.26c1.19,0.26,2.4,0.51,3.55,0.89c1.27,0.42,2.52,0.93,3.65,1.77
		c0.31-0.19,0.61-0.4,0.93-0.57c1.78-0.96,3.59-1.84,5.51-2.48c3.34-1.12,6.75-1.49,10.24-0.85c0.47,0.09,0.8,0.29,0.92,0.76
		c0.1,0.37,0.24,0.74,0.3,1.12c0.41,2.47,0.82,4.95,1.2,7.42c0.29,1.89,0.55,3.79,0.8,5.69C38.08,28.3,38.07,28.85,38.1,29.47z"/>
	<path class="st0" d="M15.95,16.95c0.02,0.24,0.02,0.45,0.06,0.66c0.37,1.88,0.76,3.77,1.16,5.66c0.05,0.23,0.12,0.46,0.13,0.68
		c0.02,0.51-0.15,0.63-0.62,0.42c-1.17-0.51-2.38-0.76-3.6-0.91c-1.06-0.13-2.12-0.16-3.17-0.32c-1.59-0.25-3.09,0.03-4.6,0.42
		c-0.14,0.03-0.26,0.1-0.4,0.16c-0.45,0.18-0.86-0.01-0.92-0.5c-0.24-2.25-0.84-4.45-0.86-6.71c0-0.29-0.05-0.57-0.08-0.84
		c0.52-0.22,1.02-0.46,1.53-0.65c1.25-0.48,2.55-0.57,3.86-0.55c1.38,0.02,2.75,0.18,4.09,0.67c0.54,0.19,1.1,0.27,1.65,0.44
		c0.5,0.15,1,0.36,1.56,0.56c0.05-0.07,0.15-0.18,0.21-0.32c0.4-0.83,0.76-1.68,1.17-2.51c0.15-0.31,0.35-0.6,0.58-0.85
		c1.2-1.39,2.39-2.78,3.56-4.16c0.69-0.83,1.41-1.64,2.1-2.45c0.24-0.28,0.39-0.29,0.67-0.03c0.36,0.32,0.71,0.65,1.07,0.96
		c0.16,0.14,0.22,0.32,0.16,0.5c-0.07,0.2-0.16,0.39-0.28,0.54c-0.65,0.78-1.33,1.52-1.99,2.3c-0.62,0.72-1.22,1.48-1.84,2.22
		c-0.67,0.8-1.32,1.63-2.04,2.38c-0.42,0.44-0.94,0.78-1.44,1.13C17.11,16.22,16.55,16.56,15.95,16.95z M24.64,7.14
		c-0.18-0.21-0.28-0.34-0.39-0.46c-0.4-0.43-0.48-0.43-0.82-0.03c-0.5,0.57-1.01,1.13-1.5,1.72c-1.25,1.48-2.51,2.96-3.8,4.45
		c-0.21,0.24-0.35,0.58-0.51,0.85c0.25,0.24,0.43,0.42,0.62,0.61c0.35,0.08,0.63-0.09,0.85-0.36c0.22-0.26,0.41-0.54,0.63-0.79
		c1.12-1.32,2.23-2.63,3.32-3.94c0.34-0.41,0.71-0.77,1.04-1.18C24.28,7.74,24.44,7.45,24.64,7.14z M9.94,15.24
		c-0.72-0.17-0.85-0.18-1.26-0.03c0.03,1.42,0.03,1.42,1.28,1.34c0.02,0,0.03-0.02,0.12-0.08C10.04,16.1,9.99,15.68,9.94,15.24z
		 M9.26,20.92c0.08,0.51,0.12,0.89,0.21,1.27c0.03,0.12,0.15,0.3,0.25,0.32c0.28,0.07,0.58,0.08,0.89,0.11
		c0.01-0.57,0.09-1.06-0.14-1.57C10.11,21.01,9.75,20.97,9.26,20.92z M14.96,21.87c-0.12,0.46,0,0.82,0.16,1.17
		c0.05,0.1,0.16,0.22,0.26,0.26c0.36,0.14,0.73,0.25,1.12,0.37c0.1-0.38,0-0.71-0.1-1.03c-0.03-0.09-0.11-0.2-0.19-0.24
		C15.81,22.22,15.39,22.06,14.96,21.87z M5.06,15.52c0.1,0.51,0.18,0.93,0.28,1.42c0.39-0.07,0.72-0.14,1.12-0.21
		c-0.08-0.52-0.14-0.97-0.22-1.5C5.82,15.33,5.48,15.42,5.06,15.52z M14.38,18.19c0.03,0.34,0.04,0.67,0.09,0.99
		c0.02,0.12,0.14,0.28,0.24,0.34c0.32,0.17,0.66,0.29,1.05,0.46c-0.05-0.52-0.09-0.94-0.13-1.37
		C15.23,18.44,14.87,18.11,14.38,18.19z M10.13,17.33c-0.43-0.18-0.82-0.19-1.21-0.07c0.02,0.43,0.04,0.83,0.06,1.24
		c0.45,0.08,0.83,0.15,1.21,0.02C10.18,18.1,10.15,17.72,10.13,17.33z M7.11,16.65c0.37-0.06,0.69-0.1,1.03-0.15
		c-0.01-0.22-0.01-0.36-0.02-0.5c-0.07-0.99-0.32-1.14-1.26-0.72c0.04,0.29,0.08,0.59,0.13,0.89C7,16.3,7.05,16.44,7.11,16.65z
		 M12.49,22.78c-0.04-0.52-0.08-0.97-0.12-1.43c-0.41-0.11-0.75-0.29-1.15-0.06c0.06,0.43,0.12,0.87,0.18,1.34
		C11.81,22.68,12.14,22.73,12.49,22.78z M10.52,15.25c0.08,0.5,0.12,0.88,0.21,1.26c0.02,0.09,0.15,0.21,0.25,0.23
		c0.28,0.06,0.56,0.08,0.89,0.11c-0.03-0.42-0.04-0.77-0.08-1.11c-0.01-0.1-0.13-0.24-0.21-0.27
		C11.27,15.38,10.95,15.33,10.52,15.25z M8.66,21.01c-0.45-0.08-0.8-0.11-1.16,0.14c0.07,0.4,0.14,0.79,0.22,1.22
		c0.38,0,0.71,0,1.1,0C8.76,21.9,8.71,21.47,8.66,21.01z M10.9,18.68c0.44,0,0.78,0,1.14,0c-0.03-0.4-0.05-0.76-0.08-1.18
		c-0.4-0.05-0.76-0.1-1.14-0.14C10.85,17.83,10.87,18.21,10.9,18.68z M14.17,21.64c-0.36-0.07-0.69-0.13-1.03-0.19
		c-0.03,0.13-0.05,0.2-0.05,0.28c0.02,1.07,0.18,1.24,1.26,1.27C14.47,22.57,14.25,22.16,14.17,21.64z M8.22,17.13
		c-0.42,0.07-0.75,0.12-1.06,0.17c-0.06,0.75-0.05,0.81,0.21,1.3c0.29-0.02,0.6-0.04,0.91-0.07C8.27,18.08,8.25,17.68,8.22,17.13z
		 M15.38,17.78c0.13-1.13-0.17-1.49-1.26-1.5c0.02,0.28,0.02,0.57,0.08,0.85c0.02,0.12,0.13,0.29,0.24,0.33
		C14.74,17.6,15.06,17.68,15.38,17.78z M6.97,22.55c0.11-0.5,0.02-0.93-0.19-1.41c-0.34,0.1-0.65,0.19-0.97,0.28
		c0.03,0.47-0.02,0.88,0.31,1.27C6.38,22.64,6.65,22.6,6.97,22.55z M10.35,19.26c-0.43-0.02-0.81-0.04-1.27-0.06
		c0.05,0.41,0.09,0.73,0.13,1.05c0.44,0.08,0.83,0.24,1.25,0.06C10.43,19.98,10.39,19.66,10.35,19.26z M11.01,19.32
		c0.04,0.37,0.05,0.64,0.12,0.89c0.03,0.11,0.16,0.26,0.26,0.29c0.28,0.07,0.57,0.09,0.93,0.14c-0.06-0.46-0.1-0.84-0.15-1.25
		C11.76,19.37,11.43,19.35,11.01,19.32z M3.8,17.45c0.3-0.1,0.55-0.17,0.8-0.27c0.07-0.03,0.17-0.16,0.16-0.23
		c-0.05-0.4-0.13-0.79-0.2-1.19c-0.87,0.26-0.89,0.28-0.84,1.12C3.74,17.04,3.77,17.2,3.8,17.45z M13.82,19.24
		c0-0.16,0-0.28-0.01-0.4c-0.08-1-0.11-1.02-1.07-1.07C12.6,19.03,12.81,19.03,13.82,19.24z M14.67,20.21
		c0.02,0.27,0.02,0.5,0.07,0.72c0.03,0.13,0.12,0.3,0.22,0.35c0.35,0.17,0.71,0.3,1.08,0.44C16.11,20.76,15.81,20.43,14.67,20.21z
		 M6.52,18.63c0.05-0.46,0.08-0.86-0.12-1.23c-0.96,0.04-1.16,0.21-0.78,1.39C5.9,18.74,6.19,18.69,6.52,18.63z M12.48,15.84
		c-0.08,1.04-0.01,1.45,1.04,1.29C13.58,15.87,13.45,15.89,12.48,15.84z M6.65,19.27c-0.39,0.07-0.69,0.13-1.02,0.2
		c0,0.42-0.04,0.8,0.17,1.22c0.32-0.08,0.62-0.15,0.96-0.23C6.72,20.05,6.69,19.7,6.65,19.27z M8.5,20.3
		c0.08-0.9,0.03-1.37-1.21-0.96c0.04,0.3,0.08,0.62,0.13,1C7.81,20.33,8.14,20.31,8.5,20.3z M12.92,19.7
		c-0.09,1.06,0.2,1.34,1.13,1.16C14.1,20.12,14.12,19.88,12.92,19.7z M3.82,18.17c0.07,0.42,0.13,0.76,0.19,1.1
		c0.95-0.15,1.08-0.41,0.71-1.41C4.45,17.96,4.17,18.05,3.82,18.17z M4.17,19.96c0.01,0.43-0.05,0.83,0.17,1.2
		c0.8-0.15,0.9-0.4,0.56-1.44C4.67,19.8,4.43,19.88,4.17,19.96z M5.32,22.85c-0.06-0.43-0.1-0.79-0.15-1.15
		c-0.69,0.13-0.71,0.16-0.61,0.7c0.04,0.2,0.1,0.39,0.16,0.63C4.93,22.96,5.1,22.91,5.32,22.85z"/>
	<path class="st2" d="M24.64,7.14c-0.18-0.21-0.28-0.34-0.39-0.46c-0.4-0.43-0.48-0.43-0.82-0.03c-0.5,0.57-1.01,1.13-1.5,1.72
		c-1.25,1.48-2.51,2.96-3.8,4.45c-0.21,0.24-0.35,0.58-0.51,0.85c0.25,0.24,0.43,0.42,0.62,0.61c0.35,0.08,0.63-0.09,0.85-0.36
		c0.22-0.26,0.41-0.54,0.63-0.79c1.12-1.32,2.23-2.63,3.32-3.94c0.34-0.41,0.71-0.77,1.04-1.18C24.28,7.74,24.44,7.45,24.64,7.14z"
		/>
	<path class="st3" d="M16.91,15.05c0.44,0.49,0.7,0.41,1.04-0.31c-0.16-0.16-0.32-0.33-0.54-0.56
		C17.22,14.52,17.07,14.79,16.91,15.05z"/>
</g>
</svg>
