<?xml version="1.0" encoding="utf-8"?>
<!-- Generator: Adobe Illustrator 26.4.1, SVG Export Plug-In . SVG Version: 6.00 Build 0)  -->
<svg version="1.1" id="レイヤー_1" xmlns="http://www.w3.org/2000/svg" xmlns:xlink="http://www.w3.org/1999/xlink" x="0px"
	 y="0px" viewBox="0 0 40 40" style="enable-background:new 0 0 40 40;" xml:space="preserve">
<style type="text/css">
	.st0{fill:#473D3A;}
	.st1{fill:#FAD29B;}
	.st2{fill:#685952;}
	.st3{fill:#FBEBF2;}
	.st4{fill:#EBF6FC;}
	.st5{fill:#C9E8F9;}
	.st6{fill:#F3AB8A;}
	.st7{fill:#F4AD7D;}
</style>
<g>
	<path class="st0" d="M3.21,22.9c0.5-0.4,0.95-0.37,1.47-0.19c1.58,0.56,3.14,1.17,4.56,2.17c0.74-1.12,1.87-1.7,2.99-2.39
		c-0.7-0.84-1.36-1.65-2.03-2.45c-0.03,0-0.07,0.01-0.1,0.01c0,0.17,0,0.33,0,0.5c0,0.11,0.03,0.23-0.01,0.32
		c-0.04,0.09-0.15,0.2-0.23,0.2c-0.08,0-0.21-0.09-0.25-0.17c-0.13-0.27-0.23-0.55-0.32-0.83c-0.06-0.18-0.06-0.37-0.13-0.54
		C9.1,19.4,9.02,19.26,8.9,19.19c-1.15-0.65-1.63-1.69-1.76-2.94c-0.11-1.05,0.29-1.86,1.2-2.39c0.28-0.16,0.27-0.37,0.24-0.61
		c-0.04-0.43-0.09-0.85-0.12-1.28c-0.07-1.3,0.27-2.48,0.82-3.65c0.77-1.64,1.88-2.98,3.23-4.16c1.06-0.93,2.26-1.64,3.56-2.17
		c1.58-0.65,3.24-1.04,4.95-0.98c1.49,0.05,2.95,0.36,4.35,0.93c0.87,0.35,1.71,0.76,2.44,1.34c0.66,0.54,1.34,1.03,2.09,1.45
		c0.53,0.3,0.94,0.78,1.21,1.36c0.33,0.71,0.69,1.41,0.96,2.13c0.2,0.53,0.29,1.11,0.43,1.68c0.22,0.15,0.46,0.1,0.68,0.01
		c0.99-0.4,1.92-0.19,2.76,0.37c0.52,0.35,1,0.78,1.45,1.21c0.73,0.7,0.82,1.65,0.83,2.59c0,0.86-0.2,1.7-0.54,2.5
		c-0.29,0.7-0.47,1.41-0.39,2.17c0.03,0.29,0.06,0.53,0.46,0.58c0.3,0.04,0.36,0.27,0.22,0.55c-0.19,0.37-0.51,0.59-0.88,0.74
		c-0.6,0.24-1.23,0.31-1.87,0.22c-0.71-0.1-1.38-0.33-2-0.69c-0.27-0.15-0.48-0.4-0.75-0.63c-0.4,0.59-0.78,1.22-1.46,1.59
		c-0.7,0.38-1.42,0.35-2.17,0.2c-0.08,0.12-0.17,0.22-0.23,0.33c-0.34,0.58-0.67,1.15-1,1.73c0.2,0.26,0.38,0.49,0.58,0.72
		c0.99,1.16,1.53,2.54,1.97,3.97c0.08,0.28,0.06,0.31-0.36,0.63c0.05,0.2,0.09,0.42,0.15,0.63c0.52,1.95,0.42,3.88-0.2,5.78
		c-0.35,1.09-1.61,1.79-2.74,1.66c-0.8-0.09-1.45-0.43-2.01-0.99c-0.08-0.08-0.15-0.17-0.24-0.24c-0.3-0.23-0.64-0.1-0.71,0.27
		c-0.1,0.59-0.19,1.18-0.28,1.76c-0.08,0.54-0.2,0.63-0.74,0.52c-0.55-0.11-1.08-0.28-1.64-0.35c-1.01-0.13-2.03-0.24-3.05-0.29
		c-1.4-0.07-2.73,0.31-4.04,0.76c-0.6,0.2-1.17,0.48-1.75,0.72c-0.35,0.15-0.67,0.08-0.94-0.15c-1.22-1.04-2.67-1.62-4.15-2.12
		c-0.91-0.31-1.85-0.57-2.84-0.55c-0.36,0-0.51-0.2-0.51-0.59c0-0.22,0.02-0.45,0.03-0.67c0.01-0.36-0.06-0.64-0.32-0.95
		c-0.45-0.55-0.63-1.26-0.69-1.98c-0.01-0.13,0-0.26-0.03-0.39c-0.13-0.7,0.02-1.34,0.48-1.88c0.27-0.32,0.31-0.63,0.26-1.03
		c-0.11-0.9-0.16-1.82-0.26-2.72c-0.08-0.78-0.21-1.55-0.31-2.33C3.25,23.34,3.23,23.12,3.21,22.9z M26.14,7.23
		c-0.17,0.1-0.24,0.13-0.29,0.18c-1.33,1.26-2.9,2.15-4.54,2.92c-0.83,0.39-1.68,0.72-2.6,0.79c-0.17,0.01-0.33,0.07-0.49,0.09
		c-0.65,0.05-1.29,0.09-1.94,0.14c-0.29,0.02-0.61,0-0.88,0.09c-1.21,0.42-2.39,0.95-3.68,1.12c-0.22,0.03-0.35,0.15-0.43,0.38
		c-0.58,1.66-1.02,3.34-1.19,5.1c-0.05,0.52,0.04,0.95,0.36,1.36c0.53,0.67,1.02,1.38,1.59,2.01c0.73,0.8,1.49,1.58,2.49,2.04
		c1.1,0.52,2.25,0.9,3.47,1.01c1.38,0.13,2.75,0.07,4.11-0.21c1.63-0.34,3.08-1.11,4.45-2.01c0.41-0.27,0.7-0.68,0.82-1.16
		c0.5-1.89,0.83-3.82,1.08-5.76c0.03-0.2-0.02-0.33-0.19-0.48c-0.7-0.63-1.23-1.4-1.62-2.25c-0.63-1.37-0.81-2.81-0.66-4.31
		C26.06,7.96,26.09,7.65,26.14,7.23z M28.06,21.11c0.04,0.02,0.07,0.03,0.11,0.05c0.17-0.32,0.37-0.63,0.5-0.96
		c0.48-1.25,0.93-2.51,1.4-3.77c0.05-0.15,0.12-0.29,0.17-0.42c0.57,0.02,0.3,0.49,0.47,0.75c0.1-0.07,0.18-0.1,0.24-0.16
		c0.33-0.34,0.53-0.76,0.67-1.21c0.45-1.54,0.57-3.1,0.4-4.7c-0.17-1.66-0.63-3.22-1.53-4.62c-0.42-0.65-0.91-1.28-1.81-1.31
		c-0.09,0-0.21-0.09-0.26-0.17c-0.53-0.74-1.31-1.15-2.07-1.57c-1.19-0.64-2.46-1.02-3.8-1.24c-1.08-0.18-2.14-0.21-3.22-0.05
		c-2.66,0.38-4.97,1.47-6.94,3.32c-1.3,1.22-2.26,2.66-2.96,4.29c-0.56,1.32-0.57,2.68-0.28,4.05c0.02,0.11,0.09,0.2,0.18,0.39
		c0.08-0.34,0.14-0.57,0.2-0.8c0.06-0.22,0.07-0.49,0.47-0.5c0.06,0.68-0.14,1.31-0.21,1.94c-0.07,0.64-0.13,1.28-0.2,1.92
		c0.15-0.12,0.19-0.25,0.23-0.39c0.27-0.91,0.54-1.82,0.79-2.73c0.09-0.31,0.14-0.64,0.21-1.02c0.03-0.01,0.14-0.07,0.24-0.08
		c0.92-0.08,1.77-0.38,2.64-0.68c2.04-0.7,3.91-1.72,5.6-3.07c0.34-0.27,0.5-0.31,0.61-0.13c0.17,0.28-0.08,0.42-0.24,0.54
		c-0.72,0.53-1.45,1.03-2.19,1.54c-0.2,0.14-0.41,0.28-0.7,0.47c2.53,0.09,7.05-1.74,9.62-4.83c0.58,0.15,0.6,0.18,0.46,0.69
		c-0.43,1.64-0.48,3.28-0.01,4.91c0.33,1.14,0.97,2.1,1.88,2.84c0.25,0.21,0.37,0.39,0.33,0.69c-0.02,0.17-0.02,0.33-0.04,0.5
		c-0.21,1.72-0.48,3.43-0.9,5.11C28.09,20.82,28.08,20.97,28.06,21.11z M25.18,26.15c-0.31-0.06-0.51-0.12-0.71-0.13
		c-1.71-0.09-3.42-0.05-5.11,0.3c-0.66,0.14-1.3,0.32-1.96,0.46c-1.12,0.23-2.18,0.6-3.2,1.12c-0.58,0.3-0.91,0.65-0.98,1.38
		c-0.26,2.71-0.52,5.41-0.68,8.12c-0.02,0.25,0,0.5,0,0.79c0.15-0.04,0.23-0.05,0.29-0.07c0.96-0.3,1.91-0.62,2.88-0.9
		c1.03-0.3,2.08-0.39,3.15-0.32c1.21,0.07,2.41,0.18,3.59,0.48c0.24,0.06,0.51,0.05,0.82,0.08c0.12-0.7,0.23-1.35,0.34-2
		c-0.21-0.09-0.38-0.13-0.52-0.22c-0.17-0.11-0.37-0.23-0.44-0.4c-0.18-0.44-0.32-0.91-0.42-1.38c-0.05-0.22,0.01-0.49,0.08-0.71
		c0.07-0.22,0.11-0.41,0.07-0.65c-0.08-0.44,0.06-0.82,0.47-1.05c0.31-0.17,0.64-0.29,0.96-0.42c0.19-0.07,0.38-0.11,0.56-0.16
		C24.64,29.02,24.9,27.62,25.18,26.15z M12.74,28.39c-0.21-0.19-0.37-0.34-0.54-0.48c-0.56-0.49-1.1-0.99-1.68-1.46
		c-0.33-0.27-0.73-0.45-1.06-0.72c-1.49-1.2-3.23-1.89-5.02-2.51c-0.18-0.06-0.38-0.06-0.61-0.1c0.01,0.23,0.01,0.37,0.03,0.51
		c0.17,1.53,0.34,3.07,0.51,4.6c0.05,0.45,0.1,0.5,0.55,0.41c1.01-0.22,1.66,0.62,1.27,1.39c-0.12,0.23-0.09,0.42,0.08,0.61
		c0.26,0.29,0.24,0.59,0.05,0.93c-0.07,0.13-0.11,0.32-0.08,0.46c0.18,0.78-0.07,1.35-0.76,1.73C5.34,33.85,5.22,33.96,5.08,34
		c-0.34,0.09-0.42,0.32-0.4,0.63c0.01,0.15-0.01,0.3,0,0.45c0.01,0.41,0.05,0.46,0.47,0.54c0.4,0.07,0.82,0.09,1.21,0.2
		c1.83,0.51,3.62,1.15,5.2,2.24c0.08,0.06,0.19,0.09,0.3,0.14C12.16,34.89,12.45,31.63,12.74,28.39z M31.61,16.9
		c0.11,0.07,0.2,0.14,0.29,0.2c0.43,0.3,0.61,0.74,0.65,1.24c0.05,0.69,0.37,1.21,1.04,1.44c0.54,0.19,1.1,0.34,1.66,0.48
		c0.41,0.1,0.81,0.03,1.21-0.11c0.44-0.15,0.54-0.36,0.41-0.8c-0.07-0.23-0.13-0.47-0.16-0.7c-0.1-0.8,0.12-1.55,0.41-2.28
		c0.46-1.17,0.69-2.36,0.34-3.6c-0.06-0.21-0.14-0.44-0.28-0.59c-0.4-0.44-0.81-0.88-1.28-1.24c-0.57-0.44-1.25-0.69-1.99-0.58
		c-0.43,0.06-0.85,0.23-1.31,0.36C32.76,12.86,32.66,14.93,31.61,16.9z M25.24,35.31c0.11,0.1,0.23,0.23,0.36,0.33
		c0.15,0.11,0.3,0.22,0.46,0.31c1.43,0.81,2.87-0.13,3.25-1.22c0.25-0.72,0.31-1.45,0.4-2.19c0.14-1.12,0.06-2.23-0.29-3.31
		c-0.07-0.22-0.19-0.43-0.29-0.65c-0.62,0.09-1.19,0.16-1.76,0.26c-0.58,0.1-1.16,0.21-1.75,0.33c-0.09,0.38,0.04,0.72,0.23,1.05
		c0.14,0.25,0.25,0.53,0.4,0.79c0.07,0.12,0.15,0.24,0.27,0.31c0.44,0.25,0.89,0.46,1.32,0.71c0.13,0.07,0.24,0.2,0.36,0.3
		c-0.35,0.36-0.39,0.39-0.61,0.16c-0.36-0.35-0.77-0.58-1.25-0.71c-0.34-0.09-0.48-0.29-0.52-0.63c-0.03-0.21-0.13-0.42-0.24-0.61
		c-0.1-0.18-0.28-0.36-0.5-0.2c-0.18,0.13-0.12,0.32,0.01,0.49c0.06,0.08,0.08,0.18,0.14,0.35c-0.21-0.03-0.36-0.03-0.49-0.06
		c-0.57-0.15-1.07,0.03-1.54,0.31c-0.36,0.22-0.41,0.51-0.23,0.91c0.03,0.07,0.06,0.13,0.1,0.21c-0.06,0.08-0.1,0.16-0.16,0.24
		c-0.27,0.37-0.34,0.73-0.02,1.12c0.07,0.09,0.09,0.23,0.11,0.35c0.05,0.39,0.11,0.49,0.48,0.56c0.39,0.08,0.77,0.11,1.14-0.09
		c0.19-0.1,0.37-0.14,0.58,0C25.45,34.9,25.22,35.1,25.24,35.31z M25.31,28.45c0.64,0.07,3.73-0.37,4.18-0.6
		c-0.08-0.29-0.13-0.6-0.24-0.89c-0.41-1-0.86-1.98-1.59-2.8c-0.2-0.22-0.33-0.49-0.69-0.49c-0.09,0-0.19-0.1-0.27-0.18
		c-0.4-0.42-0.4-0.43-0.91-0.12c-1.16,0.71-2.41,1.17-3.72,1.48c-0.34,0.08-0.5,0.3-0.68,0.61c0.81,0,1.55-0.02,2.3,0.01
		c0.56,0.02,1.11,0.07,1.67,0.15c0.36,0.05,0.4,0.19,0.34,0.55C25.54,26.92,25.43,27.67,25.31,28.45z M17.54,26.21
		c0-0.05,0-0.1,0-0.15c-0.19-0.07-0.38-0.12-0.57-0.2c-0.65-0.25-1.23-0.6-1.59-1.25c-0.09-0.16-0.28-0.3-0.45-0.37
		c-0.64-0.26-1.26-0.58-1.76-1.06c-0.3-0.29-0.58-0.3-0.89-0.09c-0.63,0.42-1.27,0.85-1.89,1.28c-0.3,0.21-0.47,0.51-0.6,0.79
		c1.14,0.92,2.25,1.82,3.39,2.73C14.52,27.11,15.96,26.47,17.54,26.21z M3.58,31.29c0.04,0.39,0.05,0.84,0.13,1.28
		c0.2,1.11,0.75,1.31,1.65,0.62c0.5-0.38,0.53-0.51,0.33-1.14c-0.07-0.22-0.1-0.41,0.05-0.63c0.24-0.34,0.23-0.37-0.08-0.69
		c-0.21-0.21-0.21-0.42-0.09-0.66c0.05-0.1,0.11-0.2,0.15-0.3c0.14-0.38-0.02-0.63-0.43-0.62c-0.41,0.01-0.77,0.14-0.96,0.55
		c-0.06,0.13-0.13,0.29-0.25,0.36C3.63,30.35,3.59,30.78,3.58,31.29z M29.14,20.78c0.32,0.17,0.6,0.14,0.87,0.08
		c0.93-0.19,1.47-0.83,1.82-1.65c0.16-0.38,0.23-0.79,0.11-1.2c-0.13-0.44-0.47-0.73-0.88-0.73c-0.43-0.01-0.67,0.17-0.86,0.65
		c-0.32,0.81-0.64,1.63-0.96,2.44C29.21,20.49,29.19,20.61,29.14,20.78z M8.99,18.64c0.03-0.21,0.05-0.33,0.06-0.46
		c0.04-1.1,0.08-2.19,0.12-3.29c0-0.07,0.01-0.15,0-0.22c-0.05-0.42-0.38-0.56-0.71-0.33c-0.1,0.07-0.2,0.17-0.28,0.27
		c-0.85,0.99-0.72,2.78,0.27,3.64C8.59,18.39,8.76,18.49,8.99,18.64z M16.18,24.72c0.95,0.97,3.11,1.16,4.24,0.31
		C18.9,25.22,17.54,25.01,16.18,24.72z"/>
	<path class="st1" d="M26.14,7.23c-0.05,0.42-0.08,0.73-0.11,1.04c-0.16,1.49,0.03,2.94,0.66,4.31c0.39,0.85,0.92,1.62,1.62,2.25
		c0.16,0.15,0.21,0.28,0.19,0.48c-0.25,1.94-0.59,3.86-1.08,5.76c-0.13,0.48-0.42,0.9-0.82,1.16c-1.37,0.9-2.82,1.68-4.45,2.01
		c-1.36,0.28-2.73,0.34-4.11,0.21c-1.22-0.11-2.37-0.5-3.47-1.01c-0.99-0.47-1.76-1.25-2.49-2.04c-0.58-0.63-1.07-1.34-1.59-2.01
		c-0.31-0.4-0.41-0.83-0.36-1.36c0.17-1.75,0.61-3.44,1.19-5.1c0.08-0.22,0.2-0.35,0.43-0.38c1.29-0.17,2.47-0.7,3.68-1.12
		c0.27-0.09,0.58-0.07,0.88-0.09c0.65-0.05,1.29-0.09,1.94-0.14c0.17-0.01,0.33-0.08,0.49-0.09c0.93-0.06,1.78-0.4,2.6-0.79
		c1.64-0.77,3.21-1.66,4.54-2.92C25.9,7.36,25.97,7.33,26.14,7.23z M15.76,20.56c-0.03,0.9,0.09,1.65,0.58,2.31
		c0.41,0.56,0.98,0.65,1.62,0.72c1.34,0.15,2.54-0.9,2.77-2.16c0.09-0.51-0.09-0.74-0.6-0.76c-0.97-0.04-1.93-0.09-2.9-0.12
		C16.76,20.54,16.3,20.56,15.76,20.56z M23.15,15.86c0-0.41-0.2-0.7-0.51-0.78c-0.29-0.08-0.56,0.06-0.72,0.46
		c-0.13,0.32-0.19,0.67-0.27,1.01c-0.09,0.37,0.01,0.69,0.28,0.96c0.26,0.27,0.37,0.28,0.63,0.03
		C23.03,17.08,23.09,16.47,23.15,15.86z M14.98,14.3c-0.4,0.6-0.62,1.21-0.51,1.9c0.03,0.22,0.18,0.45,0.34,0.6
		c0.25,0.23,0.49,0.17,0.62-0.15c0.14-0.34,0.26-0.7,0.35-1.06C15.95,14.9,15.77,14.61,14.98,14.3z M23.24,11.72
		c-0.36-0.02-0.69,0.21-0.98,0.52c-0.14,0.15-0.22,0.34-0.02,0.48c0.07,0.05,0.28-0.03,0.37-0.11c0.4-0.38,0.85-0.46,1.33-0.22
		c0.5,0.25,0.86,0.64,0.98,1.21c0.02,0.09,0,0.2,0.05,0.27c0.05,0.08,0.16,0.18,0.24,0.18c0.09,0,0.21-0.09,0.25-0.17
		c0.05-0.09,0.05-0.22,0.03-0.32C25.33,12.69,24.2,11.73,23.24,11.72z M18.18,17.93c-0.43-0.02-0.73,0.26-0.75,0.71
		c-0.02,0.43,0.43,0.9,0.88,0.91c0.39,0.01,0.84-0.37,0.87-0.72C19.21,18.33,18.81,17.96,18.18,17.93z"/>
	<path class="st2" d="M28.06,21.11c0.02-0.14,0.03-0.28,0.06-0.42c0.42-1.68,0.69-3.39,0.9-5.11c0.02-0.17,0.02-0.33,0.04-0.5
		c0.03-0.3-0.08-0.48-0.33-0.69c-0.91-0.75-1.55-1.7-1.88-2.84c-0.47-1.63-0.42-3.27,0.01-4.91C27,6.11,26.98,6.08,26.4,5.94
		c-2.57,3.09-7.09,4.92-9.62,4.83c0.29-0.2,0.5-0.33,0.7-0.47c0.73-0.51,1.47-1.02,2.19-1.54c0.16-0.12,0.42-0.26,0.24-0.54
		c-0.11-0.18-0.27-0.14-0.61,0.13c-1.69,1.35-3.55,2.36-5.6,3.07c-0.87,0.3-1.72,0.6-2.64,0.68c-0.11,0.01-0.21,0.07-0.24,0.08
		c-0.08,0.38-0.13,0.7-0.21,1.02c-0.26,0.91-0.53,1.82-0.79,2.73c-0.04,0.14-0.08,0.27-0.23,0.39c0.07-0.64,0.13-1.28,0.2-1.92
		c0.07-0.63,0.27-1.26,0.21-1.94c-0.4,0.02-0.41,0.28-0.47,0.5c-0.06,0.23-0.12,0.47-0.2,0.8c-0.09-0.19-0.16-0.28-0.18-0.39
		c-0.29-1.38-0.28-2.74,0.28-4.05c0.7-1.63,1.66-3.07,2.96-4.29c1.97-1.85,4.27-2.94,6.94-3.32c1.08-0.15,2.14-0.13,3.22,0.05
		c1.34,0.23,2.61,0.6,3.8,1.24c0.77,0.42,1.54,0.83,2.07,1.57c0.06,0.08,0.17,0.17,0.26,0.17c0.9,0.03,1.39,0.66,1.81,1.31
		c0.9,1.4,1.36,2.96,1.53,4.62c0.17,1.6,0.05,3.16-0.4,4.7c-0.13,0.45-0.33,0.87-0.67,1.21c-0.06,0.06-0.14,0.1-0.24,0.16
		c-0.17-0.26,0.1-0.74-0.47-0.75c-0.05,0.12-0.11,0.27-0.17,0.42c-0.46,1.26-0.92,2.52-1.4,3.77c-0.13,0.34-0.33,0.64-0.5,0.96
		C28.14,21.14,28.1,21.12,28.06,21.11z"/>
	<path class="st3" d="M25.18,26.15c-0.28,1.47-0.54,2.87-0.81,4.33c-0.17,0.05-0.37,0.08-0.56,0.16c-0.33,0.13-0.66,0.25-0.96,0.42
		c-0.4,0.22-0.55,0.6-0.47,1.05c0.04,0.23,0,0.43-0.07,0.65c-0.07,0.22-0.13,0.49-0.08,0.71c0.1,0.47,0.24,0.93,0.42,1.38
		c0.07,0.17,0.28,0.29,0.44,0.4c0.14,0.09,0.3,0.13,0.52,0.22c-0.11,0.65-0.22,1.3-0.34,2c-0.32-0.03-0.58-0.01-0.82-0.08
		c-1.18-0.3-2.38-0.41-3.59-0.48c-1.07-0.07-2.12,0.02-3.15,0.32c-0.96,0.28-1.92,0.6-2.88,0.9c-0.07,0.02-0.14,0.03-0.29,0.07
		c0-0.29-0.01-0.54,0-0.79c0.16-2.71,0.42-5.42,0.68-8.12c0.07-0.74,0.4-1.09,0.98-1.38c1.02-0.52,2.08-0.89,3.2-1.12
		c0.66-0.13,1.3-0.32,1.96-0.46c1.69-0.35,3.4-0.39,5.11-0.3C24.67,26.03,24.87,26.09,25.18,26.15z"/>
	<path class="st4" d="M12.74,28.39c-0.29,3.24-0.58,6.49-0.87,9.79c-0.11-0.05-0.22-0.08-0.3-0.14c-1.59-1.09-3.37-1.73-5.2-2.24
		c-0.39-0.11-0.81-0.13-1.21-0.2c-0.43-0.07-0.47-0.12-0.47-0.54c0-0.15,0.01-0.3,0-0.45c-0.02-0.31,0.06-0.54,0.4-0.63
		c0.14-0.04,0.26-0.15,0.39-0.22c0.69-0.39,0.95-0.96,0.76-1.73c-0.03-0.14,0-0.33,0.08-0.46c0.19-0.33,0.21-0.63-0.05-0.93
		c-0.17-0.19-0.19-0.38-0.08-0.61c0.39-0.78-0.27-1.61-1.27-1.39c-0.45,0.1-0.5,0.05-0.55-0.41c-0.17-1.53-0.34-3.07-0.51-4.6
		c-0.02-0.14-0.02-0.29-0.03-0.51c0.24,0.04,0.44,0.03,0.61,0.1c1.78,0.61,3.52,1.3,5.02,2.51c0.33,0.27,0.73,0.45,1.06,0.72
		c0.58,0.47,1.12,0.97,1.68,1.46C12.36,28.06,12.52,28.2,12.74,28.39z"/>
	<path class="st2" d="M31.61,16.9c1.05-1.97,1.15-4.04,1-6.18c0.46-0.13,0.88-0.3,1.31-0.36c0.74-0.11,1.42,0.14,1.99,0.58
		c0.47,0.36,0.87,0.8,1.28,1.24c0.14,0.15,0.22,0.38,0.28,0.59c0.36,1.24,0.13,2.43-0.34,3.6c-0.29,0.73-0.51,1.48-0.41,2.28
		c0.03,0.24,0.09,0.47,0.16,0.7c0.13,0.44,0.03,0.65-0.41,0.8c-0.39,0.14-0.8,0.21-1.21,0.11c-0.56-0.14-1.12-0.29-1.66-0.48
		c-0.67-0.23-0.99-0.75-1.04-1.44c-0.04-0.51-0.23-0.94-0.65-1.24C31.81,17.03,31.72,16.97,31.61,16.9z"/>
	<path class="st1" d="M25.24,35.31c-0.02-0.21,0.21-0.4-0.05-0.58c-0.2-0.14-0.39-0.1-0.58,0c-0.37,0.2-0.76,0.16-1.14,0.09
		c-0.37-0.08-0.44-0.17-0.48-0.56c-0.01-0.12-0.04-0.26-0.11-0.35c-0.32-0.39-0.25-0.75,0.02-1.12c0.05-0.07,0.1-0.15,0.16-0.24
		c-0.03-0.08-0.06-0.14-0.1-0.21c-0.18-0.4-0.13-0.68,0.23-0.91c0.47-0.29,0.97-0.46,1.54-0.31c0.13,0.04,0.28,0.04,0.49,0.06
		c-0.07-0.17-0.08-0.28-0.14-0.35c-0.13-0.17-0.19-0.36-0.01-0.49c0.22-0.16,0.39,0.01,0.5,0.2c0.11,0.19,0.21,0.4,0.24,0.61
		c0.05,0.34,0.18,0.54,0.52,0.63c0.47,0.12,0.89,0.35,1.25,0.71c0.22,0.22,0.27,0.2,0.61-0.16c-0.12-0.1-0.23-0.23-0.36-0.3
		c-0.44-0.24-0.89-0.46-1.32-0.71c-0.11-0.06-0.2-0.19-0.27-0.31c-0.14-0.26-0.25-0.53-0.4-0.79c-0.19-0.33-0.31-0.67-0.23-1.05
		c0.6-0.11,1.17-0.23,1.75-0.33c0.57-0.09,1.14-0.17,1.76-0.26c0.1,0.22,0.22,0.43,0.29,0.65c0.35,1.08,0.43,2.19,0.29,3.31
		c-0.09,0.74-0.15,1.47-0.4,2.19c-0.38,1.09-1.81,2.03-3.25,1.22c-0.16-0.09-0.32-0.2-0.46-0.31
		C25.46,35.54,25.35,35.41,25.24,35.31z"/>
	<path class="st5" d="M25.31,28.45c0.12-0.78,0.23-1.53,0.36-2.28c0.06-0.36,0.02-0.5-0.34-0.55c-0.55-0.08-1.11-0.13-1.67-0.15
		c-0.74-0.03-1.49-0.01-2.3-0.01c0.18-0.32,0.34-0.53,0.68-0.61c1.31-0.31,2.56-0.77,3.72-1.48c0.51-0.31,0.52-0.29,0.91,0.12
		c0.07,0.08,0.18,0.18,0.27,0.18c0.36,0,0.5,0.27,0.69,0.49c0.83,0.66,1.24,1.71,1.59,2.8c0.12,0.29,0.17,0.6,0.24,0.89
		C29.04,28.08,25.96,28.53,25.31,28.45z"/>
	<path class="st5" d="M17.54,26.21c-1.58,0.26-3.02,0.9-4.36,1.7c-1.14-0.92-2.24-1.81-3.39-2.73c0.13-0.28,0.31-0.58,0.6-0.79
		c0.63-0.43,1.26-0.86,1.89-1.28c0.31-0.21,0.59-0.21,0.89,0.09c0.5,0.48,1.11,0.8,1.76,1.06c0.17,0.07,0.36,0.21,0.45,0.37
		c0.35,0.65,0.93,0.99,1.59,1.25c0.19,0.07,0.38,0.13,0.57,0.2C17.54,26.11,17.54,26.16,17.54,26.21z"/>
	<path class="st1" d="M3.58,31.29c0.01-0.51,0.06-0.94,0.5-1.23c0.11-0.07,0.18-0.23,0.25-0.36c0.2-0.41,0.55-0.54,0.96-0.55
		c0.4-0.01,0.57,0.24,0.43,0.62c-0.04,0.1-0.1,0.2-0.15,0.3c-0.12,0.24-0.11,0.45,0.09,0.66c0.31,0.32,0.32,0.34,0.08,0.69
		c-0.15,0.22-0.12,0.41-0.05,0.63c0.2,0.63,0.17,0.76-0.33,1.14c-0.9,0.68-1.44,0.48-1.65-0.62C3.63,32.13,3.62,31.68,3.58,31.29z"
		/>
	<path class="st1" d="M29.14,20.78c0.04-0.17,0.06-0.3,0.11-0.41c0.32-0.82,0.64-1.63,0.96-2.44c0.19-0.48,0.43-0.66,0.86-0.65
		c0.41,0.01,0.75,0.29,0.88,0.73c0.12,0.41,0.05,0.82-0.11,1.2c-0.35,0.82-0.89,1.46-1.82,1.65C29.74,20.92,29.47,20.95,29.14,20.78
		z"/>
	<path class="st1" d="M8.99,18.64c-0.22-0.16-0.4-0.25-0.55-0.38c-0.99-0.86-1.12-2.65-0.27-3.64c0.08-0.1,0.18-0.19,0.28-0.27
		c0.34-0.24,0.66-0.09,0.71,0.33c0.01,0.07,0,0.15,0,0.22c-0.04,1.1-0.08,2.19-0.12,3.29C9.04,18.31,9.01,18.43,8.99,18.64z"/>
	<path class="st1" d="M16.18,24.72c1.36,0.29,2.72,0.5,4.24,0.31C19.29,25.88,17.13,25.69,16.18,24.72z"/>
	<path class="st0" d="M15.76,20.56c0.54,0,1-0.01,1.46,0c0.97,0.03,1.94,0.07,2.9,0.12c0.51,0.02,0.7,0.26,0.6,0.76
		c-0.23,1.26-1.43,2.3-2.77,2.16c-0.63-0.07-1.21-0.16-1.62-0.72C15.86,22.2,15.74,21.46,15.76,20.56z M20.23,21.26
		c-0.4-0.04-0.74-0.09-1.09-0.11c-0.81-0.03-1.63-0.06-2.44-0.05c-0.43,0-0.47,0.08-0.41,0.52c0.12,0.87,0.58,1.31,1.45,1.38
		c0.13,0.01,0.26,0.02,0.39,0.02c0.95,0.01,1.54-0.53,1.98-1.3C20.19,21.6,20.19,21.45,20.23,21.26z"/>
	<path class="st0" d="M23.15,15.86c-0.05,0.6-0.12,1.21-0.59,1.68c-0.26,0.26-0.37,0.24-0.63-0.03c-0.27-0.28-0.38-0.59-0.28-0.96
		c0.09-0.34,0.14-0.69,0.27-1.01c0.16-0.4,0.43-0.54,0.72-0.46C22.95,15.16,23.14,15.46,23.15,15.86z"/>
	<path class="st0" d="M14.98,14.3c0.79,0.31,0.96,0.6,0.8,1.3c-0.08,0.36-0.2,0.72-0.35,1.06c-0.13,0.31-0.37,0.37-0.62,0.15
		c-0.16-0.15-0.31-0.39-0.34-0.6C14.36,15.52,14.59,14.9,14.98,14.3z"/>
	<path class="st0" d="M23.24,11.72c0.96,0.01,2.1,0.97,2.24,1.84c0.02,0.1,0.02,0.23-0.03,0.32c-0.05,0.08-0.16,0.17-0.25,0.17
		c-0.08,0-0.19-0.1-0.24-0.18c-0.05-0.07-0.03-0.18-0.05-0.27c-0.11-0.57-0.48-0.96-0.98-1.21c-0.48-0.24-0.93-0.17-1.33,0.22
		c-0.09,0.08-0.3,0.16-0.37,0.11c-0.2-0.14-0.12-0.33,0.02-0.48C22.54,11.93,22.88,11.7,23.24,11.72z"/>
	<path class="st0" d="M18.18,17.93c0.63,0.04,1.03,0.4,1,0.89c-0.03,0.36-0.48,0.73-0.87,0.72c-0.45-0.01-0.9-0.48-0.88-0.91
		C17.44,18.19,17.75,17.9,18.18,17.93z M18.67,18.66c-0.02-0.21-0.18-0.24-0.35-0.25c-0.24-0.02-0.46,0.15-0.41,0.33
		c0.03,0.12,0.16,0.25,0.27,0.29C18.36,19.09,18.65,18.85,18.67,18.66z"/>
	<path class="st6" d="M20.23,21.26c-0.04,0.19-0.05,0.34-0.11,0.46c-0.44,0.77-1.03,1.31-1.98,1.3c-0.13,0-0.26-0.01-0.39-0.02
		c-0.87-0.07-1.34-0.51-1.45-1.38c-0.06-0.43-0.02-0.51,0.41-0.52c0.81-0.01,1.63,0.02,2.44,0.05
		C19.49,21.17,19.84,21.22,20.23,21.26z"/>
	<path class="st1" d="M18.67,18.66c-0.01,0.2-0.3,0.43-0.49,0.37c-0.11-0.04-0.24-0.17-0.27-0.29c-0.05-0.19,0.17-0.35,0.41-0.33
		C18.48,18.41,18.65,18.45,18.67,18.66z"/>
	
		<ellipse transform="matrix(0.1081 -0.9941 0.9941 0.1081 -6.9717 28.4258)" class="st7" cx="12.36" cy="18.1" rx="0.75" ry="1.78"/>
	<ellipse transform="matrix(0.1081 -0.9941 0.9941 0.1081 2.763 41.9564)" class="st7" cx="24.76" cy="19.44" rx="0.75" ry="1.78"/>
</g>
</svg>
